<?xml version="1.0" standalone="no"?>
<!DOCTYPE svg PUBLIC "-//W3C//DTD SVG 1.1//EN" "http://www.w3.org/Graphics/SVG/1.1/DTD/svg11.dtd" >
<svg>
<metadata>
Created by FontForge 20120731 at Wed Nov 12 05:23:32 2014
 By Orthosie Webhosting
Copyright (c) 1990-2005 ParaType Inc.. All Rights Reserved. Charter is a registered trade mark of International Typeface Corporation.
</metadata>
<defs>
<font id="CharterITCBoldItalic" horiz-adv-x="500" >
  <font-face 
    font-family="CharterITCBoldItalic"
    font-weight="700"
    font-style="italic"
    font-stretch="normal"
    units-per-em="1000"
    panose-1="2 6 7 3 5 5 6 9 2 3"
    ascent="800"
    descent="-200"
    x-height="489"
    cap-height="671"
    bbox="-309 -298 1243 960"
    underline-thickness="50"
    underline-position="-50"
    slope="-10.6"
    unicode-range="U+0020-FB02"
  />
<missing-glyph horiz-adv-x="233" 
 />
    <glyph glyph-name="IJ" unicode="IJ" horiz-adv-x="808" 
d="M86 671h282v-48l-65 -6l-16 -14l-100 -534l12 -14l65 -7v-48h-284v48l66 7l15 14l100 534l-10 14l-65 6v48zM547 671h284v-48l-67 -6l-14 -14l-56 -335q-26 -157 -97 -224q-60 -57 -165 -57q-74 0 -141 27l34 178h72v-136l13 -12h8q30 0 52 10.5t36 27t25.5 48t18 61
t15.5 79.5l59 333l-10 14l-67 6v48z" />
    <glyph glyph-name="ij" unicode="ij" horiz-adv-x="580" 
d="M199 493h44l-63 -338q-5 -40 -5 -43q0 -53 48 -53q21 0 70 14v-41q-112 -38 -167 -38q-37 0 -57.5 20t-20.5 56q0 24 9 68l53 269l-82 12v35zM219 727q30 0 47 -17.5t17 -47.5q0 -33 -20 -54.5t-56 -21.5q-31 0 -48 17.5t-17 47.5q0 33 21 54.5t56 21.5zM398 407l-90 12
v35l179 39h44l-54 -338q-23 -145 -60.5 -213t-112.5 -118q-57 -38 -101 -38q-28 0 -47 17.5t-19 44.5q0 39 34 59l117 -47q40 51 64 230zM499 727q30 0 47 -17.5t17 -47.5q0 -33 -20 -54.5t-56 -21.5q-31 0 -48 17.5t-17 47.5q0 33 21 54.5t56 21.5z" />
    <glyph glyph-name="afii10017.var.accented" unicode="&#x410;`" horiz-adv-x="636" 
d="M339 677h103l103 -608l10 -14l58 -7v-48h-263v48l61 7l11 14l-28 167h-223l-92 -167l10 -14l59 -7v-48h-215v48l56 7zM342 551l-141 -260h183zM472 887h131l-191 -155h-75z" />
    <glyph glyph-name="afii10022.var.accented" unicode="&#x415;`" horiz-adv-x="578" 
d="M82 671h495l-30 -156h-64v88l-12 12h-187l-45 -240h122l15 14l24 74h57l-43 -233h-52v75l-13 14h-120l-49 -261h224l14 14l38 107h66l-33 -179h-513v48l65 7l14 14l100 534l-9 14l-64 6v48zM443 887h131l-191 -155h-75z" />
    <glyph glyph-name="afii10026.var.accented" unicode="&#x418;`" horiz-adv-x="748" 
d="M84 671h276v-48l-65 -6l-13 -14l-78 -410l365 390l4 20l-13 14l-60 6v48h278v-48l-66 -6l-13 -14l-100 -534l9 -14l64 -7v-48h-278v48l63 7l16 14l79 420l-365 -390l-5 -30l11 -14l64 -7v-48h-281v48l64 7l16 14l100 534l-10 14l-62 6v48zM528 887h131l-191 -155h-75z
" />
    <glyph glyph-name="afii10032.var.accented" unicode="&#x41e;`" horiz-adv-x="728" 
d="M418 684q117 0 193 -71q81 -74 81 -208q0 -105 -45 -200t-133 -156.5t-198 -61.5q-131 0 -207 84q-69 76 -69 199q0 98 43 192.5t119 151.5q92 70 216 70zM404 623q-61 0 -114 -57t-82.5 -140.5t-29.5 -167.5q0 -88 36 -146q41 -64 113 -64q89 0 154 100q73 111 73 263
q0 32 -5 62.5t-19 67.5t-46.5 59.5t-79.5 22.5zM518 887h131l-191 -155h-75z" />
    <glyph glyph-name="afii10037.var.accented" unicode="&#x423;`" horiz-adv-x="616" 
d="M42 671h277v-48l-62 -6l-10 -14l113 -329l174 329l-10 14l-64 6v48h224v-48l-64 -6l-238 -431q-62 -114 -118 -156q-57 -43 -127 -43q-62 0 -117 27l31 163h75v-121l13 -12q42 1 80.5 34t61.5 81l-167 450l-9 8l-63 6v48zM462 887h131l-191 -155h-75z" />
    <glyph glyph-name="afii10045.var.accented" unicode="&#x42b;`" horiz-adv-x="920" 
d="M80 671h282v-48l-65 -6l-16 -14l-39 -210q49 7 84 7q103 0 159 -38q71 -48 71 -146q0 -67 -30 -113t-79.5 -67t-93.5 -28.5t-93 -7.5h-284v48l64 7l15 14l100 534l-11 14l-64 6v48zM231 335l-52 -278q24 -3 54 -3q100 0 146 44q43 41 43 115q0 66 -37 100q-31 29 -94 29
q-27 0 -60 -7zM672 671h278v-48l-66 -6l-13 -14l-100 -534l9 -14l64 -7v-48h-278v48l63 7l16 14l100 534l-13 14l-60 6v48zM614 887h131l-191 -155h-75z" />
    <glyph glyph-name="afii10047.var.accented" unicode="&#x42d;`" horiz-adv-x="650" 
d="M88 481l33 173q104 30 194 30q129 0 203 -58q96 -75 96 -220q0 -113 -50.5 -207t-124.5 -147q-93 -65 -221 -65q-113 0 -218 36l33 178h66v-119l6 -10q45 -20 102 -20q71 0 118 26.5t84 82.5q45 68 59 155h-250v64h257q0 4 0.5 13t0.5 14q0 106 -40 160q-42 56 -133 56
q-48 0 -98 -15l-16 -18l-35 -109h-66zM479 887h131l-191 -155h-75z" />
    <glyph glyph-name="afii10048.var.accented" unicode="&#x42e;`" horiz-adv-x="1040" 
d="M84 671h276v-48l-65 -6l-13 -14l-42 -222h136q32 133 128.5 218t225.5 85q117 0 193 -71q81 -74 81 -208q0 -99 -41 -190.5t-116 -151.5q-95 -76 -219 -76q-126 0 -199 84q-67 77 -67 203q0 24 3 47h-136l-47 -252l11 -14l64 -7v-48h-281v48l64 7l16 14l100 534l-10 14
l-62 6v48zM716 623q-35 0 -67 -18t-54 -45.5t-35.5 -50t-21.5 -43.5q-42 -100 -42 -208q0 -91 34 -146q39 -64 109 -64q89 0 154 100q73 111 73 263q0 33 -6.5 66.5t-22 68t-47 56t-74.5 21.5zM674 887h131l-191 -155h-75z" />
    <glyph glyph-name="afii10049.var.accented" unicode="&#x42f;`" horiz-adv-x="664" 
d="M694 671v-48l-66 -6l-13 -14l-100 -534l9 -14l64 -7v-48h-278v48l63 7l16 14l42 225h-41q-48 0 -76.5 -25t-62.5 -84l-62 -107q-29 -48 -67.5 -66t-98.5 -18q-38 0 -73 6v46h5q76 0 123 74l60 94q17 26 31 43t47.5 38t74.5 27v2q-66 4 -115.5 40.5t-49.5 110.5
q0 95 84 152q66 44 185 44h299zM442 350l49 265h-50q-28 0 -53.5 -5t-56 -19t-49 -46.5t-18.5 -79.5q0 -61 31 -89t101 -28q15 0 46 2zM486 887h131l-191 -155h-75z" />
    <glyph glyph-name="afii10065.var.accented" unicode="&#x430;`" horiz-adv-x="573" 
d="M453 493h59q-18 -65 -34 -152l-29 -162q-9 -51 -9 -70q0 -54 47 -54q25 0 61 12v-38q-93 -35 -150 -35q-31 0 -53.5 17.5t-22.5 56.5v4q-86 -82 -162 -82q-67 0 -104 53.5t-37 129.5q0 130 81 224.5t204 94.5q51 0 112 -23zM370 385l-40 60h-9q-78 0 -126 -71t-48 -183
q0 -117 75 -117q43 0 102 46zM418 742h123l-190 -190h-67z" />
    <glyph glyph-name="afii10070.var.accented" unicode="&#x435;`" horiz-adv-x="461" 
d="M400 136l-2 -61q-113 -85 -206 -85q-50 0 -86.5 17.5t-55 47t-26.5 60.5t-8 66q0 52 20 106t56 100t91.5 75.5t120.5 29.5q60 0 92 -28t32 -82q0 -45 -26.5 -78t-68.5 -49t-81 -22.5t-77 -6.5q-28 0 -37 1q-2 -16 -2 -38q0 -58 29 -89.5t75 -31.5q70 0 160 68zM146 269
q88 5 140 46q41 33 41 76q0 23 -13.5 37.5t-35.5 14.5q-50 0 -89 -64q-31 -50 -43 -110zM362 742h123l-190 -190h-67z" />
    <glyph glyph-name="afii10074.var.accented" unicode="&#x438;`" horiz-adv-x="599" 
d="M201 487h38l-57 -299q-8 -48 -8 -60q0 -25 14 -39.5t37 -14.5q45 0 122 49l67 352l119 14l-58 -310q-11 -55 -11 -72q0 -23 12.5 -37.5t35.5 -14.5q28 0 61 12v-38q-60 -19 -81 -24q-48 -11 -78 -11q-36 0 -54.5 21t-18.5 57v5q-1 -1 -15 -11.5t-24.5 -18t-30 -19
t-37 -19.5t-40 -13.5t-42.5 -5.5q-98 0 -98 100q0 18 6 57l48 260l-80 12v35zM431 742h123l-190 -190h-67z" />
    <glyph glyph-name="afii10080.var.accented" unicode="&#x43e;`" horiz-adv-x="551" 
d="M301 492q91 0 145 -56t54 -150q0 -70 -27 -128.5t-69.5 -94t-90.5 -54.5t-95 -19q-94 0 -148 59q-52 56 -52 147q0 51 18 101.5t51 95t89 72t125 27.5zM286 440q-44 0 -75 -33t-43.5 -82t-17 -83t-4.5 -59q0 -74 20.5 -107.5t64.5 -33.5q52 0 91 57q50 74 50 197
q0 144 -86 144zM407 742h123l-190 -190h-67z" />
    <glyph glyph-name="afii10085.var.accented" unicode="&#x443;`" horiz-adv-x="495" 
d="M-14 459l154 35q24 -7 39 -28q22 -30 37 -126l35 -218q64 168 152 371h31l79 -26v-27l-59 -33q-14 -18 -27 -38t-25.5 -45.5t-19.5 -40.5t-21.5 -48t-18.5 -42q-52 -117 -75.5 -162t-73.5 -116q-45 -63 -90 -95q-50 -36 -96 -36q-29 0 -57 21t-28 56q0 52 59 67l67 -63
q36 6 76 50t73 111h-38l-61 317q-9 44 -25 75l-87 8v33zM379 742h123l-190 -190h-67z" />
    <glyph glyph-name="afii10093.var.accented" unicode="&#x44b;`" horiz-adv-x="736" 
d="M201 487h38l-47 -204q46 12 98 12q63 0 108.5 -32t45.5 -105q0 -76 -63.5 -122t-166.5 -46q-64 0 -106 19q-64 30 -64 103q0 19 7 52l57 243l-80 12v35zM181 231l-21 -89q-4 -14 -4 -33q0 -27 14.5 -43t28.5 -20t28 -4q41 0 71 29t30 86q0 38 -22 63.5t-58 25.5
q-33 0 -67 -15zM559 475l119 14l-65 -310q-11 -52 -11 -73q0 -51 50 -51q27 0 58 11v-38q-93 -34 -149 -34q-35 0 -59 17t-24 51q0 11 8 56zM500 742h123l-190 -190h-67z" />
    <glyph glyph-name="afii10095.var.accented" unicode="&#x44d;`" horiz-adv-x="470" 
d="M53 213v45l26 21q32 26 59 26q20 0 58 -21q23 -14 42 -14q18 0 57 18v5q0 64 -28.5 100t-80.5 36q-73 0 -143 -66v58q87 71 189 71q23 0 45 -4t48.5 -16.5t46.5 -33t33.5 -57t13.5 -85.5q0 -55 -17.5 -108t-51.5 -98t-91.5 -72.5t-130.5 -27.5q-72 0 -106 31.5t-34 67.5
q0 29 18 44.5t44 15.5q34 0 54 -23l-18 -69q19 -19 51 -19q68 0 110 59q39 55 45 143l-86 -42q-19 15 -48 29t-48 14q-27 0 -57 -28zM367 742h123l-190 -190h-67z" />
    <glyph glyph-name="afii10096.var.accented" unicode="&#x44e;`" horiz-adv-x="808" 
d="M199 487h38l-43 -211h99q23 88 90 152t175 64q91 0 145 -56t54 -150q0 -70 -27 -128.5t-69.5 -94t-90.5 -54.5t-95 -19q-67 0 -113 31t-63.5 73.5t-17.5 92.5q0 11 2 33h-99l-38 -220h-120l80 407l-80 12v35zM543 440q-44 0 -75 -33t-43.5 -82t-17 -83t-4.5 -59
q0 -74 20.5 -107.5t64.5 -33.5q52 0 91 57q50 74 50 197q0 144 -86 144zM536 742h123l-190 -190h-67z" />
    <glyph glyph-name="afii10097.var.accented" unicode="&#x44f;`" horiz-adv-x="560" 
d="M500 480l-63 -301q-11 -52 -11 -73q0 -51 50 -51q27 0 58 11v-38q-93 -34 -149 -34q-35 0 -59 17t-24 51q0 16 8 56l20 90h-45q-50 0 -79 -54l-28 -51q-60 -109 -145 -109q-29 0 -50 19t-21 47q0 18 18.5 43t44.5 32l44 -58q33 22 56 58l20 32q2 3 7.5 12.5t8.5 13
t9.5 10.5t15.5 13q-107 18 -107 111q0 79 67 127q53 38 151 38q54 0 203 -12zM340 260l35 171q-38 9 -66 9q-42 0 -76 -27t-34 -84q0 -34 25 -53.5t65 -19.5q27 0 51 4zM412 742h123l-190 -190h-67z" />
    <glyph glyph-name="fi" unicode="fi" horiz-adv-x="620" 
d="M386 602l-89 84q-44 -55 -74 -219h185l95 26h44l-63 -338q-5 -28 -5 -43q0 -24 13 -38.5t35 -14.5q21 0 70 14v-41q-105 -38 -166 -38q-79 0 -79 77q0 19 9 67l53 271h-199l-37 -262q-23 -162 -99.5 -261.5t-166.5 -99.5q-28 0 -47.5 18.5t-19.5 44.5q0 40 41 62l107 -57
q22 32 36 84.5t29 163.5l42 306l-66 -8v44l78 34q22 116 86.5 185.5t150.5 69.5q40 0 65 -18t25 -46q0 -42 -53 -67zM529 722q28 0 45 -17.5t17 -45.5q0 -31 -20.5 -51.5t-51.5 -20.5q-27 0 -45 17.5t-18 44.5q0 31 21 52t52 21z" />
    <glyph glyph-name="fl" unicode="fl" horiz-adv-x="624" 
d="M550 736h43q-6 -28 -9 -49l-94 -500q-10 -53 -10 -83q0 -50 45 -50q22 0 75 16v-39q-100 -37 -157 -37q-85 0 -85 85q0 29 13 100l90 471l-38 3l-44 -48l-81 81q-45 -52 -76 -219h128v-58h-135l-36 -262q-22 -161 -100 -261t-167 -100q-28 0 -47.5 18.5t-19.5 44.5
q0 41 40 62l107 -57q22 31 35 82.5t30 165.5l43 306l-66 -8v44l78 34q22 116 87 185.5t152 69.5q52 0 79 -30z" />
    <glyph glyph-name=".notdef" horiz-adv-x="233" 
 />
    <glyph glyph-name=".notdef" horiz-adv-x="233" 
 />
    <glyph glyph-name=".null" horiz-adv-x="0" 
 />
    <glyph glyph-name="nonmarkingreturn" horiz-adv-x="333" 
 />
    <glyph glyph-name="space" unicode=" " horiz-adv-x="233" 
 />
    <glyph glyph-name="space" unicode="&#xa0;" horiz-adv-x="233" 
 />
    <glyph glyph-name="exclam" unicode="!" horiz-adv-x="340" 
d="M119 198l21 355q3 131 94 131q31 0 48 -15t17 -43q0 -24 -15 -71l-113 -357h-52zM133 144q28 0 47 -19.5t19 -47.5q0 -33 -25.5 -58.5t-59.5 -25.5q-28 0 -47 19.5t-19 47.5q0 34 25.5 59t59.5 25z" />
    <glyph glyph-name="quotedbl" unicode="&#x22;" horiz-adv-x="339" 
d="M139 418l-36 218q-2 20 -2 28q0 23 13 36.5t35 13.5q21 0 33.5 -13.5t12.5 -35.5q0 -11 -2 -29l-36 -218h-18zM302 418l-35 218q-2 16 -2 28q0 23 13 36.5t35 13.5q21 0 33.5 -13.5t12.5 -35.5q0 -13 -3 -29l-35 -218h-19z" />
    <glyph glyph-name="numbersign" unicode="#" horiz-adv-x="751" 
d="M362 710l63 -18l-76 -214h138l77 231l64 -17l-76 -214h137v-61h-157l-46 -135h161v-61h-182l-81 -244l-63 16l76 228h-134l-82 -244l-63 16l79 228h-140v61h160l44 135h-154v61h175zM329 417l-45 -135h133l47 135h-135z" />
    <glyph glyph-name="dollar" unicode="$" horiz-adv-x="587" 
d="M352 744h52l-14 -73q77 -4 153 -31l-33 -161h-60v113l-12 10q-30 10 -60 13l-42 -223q87 -31 127 -72.5t40 -100.5q0 -89 -67 -148.5t-180 -69.5l-19 -105h-53l20 105q-103 7 -179 39l33 166h64v-119l12 -9q42 -17 82 -21l44 233q-82 31 -119 73t-37 101q0 84 64.5 141
t168.5 65zM287 410l40 205q-50 -6 -79.5 -37t-29.5 -77q0 -33 15.5 -53.5t53.5 -37.5zM311 273l-42 -216q55 9 86.5 40t31.5 77q0 71 -76 99z" />
    <glyph glyph-name="percent" unicode="%" horiz-adv-x="898" 
d="M267 683q63 0 98 -40.5t35 -113.5q0 -112 -60.5 -189t-149.5 -77q-64 0 -99.5 39.5t-35.5 111.5q0 115 60.5 192t151.5 77zM256 638q-45 0 -75.5 -79.5t-30.5 -165.5q0 -84 47 -84q45 0 76.5 77t31.5 169q0 83 -49 83zM681 671h75l-538 -671h-76zM712 407q63 0 98.5 -40
t35.5 -111q0 -113 -61 -190.5t-150 -77.5q-65 0 -100 39.5t-35 112.5q0 114 60.5 190.5t151.5 76.5zM700 363q-45 0 -75.5 -79t-30.5 -169q0 -82 47 -82q45 0 76.5 78t31.5 167q0 85 -49 85z" />
    <glyph glyph-name="ampersand" unicode="&#x26;" horiz-adv-x="731" 
d="M698 373v-49l-70 -9q-53 -90 -123 -167q38 -53 73 -76t80 -23q9 0 16 1v-48l-59 -6q-27 -3 -52 -3q-44 0 -76.5 18t-68.5 63q-113 -87 -215 -87q-79 0 -130.5 48.5t-51.5 122.5q0 132 170 200q-63 74 -63 137q0 80 66 134.5t162 54.5q77 0 125 -39t48 -102
q0 -65 -48.5 -111t-141.5 -70l133 -173q41 41 78 112l-9 17l-47 7v48h204zM388 112l-165 210q-43 -37 -59.5 -60t-16.5 -58v-8q0 -55 35.5 -91t90.5 -36q58 0 115 43zM306 394q109 55 109 148q0 40 -20 63.5t-55 23.5q-40 0 -67.5 -30.5t-27.5 -74.5q0 -29 13.5 -57.5
t47.5 -72.5z" />
    <glyph glyph-name="quotesingle" unicode="'" horiz-adv-x="175" 
d="M138 418l-36 218q-2 20 -2 28q0 23 13 36.5t35 13.5q21 0 33.5 -13.5t12.5 -35.5q0 -11 -2 -29l-36 -218h-18z" />
    <glyph glyph-name="parenleft" unicode="(" horiz-adv-x="419" 
d="M457 718l-9 -51q-87 -10 -148 -96q-53 -73 -87.5 -214t-34.5 -251q0 -181 127 -197l-10 -51q-114 6 -172 81t-58 205q0 155 50 284.5t140.5 207.5t201.5 82z" />
    <glyph glyph-name="parenright" unicode=")" horiz-adv-x="428" 
d="M-52 -142l9 51q87 10 148 96q51 72 86.5 207t35.5 257q0 182 -127 198l10 51q111 -5 170.5 -79t59.5 -208q0 -129 -42.5 -256t-110.5 -201q-52 -58 -108.5 -85t-130.5 -31z" />
    <glyph glyph-name="asterisk" unicode="*" 
d="M320 718l37 -61l-63 -125h-16l-16 125zM423 598l67 -26l-55 -66h-131l-1 16zM295 493l91 -78l-17 -77l-70 22l-19 124zM262 493l11 -9l-64 -125l-78 -21l12 77zM174 598l92 -76l-8 -15h-130l-31 63z" />
    <glyph glyph-name="plus" unicode="+" horiz-adv-x="833" 
d="M458 596v-257h251v-81h-251v-258h-83v258h-251v81h251v257h83z" />
    <glyph glyph-name="comma" unicode="," horiz-adv-x="300" 
d="M-57 -175l8 46q60 12 91.5 44.5t41.5 91.5h-61q-11 15 -11 36q0 37 23.5 61.5t59.5 24.5q34 0 53.5 -21t19.5 -56q0 -84 -64 -149t-161 -78z" />
    <glyph glyph-name="hyphen" unicode="-" horiz-adv-x="322" 
d="M26 290h253l-17 -98h-254z" />
    <glyph glyph-name="period" unicode="." horiz-adv-x="294" 
d="M100 148q32 0 54 -22.5t22 -54.5t-22.5 -54.5t-54.5 -22.5t-54.5 22.5t-22.5 54.5t22.5 54.5t55.5 22.5z" />
    <glyph glyph-name="slash" unicode="/" horiz-adv-x="481" 
d="M521 671l-485 -764h-80l485 764h80z" />
    <glyph glyph-name="zero" unicode="0" horiz-adv-x="587" 
d="M358 683q92 0 145.5 -64t53.5 -178q0 -187 -91.5 -319.5t-231.5 -132.5q-94 0 -148.5 63.5t-54.5 173.5q0 122 41.5 226.5t117 167.5t168.5 63zM345 625q-51 0 -95 -69.5t-68 -172t-24 -205.5q0 -64 22.5 -97.5t64.5 -33.5q65 0 112 93q32 65 52.5 164.5t20.5 187.5
q0 133 -85 133z" />
    <glyph glyph-name="one" unicode="1" horiz-adv-x="587" 
d="M393 683h63l-121 -611l12 -15l96 -7v-50h-361v58h110l17 17l99 500l-11 5l-150 -19v50z" />
    <glyph glyph-name="two" unicode="2" horiz-adv-x="587" 
d="M132 101h279l33 90h66l-35 -191h-478l6 75q124 88 161.5 116t78.5 65q85 74 121.5 134t36.5 125q0 47 -28.5 75t-76.5 28q-30 0 -58 -9l-25 -136q-31 -15 -58 -15q-28 0 -44.5 16t-16.5 43q0 64 74 115t167 51q88 0 142 -46.5t54 -122.5q0 -130 -186 -275
q-59 -45 -213 -138z" />
    <glyph glyph-name="three" unicode="3" horiz-adv-x="587" 
d="M238 609l-20 -118q-37 -15 -54 -15q-26 0 -43.5 17t-17.5 42q0 60 72.5 104t170.5 44q87 0 140 -40t53 -106q0 -65 -53 -113t-147 -67q166 -14 166 -137q0 -94 -89.5 -162.5t-212.5 -68.5q-81 0 -136 34.5t-55 84.5q0 31 20.5 52.5t49.5 21.5q19 0 47 -11l12 -108
q34 -16 64 -16q68 0 114.5 46t46.5 114q0 106 -118 106q-24 0 -62 -6l12 73q11 -1 27 -1q80 0 128.5 39.5t48.5 103.5q0 45 -29 72.5t-76 27.5q-24 0 -59 -13z" />
    <glyph glyph-name="four" unicode="4" horiz-adv-x="587" 
d="M420 676h98l-79 -417h111l-14 -79h-111l-41 -212h-114l39 212h-311l16 79zM381 543l-274 -284h218z" />
    <glyph glyph-name="five" unicode="5" horiz-adv-x="587" 
d="M166 671h385l-19 -101h-308l-35 -170q80 20 127 20q85 0 136.5 -45.5t51.5 -120.5q0 -110 -89.5 -187.5t-216.5 -77.5q-78 0 -128 32.5t-50 82.5q0 30 20.5 49.5t51.5 19.5q19 0 40 -9l15 -108q21 -9 47 -9q77 0 128 48.5t51 121.5q0 60 -41 93t-116 33q-45 0 -116 -9z
" />
    <glyph glyph-name="six" unicode="6" horiz-adv-x="587" 
d="M508 719l8 -63q-117 -10 -202.5 -76.5t-119.5 -174.5q83 51 159 51q81 0 129.5 -51t48.5 -136q0 -116 -84 -198t-202 -82q-100 0 -157 63.5t-57 174.5q0 108 49 208t137 170q61 49 129 75.5t162 38.5zM180 349q-19 -72 -19 -135q0 -77 27.5 -120t77.5 -43q57 0 96.5 55
t39.5 135q0 66 -31 101t-89 35q-52 0 -102 -28z" />
    <glyph glyph-name="seven" unicode="7" horiz-adv-x="587" 
d="M136 671h476l-10 -61l-417 -617l-2 -27h-109l409 597h-286l-34 -99h-66z" />
    <glyph glyph-name="eight" unicode="8" horiz-adv-x="587" 
d="M399 358q68 -35 97 -69.5t29 -83.5q0 -95 -80 -159t-200 -64q-101 0 -161 46t-60 124q0 128 165 186q-46 26 -66.5 58t-20.5 78q0 91 73 151.5t182 60.5q88 0 140 -41t52 -110q0 -118 -150 -177zM354 379q82 57 82 147q0 46 -25.5 74t-68.5 28q-50 0 -83 -33t-33 -83
q0 -41 26 -68t102 -65zM230 313q-46 -32 -66 -66.5t-20 -80.5q0 -56 33.5 -89t90.5 -33q56 0 92.5 35t36.5 88q0 44 -32.5 71.5t-134.5 74.5z" />
    <glyph glyph-name="nine" unicode="9" horiz-adv-x="587" 
d="M72 -59l-16 56q231 70 331 272q-99 -47 -161 -47q-77 0 -127.5 51.5t-50.5 130.5q0 115 86.5 197t206.5 82q102 0 159 -58t57 -162q0 -175 -128 -314.5t-357 -207.5zM408 332q19 75 19 136q0 71 -28.5 113t-76.5 42q-57 0 -99.5 -57t-42.5 -133q0 -64 31 -99.5t87 -35.5
q52 0 110 34z" />
    <glyph glyph-name="colon" unicode=":" horiz-adv-x="346" 
d="M187 485q31 0 53.5 -23t22.5 -54t-22.5 -53.5t-54.5 -22.5t-54 22t-22 54t22.5 54.5t54.5 22.5zM127 148q32 0 54.5 -22.5t22.5 -54.5t-23 -54.5t-55 -22.5t-54 22t-22 54q0 33 22.5 55.5t54.5 22.5z" />
    <glyph glyph-name="semicolon" unicode=";" horiz-adv-x="346" 
d="M187 485q31 0 53.5 -23t22.5 -54t-22.5 -53.5t-54.5 -22.5t-54 22t-22 54t22.5 54.5t54.5 22.5zM-24 -175l8 46q60 12 91.5 44.5t41.5 91.5h-61q-11 15 -11 36q0 37 23.5 61.5t59.5 24.5q34 0 53.5 -21t19.5 -56q0 -84 -64 -149t-161 -78z" />
    <glyph glyph-name="semicolon" unicode="&#x37e;" horiz-adv-x="346" 
d="M187 485q31 0 53.5 -23t22.5 -54t-22.5 -53.5t-54.5 -22.5t-54 22t-22 54t22.5 54.5t54.5 22.5zM-24 -175l8 46q60 12 91.5 44.5t41.5 91.5h-61q-11 15 -11 36q0 37 23.5 61.5t59.5 24.5q34 0 53.5 -21t19.5 -56q0 -84 -64 -149t-161 -78z" />
    <glyph glyph-name="less" unicode="&#x3c;" horiz-adv-x="833" 
d="M704 484l-456 -186l456 -186v-90l-575 237v78l575 237v-90z" />
    <glyph glyph-name="equal" unicode="=" horiz-adv-x="833" 
d="M709 440v-82h-585v82h585zM709 238v-81h-585v81h585z" />
    <glyph glyph-name="greater" unicode="&#x3e;" horiz-adv-x="833" 
d="M704 337v-78l-575 -237v90l456 186l-456 186v90z" />
    <glyph glyph-name="question" unicode="?" horiz-adv-x="490" 
d="M218 284l-17 -91h-65l25 135q180 63 180 200q0 49 -26.5 72t-85.5 25l-66 -113q-15 -1 -26 -1q-27 0 -42.5 13t-15.5 36q0 52 57.5 87.5t142.5 35.5q89 0 140 -41.5t51 -113.5q0 -163 -252 -244zM159 144q28 0 47 -19.5t19 -47.5q0 -33 -25.5 -58.5t-59.5 -25.5
q-28 0 -47 19t-19 47q0 34 25.5 59.5t59.5 25.5z" />
    <glyph glyph-name="at" unicode="@" horiz-adv-x="936" 
d="M764 -26l17 -39q-164 -88 -304 -88q-172 0 -286.5 112t-114.5 285q0 192 130 320.5t326 128.5q153 0 246 -88t93 -233q0 -127 -75.5 -222.5t-175.5 -95.5q-39 0 -57.5 19t-20.5 62q-47 -44 -79 -61t-68 -17q-55 0 -89 44.5t-34 115.5q0 111 74 193t174 82q41 0 99 -27
l18 23h68q-9 -20 -27 -104l-37 -170q-9 -42 -9 -59q0 -16 10 -26.5t26 -10.5q57 0 104.5 78.5t47.5 173.5q0 124 -79 198.5t-210 74.5q-164 0 -271.5 -109.5t-107.5 -275.5q0 -160 97.5 -258t255.5 -98q128 0 259 72zM582 389l-37 53q-18 2 -21 2q-62 0 -105 -61t-43 -150
q0 -111 72 -111q26 0 48.5 15.5t48.5 52.5z" />
    <glyph glyph-name="A" unicode="A" horiz-adv-x="636" 
d="M339 677h103l103 -608l10 -14l58 -7v-48h-263v48l61 7l11 14l-28 167h-223l-92 -167l10 -14l59 -7v-48h-215v48l56 7zM342 551l-141 -260h183z" />
    <glyph glyph-name="B" unicode="B" horiz-adv-x="628" 
d="M80 671h300q33 0 61.5 -4.5t62 -16.5t53.5 -40.5t20 -69.5q0 -37 -14 -67.5t-33.5 -49t-45.5 -33t-44 -20.5t-35 -10v-2q69 -2 112 -38.5t43 -102.5q0 -59 -24 -102t-56 -64.5t-77 -33.5t-72 -14.5t-57 -2.5h-298v48l64 7l15 14l100 534l-11 14l-64 6v48zM284 617
l-45 -242q20 -2 31 -2q85 0 129 42q42 40 42 109q0 95 -123 95q-24 0 -34 -2zM228 318l-48 -261q36 -3 51 -3q191 0 191 158q0 18 -0.5 27t-8 27.5t-21 28t-42 18t-68.5 8.5q-27 0 -54 -3z" />
    <glyph glyph-name="C" unicode="C" horiz-adv-x="624" 
d="M634 650l-30 -169h-68v109l-10 18q-38 15 -74 15q-113 0 -195.5 -103.5t-82.5 -250.5q0 -98 44 -154q52 -67 154 -67q29 0 54 6l19 18l46 124h67l-32 -173q-110 -36 -196 -36q-34 0 -68 5.5t-76.5 24t-74 48t-53.5 83t-22 123.5q0 95 37 176t100 136q115 101 276 101
q81 0 185 -34z" />
    <glyph glyph-name="D" unicode="D" horiz-adv-x="690" 
d="M82 671h270q124 0 193 -39q46 -26 80 -80t34 -142q0 -82 -27 -155t-79 -130.5t-136.5 -91t-191.5 -33.5h-249v48l66 7l14 14l100 534l-10 14l-64 6v48zM284 615l-104 -559h42q125 0 197 72q45 44 73.5 124.5t28.5 163.5q0 98 -49 149q-48 50 -132 50h-56z" />
    <glyph glyph-name="E" unicode="E" horiz-adv-x="578" 
d="M82 671h495l-30 -156h-64v88l-12 12h-187l-45 -240h122l15 14l24 74h57l-43 -233h-52v75l-13 14h-120l-49 -261h224l14 14l38 107h66l-33 -179h-513v48l65 7l14 14l100 534l-9 14l-64 6v48z" />
    <glyph glyph-name="F" unicode="F" horiz-adv-x="536" 
d="M81 671h486l-33 -168h-65v101l-9 11h-176l-47 -251h117l18 12l26 75h57l-44 -235h-53v78l-14 13h-117l-45 -238l12 -14l64 -7v-48h-282v48l66 7l14 14l100 534l-10 14l-65 6v48z" />
    <glyph glyph-name="G" unicode="G" horiz-adv-x="692" 
d="M654 652l-30 -171h-71v111l-12 19q-37 12 -72 12q-106 0 -185 -73q-54 -50 -82 -123.5t-28 -154.5q0 -105 55 -164q53 -57 149 -57q24 0 49 3l38 207l-11 14l-68 6v49h283v-48l-65 -6l-15 -14l-43 -232q-120 -43 -222 -43q-33 0 -66 5.5t-75 24.5t-73 48.5t-52.5 83.5
t-21.5 124q0 85 34 167.5t109 144.5q120 99 283 99q101 0 192 -32z" />
    <glyph glyph-name="H" unicode="H" horiz-adv-x="738" 
d="M84 671h276v-48l-65 -6l-13 -14l-42 -222h281l42 222l-13 14l-60 6v48h278v-48l-66 -6l-13 -14l-100 -534l9 -14l64 -7v-48h-278v48l63 7l16 14l47 252h-281l-47 -252l11 -14l64 -7v-48h-281v48l64 7l16 14l100 534l-10 14l-62 6v48z" />
    <glyph glyph-name="I" unicode="I" horiz-adv-x="345" 
d="M86 671h282v-48l-65 -6l-16 -14l-100 -534l12 -14l65 -7v-48h-284v48l66 7l15 14l100 534l-10 14l-65 6v48z" />
    <glyph glyph-name="J" unicode="J" horiz-adv-x="472" 
d="M211 671h284v-48l-67 -6l-14 -14l-56 -335q-26 -157 -97 -224q-60 -57 -165 -57q-74 0 -141 27l34 178h72v-136l13 -12h8q30 0 52 10.5t36 27t25.5 48t18 61t15.5 79.5l59 333l-10 14l-67 6v48z" />
    <glyph glyph-name="K" unicode="K" horiz-adv-x="655" 
d="M82 671h279v-48l-67 -6l-13 -14l-49 -260h30l251 260l-6 14l-62 6v48h250v-48l-79 -6l-234 -240l128 -256q18 -37 40.5 -55.5t65.5 -18.5q15 0 23 1v-47q-81 -8 -120 -8q-45 0 -65 11q-40 21 -77 99l-91 190h-63l-42 -224l11 -14l63 -7v-48h-279v48l64 7l15 14l100 534
l-10 14l-63 6v48z" />
    <glyph glyph-name="L" unicode="L" horiz-adv-x="531" 
d="M81 671h279v-48l-63 -6l-17 -14l-102 -545h182l18 11l39 128h72l-38 -197h-475v48l62 7l16 14l100 534l-10 14l-63 6v48z" />
    <glyph glyph-name="M" unicode="M" horiz-adv-x="886" 
d="M84 671h258v-30l75 -463l243 466v27h251v-48l-64 -6l-15 -14l-95 -534l10 -14l62 -7v-48h-270v48l66 7l14 14l94 534h-2l-313 -603h-72l-96 603h-2l-101 -534l12 -14l60 -7v-48h-223v48l64 7l15 14l104 534l-9 14l-66 6v48z" />
    <glyph glyph-name="N" unicode="N" horiz-adv-x="716" 
d="M81 671h221v-24l206 -485l84 441l-12 14l-65 6v48h229v-48l-64 -6l-16 -14l-112 -603h-103l-232 543l-90 -474l10 -14l67 -7v-48h-228v48l65 7l14 14l101 534l-11 14l-64 6v48z" />
    <glyph glyph-name="O" unicode="O" horiz-adv-x="728" 
d="M418 684q117 0 193 -71q81 -74 81 -208q0 -105 -45 -200t-133 -156.5t-198 -61.5q-131 0 -207 84q-69 76 -69 199q0 98 43 192.5t119 151.5q92 70 216 70zM404 623q-61 0 -114 -57t-82.5 -140.5t-29.5 -167.5q0 -88 36 -146q41 -64 113 -64q89 0 154 100q73 111 73 263
q0 32 -5 62.5t-19 67.5t-46.5 59.5t-79.5 22.5z" />
    <glyph glyph-name="P" unicode="P" horiz-adv-x="584" 
d="M83 671h258q242 0 242 -171q0 -62 -24 -109.5t-59 -73.5t-80.5 -42.5t-81.5 -21.5t-70 -5q-27 0 -53 2l-34 -181l9 -14l66 -7v-48h-280v48l64 7l15 14l100 534l-10 14l-62 6v48zM284 614l-58 -307q10 -1 27 -1q93 0 146 55q46 51 46 136q0 22 -3 37.5t-14.5 36.5
t-41 32.5t-74.5 11.5q-18 0 -28 -1z" />
    <glyph glyph-name="Q" unicode="Q" horiz-adv-x="728" 
d="M709 -70v-46q-45 -21 -99.5 -34.5t-77.5 -13.5q-119 0 -184 155q-18 -3 -39 -3q-112 0 -190.5 79.5t-78.5 200.5q0 103 48 198t136 156.5t193 61.5q122 0 194 -70q81 -77 81 -214q0 -115 -54 -214t-161 -157q52 -120 132 -120q39 0 100 21zM400 618q-40 0 -85 -29
t-82 -98q-55 -103 -55 -224q0 -91 42 -151q44 -62 113 -62q86 0 147 88q74 106 74 258q0 27 -6 59t-21 70.5t-48 63.5t-79 25z" />
    <glyph glyph-name="R" unicode="R" horiz-adv-x="643" 
d="M79 671h290q68 0 113 -11.5t65.5 -34t28 -45t7.5 -53.5q0 -47 -18 -84t-49 -60t-67 -36.5t-77 -19.5v-2q46 -6 77 -39q8 -8 14.5 -18.5t10.5 -18.5t10 -24t7.5 -22t8 -27t7.5 -26q18 -61 38 -82.5t71 -21.5q3 0 7.5 0.5t6.5 0.5v-46q-56 -7 -91 -7q-68 0 -103 30
q-40 34 -66 147q-16 71 -43.5 98t-84.5 27q-12 0 -19 -1l-42 -226l9 -14l67 -7v-48h-281v48l63 7l15 14l100 534l-11 14l-64 6v48zM283 615l-50 -263q7 -1 26 -1q22 0 44 3t49 13t46.5 26.5t33 45.5t13.5 68q0 57 -34 84q-31 25 -99 25q-21 0 -29 -1z" />
    <glyph glyph-name="S" unicode="S" horiz-adv-x="552" 
d="M23 42l26 162h66v-119l6 -10q45 -20 91 -20q57 0 99 32.5t42 86.5q0 34 -21 57t-102 69q-91 53 -116.5 86.5t-25.5 81.5q0 89 66 151t196 62q75 0 157 -28l-26 -169h-58v110l-8 10q-31 16 -68 16q-58 0 -99 -28t-41 -82q0 -26 15 -46.5t31.5 -31.5t60.5 -36q12 -7 19 -11
q65 -37 98.5 -68.5t40 -51t6.5 -49.5q0 -107 -76.5 -166.5t-189.5 -59.5q-102 0 -189 52z" />
    <glyph glyph-name="T" unicode="T" horiz-adv-x="583" 
d="M71 671h556l-33 -176h-65v107l-14 13h-113l-102 -546l11 -14l68 -7v-48h-288v48l69 7l14 14l102 546h-115l-18 -13l-36 -107h-70z" />
    <glyph glyph-name="U" unicode="U" horiz-adv-x="703" 
d="M77 671h277v-48l-63 -6l-15 -14l-64 -345q-9 -54 -9 -73q0 -119 132 -119q82 0 122.5 40.5t60.5 142.5l69 354l-11 14l-66 6v48h226v-48l-64 -6l-15 -14l-67 -352q-13 -68 -28.5 -107.5t-44.5 -71.5q-80 -85 -228 -85q-215 0 -215 176q0 44 10 91l66 349l-12 14l-61 6v48
z" />
    <glyph glyph-name="V" unicode="V" horiz-adv-x="623" 
d="M30 671h258v-48l-61 -6l-9 -14l75 -466l241 466l-7 14l-58 6v48h211v-48l-58 -6l-330 -617h-97l-100 603l-9 14l-56 6v48z" />
    <glyph glyph-name="W" unicode="W" horiz-adv-x="916" 
d="M40 671h256v-48l-61 -6l-11 -14l33 -419l223 487h96l52 -496l186 428l-8 14l-58 6v48h212v-48l-63 -6l-272 -617h-90l-54 515l-237 -515h-91l-48 603l-10 14l-55 6v48z" />
    <glyph glyph-name="X" unicode="X" horiz-adv-x="609" 
d="M51 671h274v-48l-61 -6l-11 -14l79 -183l162 183l-6 14l-56 6v48h225v-48l-65 -6l-229 -257l132 -299l10 -6l60 -7v-48h-277v48l65 7l11 14l-86 198l-177 -198l11 -14l62 -7v-48h-239v48l58 7l13 8l239 269l-123 277l-8 8l-63 6v48z" />
    <glyph glyph-name="Y" unicode="Y" horiz-adv-x="589" 
d="M27 671h273v-48l-62 -6l-12 -14l86 -260l185 260l-10 14l-64 6v48h234v-48l-64 -6l-252 -338l-39 -210l11 -14l68 -7v-48h-288v48l67 7l16 14l38 199l-115 341l-9 8l-63 6v48z" />
    <glyph glyph-name="Z" unicode="Z" horiz-adv-x="572" 
d="M118 671h462l-3 -49l-435 -564h241l16 15l38 123h71l-37 -196h-484v50l434 563h-213l-18 -11l-34 -109h-72z" />
    <glyph glyph-name="bracketleft" unicode="[" horiz-adv-x="441" 
d="M201 708h269l-10 -56h-154l-132 -729h154l-9 -55h-270z" />
    <glyph glyph-name="backslash" unicode="\" horiz-adv-x="481" 
d="M101 671l403 -764h-80l-403 764h80z" />
    <glyph glyph-name="bracketright" unicode="]" horiz-adv-x="441" 
d="M108 708h269l-151 -840h-269l10 55h154l131 730h-154z" />
    <glyph glyph-name="asciicircum" unicode="^" horiz-adv-x="1000" 
d="M552 714l245 -276h-51l-247 194l-247 -194h-51l246 276h105z" />
    <glyph glyph-name="underscore" unicode="_" 
d="M500 -67v-84h-500v84h500z" />
    <glyph glyph-name="grave" unicode="`" 
d="M164 742h124l60 -190h-67z" />
    <glyph glyph-name="a" unicode="a" horiz-adv-x="573" 
d="M453 493h59q-18 -65 -34 -152l-29 -162q-9 -51 -9 -70q0 -54 47 -54q25 0 61 12v-38q-108 -35 -152 -35q-29 0 -51.5 17t-22.5 57v4q-86 -82 -162 -82q-67 0 -104 53.5t-37 129.5q0 130 81 224.5t204 94.5q51 0 112 -23zM370 385l-40 60h-9q-78 0 -126 -71t-48 -183
q0 -117 75 -117q43 0 102 46z" />
    <glyph glyph-name="b" unicode="b" horiz-adv-x="558" 
d="M139 653l-83 10v35l171 38h44l-55 -312q44 33 88.5 50.5t70.5 17.5q41 0 70 -18t42.5 -47t19.5 -56t6 -55q0 -83 -40.5 -162t-105.5 -120q-70 -44 -164 -44q-92 0 -172 45zM210 381l-55 -314q35 -28 71 -28q59 0 105 69q54 80 54 192q0 67 -22.5 91.5t-59.5 24.5
q-39 0 -93 -35z" />
    <glyph glyph-name="c" unicode="c" horiz-adv-x="442" 
d="M331 339l-65 102q-58 -22 -88.5 -89.5t-30.5 -143.5q0 -18 3 -37t11.5 -45t30 -42t52.5 -16q67 0 155 76v-59q-110 -95 -209 -95q-74 0 -120 48q-51 55 -51 146q0 118 83.5 213t202.5 95q38 0 73 -19t35 -60q0 -37 -23.5 -54.5t-58.5 -19.5z" />
    <glyph glyph-name="d" unicode="d" horiz-adv-x="581" 
d="M506 736h44l-92 -557q-9 -52 -9 -70q0 -22 12.5 -38t35.5 -16q27 0 61 12v-38q-4 -1 -28.5 -9t-40.5 -12.5t-41 -9t-44 -4.5q-79 0 -79 83q-25 -25 -43.5 -40.5t-52 -31t-66.5 -15.5q-72 0 -107.5 54t-35.5 134q0 140 93 233q79 81 190 81q48 0 87 -17l29 178l-85 10v35z
M374 385l-42 60q-10 2 -17 2q-54 0 -93.5 -45.5t-56.5 -102.5t-17 -111q0 -46 18.5 -80t55.5 -34q47 0 110 54z" />
    <glyph glyph-name="e" unicode="e" horiz-adv-x="461" 
d="M400 136l-2 -61q-113 -85 -206 -85q-50 0 -86.5 17.5t-55 47t-26.5 60.5t-8 66q0 52 20 106t56 100t91.5 75.5t120.5 29.5q60 0 92 -28t32 -82q0 -45 -26.5 -78t-68.5 -49t-81 -22.5t-77 -6.5q-28 0 -37 1q-2 -16 -2 -38q0 -58 29 -89.5t75 -31.5q70 0 160 68zM146 269
q88 5 140 46q41 33 41 76q0 23 -13.5 37.5t-35.5 14.5q-50 0 -89 -64q-31 -50 -43 -110z" />
    <glyph glyph-name="f" unicode="f" horiz-adv-x="324" 
d="M382 598l-85 88q-28 -40 -47 -105q-19 -63 -26 -114h136v-58h-145l-37 -262q-20 -144 -79 -233q-41 -63 -91.5 -95.5t-94.5 -32.5q-29 0 -48.5 17.5t-19.5 46.5q0 44 40 61l107 -57q17 26 30 64q18 55 35 184l42 307l-66 -9v44l78 34q21 113 85 181q69 74 153 74
q35 0 65.5 -17.5t30.5 -51.5q0 -25 -18.5 -42.5t-44.5 -23.5z" />
    <glyph glyph-name="g" unicode="g" horiz-adv-x="516" 
d="M389 463h137v-52h-102q10 -30 10 -61q0 -81 -67 -135t-154 -54h-5q-12 -19 -12 -34q0 -2 0.5 -4.5t0.5 -3.5l151 -72q91 -42 91 -103q0 -22 -14 -47.5t-42.5 -52.5t-83.5 -44.5t-125 -17.5q-33 0 -66.5 7t-65.5 21.5t-52 41.5t-20 63q0 33 19 62t46.5 46t47.5 26t33 13
q-1 4 -1 13q0 39 42 93q-56 15 -85 50.5t-29 82.5q0 69 59 130t165 61q61 0 122 -29zM266 448q-50 0 -76.5 -52t-26.5 -113q0 -76 52 -76q28 0 49.5 21.5t32.5 51.5t16 53.5t5 35.5q0 79 -52 79zM261 -26l-120 55q-21 -12 -31.5 -20t-21.5 -26.5t-11 -42.5q0 -46 34.5 -77.5
t94.5 -31.5q44 0 79 22t35 54q0 39 -59 67z" />
    <glyph glyph-name="h" unicode="h" horiz-adv-x="588" 
d="M238 736h46q-13 -52 -37 -172l-34 -169q123 97 197 97q37 0 64.5 -26.5t27.5 -67.5q0 -26 -11 -81l-29 -138q-11 -53 -11 -73q0 -21 13 -36t33 -15q26 0 62 12v-38q-90 -35 -154 -35q-29 0 -53.5 17t-24.5 53q0 11 8 54l35 166q9 40 9 65q0 21 -10.5 40t-35.5 19
q-16 0 -51 -15t-78 -51l-61 -342h-124l129 653l-87 10v35z" />
    <glyph glyph-name="i" unicode="i" horiz-adv-x="315" 
d="M199 493h44l-63 -338q-5 -40 -5 -43q0 -53 48 -53q21 0 70 14v-41q-112 -38 -167 -38q-37 0 -57.5 20t-20.5 56q0 24 9 68l53 269l-82 12v35zM219 727q30 0 47 -17.5t17 -47.5q0 -33 -20 -54.5t-56 -21.5q-31 0 -48 17.5t-17 47.5q0 33 21 54.5t56 21.5z" />
    <glyph glyph-name="j" unicode="j" horiz-adv-x="296" 
d="M114 407l-90 12v35l179 39h44l-54 -338q-23 -145 -60.5 -213t-112.5 -118q-57 -38 -101 -38q-28 0 -47 17.5t-19 44.5q0 39 34 59l117 -47q40 51 64 230zM215 727q30 0 47 -17.5t17 -47.5q0 -33 -20 -54.5t-56 -21.5q-31 0 -48 17.5t-17 47.5q0 33 21 54.5t56 21.5z" />
    <glyph glyph-name="k" unicode="k" horiz-adv-x="557" 
d="M236 736h44l-96 -478l130 137q57 60 83.5 79.5t59.5 19.5q27 0 44.5 -19.5t17.5 -48.5q0 -61 -81 -86l-36 58q-64 -50 -91 -77q40 -95 52 -122q2 -4 11 -23.5t13 -28t14 -26.5t18 -27t19.5 -20t24 -16t26.5 -5q25 0 52 8v-38q-87 -29 -145 -29q-37 0 -62 24.5t-50 82.5
l-63 146l-46 -50l-36 -197h-118l124 653l-88 10v35z" />
    <glyph glyph-name="l" unicode="l" horiz-adv-x="307" 
d="M143 653l-83 10v35l171 38h44l-103 -557q-11 -62 -11 -73q0 -28 15.5 -39.5t34.5 -11.5q11 0 72 14v-38q-116 -37 -162 -37q-27 0 -45.5 7.5t-26 20t-10 22t-2.5 19.5q0 13 7 55z" />
    <glyph glyph-name="m" unicode="m" horiz-adv-x="877" 
d="M199 493h38l-19 -98q60 49 87 64q58 33 110 33q85 0 90 -94q110 94 190 94q44 0 69.5 -28.5t25.5 -72.5q0 -29 -7 -62l-32 -150q-11 -52 -11 -73q0 -23 12.5 -37t35.5 -14t60 12v-38q-89 -35 -153 -35q-32 0 -55.5 16.5t-23.5 52.5q0 13 8 55l37 177q8 36 8 59
q0 22 -12 38t-36 16q-33 0 -67.5 -22t-52.5 -40l-58 -346h-122l56 301q7 35 7 51q0 26 -13.5 41t-34.5 15q-23 0 -49.5 -12t-37.5 -20.5t-36 -28.5l-60 -347h-122l78 407l-81 12v35z" />
    <glyph glyph-name="n" unicode="n" horiz-adv-x="598" 
d="M203 493h38l-20 -99q41 32 64 48t61.5 33t71.5 17q45 0 69.5 -29t24.5 -70q0 -27 -10 -77l-30 -137q-11 -51 -11 -73q0 -51 50 -51q27 0 58 11v-38q-93 -34 -149 -34q-35 0 -59 17t-24 51q0 13 8 56l35 166q9 40 9 64q0 60 -48 60q-41 0 -126 -66l-58 -342h-127l79 407
l-83 12v35z" />
    <glyph glyph-name="o" unicode="o" horiz-adv-x="551" 
d="M301 492q91 0 145 -56t54 -150q0 -70 -27 -128.5t-69.5 -94t-90.5 -54.5t-95 -19q-94 0 -148 59q-52 56 -52 147q0 51 18 101.5t51 95t89 72t125 27.5zM286 440q-44 0 -75 -33t-43.5 -82t-17 -83t-4.5 -59q0 -74 20.5 -107.5t64.5 -33.5q52 0 91 57q50 74 50 197
q0 144 -86 144z" />
    <glyph glyph-name="p" unicode="p" horiz-adv-x="571" 
d="M195 493h44l-14 -68q80 67 157 67q58 0 99 -43t41 -134q0 -127 -82 -222q-83 -96 -203 -96q-42 0 -82 16l-30 -175l93 -16v-40h-279v40l61 16l9 13l96 556l-77 12v35zM218 376l-54 -306q34 -17 68 -17q70 0 116 73q46 72 46 169q0 29 -5.5 54.5t-23.5 47.5t-48 22
q-10 0 -22 -3t-21 -7t-19.5 -9.5t-16.5 -9.5t-13 -9z" />
    <glyph glyph-name="q" unicode="q" horiz-adv-x="557" 
d="M455 496h53q-6 -29 -12 -63t-11 -63.5t-6 -33.5l-84 -498l90 -16v-40h-281v40l62 12l11 14l38 218q-84 -72 -156 -72q-39 0 -68 17t-42.5 38.5t-21.5 52t-9 45.5t-1 31q0 131 80 222q81 92 196 92q52 0 116 -23zM369 382l-43 62q-6 1 -17 1q-68 0 -113 -68
q-56 -80 -56 -188q0 -45 19.5 -81t65.5 -36q30 0 52 11.5t48 33.5z" />
    <glyph glyph-name="r" unicode="r" horiz-adv-x="449" 
d="M198 493h35l-28 -134h2q31 47 73 86q52 47 99 47q28 0 49.5 -21t21.5 -53q0 -44 -29.5 -64t-69.5 -20l-27 76q-111 -44 -133 -178l-38 -232h-123l79 407l-83 12v35z" />
    <glyph glyph-name="s" unicode="s" horiz-adv-x="403" 
d="M104 134l-18 -73q32 -23 65 -23q34 0 55.5 19t21.5 54q0 26 -15 45.5t-54 45.5l-25 17q-26 18 -41.5 31.5t-29.5 36.5t-14 47q0 63 55 110.5t144 47.5q43 0 78 -16.5t35 -57.5q0 -56 -71 -61l-47 90q-10 2 -19 2q-29 0 -51 -16t-22 -40q0 -22 16 -39t54 -45q7 -4 10 -7
l32 -24q74 -53 74 -120q0 -79 -57.5 -123.5t-139.5 -44.5q-73 0 -112.5 34.5t-39.5 72.5q0 29 18 44.5t44 15.5q34 0 54 -23z" />
    <glyph glyph-name="t" unicode="t" horiz-adv-x="365" 
d="M192 601h65l-23 -128h137v-58h-148l-44 -243q-6 -36 -6 -53q0 -62 58 -62q40 0 88 18v-40q-63 -21 -100 -30q-44 -11 -77 -11q-40 0 -66 24t-26 70q0 21 7 63l49 261h-66v36l86 43z" />
    <glyph glyph-name="u" unicode="u" horiz-adv-x="599" 
d="M201 487h38l-57 -299q-8 -48 -8 -60q0 -25 14 -39.5t37 -14.5q45 0 122 49l67 352l119 14l-58 -310q-11 -55 -11 -72q0 -23 12.5 -37.5t35.5 -14.5q28 0 61 12v-38q-60 -19 -81 -24q-48 -11 -78 -11q-36 0 -54.5 21t-18.5 57v5q-1 -1 -15 -11.5t-24.5 -18t-30 -19
t-37 -19.5t-40 -13.5t-42.5 -5.5q-98 0 -98 100q0 18 6 57l48 260l-80 12v35z" />
    <glyph glyph-name="v" unicode="v" horiz-adv-x="493" 
d="M-8 458l158 35q20 -5 33 -25t18 -76l26 -284q41 50 67 87t34 50t21 41t17 35l-23 148q31 25 63 25q28 0 47 -17t19 -49q0 -76 -107 -224q-68 -94 -170 -204h-86q10 28 10 65v8l-22 208q-14 111 -24 131l-81 11v35z" />
    <glyph glyph-name="w" unicode="w" horiz-adv-x="742" 
d="M143 493h46l21 -364q18 34 32 59.5t25 47t21 40.5t16.5 30.5t14.5 29t11 23.5t12 25t11 23.5t13.5 30t15.5 33.5l94 8q6 -158 23 -384q46 63 76 106q43 66 64 116l-24 150q23 27 61 27q30 0 48 -19.5t18 -49.5q0 -68 -88 -199q-62 -90 -170 -226h-86l-21 345
q-8 -19 -71 -136.5t-115 -208.5h-94l-14 31v380l-83 11v35z" />
    <glyph glyph-name="x" unicode="x" horiz-adv-x="510" 
d="M24 450l137 44h7q17 0 26.5 -3.5t23.5 -19t27.5 -54t27.5 -102.5q0 1 8 15.5t13.5 24t16.5 27.5t21 30.5t24 27.5t27.5 24.5t30.5 16t33 6.5q24 0 43.5 -15.5t19.5 -48.5q0 -56 -64 -76l-39 53q-61 -32 -111 -135q3 -11 27 -92q18 -69 42 -95q24 -24 56 -24q24 0 54 7
v-39q-86 -28 -134 -28q-25 0 -41.5 5.5t-34 24t-31 56t-26.5 98.5q-96 -179 -175 -179q-31 0 -51 19t-20 47q0 54 63 70l44 -53q63 46 116 148q-32 101 -51 144q-10 23 -19 35l-91 7v34z" />
    <glyph glyph-name="y" unicode="y" horiz-adv-x="495" 
d="M-14 459l154 35q24 -7 39 -28q22 -30 37 -126l35 -218q64 168 152 371h31l79 -26v-27l-59 -33q-14 -18 -27 -38t-25.5 -45.5t-19.5 -40.5t-21.5 -48t-18.5 -42q-52 -117 -75.5 -162t-73.5 -116q-45 -63 -90 -95q-50 -36 -96 -36q-29 0 -57 21t-28 56q0 52 59 67l67 -63
q36 6 76 50t73 111h-38l-61 317q-9 44 -25 75l-87 8v33z" />
    <glyph glyph-name="z" unicode="z" horiz-adv-x="468" 
d="M387 502l74 -46l-330 -348l87 24q60 -42 96 -42q32 0 59 25l-64 72q20 44 58 44q27 0 42.5 -21.5t15.5 -47.5q0 -68 -50.5 -116t-113.5 -48q-26 0 -68 15l-34 12q-42 14 -60 14q-12 0 -24 -3l-24 -50l-70 41l326 352l-87 -18q-49 37 -89 37q-30 0 -52 -22l58 -67
q-9 -18 -26.5 -30t-33.5 -12q-49 0 -49 63q0 66 51.5 115.5t103.5 49.5q32 0 64 -16l23 -11q53 -24 80 -24q9 0 14 1z" />
    <glyph glyph-name="braceleft" unicode="{" horiz-adv-x="485" 
d="M502 705l-10 -51q-74 -3 -105 -29t-45 -96l-12 -62q-16 -80 -59 -121t-123 -54q120 -22 120 -121q0 -27 -5 -52l-14 -73q-7 -35 -7 -59q0 -36 24 -51t83 -17l-10 -53q-15 -1 -35 -1q-93 0 -136 27.5t-43 88.5q0 27 8 70l16 81q6 28 6 56q0 43 -24.5 59t-96.5 16l11 57h18
q70 0 101.5 27.5t45.5 100.5l16 84q19 95 76 134t179 39h21z" />
    <glyph glyph-name="bar" unicode="|" 
d="M294 764v-1000h-87v1000h87z" />
    <glyph glyph-name="braceright" unicode="}" horiz-adv-x="485" 
d="M120 654l10 51q122 0 168.5 -25.5t46.5 -87.5q0 -24 -6 -60l-16 -84q-7 -34 -7 -57q0 -71 97 -71h24l-11 -57q-12 1 -27 1q-62 0 -93 -29.5t-45 -102.5l-16 -81q-20 -104 -74.5 -145t-172.5 -41q-5 0 -15 0.5t-16 0.5l11 53q76 1 106 27t44 100l14 73q15 77 58.5 118
t122.5 55q-65 14 -92 40.5t-27 76.5q0 27 6 58l12 62q7 34 7 54q0 35 -25 51.5t-84 19.5z" />
    <glyph glyph-name="asciitilde" unicode="~" horiz-adv-x="833" 
d="M747 383v-90q-106 -69 -185 -69q-46 0 -131 30q-105 36 -155 36q-42 0 -84 -17.5t-105 -60.5v91q108 70 191 70h5q37 0 147.5 -32.5t131.5 -32.5q77 0 185 75z" />
    <glyph glyph-name="exclamdown" unicode="&#xa1;" horiz-adv-x="340" 
d="M186 288l-21 -355q-3 -68 -26 -99.5t-68 -31.5q-31 0 -48 15t-17 43q0 25 15 71l113 357h52zM191 492q28 0 47 -19.5t19 -47.5q0 -34 -25 -59t-59 -25q-29 0 -48 19.5t-19 47.5q0 34 25.5 59t59.5 25z" />
    <glyph glyph-name="cent" unicode="&#xa2;" horiz-adv-x="587" 
d="M361 609h54l-19 -99q95 -8 140 -29l-26 -130h-61l2 89q-30 17 -65 18l-76 -404q37 2 75 17l29 90h64l-27 -136q-77 -24 -151 -25l-20 -103h-54l19 105q-96 14 -147 68t-51 142q0 120 81 202t214 95zM258 56l75 399q-80 -20 -122.5 -89.5t-42.5 -163.5q0 -61 21.5 -96.5
t68.5 -49.5z" />
    <glyph glyph-name="sterling" unicode="&#xa3;" horiz-adv-x="587" 
d="M462 509l-39 116h-7q-65 0 -99 -60.5t-49 -205.5h180l-8 -60h-181q-20 -137 -136 -199l3 -6q57 6 100 6h265l-12 -100h-489l9 75q67 13 97.5 62t42.5 162h-69l7 60h68q13 153 82 235t185 82q64 0 107.5 -29t43.5 -73q0 -30 -22 -48t-57 -18q-11 0 -22 1z" />
    <glyph glyph-name="currency" unicode="&#xa4;" horiz-adv-x="606" 
d="M82 698l99 -99q57 40 122 40q66 0 123 -40l99 99l46 -45l-100 -100q39 -57 39 -121q0 -65 -39 -121l100 -100l-46 -45l-99 100q-58 -40 -122 -40q-65 0 -123 40l-99 -100l-45 45l99 100q-39 56 -39 121t39 121l-99 100zM302 574q-57 0 -98.5 -42t-41.5 -100
q0 -59 41.5 -100t100.5 -41t100.5 41t41.5 99q0 59 -42 101t-102 42z" />
    <glyph glyph-name="yen" unicode="&#xa5;" horiz-adv-x="587" 
d="M42 668h263v-49l-61 -6l-11 -11l85 -253l177 244l-4 16l-49 11v48h202v-49l-60 -11l-133 -180h127v-50h-168l-70 -95h209v-49h-215l-29 -165l14 -15l66 -5v-49h-293v49l71 5l21 15l29 165h-210v49h209l-32 95h-150v50h129l-61 181l-56 10v49z" />
    <glyph glyph-name="brokenbar" unicode="&#xa6;" 
d="M294 699v-370h-87v370h87zM294 199v-370h-87v370h87z" />
    <glyph glyph-name="section" unicode="&#xa7;" 
d="M489 695l-24 -136h-54l5 82q-48 28 -85 28q-46 0 -79 -27t-33 -64q0 -23 15 -39t52 -35q89 -46 122 -76q43 -43 43 -97q0 -58 -40 -107t-113 -80q43 -26 61 -51.5t18 -57.5q0 -76 -66.5 -126t-167.5 -50q-74 0 -153 32l24 137h57l-3 -92q49 -25 86 -25q47 0 80.5 27
t33.5 65q0 37 -43 66q-16 11 -92 50q-99 51 -99 140q0 119 150 184q-42 26 -59 50.5t-17 58.5q0 74 65 121t167 47q64 0 149 -25zM231 416q-104 -40 -104 -116q0 -39 24.5 -62.5t102.5 -65.5q102 56 102 120q0 35 -29 64t-96 60z" />
    <glyph glyph-name="dieresis" unicode="&#xa8;" 
d="M138 644q0 26 19 45t45 19t45 -19t19 -45t-19 -45t-45 -19t-45 19t-19 45zM344 644q0 26 19 45t45 19t45 -19t19 -45t-19 -45t-45 -19t-45 19t-19 45z" />
    <glyph glyph-name="copyright" unicode="&#xa9;" horiz-adv-x="876" 
d="M438 728q160 0 271 -114t111 -275t-111 -275t-271 -114t-271 114t-111 275t111 275t271 114zM438 684q-139 0 -236.5 -101.5t-97.5 -243.5t97.5 -243.5t236.5 -101.5t236.5 101.5t97.5 243.5t-97.5 243.5t-236.5 101.5zM594 548v-121h-53l-15 80q-28 18 -64 18
q-68 0 -107.5 -50.5t-39.5 -138.5q0 -83 42 -133.5t108 -50.5q29 0 62 15l15 86h52v-125q-68 -25 -143 -25q-43 0 -84.5 13.5t-78.5 40t-59.5 73.5t-22.5 107q0 65 23 113t61.5 73.5t81 37.5t88.5 12q67 0 134 -25z" />
    <glyph glyph-name="ordfeminine" unicode="&#xaa;" horiz-adv-x="391" 
d="M325 554h38q-10 -29 -21 -91l-19 -98q-5 -27 -5 -42q0 -32 29 -32q15 0 39 7v-23q-67 -22 -97 -22q-46 0 -46 45v3q-53 -48 -102 -48q-41 0 -65 29t-24 80q0 81 51.5 136.5t125.5 55.5q36 0 73 -15zM274 489l-25 36q-6 1 -13 1q-42 0 -72.5 -45.5t-30.5 -108.5
q0 -70 47 -70q28 0 64 28z" />
    <glyph glyph-name="guillemotleft" unicode="&#xab;" horiz-adv-x="448" 
d="M226 425l-15 -83l-129 -102l91 -102l-15 -83l-149 143l16 84zM427 425l-15 -83l-129 -102l91 -102l-15 -83l-149 143l16 84z" />
    <glyph glyph-name="logicalnot" unicode="&#xac;" horiz-adv-x="833" 
d="M709 421v-245h-81v164h-504v81h585z" />
    <glyph glyph-name="registered" unicode="&#xae;" horiz-adv-x="876" 
d="M438 728q160 0 271 -114t111 -275t-111 -275t-271 -114t-271 114t-111 275t111 275t271 114zM438 684q-139 0 -236.5 -101.5t-97.5 -243.5t97.5 -243.5t236.5 -101.5t236.5 101.5t97.5 243.5t-97.5 243.5t-236.5 101.5zM239 559h220q60 0 107.5 -26t47.5 -82
q0 -99 -119 -113q18 -3 33 -10.5t23.5 -14t18 -21.5t12.5 -21.5t11 -26.5l10 -25q12 -30 25.5 -43.5t23 -15t33.5 -1.5h5v-37q-36 -6 -62 -6q-52 0 -82 23q-27 22 -44 77q-16 50 -39.5 73.5t-64.5 23.5h-12v-144l57 -11v-37h-201v36l50 11v344l-53 12v35zM386 518v-163
q9 -1 26 -1q41 0 70 21.5t29 60.5q0 82 -104 82h-21z" />
    <glyph glyph-name="macron" unicode="&#xaf;" 
d="M150 675h331l-12 -68h-331z" />
    <glyph glyph-name="macron" unicode="&#x2c9;" 
d="M150 675h331l-12 -68h-331z" />
    <glyph glyph-name="degree" unicode="&#xb0;" horiz-adv-x="329" 
d="M212 713q58 0 100.5 -43t42.5 -102t-42.5 -101.5t-102.5 -42.5t-101.5 42t-41.5 102q0 61 42 103t103 42zM210 659q-37 0 -63 -26.5t-26 -63.5q0 -38 26.5 -64.5t63.5 -26.5q38 0 64 26.5t26 64.5t-26.5 64t-64.5 26z" />
    <glyph glyph-name="plusminus" unicode="&#xb1;" horiz-adv-x="833" 
d="M458 589v-163h251v-81h-251v-163h-83v163h-251v81h251v163h83zM709 89v-82h-585v82h585z" />
    <glyph glyph-name="twosuperior" unicode="&#xb2;" horiz-adv-x="373" 
d="M130 328h153l20 52h54l-24 -122h-313l4 51q133 86 182 131q68 62 68 122q0 27 -16.5 42.5t-45.5 15.5q-12 0 -29 -4l-16 -79q-24 -11 -43 -11q-20 0 -32 10.5t-12 28.5q0 40 49 71.5t110 31.5q58 0 93.5 -28.5t35.5 -75.5q0 -57 -50.5 -107.5t-187.5 -128.5z" />
    <glyph glyph-name="threesuperior" unicode="&#xb3;" horiz-adv-x="373" 
d="M183 617l-13 -70q-26 -10 -43 -10t-29 11.5t-12 27.5q0 37 48 64.5t112 27.5q57 0 92 -24.5t35 -64.5q0 -37 -28.5 -65t-78.5 -41q41 -4 63.5 -25.5t22.5 -56.5q0 -57 -58 -98.5t-138 -41.5q-54 0 -90 21.5t-36 53.5q0 20 14.5 34t35.5 14q11 0 36 -7l7 -63q16 -8 35 -8
q41 0 68 24.5t27 62.5q0 59 -69 59q-13 0 -46 -5l10 53h20q50 0 78 20.5t28 57.5q0 25 -17 39.5t-45 14.5q-15 0 -29 -5z" />
    <glyph glyph-name="acute" unicode="&#xb4;" 
d="M382 742h123l-190 -190h-67z" />
    <glyph glyph-name="mu" unicode="&#xb5;" horiz-adv-x="578" 
d="M86 432h100l-51 -242q-7 -35 -7 -55q0 -15 4 -28t21 -26t46 -13q79 0 104 114l53 250h100l-57 -271q-6 -28 -6 -49q0 -23 13 -33.5t31 -10.5q23 0 39 15t23 33t15.5 33t18.5 15q13 0 13 -17q0 -5 -4 -23.5t-17.5 -50t-34.5 -52.5q-33 -33 -80 -33q-85 0 -85 102h-2
q-43 -102 -132 -102q-43 0 -71 28.5t-35 79.5h-2l-10 -64q-8 -54 -13 -88t-5.5 -42.5t-1.5 -16.5t-4 -23q-5 -25 -11.5 -40t-16.5 -20t-13 -5.5t-13 -0.5q-47 0 -47 49q0 24 14 75.5t36 126t34 131.5z" />
    <glyph glyph-name="paragraph" unicode="&#xb6;" horiz-adv-x="492" 
d="M274 623v-361q-138 1 -196.5 49t-58.5 155t59 156t189 49h199v-43l-62 -10v-697h-57v702h-73z" />
    <glyph glyph-name="periodcentered" unicode="&#xb7;" horiz-adv-x="292" 
d="M148 412q31 0 53.5 -23t22.5 -54q0 -32 -22.5 -54t-54.5 -22t-54 22t-22 53q0 33 22.5 55.5t54.5 22.5z" />
    <glyph glyph-name="periodcentered" unicode="&#x22c5;" horiz-adv-x="292" 
d="M148 412q31 0 53.5 -23t22.5 -54q0 -32 -22.5 -54t-54.5 -22t-54 22t-22 53q0 33 22.5 55.5t54.5 22.5z" />
    <glyph glyph-name="periodcentered" unicode="&#x2219;" horiz-adv-x="292" 
d="M148 412q31 0 53.5 -23t22.5 -54q0 -32 -22.5 -54t-54.5 -22t-54 22t-22 53q0 33 22.5 55.5t54.5 22.5z" />
    <glyph glyph-name="cedilla" unicode="&#xb8;" 
d="M157 4h49l-11 -56q5 1 17 1q67 0 67 -61q0 -39 -34 -76t-109 -37q-40 0 -77 11l9 47q33 -8 58 -8q71 0 71 44q0 26 -40 26q-11 0 -21 -2z" />
    <glyph glyph-name="onesuperior" unicode="&#xb9;" horiz-adv-x="373" 
d="M264 667h46l-72 -360l4 -9h61v-40h-230v44h70l6 6l57 288l-2 1l-94 -11v37z" />
    <glyph glyph-name="ordmasculine" unicode="&#xba;" horiz-adv-x="391" 
d="M236 554q57 0 91.5 -34t34.5 -90q0 -74 -52 -126.5t-125 -52.5q-58 0 -92.5 34t-34.5 91q0 75 51.5 126.5t126.5 51.5zM226 523q-37 0 -62 -44t-25 -109q0 -87 53 -87q38 0 63.5 44t25.5 109q0 87 -55 87z" />
    <glyph glyph-name="guillemotright" unicode="&#xbb;" horiz-adv-x="449" 
d="M56 425l149 -143l-16 -84l-201 -143l15 83l129 102l-91 102zM257 425l149 -143l-15 -84l-202 -143l15 83l129 102l-91 102z" />
    <glyph glyph-name="onequarter" unicode="&#xbc;" horiz-adv-x="932" 
d="M264 667h46l-72 -360l4 -9h61v-40h-230v44h70l6 6l57 288l-2 1l-94 -11v37zM669 671h69l-471 -671h-70zM763 406h71l-48 -245h70l-11 -56h-70l-25 -124h-84l24 124h-196l11 53zM731 306l-149 -145h120z" />
    <glyph glyph-name="onehalf" unicode="&#xbd;" horiz-adv-x="932" 
d="M264 667h46l-72 -360l4 -9h61v-40h-230v44h70l6 6l57 288l-2 1l-94 -11v37zM669 671h69l-471 -671h-70zM638 70h153l20 52h54l-24 -122h-313l4 51q99 65 124.5 83.5t57.5 47.5q68 62 68 122q0 27 -16.5 42.5t-44.5 15.5q-14 0 -30 -4l-16 -79q-23 -11 -43 -11t-32 10.5
t-12 28.5q0 40 49 71.5t110 31.5q58 0 93.5 -28.5t35.5 -75.5q0 -58 -51 -108.5t-187 -127.5z" />
    <glyph glyph-name="threequarters" unicode="&#xbe;" horiz-adv-x="932" 
d="M183 617l-13 -70q-26 -10 -43 -10t-29 11.5t-12 27.5q0 37 48 64.5t112 27.5q57 0 92 -24.5t35 -64.5q0 -37 -28.5 -65t-78.5 -41q41 -4 63.5 -25.5t22.5 -56.5q0 -57 -58 -98.5t-138 -41.5q-54 0 -90 21.5t-36 53.5q0 20 14.5 34t35.5 14q11 0 36 -7l7 -63q16 -8 35 -8
q41 0 68 24.5t27 62.5q0 59 -69 59q-13 0 -46 -5l10 53h20q50 0 78 20.5t28 57.5q0 25 -17 39.5t-45 14.5q-15 0 -29 -5zM668 671h70l-472 -671h-69zM763 406h71l-48 -245h70l-11 -56h-70l-25 -124h-84l24 124h-196l11 53zM731 306l-149 -145h120z" />
    <glyph glyph-name="questiondown" unicode="&#xbf;" horiz-adv-x="492" 
d="M222 201l17 91h65l-25 -135q-180 -62 -180 -200q0 -49 27 -72t85 -25l66 113q10 1 24 1q60 0 60 -49q0 -52 -57.5 -87.5t-142.5 -35.5q-89 0 -140 41.5t-51 113.5q0 163 252 244zM302 491q27 0 46 -19t19 -47q0 -34 -25.5 -59.5t-59.5 -25.5q-28 0 -47 19.5t-19 47.5
q0 34 25.5 59t60.5 25z" />
    <glyph glyph-name="Agrave" unicode="&#xc0;" horiz-adv-x="636" 
d="M339 677h103l103 -608l10 -14l58 -7v-48h-263v48l61 7l11 14l-28 167h-223l-92 -167l10 -14l59 -7v-48h-215v48l56 7zM342 551l-141 -260h183zM246 887h125l65 -155h-68z" />
    <glyph glyph-name="Aacute" unicode="&#xc1;" horiz-adv-x="636" 
d="M339 677h103l103 -608l10 -14l58 -7v-48h-263v48l61 7l11 14l-28 167h-223l-92 -167l10 -14l59 -7v-48h-215v48l56 7zM342 551l-141 -260h183zM472 887h131l-191 -155h-75z" />
    <glyph glyph-name="Acircumflex" unicode="&#xc2;" horiz-adv-x="636" 
d="M339 677h103l103 -608l10 -14l58 -7v-48h-263v48l61 7l11 14l-28 167h-223l-92 -167l10 -14l59 -7v-48h-215v48l56 7zM342 551l-141 -260h183zM371 887h82l79 -155h-78l-55 91l-97 -91h-78z" />
    <glyph glyph-name="Atilde" unicode="&#xc3;" horiz-adv-x="636" 
d="M339 677h103l103 -608l10 -14l58 -7v-48h-263v48l61 7l11 14l-28 167h-223l-92 -167l10 -14l59 -7v-48h-215v48l56 7zM342 551l-141 -260h183zM507 880h58q-19 -123 -113 -123q-32 0 -71 18l-19 9q-26 13 -39 13t-25.5 -13.5t-17.5 -39.5h-58q15 123 115 123q24 0 63 -17
l31 -14q21 -10 35 -10q29 0 41 54z" />
    <glyph glyph-name="Adieresis" unicode="&#xc4;" horiz-adv-x="636" 
d="M339 677h103l103 -608l10 -14l58 -7v-48h-263v48l61 7l11 14l-28 167h-223l-92 -167l10 -14l59 -7v-48h-215v48l56 7zM342 551l-141 -260h183zM226 812q0 26 19 45t45 19t45 -19t19 -45t-19 -45t-45 -19t-45 19t-19 45zM432 812q0 26 19 45t45 19t45 -19t19 -45t-19 -45
t-45 -19t-45 19t-19 45z" />
    <glyph glyph-name="Aring" unicode="&#xc5;" horiz-adv-x="636" 
d="M339 677h103l103 -608l10 -14l58 -7v-48h-263v48l61 7l11 14l-28 167h-223l-92 -167l10 -14l59 -7v-48h-215v48l56 7zM342 551l-141 -260h183zM292 846q0 47 33.5 80.5t80.5 33.5t80.5 -33.5t33.5 -80.5t-33.5 -80.5t-80.5 -33.5t-80.5 33.5t-33.5 80.5zM342 846
q0 -26 19 -45t45 -19t45 19t19 45t-19 45t-45 19t-45 -19t-19 -45z" />
    <glyph glyph-name="AE" unicode="&#xc6;" horiz-adv-x="893" 
d="M314 671h580l-31 -157h-66v85l-11 15h-183l-46 -239h119l16 15l23 72h57l-44 -231h-53v73l-11 14h-117l-48 -260h219l16 11l36 110h67l-36 -179h-500v48l62 7l16 14l35 183h-218l-138 -183l4 -14l62 -7v-48h-225v48l66 13l418 541l-8 14l-61 7v48zM484 631l-245 -322h187
z" />
    <glyph glyph-name="Ccedilla" unicode="&#xc7;" horiz-adv-x="624" 
d="M634 650l-30 -169h-68v109l-10 18q-38 15 -74 15q-113 0 -195.5 -103.5t-82.5 -250.5q0 -98 44 -154q52 -67 154 -67q29 0 54 6l19 18l46 124h67l-32 -173q-109 -36 -196 -36h-8l-8 -39q5 1 17 1q67 0 67 -61q0 -39 -34 -76t-109 -37q-40 0 -77 11l9 47q33 -8 58 -8
q71 0 71 44q0 26 -40 26q-11 0 -21 -2l18 97q-103 12 -170 82.5t-67 198.5q0 94 37 175t100 137q115 101 276 101q81 0 185 -34z" />
    <glyph glyph-name="Egrave" unicode="&#xc8;" horiz-adv-x="578" 
d="M82 671h495l-30 -156h-64v88l-12 12h-187l-45 -240h122l15 14l24 74h57l-43 -233h-52v75l-13 14h-120l-49 -261h224l14 14l38 107h66l-33 -179h-513v48l65 7l14 14l100 534l-9 14l-64 6v48zM217 887h125l65 -155h-68z" />
    <glyph glyph-name="Eacute" unicode="&#xc9;" horiz-adv-x="578" 
d="M82 671h495l-30 -156h-64v88l-12 12h-187l-45 -240h122l15 14l24 74h57l-43 -233h-52v75l-13 14h-120l-49 -261h224l14 14l38 107h66l-33 -179h-513v48l65 7l14 14l100 534l-9 14l-64 6v48zM443 887h131l-191 -155h-75z" />
    <glyph glyph-name="Ecircumflex" unicode="&#xca;" horiz-adv-x="578" 
d="M82 671h495l-30 -156h-64v88l-12 12h-187l-45 -240h122l15 14l24 74h57l-43 -233h-52v75l-13 14h-120l-49 -261h224l14 14l38 107h66l-33 -179h-513v48l65 7l14 14l100 534l-9 14l-64 6v48zM342 887h82l79 -155h-78l-55 91l-97 -91h-78z" />
    <glyph glyph-name="Edieresis" unicode="&#xcb;" horiz-adv-x="578" 
d="M82 671h495l-30 -156h-64v88l-12 12h-187l-45 -240h122l15 14l24 74h57l-43 -233h-52v75l-13 14h-120l-49 -261h224l14 14l38 107h66l-33 -179h-513v48l65 7l14 14l100 534l-9 14l-64 6v48zM197 812q0 26 19.5 45t44.5 19t44.5 -19t19.5 -45t-19.5 -45t-44.5 -19
t-44.5 19t-19.5 45zM403 812q0 26 19.5 45t44.5 19t44.5 -19t19.5 -45t-19.5 -45t-44.5 -19t-44.5 19t-19.5 45z" />
    <glyph glyph-name="Igrave" unicode="&#xcc;" horiz-adv-x="345" 
d="M86 671h282v-48l-65 -6l-16 -14l-100 -534l12 -14l65 -7v-48h-284v48l66 7l15 14l100 534l-10 14l-65 6v48zM101 887h125l65 -155h-68z" />
    <glyph glyph-name="Iacute" unicode="&#xcd;" horiz-adv-x="345" 
d="M86 671h282v-48l-65 -6l-16 -14l-100 -534l12 -14l65 -7v-48h-284v48l66 7l15 14l100 534l-10 14l-65 6v48zM327 887h131l-191 -155h-75z" />
    <glyph glyph-name="Icircumflex" unicode="&#xce;" horiz-adv-x="345" 
d="M86 671h282v-48l-65 -6l-16 -14l-100 -534l12 -14l65 -7v-48h-284v48l66 7l15 14l100 534l-10 14l-65 6v48zM226 887h82l79 -155h-78l-55 91l-97 -91h-78z" />
    <glyph glyph-name="Idieresis" unicode="&#xcf;" horiz-adv-x="345" 
d="M86 671h282v-48l-65 -6l-16 -14l-100 -534l12 -14l65 -7v-48h-284v48l66 7l15 14l100 534l-10 14l-65 6v48zM81 812q0 26 19.5 45t44.5 19t44.5 -19t19.5 -45t-19.5 -45t-44.5 -19t-44.5 19t-19.5 45zM287 812q0 26 19.5 45t44.5 19t44.5 -19t19.5 -45t-19.5 -45
t-44.5 -19t-44.5 19t-19.5 45z" />
    <glyph glyph-name="Eth" unicode="&#xd0;" horiz-adv-x="689" 
d="M103 324h-82l11 60h82l41 219l-10 14l-64 6v48h270q307 0 307 -258q0 -114 -55 -213.5t-146 -149.5q-88 -50 -233 -50h-249v48l66 7l14 14zM231 324l-50 -267h40q125 0 197 71q45 45 73.5 125.5t28.5 163.5q0 94 -47.5 146t-133.5 52h-54l-43 -231h128l-12 -60h-127z" />
    <glyph glyph-name="Ntilde" unicode="&#xd1;" horiz-adv-x="716" 
d="M81 671h221v-24l206 -485l84 441l-12 14l-65 6v48h229v-48l-64 -6l-16 -14l-112 -603h-103l-232 543l-90 -474l10 -14l67 -7v-48h-228v48l65 7l14 14l101 534l-11 14l-64 6v48zM547 880h58q-19 -123 -113 -123q-32 0 -71 18l-19 9q-26 13 -39 13t-25.5 -13.5t-17.5 -39.5
h-58q15 123 115 123q24 0 63 -17l31 -14q21 -10 35 -10q29 0 41 54z" />
    <glyph glyph-name="Ograve" unicode="&#xd2;" horiz-adv-x="728" 
d="M418 684q117 0 193 -71q81 -74 81 -208q0 -105 -45 -200t-133 -156.5t-198 -61.5q-131 0 -207 84q-69 76 -69 199q0 98 43 192.5t119 151.5q92 70 216 70zM404 623q-61 0 -114 -57t-82.5 -140.5t-29.5 -167.5q0 -88 36 -146q41 -64 113 -64q89 0 154 100q73 111 73 263
q0 32 -5 62.5t-19 67.5t-46.5 59.5t-79.5 22.5zM288 887h125l65 -155h-68z" />
    <glyph glyph-name="Oacute" unicode="&#xd3;" horiz-adv-x="728" 
d="M418 684q117 0 193 -71q81 -74 81 -208q0 -105 -45 -200t-133 -156.5t-198 -61.5q-131 0 -207 84q-69 76 -69 199q0 98 43 192.5t119 151.5q92 70 216 70zM404 623q-61 0 -114 -57t-82.5 -140.5t-29.5 -167.5q0 -88 36 -146q41 -64 113 -64q89 0 154 100q73 111 73 263
q0 32 -5 62.5t-19 67.5t-46.5 59.5t-79.5 22.5zM514 887h131l-191 -155h-75z" />
    <glyph glyph-name="Ocircumflex" unicode="&#xd4;" horiz-adv-x="728" 
d="M418 684q117 0 193 -71q81 -74 81 -208q0 -105 -45 -200t-133 -156.5t-198 -61.5q-131 0 -207 84q-69 76 -69 199q0 98 43 192.5t119 151.5q92 70 216 70zM404 623q-61 0 -114 -57t-82.5 -140.5t-29.5 -167.5q0 -88 36 -146q41 -64 113 -64q89 0 154 100q73 111 73 263
q0 32 -5 62.5t-19 67.5t-46.5 59.5t-79.5 22.5zM413 887h82l79 -155h-78l-55 91l-97 -91h-78z" />
    <glyph glyph-name="Otilde" unicode="&#xd5;" horiz-adv-x="728" 
d="M418 684q117 0 193 -71q81 -74 81 -208q0 -105 -45 -200t-133 -156.5t-198 -61.5q-131 0 -207 84q-69 76 -69 199q0 98 43 192.5t119 151.5q92 70 216 70zM404 623q-61 0 -114 -57t-82.5 -140.5t-29.5 -167.5q0 -88 36 -146q41 -64 113 -64q89 0 154 100q73 111 73 263
q0 32 -5 62.5t-19 67.5t-46.5 59.5t-79.5 22.5zM549 880h58q-19 -123 -113 -123q-32 0 -71 18l-19 9q-26 13 -39 13t-25.5 -13.5t-17.5 -39.5h-58q15 123 115 123q24 0 63 -17l31 -14q21 -10 35 -10q29 0 41 54z" />
    <glyph glyph-name="Odieresis" unicode="&#xd6;" horiz-adv-x="728" 
d="M418 684q117 0 193 -71q81 -74 81 -208q0 -105 -45 -200t-133 -156.5t-198 -61.5q-131 0 -207 84q-69 76 -69 199q0 98 43 192.5t119 151.5q92 70 216 70zM404 623q-61 0 -114 -57t-82.5 -140.5t-29.5 -167.5q0 -88 36 -146q41 -64 113 -64q89 0 154 100q73 111 73 263
q0 32 -5 62.5t-19 67.5t-46.5 59.5t-79.5 22.5zM268 812q0 26 19 45t45 19t45 -19t19 -45t-19 -45t-45 -19t-45 19t-19 45zM474 812q0 26 19 45t45 19t45 -19t19 -45t-19 -45t-45 -19t-45 19t-19 45z" />
    <glyph glyph-name="multiply" unicode="&#xd7;" horiz-adv-x="833" 
d="M421 356l225 224l57 -57l-224 -225l224 -224l-57 -58l-225 225l-224 -225l-57 58l224 224l-224 225l57 57z" />
    <glyph glyph-name="Oslash" unicode="&#xd8;" horiz-adv-x="726" 
d="M602 750l42 -28l-59 -89q107 -85 107 -229q0 -169 -108 -293t-271 -124q-73 0 -140 33l-67 -101l-37 31l63 97q-49 49 -71 101t-22 121q0 109 47.5 204t135.5 153t196 58q68 0 123 -26zM194 137l303 456q-39 33 -91 33q-65 0 -119.5 -53t-84.5 -136t-30 -172
q0 -65 22 -128zM527 550l-304 -459q46 -46 104 -46q96 0 163.5 107t67.5 259q0 85 -31 139z" />
    <glyph glyph-name="Ugrave" unicode="&#xd9;" horiz-adv-x="703" 
d="M77 671h277v-48l-63 -6l-15 -14l-64 -345q-9 -54 -9 -73q0 -119 132 -119q82 0 122.5 40.5t60.5 142.5l69 354l-11 14l-66 6v48h226v-48l-64 -6l-15 -14l-67 -352q-13 -68 -28.5 -107.5t-44.5 -71.5q-80 -85 -228 -85q-215 0 -215 176q0 44 10 91l66 349l-12 14l-61 6v48
zM279 887h125l65 -155h-68z" />
    <glyph glyph-name="Uacute" unicode="&#xda;" horiz-adv-x="703" 
d="M77 671h277v-48l-63 -6l-15 -14l-64 -345q-9 -54 -9 -73q0 -119 132 -119q82 0 122.5 40.5t60.5 142.5l69 354l-11 14l-66 6v48h226v-48l-64 -6l-15 -14l-67 -352q-13 -68 -28.5 -107.5t-44.5 -71.5q-80 -85 -228 -85q-215 0 -215 176q0 44 10 91l66 349l-12 14l-61 6v48
zM514 887h131l-191 -155h-75z" />
    <glyph glyph-name="Ucircumflex" unicode="&#xdb;" horiz-adv-x="703" 
d="M77 671h277v-48l-63 -6l-15 -14l-64 -345q-9 -54 -9 -73q0 -119 132 -119q82 0 122.5 40.5t60.5 142.5l69 354l-11 14l-66 6v48h226v-48l-64 -6l-15 -14l-67 -352q-13 -68 -28.5 -107.5t-44.5 -71.5q-80 -85 -228 -85q-215 0 -215 176q0 44 10 91l66 349l-12 14l-61 6v48
zM413 887h82l79 -155h-78l-55 91l-97 -91h-78z" />
    <glyph glyph-name="Udieresis" unicode="&#xdc;" horiz-adv-x="703" 
d="M77 671h277v-48l-63 -6l-15 -14l-64 -345q-9 -54 -9 -73q0 -119 132 -119q82 0 122.5 40.5t60.5 142.5l69 354l-11 14l-66 6v48h226v-48l-64 -6l-15 -14l-67 -352q-13 -68 -28.5 -107.5t-44.5 -71.5q-80 -85 -228 -85q-215 0 -215 176q0 44 10 91l66 349l-12 14l-61 6v48
zM268 812q0 26 19 45t45 19t45 -19t19 -45t-19 -45t-45 -19t-45 19t-19 45zM474 812q0 26 19 45t45 19t45 -19t19 -45t-19 -45t-45 -19t-45 19t-19 45z" />
    <glyph glyph-name="Yacute" unicode="&#xdd;" horiz-adv-x="589" 
d="M27 671h273v-48l-62 -6l-12 -14l86 -260l185 260l-10 14l-64 6v48h234v-48l-64 -6l-252 -338l-39 -210l11 -14l68 -7v-48h-288v48l67 7l16 14l38 199l-115 341l-9 8l-63 6v48zM448 887h131l-191 -155h-75z" />
    <glyph glyph-name="Thorn" unicode="&#xde;" horiz-adv-x="579" 
d="M82 671h276v-48l-65 -6l-13 -14l-12 -60h47q124 0 182 -41t58 -128q0 -114 -83.5 -182.5t-233.5 -68.5q-22 0 -49 2l-10 -56l9 -14l65 -7v-48h-277v48l63 7l15 14l100 534l-11 14l-61 6v48zM257 486l-57 -305q15 -1 29 -1q89 0 138.5 50t49.5 139q0 118 -133 118
q-9 0 -27 -1z" />
    <glyph glyph-name="germandbls" unicode="&#xdf;" horiz-adv-x="626" 
d="M541 454h-9q-12 1 -24 1q-50 0 -77 -18t-27 -51q0 -22 11.5 -37.5t49.5 -44.5q62 -48 82 -70q27 -33 27 -78q0 -71 -55.5 -118.5t-138.5 -47.5q-65 0 -109 30t-44 74q0 28 17.5 46t45.5 18q26 0 52 -25l-16 -67q28 -24 62 -24q35 0 56.5 19t21.5 50q0 27 -14 44t-63 52
q-61 43 -81.5 70t-20.5 63q0 56 39 94t109 50q23 77 23 119q0 78 -72 78q-130 0 -168 -262l-38 -260q-14 -96 -35 -155.5t-58 -107.5q-39 -50 -86 -79.5t-88 -29.5q-30 0 -50.5 19t-20.5 47q0 39 40 60l107 -56q24 35 39.5 92.5t31.5 174.5l39 283q23 162 99 246t200 84
q78 0 123.5 -39.5t45.5 -106.5q0 -49 -26 -137z" />
    <glyph glyph-name="agrave" unicode="&#xe0;" horiz-adv-x="573" 
d="M453 493h59q-18 -65 -34 -152l-29 -162q-9 -51 -9 -70q0 -54 47 -54q25 0 61 12v-38q-108 -35 -152 -35q-29 0 -51.5 17t-22.5 57v4q-86 -82 -162 -82q-67 0 -104 53.5t-37 129.5q0 130 81 224.5t204 94.5q51 0 112 -23zM370 385l-40 60h-9q-78 0 -126 -71t-48 -183
q0 -117 75 -117q43 0 102 46zM200 742h124l60 -190h-67z" />
    <glyph glyph-name="aacute" unicode="&#xe1;" horiz-adv-x="573" 
d="M453 493h59q-18 -65 -34 -152l-29 -162q-9 -51 -9 -70q0 -54 47 -54q25 0 61 12v-38q-108 -35 -152 -35q-29 0 -51.5 17t-22.5 57v4q-86 -82 -162 -82q-67 0 -104 53.5t-37 129.5q0 130 81 224.5t204 94.5q51 0 112 -23zM370 385l-40 60h-9q-78 0 -126 -71t-48 -183
q0 -117 75 -117q43 0 102 46zM418 742h123l-190 -190h-67z" />
    <glyph glyph-name="acircumflex" unicode="&#xe2;" horiz-adv-x="573" 
d="M453 493h59q-18 -65 -34 -152l-29 -162q-9 -51 -9 -70q0 -54 47 -54q25 0 61 12v-38q-108 -35 -152 -35q-29 0 -51.5 17t-22.5 57v4q-86 -82 -162 -82q-67 0 -104 53.5t-37 129.5q0 130 81 224.5t204 94.5q51 0 112 -23zM370 385l-40 60h-9q-78 0 -126 -71t-48 -183
q0 -117 75 -117q43 0 102 46zM321 742h87l74 -190h-77l-53 125l-100 -125h-78z" />
    <glyph glyph-name="atilde" unicode="&#xe3;" horiz-adv-x="573" 
d="M453 493h59q-18 -65 -34 -152l-29 -162q-9 -51 -9 -70q0 -54 47 -54q25 0 61 12v-38q-108 -35 -152 -35q-29 0 -51.5 17t-22.5 57v4q-86 -82 -162 -82q-67 0 -104 53.5t-37 129.5q0 130 81 224.5t204 94.5q51 0 112 -23zM370 385l-40 60h-9q-78 0 -126 -71t-48 -183
q0 -117 75 -117q43 0 102 46zM467 722h54q-9 -57 -36 -96t-77 -39q-34 0 -76 21q-13 7 -24 13.5t-14.5 8t-8 2.5t-13.5 1q-40 0 -50 -63h-54q6 59 36.5 97.5t78.5 38.5q28 0 48 -10q57 -37 87 -37q39 0 49 63z" />
    <glyph glyph-name="adieresis" unicode="&#xe4;" horiz-adv-x="573" 
d="M453 493h59q-18 -65 -34 -152l-29 -162q-9 -51 -9 -70q0 -54 47 -54q25 0 61 12v-38q-108 -35 -152 -35q-29 0 -51.5 17t-22.5 57v4q-86 -82 -162 -82q-67 0 -104 53.5t-37 129.5q0 130 81 224.5t204 94.5q51 0 112 -23zM370 385l-40 60h-9q-78 0 -126 -71t-48 -183
q0 -117 75 -117q43 0 102 46zM174 644q0 26 19 45t45 19t45 -19t19 -45t-19 -45t-45 -19t-45 19t-19 45zM380 644q0 26 19 45t45 19t45 -19t19 -45t-19 -45t-45 -19t-45 19t-19 45z" />
    <glyph glyph-name="aring" unicode="&#xe5;" horiz-adv-x="573" 
d="M453 493h59q-18 -65 -34 -152l-29 -162q-9 -51 -9 -70q0 -54 47 -54q25 0 61 12v-38q-108 -35 -152 -35q-29 0 -51.5 17t-22.5 57v4q-86 -82 -162 -82q-67 0 -104 53.5t-37 129.5q0 130 81 224.5t204 94.5q51 0 112 -23zM370 385l-40 60h-9q-78 0 -126 -71t-48 -183
q0 -117 75 -117q43 0 102 46zM236 666q0 47 33.5 80.5t80.5 33.5t80.5 -33.5t33.5 -80.5t-33.5 -80.5t-80.5 -33.5t-80.5 33.5t-33.5 80.5zM286 666q0 -26 19 -45t45 -19t45 19t19 45t-19 45t-45 19t-45 -19t-19 -45z" />
    <glyph glyph-name="ae" unicode="&#xe6;" horiz-adv-x="721" 
d="M658 139v-62q-62 -47 -110.5 -67t-99.5 -20q-92 0 -141 78q-104 -78 -186 -78q-54 0 -85.5 30t-31.5 81q0 77 70.5 121t225.5 64l10 52q3 16 3 31q0 71 -72 71q-15 0 -43 -6l-18 -97h-96q-27 0 -27 19q0 56 64.5 96t153.5 40q46 0 75 -13.5t51 -44.5q95 58 162 58
q55 0 87 -29t32 -78q0 -78 -72.5 -119t-210.5 -42q-1 -10 -1 -22q0 -64 27 -99.5t77 -35.5q67 0 156 72zM292 106q-8 41 -8 72q0 28 5 60q-85 -12 -123 -38t-38 -71q0 -28 16.5 -44t45.5 -16q39 0 102 37zM403 267q80 10 127 43.5t47 82.5q0 22 -13 36t-33 14
q-41 0 -74.5 -46.5t-53.5 -129.5z" />
    <glyph glyph-name="ccedilla" unicode="&#xe7;" horiz-adv-x="442" 
d="M331 339l-65 102q-58 -22 -88.5 -89.5t-30.5 -143.5q0 -18 3 -37t11.5 -45t30 -42t52.5 -16q67 0 155 76v-59q-96 -86 -196 -94l-8 -43q5 1 17 1q67 0 67 -61q0 -39 -34 -76t-109 -37q-40 0 -77 11l9 47q33 -8 58 -8q71 0 71 44q0 26 -40 26q-11 0 -21 -2l19 100
q-66 12 -101 62.5t-35 128.5q0 118 83.5 213t202.5 95q38 0 73 -19t35 -60q0 -37 -23.5 -54.5t-58.5 -19.5z" />
    <glyph glyph-name="egrave" unicode="&#xe8;" horiz-adv-x="461" 
d="M400 136l-2 -61q-113 -85 -206 -85q-50 0 -86.5 17.5t-55 47t-26.5 60.5t-8 66q0 52 20 106t56 100t91.5 75.5t120.5 29.5q60 0 92 -28t32 -82q0 -45 -26.5 -78t-68.5 -49t-81 -22.5t-77 -6.5q-28 0 -37 1q-2 -16 -2 -38q0 -58 29 -89.5t75 -31.5q70 0 160 68zM146 269
q88 5 140 46q41 33 41 76q0 23 -13.5 37.5t-35.5 14.5q-50 0 -89 -64q-31 -50 -43 -110zM164 742h124l60 -190h-67z" />
    <glyph glyph-name="eacute" unicode="&#xe9;" horiz-adv-x="461" 
d="M400 136l-2 -61q-113 -85 -206 -85q-50 0 -86.5 17.5t-55 47t-26.5 60.5t-8 66q0 52 20 106t56 100t91.5 75.5t120.5 29.5q60 0 92 -28t32 -82q0 -45 -26.5 -78t-68.5 -49t-81 -22.5t-77 -6.5q-28 0 -37 1q-2 -16 -2 -38q0 -58 29 -89.5t75 -31.5q70 0 160 68zM146 269
q88 5 140 46q41 33 41 76q0 23 -13.5 37.5t-35.5 14.5q-50 0 -89 -64q-31 -50 -43 -110zM382 742h123l-190 -190h-67z" />
    <glyph glyph-name="ecircumflex" unicode="&#xea;" horiz-adv-x="461" 
d="M400 136l-2 -61q-113 -85 -206 -85q-50 0 -86.5 17.5t-55 47t-26.5 60.5t-8 66q0 52 20 106t56 100t91.5 75.5t120.5 29.5q60 0 92 -28t32 -82q0 -45 -26.5 -78t-68.5 -49t-81 -22.5t-77 -6.5q-28 0 -37 1q-2 -16 -2 -38q0 -58 29 -89.5t75 -31.5q70 0 160 68zM146 269
q88 5 140 46q41 33 41 76q0 23 -13.5 37.5t-35.5 14.5q-50 0 -89 -64q-31 -50 -43 -110zM285 742h87l74 -190h-77l-53 125l-100 -125h-78z" />
    <glyph glyph-name="edieresis" unicode="&#xeb;" horiz-adv-x="461" 
d="M400 136l-2 -61q-113 -85 -206 -85q-50 0 -86.5 17.5t-55 47t-26.5 60.5t-8 66q0 52 20 106t56 100t91.5 75.5t120.5 29.5q60 0 92 -28t32 -82q0 -45 -26.5 -78t-68.5 -49t-81 -22.5t-77 -6.5q-28 0 -37 1q-2 -16 -2 -38q0 -58 29 -89.5t75 -31.5q70 0 160 68zM146 269
q88 5 140 46q41 33 41 76q0 23 -13.5 37.5t-35.5 14.5q-50 0 -89 -64q-31 -50 -43 -110zM138 644q0 26 19 45t45 19t45 -19t19 -45t-19 -45t-45 -19t-45 19t-19 45zM344 644q0 26 19 45t45 19t45 -19t19 -45t-19 -45t-45 -19t-45 19t-19 45z" />
    <glyph glyph-name="igrave" unicode="&#xec;" horiz-adv-x="315" 
d="M199 493h44l-63 -338q-5 -40 -5 -43q0 -53 48 -53q21 0 70 14v-41q-112 -38 -167 -38q-37 0 -57.5 20t-20.5 56q0 24 9 68l53 269l-82 12v35zM72 742h124l60 -190h-67z" />
    <glyph glyph-name="iacute" unicode="&#xed;" horiz-adv-x="315" 
d="M199 493h44l-63 -338q-5 -40 -5 -43q0 -53 48 -53q21 0 70 14v-41q-112 -38 -167 -38q-37 0 -57.5 20t-20.5 56q0 24 9 68l53 269l-82 12v35zM290 742h123l-190 -190h-67z" />
    <glyph glyph-name="icircumflex" unicode="&#xee;" horiz-adv-x="315" 
d="M199 493h44l-63 -338q-5 -40 -5 -43q0 -53 48 -53q21 0 70 14v-41q-112 -38 -167 -38q-37 0 -57.5 20t-20.5 56q0 24 9 68l53 269l-82 12v35zM193 742h87l74 -190h-77l-53 125l-100 -125h-78z" />
    <glyph glyph-name="idieresis" unicode="&#xef;" horiz-adv-x="315" 
d="M199 493h44l-63 -338q-5 -40 -5 -43q0 -53 48 -53q21 0 70 14v-41q-112 -38 -167 -38q-37 0 -57.5 20t-20.5 56q0 24 9 68l53 269l-82 12v35zM46 644q0 26 19 45t45 19t45 -19t19 -45t-19 -45t-45 -19t-45 19t-19 45zM252 644q0 26 19 45t45 19t45 -19t19 -45t-19 -45
t-45 -19t-45 19t-19 45z" />
    <glyph glyph-name="eth" unicode="&#xf0;" horiz-adv-x="548" 
d="M514 657l-108 -43q92 -161 92 -301q0 -141 -79.5 -232t-202.5 -91q-91 0 -144.5 55.5t-53.5 149.5q0 119 79 203t192 84q26 0 57 -4q-23 58 -43 96l-132 -51l-16 42l123 47l-30 47l-81 16l3 34l157 31l54 -86l117 45zM357 428q-28 7 -47 7q-75 0 -119.5 -68.5
t-44.5 -182.5q0 -142 87 -142q64 0 102.5 70.5t38.5 186.5q0 74 -17 129z" />
    <glyph glyph-name="ntilde" unicode="&#xf1;" horiz-adv-x="598" 
d="M203 493h38l-20 -99q41 32 64 48t61.5 33t71.5 17q45 0 69.5 -29t24.5 -70q0 -27 -10 -77l-30 -137q-11 -51 -11 -73q0 -51 50 -51q27 0 58 11v-38q-93 -34 -149 -34q-35 0 -59 17t-24 51q0 13 8 56l35 166q9 40 9 64q0 60 -48 60q-41 0 -126 -66l-58 -342h-127l79 407
l-83 12v35zM480 722h54q-9 -57 -36 -96t-77 -39q-34 0 -76 21q-13 7 -24 13.5t-14.5 8t-8 2.5t-13.5 1q-40 0 -50 -63h-54q6 59 36.5 97.5t78.5 38.5q28 0 48 -10q57 -37 87 -37q39 0 49 63z" />
    <glyph glyph-name="ograve" unicode="&#xf2;" horiz-adv-x="551" 
d="M301 492q91 0 145 -56t54 -150q0 -70 -27 -128.5t-69.5 -94t-90.5 -54.5t-95 -19q-94 0 -148 59q-52 56 -52 147q0 51 18 101.5t51 95t89 72t125 27.5zM286 440q-44 0 -75 -33t-43.5 -82t-17 -83t-4.5 -59q0 -74 20.5 -107.5t64.5 -33.5q52 0 91 57q50 74 50 197
q0 144 -86 144zM189 742h124l60 -190h-67z" />
    <glyph glyph-name="oacute" unicode="&#xf3;" horiz-adv-x="551" 
d="M301 492q91 0 145 -56t54 -150q0 -70 -27 -128.5t-69.5 -94t-90.5 -54.5t-95 -19q-94 0 -148 59q-52 56 -52 147q0 51 18 101.5t51 95t89 72t125 27.5zM286 440q-44 0 -75 -33t-43.5 -82t-17 -83t-4.5 -59q0 -74 20.5 -107.5t64.5 -33.5q52 0 91 57q50 74 50 197
q0 144 -86 144zM392 742h123l-190 -190h-67z" />
    <glyph glyph-name="ocircumflex" unicode="&#xf4;" horiz-adv-x="551" 
d="M301 492q91 0 145 -56t54 -150q0 -70 -27 -128.5t-69.5 -94t-90.5 -54.5t-95 -19q-94 0 -148 59q-52 56 -52 147q0 51 18 101.5t51 95t89 72t125 27.5zM286 440q-44 0 -75 -33t-43.5 -82t-17 -83t-4.5 -59q0 -74 20.5 -107.5t64.5 -33.5q52 0 91 57q50 74 50 197
q0 144 -86 144zM295 742h87l74 -190h-77l-53 125l-100 -125h-78z" />
    <glyph glyph-name="otilde" unicode="&#xf5;" horiz-adv-x="551" 
d="M301 492q91 0 145 -56t54 -150q0 -70 -27 -128.5t-69.5 -94t-90.5 -54.5t-95 -19q-94 0 -148 59q-52 56 -52 147q0 51 18 101.5t51 95t89 72t125 27.5zM286 440q-44 0 -75 -33t-43.5 -82t-17 -83t-4.5 -59q0 -74 20.5 -107.5t64.5 -33.5q52 0 91 57q50 74 50 197
q0 144 -86 144zM441 722h54q-9 -57 -36 -96t-77 -39q-34 0 -76 21q-13 7 -24 13.5t-14.5 8t-8 2.5t-13.5 1q-40 0 -50 -63h-54q6 59 36.5 97.5t78.5 38.5q28 0 48 -10q57 -37 87 -37q39 0 49 63z" />
    <glyph glyph-name="odieresis" unicode="&#xf6;" horiz-adv-x="551" 
d="M301 492q91 0 145 -56t54 -150q0 -70 -27 -128.5t-69.5 -94t-90.5 -54.5t-95 -19q-94 0 -148 59q-52 56 -52 147q0 51 18 101.5t51 95t89 72t125 27.5zM286 440q-44 0 -75 -33t-43.5 -82t-17 -83t-4.5 -59q0 -74 20.5 -107.5t64.5 -33.5q52 0 91 57q50 74 50 197
q0 144 -86 144zM148 644q0 26 19 45t45 19t45 -19t19 -45t-19 -45t-45 -19t-45 19t-19 45zM354 644q0 26 19 45t45 19t45 -19t19 -45t-19 -45t-45 -19t-45 19t-19 45z" />
    <glyph glyph-name="divide" unicode="&#xf7;" horiz-adv-x="833" 
d="M418 551q27 0 46.5 -20t19.5 -48t-19.5 -47t-47.5 -19t-47.5 19t-19.5 47t20 48t48 20zM709 339v-81h-585v81h585zM418 179q26 0 45.5 -19.5t19.5 -47.5t-19.5 -47t-47.5 -19t-47 19t-19 46q0 29 20 48.5t48 19.5z" />
    <glyph glyph-name="oslash" unicode="&#xf8;" horiz-adv-x="553" 
d="M433 567l37 -25l-51 -83q81 -61 81 -173q0 -124 -81 -210t-197 -86q-44 0 -81 12l-54 -88l-37 24l50 83q-44 36 -63 77t-19 98q0 125 81.5 210.5t201.5 85.5q45 0 78 -13zM152 103l194 315q-26 25 -59 25q-63 0 -105 -71t-42 -177q0 -49 12 -92zM367 374l-192 -311
q23 -24 57 -24q63 0 104.5 72t41.5 180q0 50 -11 83z" />
    <glyph glyph-name="ugrave" unicode="&#xf9;" horiz-adv-x="599" 
d="M201 487h38l-57 -299q-8 -48 -8 -60q0 -25 14 -39.5t37 -14.5q45 0 122 49l67 352l119 14l-58 -310q-11 -55 -11 -72q0 -23 12.5 -37.5t35.5 -14.5q28 0 61 12v-38q-60 -19 -81 -24q-48 -11 -78 -11q-36 0 -54.5 21t-18.5 57v5q-1 -1 -15 -11.5t-24.5 -18t-30 -19
t-37 -19.5t-40 -13.5t-42.5 -5.5q-98 0 -98 100q0 18 6 57l48 260l-80 12v35zM213 742h124l60 -190h-67z" />
    <glyph glyph-name="uacute" unicode="&#xfa;" horiz-adv-x="599" 
d="M201 487h38l-57 -299q-8 -48 -8 -60q0 -25 14 -39.5t37 -14.5q45 0 122 49l67 352l119 14l-58 -310q-11 -55 -11 -72q0 -23 12.5 -37.5t35.5 -14.5q28 0 61 12v-38q-60 -19 -81 -24q-48 -11 -78 -11q-36 0 -54.5 21t-18.5 57v5q-1 -1 -15 -11.5t-24.5 -18t-30 -19
t-37 -19.5t-40 -13.5t-42.5 -5.5q-98 0 -98 100q0 18 6 57l48 260l-80 12v35zM431 742h123l-190 -190h-67z" />
    <glyph glyph-name="ucircumflex" unicode="&#xfb;" horiz-adv-x="599" 
d="M201 487h38l-57 -299q-8 -48 -8 -60q0 -25 14 -39.5t37 -14.5q45 0 122 49l67 352l119 14l-58 -310q-11 -55 -11 -72q0 -23 12.5 -37.5t35.5 -14.5q28 0 61 12v-38q-60 -19 -81 -24q-48 -11 -78 -11q-36 0 -54.5 21t-18.5 57v5q-1 -1 -15 -11.5t-24.5 -18t-30 -19
t-37 -19.5t-40 -13.5t-42.5 -5.5q-98 0 -98 100q0 18 6 57l48 260l-80 12v35zM334 742h87l74 -190h-77l-53 125l-100 -125h-78z" />
    <glyph glyph-name="udieresis" unicode="&#xfc;" horiz-adv-x="599" 
d="M201 487h38l-57 -299q-8 -48 -8 -60q0 -25 14 -39.5t37 -14.5q45 0 122 49l67 352l119 14l-58 -310q-11 -55 -11 -72q0 -23 12.5 -37.5t35.5 -14.5q28 0 61 12v-38q-60 -19 -81 -24q-48 -11 -78 -11q-36 0 -54.5 21t-18.5 57v5q-1 -1 -15 -11.5t-24.5 -18t-30 -19
t-37 -19.5t-40 -13.5t-42.5 -5.5q-98 0 -98 100q0 18 6 57l48 260l-80 12v35zM187 644q0 26 19.5 45t44.5 19t44.5 -19t19.5 -45t-19.5 -45t-44.5 -19t-44.5 19t-19.5 45zM393 644q0 26 19.5 45t44.5 19t44.5 -19t19.5 -45t-19.5 -45t-44.5 -19t-44.5 19t-19.5 45z" />
    <glyph glyph-name="yacute" unicode="&#xfd;" horiz-adv-x="495" 
d="M-14 459l154 35q24 -7 39 -28q22 -30 37 -126l35 -218q64 168 152 371h31l79 -26v-27l-59 -33q-14 -18 -27 -38t-25.5 -45.5t-19.5 -40.5t-21.5 -48t-18.5 -42q-52 -117 -75.5 -162t-73.5 -116q-45 -63 -90 -95q-50 -36 -96 -36q-29 0 -57 21t-28 56q0 52 59 67l67 -63
q36 6 76 50t73 111h-38l-61 317q-9 44 -25 75l-87 8v33zM380 742h123l-190 -190h-67z" />
    <glyph glyph-name="thorn" unicode="&#xfe;" horiz-adv-x="569" 
d="M237 736h43q-2 -16 -10 -56.5t-9 -53.5l-36 -201q89 67 161 67q62 0 99 -48t37 -130q0 -131 -84.5 -224t-202.5 -93q-37 0 -81 16l-29 -174l93 -18v-39h-279v40l61 16l9 13l139 802l-87 11v33zM218 376l-55 -306q38 -17 68 -17q68 0 115.5 72t47.5 175q0 56 -20 87.5
t-56 31.5q-39 0 -100 -43z" />
    <glyph glyph-name="ydieresis" unicode="&#xff;" horiz-adv-x="495" 
d="M-14 459l154 35q24 -7 39 -28q22 -30 37 -126l35 -218q64 168 152 371h31l79 -26v-27l-59 -33q-14 -18 -27 -38t-25.5 -45.5t-19.5 -40.5t-21.5 -48t-18.5 -42q-52 -117 -75.5 -162t-73.5 -116q-45 -63 -90 -95q-50 -36 -96 -36q-29 0 -57 21t-28 56q0 52 59 67l67 -63
q36 6 76 50t73 111h-38l-61 317q-9 44 -25 75l-87 8v33zM136 644q0 26 19 45t45 19t45 -19t19 -45t-19 -45t-45 -19t-45 19t-19 45zM342 644q0 26 19 45t45 19t45 -19t19 -45t-19 -45t-45 -19t-45 19t-19 45z" />
    <glyph glyph-name="Amacron" unicode="&#x100;" horiz-adv-x="636" 
d="M339 677h103l103 -608l10 -14l58 -7v-48h-263v48l61 7l11 14l-28 167h-223l-92 -167l10 -14l59 -7v-48h-215v48l56 7zM342 551l-141 -260h183zM249 840h331l-12 -68h-331z" />
    <glyph glyph-name="amacron" unicode="&#x101;" horiz-adv-x="573" 
d="M453 493h59q-18 -65 -34 -152l-29 -162q-9 -51 -9 -70q0 -54 47 -54q25 0 61 12v-38q-108 -35 -152 -35q-29 0 -51.5 17t-22.5 57v4q-86 -82 -162 -82q-67 0 -104 53.5t-37 129.5q0 130 81 224.5t204 94.5q51 0 112 -23zM370 385l-40 60h-9q-78 0 -126 -71t-48 -183
q0 -117 75 -117q43 0 102 46zM186 675h331l-12 -68h-331z" />
    <glyph glyph-name="Abreve" unicode="&#x102;" horiz-adv-x="636" 
d="M339 677h103l103 -608l10 -14l58 -7v-48h-263v48l61 7l11 14l-28 167h-223l-92 -167l10 -14l59 -7v-48h-215v48l56 7zM342 551l-141 -260h183zM269 887h51q-2 -8 -2 -21q0 -26 15 -39.5t32 -16.5t43 -3q103 0 115 80h51q-12 -66 -42 -102q-41 -49 -140 -49
q-53 0 -90.5 22.5t-37.5 74.5q0 24 5 54z" />
    <glyph glyph-name="abreve" unicode="&#x103;" horiz-adv-x="573" 
d="M453 493h59q-18 -65 -34 -152l-29 -162q-9 -51 -9 -70q0 -54 47 -54q25 0 61 12v-38q-108 -35 -152 -35q-29 0 -51.5 17t-22.5 57v4q-86 -82 -162 -82q-67 0 -104 53.5t-37 129.5q0 130 81 224.5t204 94.5q51 0 112 -23zM370 385l-40 60h-9q-78 0 -126 -71t-48 -183
q0 -117 75 -117q43 0 102 46zM208 718h51q-2 -8 -2 -21q0 -26 15 -39.5t32 -16.5t43 -3q103 0 115 80h51q-12 -66 -42 -102q-41 -49 -140 -49q-53 0 -90.5 22.5t-37.5 74.5q0 24 5 54z" />
    <glyph glyph-name="Aogonek" unicode="&#x104;" horiz-adv-x="636" 
d="M339 677h103l103 -608l10 -14l58 -7v-48h-40q-71 -56 -71 -113q0 -18 13.5 -28.5t32.5 -10.5q16 0 32 3l-13 -67q-29 -8 -60 -8q-37 0 -61 17t-24 52q0 41 30 83.5t66 71.5h-168v48l61 7l11 14l-28 167h-223l-92 -167l10 -14l59 -7v-48h-215v48l56 7zM342 551l-141 -260
h183z" />
    <glyph glyph-name="aogonek" unicode="&#x105;" horiz-adv-x="573" 
d="M453 493h59q-18 -65 -34 -152l-29 -162q-9 -51 -9 -70q0 -54 47 -54q25 0 61 12v-38q-69 -25 -99.5 -65.5t-30.5 -76.5q0 -18 13.5 -28.5t32.5 -10.5q16 0 32 3l-13 -67q-29 -8 -60 -8q-37 0 -61 17t-24 52q0 39 25 80.5t69 71.5q-18 -3 -36 -3q-29 0 -51.5 17t-22.5 57
v4q-86 -82 -162 -82q-67 0 -104 53.5t-37 129.5q0 130 81 224.5t204 94.5q51 0 112 -23zM370 385l-40 60h-9q-78 0 -126 -71t-48 -183q0 -117 75 -117q43 0 102 46z" />
    <glyph glyph-name="Cacute" unicode="&#x106;" horiz-adv-x="624" 
d="M634 650l-30 -169h-68v109l-10 18q-38 15 -74 15q-113 0 -195.5 -103.5t-82.5 -250.5q0 -98 44 -154q52 -67 154 -67q29 0 54 6l19 18l46 124h67l-32 -173q-110 -36 -196 -36q-34 0 -68 5.5t-76.5 24t-74 48t-53.5 83t-22 123.5q0 95 37 176t100 136q115 101 276 101
q81 0 185 -34zM524 887h131l-191 -155h-75z" />
    <glyph glyph-name="cacute" unicode="&#x107;" horiz-adv-x="442" 
d="M331 339l-65 102q-58 -22 -88.5 -89.5t-30.5 -143.5q0 -18 3 -37t11.5 -45t30 -42t52.5 -16q67 0 155 76v-59q-110 -95 -209 -95q-74 0 -120 48q-51 55 -51 146q0 118 83.5 213t202.5 95q38 0 73 -19t35 -60q0 -37 -23.5 -54.5t-58.5 -19.5zM382 742h123l-190 -190h-67z
" />
    <glyph glyph-name="Ccircumflex" unicode="&#x108;" horiz-adv-x="624" 
d="M634 650l-30 -169h-68v109l-10 18q-38 15 -74 15q-113 0 -195.5 -103.5t-82.5 -250.5q0 -98 44 -154q52 -67 154 -67q29 0 54 6l19 18l46 124h67l-32 -173q-110 -36 -196 -36q-34 0 -68 5.5t-76.5 24t-74 48t-53.5 83t-22 123.5q0 95 37 176t100 136q115 101 276 101
q81 0 185 -34zM423 887h82l79 -155h-78l-55 91l-97 -91h-78z" />
    <glyph glyph-name="ccircumflex" unicode="&#x109;" horiz-adv-x="442" 
d="M331 339l-65 102q-58 -22 -88.5 -89.5t-30.5 -143.5q0 -18 3 -37t11.5 -45t30 -42t52.5 -16q67 0 155 76v-59q-110 -95 -209 -95q-74 0 -120 48q-51 55 -51 146q0 118 83.5 213t202.5 95q38 0 73 -19t35 -60q0 -37 -23.5 -54.5t-58.5 -19.5zM285 742h87l74 -190h-77
l-53 125l-100 -125h-78z" />
    <glyph glyph-name="Ccaron" unicode="&#x10c;" horiz-adv-x="624" 
d="M634 650l-30 -169h-68v109l-10 18q-38 15 -74 15q-113 0 -195.5 -103.5t-82.5 -250.5q0 -98 44 -154q52 -67 154 -67q29 0 54 6l19 18l46 124h67l-32 -173q-110 -36 -196 -36q-34 0 -68 5.5t-76.5 24t-74 48t-53.5 83t-22 123.5q0 95 37 176t100 136q115 101 276 101
q81 0 185 -34zM624 887l-147 -155h-81l-80 155h78l54 -93l98 93h78z" />
    <glyph glyph-name="ccaron" unicode="&#x10d;" horiz-adv-x="442" 
d="M331 339l-65 102q-58 -22 -88.5 -89.5t-30.5 -143.5q0 -18 3 -37t11.5 -45t30 -42t52.5 -16q67 0 155 76v-59q-110 -95 -209 -95q-74 0 -120 48q-51 55 -51 146q0 118 83.5 213t202.5 95q38 0 73 -19t35 -60q0 -37 -23.5 -54.5t-58.5 -19.5zM175 741h77l52 -125l101 125
h77l-146 -190h-88z" />
    <glyph glyph-name="Dcaron" unicode="&#x10e;" horiz-adv-x="690" 
d="M82 671h270q124 0 193 -39q46 -26 80 -80t34 -142q0 -82 -27 -155t-79 -130.5t-136.5 -91t-191.5 -33.5h-249v48l66 7l14 14l100 534l-10 14l-64 6v48zM284 615l-104 -559h42q125 0 197 72q45 44 73.5 124.5t28.5 163.5q0 98 -49 149q-48 50 -132 50h-56zM564 887
l-147 -155h-81l-80 155h78l54 -93l98 93h78z" />
    <glyph glyph-name="dcaron" unicode="&#x10f;" horiz-adv-x="694" 
d="M506 736h44l-92 -557q-9 -52 -9 -70q0 -22 12.5 -38t35.5 -16q27 0 61 12v-38q-4 -1 -28.5 -9t-40.5 -12.5t-41 -9t-44 -4.5q-79 0 -79 83q-25 -25 -43.5 -40.5t-52 -31t-66.5 -15.5q-72 0 -107.5 54t-35.5 134q0 140 93 233q79 81 190 81q48 0 87 -17l29 178l-85 10v35z
M374 385l-42 60q-10 2 -17 2q-54 0 -93.5 -45.5t-56.5 -102.5t-17 -111q0 -46 18.5 -80t55.5 -34q47 0 110 54zM572 442l-13 24q91 47 98 117h-58q-11 13 -11 33q0 23 19 42.5t57 19.5q67 0 67 -64q0 -110 -159 -172z" />
    <glyph glyph-name="Dcroat" unicode="&#x110;" horiz-adv-x="689" 
d="M103 324h-82l11 60h82l41 219l-10 14l-64 6v48h270q307 0 307 -258q0 -114 -55 -213.5t-146 -149.5q-88 -50 -233 -50h-249v48l66 7l14 14zM231 324l-50 -267h40q125 0 197 71q45 45 73.5 125.5t28.5 163.5q0 94 -47.5 146t-133.5 52h-54l-43 -231h128l-12 -60h-127z" />
    <glyph glyph-name="dcroat" unicode="&#x111;" horiz-adv-x="581" 
d="M506 736h44l-21 -134h105l-10 -54h-105l-61 -369q-9 -52 -9 -70q0 -22 12.5 -38t35.5 -16q27 0 61 12v-38q-4 -1 -28.5 -9t-40.5 -12.5t-41 -9t-44 -4.5q-79 0 -79 83q-25 -25 -43.5 -40.5t-52 -31t-66.5 -15.5q-72 0 -107.5 54t-35.5 134q0 140 93 233q79 81 190 81
q48 0 87 -17l12 73h-200l10 54h200l7 51l-85 10v35zM374 385l-42 60q-10 2 -17 2q-54 0 -93.5 -45.5t-56.5 -102.5t-17 -111q0 -46 18.5 -80t55.5 -34q47 0 110 54z" />
    <glyph glyph-name="Emacron" unicode="&#x112;" horiz-adv-x="578" 
d="M82 671h495l-30 -156h-64v88l-12 12h-187l-45 -240h122l15 14l24 74h57l-43 -233h-52v75l-13 14h-120l-49 -261h224l14 14l38 107h66l-33 -179h-513v48l65 7l14 14l100 534l-9 14l-64 6v48zM220 840h331l-12 -68h-331z" />
    <glyph glyph-name="emacron" unicode="&#x113;" horiz-adv-x="461" 
d="M400 136l-2 -61q-113 -85 -206 -85q-50 0 -86.5 17.5t-55 47t-26.5 60.5t-8 66q0 52 20 106t56 100t91.5 75.5t120.5 29.5q60 0 92 -28t32 -82q0 -45 -26.5 -78t-68.5 -49t-81 -22.5t-77 -6.5q-28 0 -37 1q-2 -16 -2 -38q0 -58 29 -89.5t75 -31.5q70 0 160 68zM146 269
q88 5 140 46q41 33 41 76q0 23 -13.5 37.5t-35.5 14.5q-50 0 -89 -64q-31 -50 -43 -110zM150 675h331l-12 -68h-331z" />
    <glyph glyph-name="Edotaccent" unicode="&#x116;" horiz-adv-x="578" 
d="M82 671h495l-30 -156h-64v88l-12 12h-187l-45 -240h122l15 14l24 74h57l-43 -233h-52v75l-13 14h-120l-49 -261h224l14 14l38 107h66l-33 -179h-513v48l65 7l14 14l100 534l-9 14l-64 6v48zM295 812q0 28 19.5 48t48.5 20t48.5 -20t19.5 -48t-19.5 -48t-48.5 -20
t-48.5 20t-19.5 48z" />
    <glyph glyph-name="edotaccent" unicode="&#x117;" horiz-adv-x="461" 
d="M400 136l-2 -61q-113 -85 -206 -85q-50 0 -86.5 17.5t-55 47t-26.5 60.5t-8 66q0 52 20 106t56 100t91.5 75.5t120.5 29.5q60 0 92 -28t32 -82q0 -45 -26.5 -78t-68.5 -49t-81 -22.5t-77 -6.5q-28 0 -37 1q-2 -16 -2 -38q0 -58 29 -89.5t75 -31.5q70 0 160 68zM146 269
q88 5 140 46q41 33 41 76q0 23 -13.5 37.5t-35.5 14.5q-50 0 -89 -64q-31 -50 -43 -110zM236 642q0 28 20 48t48 20t48 -20t20 -48t-20 -48t-48 -20t-48 20t-20 48z" />
    <glyph glyph-name="Eogonek" unicode="&#x118;" horiz-adv-x="578" 
d="M82 671h495l-30 -156h-64v88l-12 12h-187l-45 -240h122l15 14l24 74h57l-43 -233h-52v75l-13 14h-120l-49 -261h224l14 14l38 107h66l-33 -179h-40q-71 -56 -71 -113q0 -18 13.5 -28.5t32.5 -10.5q16 0 32 3l-13 -67q-29 -8 -60 -8q-37 0 -61 17t-24 52q0 41 30 83.5
t66 71.5h-418v48l65 7l14 14l100 534l-9 14l-64 6v48z" />
    <glyph glyph-name="eogonek" unicode="&#x119;" horiz-adv-x="461" 
d="M400 136l-2 -61q-77 -60 -104 -92q-39 -46 -39 -88q0 -18 13.5 -28.5t32.5 -10.5q15 0 32 3l-13 -67q-29 -8 -60 -8q-37 0 -61 17t-24 52q0 39 28 81t61 67q-35 -11 -72 -11q-50 0 -86.5 17.5t-55 47t-26.5 60.5t-8 66q0 52 20 106t56 100t91.5 75.5t120.5 29.5
q60 0 92 -28t32 -82q0 -45 -26.5 -78t-68.5 -49t-81 -22.5t-77 -6.5q-28 0 -37 1q-2 -16 -2 -38q0 -57 29 -89t77 -32q71 0 158 68zM146 269q88 5 140 46q41 33 41 76q0 23 -13.5 37.5t-35.5 14.5q-50 0 -89 -64q-31 -50 -43 -110z" />
    <glyph glyph-name="Ecaron" unicode="&#x11a;" horiz-adv-x="578" 
d="M82 671h495l-30 -156h-64v88l-12 12h-187l-45 -240h122l15 14l24 74h57l-43 -233h-52v75l-13 14h-120l-49 -261h224l14 14l38 107h66l-33 -179h-513v48l65 7l14 14l100 534l-9 14l-64 6v48zM543 887l-147 -155h-81l-80 155h78l54 -93l98 93h78z" />
    <glyph glyph-name="ecaron" unicode="&#x11b;" horiz-adv-x="461" 
d="M400 136l-2 -61q-113 -85 -206 -85q-50 0 -86.5 17.5t-55 47t-26.5 60.5t-8 66q0 52 20 106t56 100t91.5 75.5t120.5 29.5q60 0 92 -28t32 -82q0 -45 -26.5 -78t-68.5 -49t-81 -22.5t-77 -6.5q-28 0 -37 1q-2 -16 -2 -38q0 -58 29 -89.5t75 -31.5q70 0 160 68zM146 269
q88 5 140 46q41 33 41 76q0 23 -13.5 37.5t-35.5 14.5q-50 0 -89 -64q-31 -50 -43 -110zM175 741h77l52 -125l101 125h77l-146 -190h-88z" />
    <glyph glyph-name="Gcircumflex" unicode="&#x11c;" horiz-adv-x="692" 
d="M654 652l-30 -171h-71v111l-12 19q-37 12 -72 12q-106 0 -185 -73q-54 -50 -82 -123.5t-28 -154.5q0 -105 55 -164q53 -57 149 -57q24 0 49 3l38 207l-11 14l-68 6v49h283v-48l-65 -6l-15 -14l-43 -232q-120 -43 -222 -43q-33 0 -66 5.5t-75 24.5t-73 48.5t-52.5 83.5
t-21.5 124q0 85 34 167.5t109 144.5q120 99 283 99q101 0 192 -32zM443 887h82l79 -155h-78l-55 91l-97 -91h-78z" />
    <glyph glyph-name="gcircumflex" unicode="&#x11d;" horiz-adv-x="516" 
d="M389 463h137v-52h-102q10 -30 10 -61q0 -81 -67 -135t-154 -54h-5q-12 -19 -12 -34q0 -2 0.5 -4.5t0.5 -3.5l151 -72q91 -42 91 -103q0 -22 -14 -47.5t-42.5 -52.5t-83.5 -44.5t-125 -17.5q-33 0 -66.5 7t-65.5 21.5t-52 41.5t-20 63q0 33 19 62t46.5 46t47.5 26t33 13
q-1 4 -1 13q0 39 42 93q-56 15 -85 50.5t-29 82.5q0 69 59 130t165 61q61 0 122 -29zM266 448q-50 0 -76.5 -52t-26.5 -113q0 -76 52 -76q28 0 49.5 21.5t32.5 51.5t16 53.5t5 35.5q0 79 -52 79zM261 -26l-120 55q-21 -12 -31.5 -20t-21.5 -26.5t-11 -42.5q0 -46 34.5 -77.5
t94.5 -31.5q44 0 79 22t35 54q0 39 -59 67zM265 742h87l74 -190h-77l-53 125l-100 -125h-78z" />
    <glyph glyph-name="Gbreve" unicode="&#x11e;" horiz-adv-x="692" 
d="M654 652l-30 -171h-71v111l-12 19q-37 12 -72 12q-106 0 -185 -73q-54 -50 -82 -123.5t-28 -154.5q0 -105 55 -164q53 -57 149 -57q24 0 49 3l38 207l-11 14l-68 6v49h283v-48l-65 -6l-15 -14l-43 -232q-120 -43 -222 -43q-33 0 -66 5.5t-75 24.5t-73 48.5t-52.5 83.5
t-21.5 124q0 85 34 167.5t109 144.5q120 99 283 99q101 0 192 -32zM341 887h51q-2 -8 -2 -21q0 -26 15 -39.5t32 -16.5t43 -3q103 0 115 80h51q-12 -66 -42 -102q-41 -49 -140 -49q-53 0 -90.5 22.5t-37.5 74.5q0 24 5 54z" />
    <glyph glyph-name="gbreve" unicode="&#x11f;" horiz-adv-x="516" 
d="M389 463h137v-52h-102q10 -30 10 -61q0 -81 -67 -135t-154 -54h-5q-12 -19 -12 -34q0 -2 0.5 -4.5t0.5 -3.5l151 -72q91 -42 91 -103q0 -22 -14 -47.5t-42.5 -52.5t-83.5 -44.5t-125 -17.5q-33 0 -66.5 7t-65.5 21.5t-52 41.5t-20 63q0 33 19 62t46.5 46t47.5 26t33 13
q-1 4 -1 13q0 39 42 93q-56 15 -85 50.5t-29 82.5q0 69 59 130t165 61q61 0 122 -29zM266 448q-50 0 -76.5 -52t-26.5 -113q0 -76 52 -76q28 0 49.5 21.5t32.5 51.5t16 53.5t5 35.5q0 79 -52 79zM261 -26l-120 55q-21 -12 -31.5 -20t-21.5 -26.5t-11 -42.5q0 -46 34.5 -77.5
t94.5 -31.5q44 0 79 22t35 54q0 39 -59 67zM152 718h51q-2 -8 -2 -21q0 -26 15 -39.5t32 -16.5t43 -3q103 0 115 80h51q-12 -66 -42 -102q-41 -49 -140 -49q-53 0 -90.5 22.5t-37.5 74.5q0 24 5 54z" />
    <glyph glyph-name="Gcommaaccent" unicode="&#x122;" horiz-adv-x="692" 
d="M654 652l-30 -171h-71v111l-12 19q-37 12 -72 12q-106 0 -185 -73q-54 -50 -82 -123.5t-28 -154.5q0 -105 55 -164q53 -57 149 -57q24 0 49 3l38 207l-11 14l-68 6v49h283v-48l-65 -6l-15 -14l-43 -232q-120 -43 -222 -43q-33 0 -66 5.5t-75 24.5t-73 48.5t-52.5 83.5
t-21.5 124q0 85 34 167.5t109 144.5q120 99 283 99q101 0 192 -32zM219 -298l-13 24q91 47 98 117h-58q-11 13 -11 33q0 23 19 42.5t57 19.5q67 0 67 -64q0 -110 -159 -172z" />
    <glyph glyph-name="gcommaaccent" unicode="&#x123;" horiz-adv-x="516" 
d="M389 463h137v-52h-102q10 -30 10 -61q0 -81 -67 -135t-154 -54h-5q-12 -19 -12 -34q0 -2 0.5 -4.5t0.5 -3.5l151 -72q91 -42 91 -103q0 -22 -14 -47.5t-42.5 -52.5t-83.5 -44.5t-125 -17.5q-33 0 -66.5 7t-65.5 21.5t-52 41.5t-20 63q0 33 19 62t46.5 46t47.5 26t33 13
q-1 4 -1 13q0 39 42 93q-56 15 -85 50.5t-29 82.5q0 69 59 130t165 61q61 0 122 -29zM266 448q-50 0 -76.5 -52t-26.5 -113q0 -76 52 -76q28 0 49.5 21.5t32.5 51.5t16 53.5t5 35.5q0 79 -52 79zM261 -26l-120 55q-21 -12 -31.5 -20t-21.5 -26.5t-11 -42.5q0 -46 34.5 -77.5
t94.5 -31.5q44 0 79 22t35 54q0 39 -59 67zM379 808l13 -24q-91 -47 -98 -117h58q11 -13 11 -33q0 -23 -19 -42.5t-57 -19.5q-67 0 -67 64q0 110 159 172z" />
    <glyph glyph-name="Hcircumflex" unicode="&#x124;" horiz-adv-x="738" 
d="M84 671h276v-48l-65 -6l-13 -14l-42 -222h281l42 222l-13 14l-60 6v48h278v-48l-66 -6l-13 -14l-100 -534l9 -14l64 -7v-48h-278v48l63 7l16 14l47 252h-281l-47 -252l11 -14l64 -7v-48h-281v48l64 7l16 14l100 534l-10 14l-62 6v48zM422 887h82l79 -155h-78l-55 91
l-97 -91h-78z" />
    <glyph glyph-name="hcircumflex" unicode="&#x125;" horiz-adv-x="588" 
d="M238 736h46q-13 -52 -37 -172l-34 -169q123 97 197 97q37 0 64.5 -26.5t27.5 -67.5q0 -26 -11 -81l-29 -138q-11 -53 -11 -73q0 -21 13 -36t33 -15q26 0 62 12v-38q-90 -35 -154 -35q-29 0 -53.5 17t-24.5 53q0 11 8 54l35 166q9 40 9 65q0 21 -10.5 40t-35.5 19
q-16 0 -51 -15t-78 -51l-61 -342h-124l129 653l-87 10v35zM233 907h82l79 -155h-78l-55 91l-97 -91h-78z" />
    <glyph glyph-name="Imacron" unicode="&#x12a;" horiz-adv-x="345" 
d="M86 671h282v-48l-65 -6l-16 -14l-100 -534l12 -14l65 -7v-48h-284v48l66 7l15 14l100 534l-10 14l-65 6v48zM104 840h331l-12 -68h-331z" />
    <glyph glyph-name="imacron" unicode="&#x12b;" horiz-adv-x="315" 
d="M199 493h44l-63 -338q-5 -40 -5 -43q0 -53 48 -53q21 0 70 14v-41q-112 -38 -167 -38q-37 0 -57.5 20t-20.5 56q0 24 9 68l53 269l-82 12v35zM58 675h331l-12 -68h-331z" />
    <glyph glyph-name="Iogonek" unicode="&#x12e;" horiz-adv-x="345" 
d="M86 671h282v-48l-65 -6l-16 -14l-100 -534l12 -14l65 -7v-48h-40q-71 -56 -71 -113q0 -18 13.5 -28.5t32.5 -10.5q15 0 32 3l-13 -67q-29 -8 -60 -8q-37 0 -61 17t-24 52q0 41 30 83.5t66 71.5h-189v48l66 7l15 14l100 534l-10 14l-65 6v48z" />
    <glyph glyph-name="iogonek" unicode="&#x12f;" horiz-adv-x="315" 
d="M199 493h44l-63 -338q-5 -40 -5 -43q0 -53 48 -53q21 0 70 14v-41l-36 -12q-94 -66 -94 -133q0 -18 13.5 -28.5t32.5 -10.5q15 0 32 3l-13 -67q-29 -8 -60 -8q-37 0 -61 17t-24 52q0 85 98 155q-27 -6 -55 -6q-37 0 -57.5 20t-20.5 56q0 24 9 68l53 269l-82 12v35z
M219 727q30 0 47 -17.5t17 -47.5q0 -33 -20 -54.5t-56 -21.5q-31 0 -48 17.5t-17 47.5q0 33 21 54.5t56 21.5z" />
    <glyph glyph-name="Idotaccent" unicode="&#x130;" horiz-adv-x="345" 
d="M86 671h282v-48l-65 -6l-16 -14l-100 -534l12 -14l65 -7v-48h-284v48l66 7l15 14l100 534l-10 14l-65 6v48zM179 812q0 28 19.5 48t48.5 20t48.5 -20t19.5 -48t-19.5 -48t-48.5 -20t-48.5 20t-19.5 48z" />
    <glyph glyph-name="dotlessi" unicode="&#x131;" horiz-adv-x="315" 
d="M199 493h44l-63 -338q-5 -40 -5 -43q0 -53 48 -53q21 0 70 14v-41q-112 -38 -167 -38q-37 0 -57.5 20t-20.5 56q0 24 9 68l53 269l-82 12v35z" />
    <glyph glyph-name="Jcircumflex" unicode="&#x134;" horiz-adv-x="472" 
d="M211 671h284v-48l-67 -6l-14 -14l-56 -335q-26 -157 -97 -224q-60 -57 -165 -57q-74 0 -141 27l34 178h72v-136l13 -12h8q30 0 52 10.5t36 27t25.5 48t18 61t15.5 79.5l59 333l-10 14l-67 6v48zM353 887h82l79 -155h-78l-55 91l-97 -91h-78z" />
    <glyph glyph-name="jcircumflex" unicode="&#x135;" horiz-adv-x="296" 
d="M114 407l-90 12v35l179 39h44l-54 -338q-23 -145 -60.5 -213t-112.5 -118q-57 -38 -101 -38q-28 0 -47 17.5t-19 44.5q0 39 34 59l117 -47q40 51 64 230zM183 742h87l74 -190h-77l-53 125l-100 -125h-78z" />
    <glyph glyph-name="Kcommaaccent" unicode="&#x136;" horiz-adv-x="655" 
d="M82 671h279v-48l-67 -6l-13 -14l-49 -260h30l251 260l-6 14l-62 6v48h250v-48l-79 -6l-234 -240l128 -256q18 -37 40.5 -55.5t65.5 -18.5q15 0 23 1v-47q-81 -8 -120 -8q-45 0 -65 11q-40 21 -77 99l-91 190h-63l-42 -224l11 -14l63 -7v-48h-279v48l64 7l15 14l100 534
l-10 14l-63 6v48zM199 -298l-13 24q91 47 98 117h-58q-11 13 -11 33q0 23 19 42.5t57 19.5q67 0 67 -64q0 -110 -159 -172z" />
    <glyph glyph-name="kcommaaccent" unicode="&#x137;" horiz-adv-x="557" 
d="M236 736h44l-96 -478l130 137q57 60 83.5 79.5t59.5 19.5q27 0 44.5 -19.5t17.5 -48.5q0 -61 -81 -86l-36 58q-64 -50 -91 -77q40 -95 52 -122q2 -4 11 -23.5t13 -28t14 -26.5t18 -27t19.5 -20t24 -16t26.5 -5q25 0 52 8v-38q-87 -29 -145 -29q-37 0 -62 24.5t-50 82.5
l-63 146l-46 -50l-36 -197h-118l124 653l-88 10v35zM107 -298l-13 24q91 47 98 117h-58q-11 13 -11 33q0 23 19 42.5t57 19.5q67 0 67 -64q0 -110 -159 -172z" />
    <glyph glyph-name="Lacute" unicode="&#x139;" horiz-adv-x="531" 
d="M81 671h279v-48l-63 -6l-17 -14l-102 -545h182l18 11l39 128h72l-38 -197h-475v48l62 7l16 14l100 534l-10 14l-63 6v48zM344 887h131l-191 -155h-75z" />
    <glyph glyph-name="lacute" unicode="&#x13a;" horiz-adv-x="307" 
d="M143 653l-83 10v35l171 38h44l-103 -557q-11 -62 -11 -73q0 -28 15.5 -39.5t34.5 -11.5q11 0 72 14v-38q-116 -37 -162 -37q-27 0 -45.5 7.5t-26 20t-10 22t-2.5 19.5q0 13 7 55zM284 927h131l-191 -155h-75z" />
    <glyph glyph-name="Lcommaaccent" unicode="&#x13b;" horiz-adv-x="531" 
d="M81 671h279v-48l-63 -6l-17 -14l-102 -545h182l18 11l39 128h72l-38 -197h-475v48l62 7l16 14l100 534l-10 14l-63 6v48zM119 -298l-13 24q91 47 98 117h-58q-11 13 -11 33q0 23 19 42.5t57 19.5q67 0 67 -64q0 -110 -159 -172z" />
    <glyph glyph-name="lcommaaccent" unicode="&#x13c;" horiz-adv-x="307" 
d="M143 653l-83 10v35l171 38h44l-103 -557q-11 -62 -11 -73q0 -28 15.5 -39.5t34.5 -11.5q11 0 72 14v-38q-116 -37 -162 -37q-27 0 -45.5 7.5t-26 20t-10 22t-2.5 19.5q0 13 7 55zM9 -298l-13 24q91 47 98 117h-58q-11 13 -11 33q0 23 19 42.5t57 19.5q67 0 67 -64
q0 -110 -159 -172z" />
    <glyph glyph-name="Lcaron" unicode="&#x13d;" horiz-adv-x="531" 
d="M81 671h279v-48l-63 -6l-17 -14l-102 -545h182l18 11l39 128h72l-38 -197h-475v48l62 7l16 14l100 534l-10 14l-63 6v48zM415 444l-13 24q91 47 98 117h-58q-11 13 -11 33q0 23 19 42.5t57 19.5q67 0 67 -64q0 -110 -159 -172z" />
    <glyph glyph-name="lcaron" unicode="&#x13e;" horiz-adv-x="420" 
d="M143 653l-83 10v35l171 38h44l-103 -557q-11 -62 -11 -73q0 -28 15.5 -39.5t34.5 -11.5q11 0 72 14v-38q-116 -37 -162 -37q-27 0 -45.5 7.5t-26 20t-10 22t-2.5 19.5q0 13 7 55zM298 442l-13 24q91 47 98 117h-58q-11 13 -11 33q0 23 19 42.5t57 19.5q67 0 67 -64
q0 -110 -159 -172z" />
    <glyph glyph-name="Lslash" unicode="&#x141;" horiz-adv-x="531" 
d="M248 431l97 54l26 -48l-136 -75l-56 -304h181l18 11l39 128h72l-38 -197h-475v48l62 7l16 14l41 219l-66 -38l-22 49l101 58l46 246l-10 14l-63 6v48h279v-48l-63 -6l-17 -14z" />
    <glyph glyph-name="lslash" unicode="&#x142;" horiz-adv-x="307" 
d="M220 441l88 46l22 -44l-121 -63l-37 -201q-11 -60 -11 -68v-6q0 -23 12.5 -36.5t33.5 -13.5q25 0 76 15v-39q-116 -37 -162 -37q-39 0 -61.5 19t-22.5 52q0 15 7 53l36 196l-77 -43l-20 45l108 58l52 279l-83 11v33l171 39h44z" />
    <glyph glyph-name="Nacute" unicode="&#x143;" horiz-adv-x="716" 
d="M81 671h221v-24l206 -485l84 441l-12 14l-65 6v48h229v-48l-64 -6l-16 -14l-112 -603h-103l-232 543l-90 -474l10 -14l67 -7v-48h-228v48l65 7l14 14l101 534l-11 14l-64 6v48zM512 887h131l-191 -155h-75z" />
    <glyph glyph-name="nacute" unicode="&#x144;" horiz-adv-x="598" 
d="M203 493h38l-20 -99q41 32 64 48t61.5 33t71.5 17q45 0 69.5 -29t24.5 -70q0 -27 -10 -77l-30 -137q-11 -51 -11 -73q0 -51 50 -51q27 0 58 11v-38q-93 -34 -149 -34q-35 0 -59 17t-24 51q0 13 8 56l35 166q9 40 9 64q0 60 -48 60q-41 0 -126 -66l-58 -342h-127l79 407
l-83 12v35zM431 742h123l-190 -190h-67z" />
    <glyph glyph-name="Ncommaaccent" unicode="&#x145;" horiz-adv-x="716" 
d="M81 671h221v-24l206 -485l84 441l-12 14l-65 6v48h229v-48l-64 -6l-16 -14l-112 -603h-103l-232 543l-90 -474l10 -14l67 -7v-48h-228v48l65 7l14 14l101 534l-11 14l-64 6v48zM187 -298l-13 24q91 47 98 117h-58q-11 13 -11 33q0 23 19 42.5t57 19.5q67 0 67 -64
q0 -110 -159 -172z" />
    <glyph glyph-name="ncommaaccent" unicode="&#x146;" horiz-adv-x="598" 
d="M203 493h38l-20 -99q41 32 64 48t61.5 33t71.5 17q45 0 69.5 -29t24.5 -70q0 -27 -10 -77l-30 -137q-11 -51 -11 -73q0 -51 50 -51q27 0 58 11v-38q-93 -34 -149 -34q-35 0 -59 17t-24 51q0 13 8 56l35 166q9 40 9 64q0 60 -48 60q-41 0 -126 -66l-58 -342h-127l79 407
l-83 12v35zM128 -298l-13 24q91 47 98 117h-58q-11 13 -11 33q0 23 19 42.5t57 19.5q67 0 67 -64q0 -110 -159 -172z" />
    <glyph glyph-name="Ncaron" unicode="&#x147;" horiz-adv-x="716" 
d="M81 671h221v-24l206 -485l84 441l-12 14l-65 6v48h229v-48l-64 -6l-16 -14l-112 -603h-103l-232 543l-90 -474l10 -14l67 -7v-48h-228v48l65 7l14 14l101 534l-11 14l-64 6v48zM612 887l-147 -155h-81l-80 155h78l54 -93l98 93h78z" />
    <glyph glyph-name="ncaron" unicode="&#x148;" horiz-adv-x="598" 
d="M203 493h38l-20 -99q41 32 64 48t61.5 33t71.5 17q45 0 69.5 -29t24.5 -70q0 -27 -10 -77l-30 -137q-11 -51 -11 -73q0 -51 50 -51q27 0 58 11v-38q-93 -34 -149 -34q-35 0 -59 17t-24 51q0 13 8 56l35 166q9 40 9 64q0 60 -48 60q-41 0 -126 -66l-58 -342h-127l79 407
l-83 12v35zM224 741h77l52 -125l101 125h77l-146 -190h-88z" />
    <glyph glyph-name="Omacron" unicode="&#x14c;" horiz-adv-x="728" 
d="M418 684q117 0 193 -71q81 -74 81 -208q0 -105 -45 -200t-133 -156.5t-198 -61.5q-131 0 -207 84q-69 76 -69 199q0 98 43 192.5t119 151.5q92 70 216 70zM404 623q-61 0 -114 -57t-82.5 -140.5t-29.5 -167.5q0 -88 36 -146q41 -64 113 -64q89 0 154 100q73 111 73 263
q0 32 -5 62.5t-19 67.5t-46.5 59.5t-79.5 22.5zM291 840h331l-12 -68h-331z" />
    <glyph glyph-name="omacron" unicode="&#x14d;" horiz-adv-x="551" 
d="M301 492q91 0 145 -56t54 -150q0 -70 -27 -128.5t-69.5 -94t-90.5 -54.5t-95 -19q-94 0 -148 59q-52 56 -52 147q0 51 18 101.5t51 95t89 72t125 27.5zM286 440q-44 0 -75 -33t-43.5 -82t-17 -83t-4.5 -59q0 -74 20.5 -107.5t64.5 -33.5q52 0 91 57q50 74 50 197
q0 144 -86 144zM160 675h331l-12 -68h-331z" />
    <glyph glyph-name="Obreve" unicode="&#x14e;" horiz-adv-x="728" 
d="M418 684q117 0 193 -71q81 -74 81 -208q0 -105 -45 -200t-133 -156.5t-198 -61.5q-131 0 -207 84q-69 76 -69 199q0 98 43 192.5t119 151.5q92 70 216 70zM404 623q-61 0 -114 -57t-82.5 -140.5t-29.5 -167.5q0 -88 36 -146q41 -64 113 -64q89 0 154 100q73 111 73 263
q0 32 -5 62.5t-19 67.5t-46.5 59.5t-79.5 22.5zM311 887h51q-2 -8 -2 -21q0 -26 15 -39.5t32 -16.5t43 -3q103 0 115 80h51q-12 -66 -42 -102q-41 -49 -140 -49q-53 0 -90.5 22.5t-37.5 74.5q0 24 5 54z" />
    <glyph glyph-name="obreve" unicode="&#x14f;" horiz-adv-x="551" 
d="M301 492q91 0 145 -56t54 -150q0 -70 -27 -128.5t-69.5 -94t-90.5 -54.5t-95 -19q-94 0 -148 59q-52 56 -52 147q0 51 18 101.5t51 95t89 72t125 27.5zM286 440q-44 0 -75 -33t-43.5 -82t-17 -83t-4.5 -59q0 -74 20.5 -107.5t64.5 -33.5q52 0 91 57q50 74 50 197
q0 144 -86 144zM182 718h51q-2 -8 -2 -21q0 -26 15 -39.5t32 -16.5t43 -3q103 0 115 80h51q-12 -66 -42 -102q-41 -49 -140 -49q-53 0 -90.5 22.5t-37.5 74.5q0 24 5 54z" />
    <glyph glyph-name="Ohungarumlaut" unicode="&#x150;" horiz-adv-x="728" 
d="M418 684q117 0 193 -71q81 -74 81 -208q0 -105 -45 -200t-133 -156.5t-198 -61.5q-131 0 -207 84q-69 76 -69 199q0 98 43 192.5t119 151.5q92 70 216 70zM404 623q-61 0 -114 -57t-82.5 -140.5t-29.5 -167.5q0 -88 36 -146q41 -64 113 -64q89 0 154 100q73 111 73 263
q0 32 -5 62.5t-19 67.5t-46.5 59.5t-79.5 22.5zM422 887h116l-170 -155h-62zM592 887h130l-212 -155h-70z" />
    <glyph glyph-name="ohungarumlaut" unicode="&#x151;" horiz-adv-x="551" 
d="M301 492q91 0 145 -56t54 -150q0 -70 -27 -128.5t-69.5 -94t-90.5 -54.5t-95 -19q-94 0 -148 59q-52 56 -52 147q0 51 18 101.5t51 95t89 72t125 27.5zM286 440q-44 0 -75 -33t-43.5 -82t-17 -83t-4.5 -59q0 -74 20.5 -107.5t64.5 -33.5q52 0 91 57q50 74 50 197
q0 144 -86 144zM309 742h112l-187 -190h-59zM475 742h127l-228 -190h-67z" />
    <glyph glyph-name="OE" unicode="&#x152;" horiz-adv-x="999" 
d="M579 576l17 95h404l-31 -156h-65v85l-12 13h-182l-46 -238h116l18 14l23 73h57l-43 -231h-54v74l-13 13h-115l-48 -261h220l14 15l39 108h66l-35 -180h-436l13 73q-54 -47 -99 -66.5t-100 -19.5q-112 0 -179 74.5t-67 199.5q0 174 103.5 298.5t248.5 124.5
q64 0 108 -25.5t78 -82.5zM402 619q-88 0 -155.5 -109t-67.5 -252q0 -95 38.5 -149.5t105.5 -54.5q91 0 157 109.5t66 249.5q0 97 -38 151.5t-106 54.5z" />
    <glyph glyph-name="oe" unicode="&#x153;" horiz-adv-x="796" 
d="M733 140v-62q-115 -88 -208 -88t-136 74q-81 -74 -178 -74q-89 0 -141 55t-52 149q0 126 80 212t197 86q99 0 157 -80q88 80 183 80q56 0 89 -29t33 -78q0 -77 -72.5 -118t-211.5 -41q-1 -18 -1 -27q0 -61 27.5 -96t74.5 -35q68 0 159 72zM281 440q-56 0 -95.5 -74.5
t-39.5 -180.5q0 -68 22 -105.5t62 -37.5q56 0 95 75.5t39 181.5q0 141 -83 141zM477 268q81 8 128 42t47 84q0 22 -12.5 35.5t-33.5 13.5q-42 0 -76.5 -46.5t-52.5 -128.5z" />
    <glyph glyph-name="Racute" unicode="&#x154;" horiz-adv-x="643" 
d="M79 671h290q68 0 113 -11.5t65.5 -34t28 -45t7.5 -53.5q0 -47 -18 -84t-49 -60t-67 -36.5t-77 -19.5v-2q46 -6 77 -39q8 -8 14.5 -18.5t10.5 -18.5t10 -24t7.5 -22t8 -27t7.5 -26q18 -61 38 -82.5t71 -21.5q3 0 7.5 0.5t6.5 0.5v-46q-56 -7 -91 -7q-68 0 -103 30
q-40 34 -66 147q-16 71 -43.5 98t-84.5 27q-12 0 -19 -1l-42 -226l9 -14l67 -7v-48h-281v48l63 7l15 14l100 534l-11 14l-64 6v48zM283 615l-50 -263q7 -1 26 -1q22 0 44 3t49 13t46.5 26.5t33 45.5t13.5 68q0 57 -34 84q-31 25 -99 25q-21 0 -29 -1zM454 887h131l-191 -155
h-75z" />
    <glyph glyph-name="racute" unicode="&#x155;" horiz-adv-x="449" 
d="M198 493h35l-28 -134h2q31 47 73 86q52 47 99 47q28 0 49.5 -21t21.5 -53q0 -44 -29.5 -64t-69.5 -20l-27 76q-111 -44 -133 -178l-38 -232h-123l79 407l-83 12v35zM357 742h123l-190 -190h-67z" />
    <glyph glyph-name="Rcommaaccent" unicode="&#x156;" horiz-adv-x="643" 
d="M79 671h290q68 0 113 -11.5t65.5 -34t28 -45t7.5 -53.5q0 -47 -18 -84t-49 -60t-67 -36.5t-77 -19.5v-2q46 -6 77 -39q8 -8 14.5 -18.5t10.5 -18.5t10 -24t7.5 -22t8 -27t7.5 -26q18 -61 38 -82.5t71 -21.5q3 0 7.5 0.5t6.5 0.5v-46q-56 -7 -91 -7q-68 0 -103 30
q-40 34 -66 147q-16 71 -43.5 98t-84.5 27q-12 0 -19 -1l-42 -226l9 -14l67 -7v-48h-281v48l63 7l15 14l100 534l-11 14l-64 6v48zM283 615l-50 -263q7 -1 26 -1q22 0 44 3t49 13t46.5 26.5t33 45.5t13.5 68q0 57 -34 84q-31 25 -99 25q-21 0 -29 -1zM179 -298l-13 24
q91 47 98 117h-58q-11 13 -11 33q0 23 19 42.5t57 19.5q67 0 67 -64q0 -110 -159 -172z" />
    <glyph glyph-name="rcommaaccent" unicode="&#x157;" horiz-adv-x="449" 
d="M198 493h35l-28 -134h2q31 47 73 86q52 47 99 47q28 0 49.5 -21t21.5 -53q0 -44 -29.5 -64t-69.5 -20l-27 76q-111 -44 -133 -178l-38 -232h-123l79 407l-83 12v35zM54 -298l-13 24q91 47 98 117h-58q-11 13 -11 33q0 23 19 42.5t57 19.5q67 0 67 -64q0 -110 -159 -172z
" />
    <glyph glyph-name="Rcaron" unicode="&#x158;" horiz-adv-x="643" 
d="M79 671h290q68 0 113 -11.5t65.5 -34t28 -45t7.5 -53.5q0 -47 -18 -84t-49 -60t-67 -36.5t-77 -19.5v-2q46 -6 77 -39q8 -8 14.5 -18.5t10.5 -18.5t10 -24t7.5 -22t8 -27t7.5 -26q18 -61 38 -82.5t71 -21.5q3 0 7.5 0.5t6.5 0.5v-46q-56 -7 -91 -7q-68 0 -103 30
q-40 34 -66 147q-16 71 -43.5 98t-84.5 27q-12 0 -19 -1l-42 -226l9 -14l67 -7v-48h-281v48l63 7l15 14l100 534l-11 14l-64 6v48zM283 615l-50 -263q7 -1 26 -1q22 0 44 3t49 13t46.5 26.5t33 45.5t13.5 68q0 57 -34 84q-31 25 -99 25q-21 0 -29 -1zM554 887l-147 -155h-81
l-80 155h78l54 -93l98 93h78z" />
    <glyph glyph-name="rcaron" unicode="&#x159;" horiz-adv-x="449" 
d="M198 493h35l-28 -134h2q31 47 73 86q52 47 99 47q28 0 49.5 -21t21.5 -53q0 -44 -29.5 -64t-69.5 -20l-27 76q-111 -44 -133 -178l-38 -232h-123l79 407l-83 12v35zM150 741h77l52 -125l101 125h77l-146 -190h-88z" />
    <glyph glyph-name="Sacute" unicode="&#x15a;" horiz-adv-x="552" 
d="M23 42l26 162h66v-119l6 -10q45 -20 91 -20q57 0 99 32.5t42 86.5q0 34 -21 57t-102 69q-91 53 -116.5 86.5t-25.5 81.5q0 89 66 151t196 62q75 0 157 -28l-26 -169h-58v110l-8 10q-31 16 -68 16q-58 0 -99 -28t-41 -82q0 -26 15 -46.5t31.5 -31.5t60.5 -36q12 -7 19 -11
q65 -37 98.5 -68.5t40 -51t6.5 -49.5q0 -107 -76.5 -166.5t-189.5 -59.5q-102 0 -189 52zM430 887h131l-191 -155h-75z" />
    <glyph glyph-name="sacute" unicode="&#x15b;" horiz-adv-x="403" 
d="M104 134l-18 -73q32 -23 65 -23q34 0 55.5 19t21.5 54q0 26 -15 45.5t-54 45.5l-25 17q-26 18 -41.5 31.5t-29.5 36.5t-14 47q0 63 55 110.5t144 47.5q43 0 78 -16.5t35 -57.5q0 -56 -71 -61l-47 90q-10 2 -19 2q-29 0 -51 -16t-22 -40q0 -22 16 -39t54 -45q7 -4 10 -7
l32 -24q74 -53 74 -120q0 -79 -57.5 -123.5t-139.5 -44.5q-73 0 -112.5 34.5t-39.5 72.5q0 29 18 44.5t44 15.5q34 0 54 -23zM334 742h123l-190 -190h-67z" />
    <glyph glyph-name="Scircumflex" unicode="&#x15c;" horiz-adv-x="552" 
d="M23 42l26 162h66v-119l6 -10q45 -20 91 -20q57 0 99 32.5t42 86.5q0 34 -21 57t-102 69q-91 53 -116.5 86.5t-25.5 81.5q0 89 66 151t196 62q75 0 157 -28l-26 -169h-58v110l-8 10q-31 16 -68 16q-58 0 -99 -28t-41 -82q0 -26 15 -46.5t31.5 -31.5t60.5 -36q12 -7 19 -11
q65 -37 98.5 -68.5t40 -51t6.5 -49.5q0 -107 -76.5 -166.5t-189.5 -59.5q-102 0 -189 52zM329 887h82l79 -155h-78l-55 91l-97 -91h-78z" />
    <glyph glyph-name="scircumflex" unicode="&#x15d;" horiz-adv-x="403" 
d="M104 134l-18 -73q32 -23 65 -23q34 0 55.5 19t21.5 54q0 26 -15 45.5t-54 45.5l-25 17q-26 18 -41.5 31.5t-29.5 36.5t-14 47q0 63 55 110.5t144 47.5q43 0 78 -16.5t35 -57.5q0 -56 -71 -61l-47 90q-10 2 -19 2q-29 0 -51 -16t-22 -40q0 -22 16 -39t54 -45q7 -4 10 -7
l32 -24q74 -53 74 -120q0 -79 -57.5 -123.5t-139.5 -44.5q-73 0 -112.5 34.5t-39.5 72.5q0 29 18 44.5t44 15.5q34 0 54 -23zM237 742h87l74 -190h-77l-53 125l-100 -125h-78z" />
    <glyph glyph-name="Scedilla" unicode="&#x15e;" horiz-adv-x="552" 
d="M23 42l26 162h66v-119l6 -10q45 -20 91 -20q57 0 99 32.5t42 86.5q0 34 -21 57t-102 69q-91 53 -116.5 86.5t-25.5 81.5q0 89 66 151t196 62q75 0 157 -28l-26 -169h-58v110l-8 10q-31 16 -68 16q-58 0 -99 -28t-41 -82q0 -26 15 -46.5t31.5 -31.5t60.5 -36q12 -7 19 -11
q65 -37 98.5 -68.5t40 -51t6.5 -49.5q0 -90 -63 -151q-73 -71 -186 -74l-8 -43q5 1 17 1q67 0 67 -61q0 -39 -34 -76t-109 -37q-40 0 -77 11l9 47q33 -8 58 -8q71 0 71 44q0 26 -40 26q-11 0 -21 -2l19 98q-85 7 -158 51z" />
    <glyph glyph-name="Scedilla" unicode="&#xf6c1;" horiz-adv-x="552" 
d="M23 42l26 162h66v-119l6 -10q45 -20 91 -20q57 0 99 32.5t42 86.5q0 34 -21 57t-102 69q-91 53 -116.5 86.5t-25.5 81.5q0 89 66 151t196 62q75 0 157 -28l-26 -169h-58v110l-8 10q-31 16 -68 16q-58 0 -99 -28t-41 -82q0 -26 15 -46.5t31.5 -31.5t60.5 -36q12 -7 19 -11
q65 -37 98.5 -68.5t40 -51t6.5 -49.5q0 -90 -63 -151q-73 -71 -186 -74l-8 -43q5 1 17 1q67 0 67 -61q0 -39 -34 -76t-109 -37q-40 0 -77 11l9 47q33 -8 58 -8q71 0 71 44q0 26 -40 26q-11 0 -21 -2l19 98q-85 7 -158 51z" />
    <glyph glyph-name="scedilla" unicode="&#x15f;" horiz-adv-x="403" 
d="M104 134l-18 -73q32 -23 64 -23q35 0 56.5 19t21.5 54q0 26 -15 45.5t-54 45.5l-25 17q-26 18 -41.5 31.5t-29.5 36.5t-14 47q0 63 55 110.5t144 47.5q43 0 78 -16.5t35 -57.5q0 -56 -71 -61l-47 90q-10 2 -19 2q-29 0 -51 -16t-22 -40q0 -22 16 -39t54 -45q7 -4 10 -7
l32 -24q74 -53 74 -120q0 -75 -52.5 -119t-129.5 -48l-8 -43q5 1 17 1q67 0 67 -61q0 -42 -37.5 -77.5t-105.5 -35.5q-40 0 -77 11l9 47q33 -8 58 -8q71 0 71 44q0 26 -40 26q-11 0 -21 -2l19 99q-64 9 -91.5 41.5t-27.5 63.5q0 29 18 44.5t44 15.5q34 0 54 -23z" />
    <glyph glyph-name="scedilla" unicode="&#xf6c2;" horiz-adv-x="403" 
d="M104 134l-18 -73q32 -23 64 -23q35 0 56.5 19t21.5 54q0 26 -15 45.5t-54 45.5l-25 17q-26 18 -41.5 31.5t-29.5 36.5t-14 47q0 63 55 110.5t144 47.5q43 0 78 -16.5t35 -57.5q0 -56 -71 -61l-47 90q-10 2 -19 2q-29 0 -51 -16t-22 -40q0 -22 16 -39t54 -45q7 -4 10 -7
l32 -24q74 -53 74 -120q0 -75 -52.5 -119t-129.5 -48l-8 -43q5 1 17 1q67 0 67 -61q0 -42 -37.5 -77.5t-105.5 -35.5q-40 0 -77 11l9 47q33 -8 58 -8q71 0 71 44q0 26 -40 26q-11 0 -21 -2l19 99q-64 9 -91.5 41.5t-27.5 63.5q0 29 18 44.5t44 15.5q34 0 54 -23z" />
    <glyph glyph-name="Scaron" unicode="&#x160;" horiz-adv-x="552" 
d="M23 42l26 162h66v-119l6 -10q45 -20 91 -20q57 0 99 32.5t42 86.5q0 34 -21 57t-102 69q-91 53 -116.5 86.5t-25.5 81.5q0 89 66 151t196 62q75 0 157 -28l-26 -169h-58v110l-8 10q-31 16 -68 16q-58 0 -99 -28t-41 -82q0 -26 15 -46.5t31.5 -31.5t60.5 -36q12 -7 19 -11
q65 -37 98.5 -68.5t40 -51t6.5 -49.5q0 -107 -76.5 -166.5t-189.5 -59.5q-102 0 -189 52zM530 887l-147 -155h-81l-80 155h78l54 -93l98 93h78z" />
    <glyph glyph-name="scaron" unicode="&#x161;" horiz-adv-x="403" 
d="M104 134l-18 -73q32 -23 65 -23q34 0 55.5 19t21.5 54q0 26 -15 45.5t-54 45.5l-25 17q-26 18 -41.5 31.5t-29.5 36.5t-14 47q0 63 55 110.5t144 47.5q43 0 78 -16.5t35 -57.5q0 -56 -71 -61l-47 90q-10 2 -19 2q-29 0 -51 -16t-22 -40q0 -22 16 -39t54 -45q7 -4 10 -7
l32 -24q74 -53 74 -120q0 -79 -57.5 -123.5t-139.5 -44.5q-73 0 -112.5 34.5t-39.5 72.5q0 29 18 44.5t44 15.5q34 0 54 -23zM127 741h77l52 -125l101 125h77l-146 -190h-88z" />
    <glyph glyph-name="Tcedilla" unicode="&#x162;" horiz-adv-x="583" 
d="M71 671h556l-33 -176h-65v107l-14 13h-113l-102 -546l11 -14l68 -7v-48h-122l-10 -52q5 1 17 1q67 0 67 -61q0 -39 -34 -76t-109 -37q-40 0 -77 11l9 47q33 -8 58 -8q71 0 71 44q0 26 -40 26q-11 0 -21 -2l20 107h-117v48l69 7l14 14l102 546h-115l-18 -13l-36 -107h-70z
" />
    <glyph glyph-name="tcedilla" unicode="&#x163;" horiz-adv-x="365" 
d="M192 601h65l-23 -128h137v-58h-148l-44 -243q-6 -36 -6 -53q0 -62 58 -62q40 0 88 18v-40q-103 -37 -159 -40l-9 -46q5 1 17 1q67 0 67 -61q0 -39 -34 -76t-109 -37q-40 0 -78 11l10 47q33 -8 58 -8q71 0 71 44q0 26 -40 26q-11 0 -21 -2l20 104q-20 3 -41 27t-21 63
q0 21 7 63l49 261h-66v36l86 43z" />
    <glyph glyph-name="Tcaron" unicode="&#x164;" horiz-adv-x="583" 
d="M71 671h556l-33 -176h-65v107l-14 13h-113l-102 -546l11 -14l68 -7v-48h-288v48l69 7l14 14l102 546h-115l-18 -13l-36 -107h-70zM545 887l-147 -155h-81l-80 155h78l54 -93l98 93h78z" />
    <glyph glyph-name="tcaron" unicode="&#x165;" horiz-adv-x="440" 
d="M192 601h65l-23 -128h137v-58h-148l-44 -243q-6 -36 -6 -53q0 -62 58 -62q40 0 88 18v-40q-63 -21 -100 -30q-44 -11 -77 -11q-40 0 -66 24t-26 70q0 21 7 63l49 261h-66v36l86 43zM318 502l-13 24q91 47 98 117h-58q-11 13 -11 33q0 23 19 42.5t57 19.5q67 0 67 -64
q0 -110 -159 -172z" />
    <glyph glyph-name="Umacron" unicode="&#x16a;" horiz-adv-x="703" 
d="M77 671h277v-48l-63 -6l-15 -14l-64 -345q-9 -54 -9 -73q0 -119 132 -119q82 0 122.5 40.5t60.5 142.5l69 354l-11 14l-66 6v48h226v-48l-64 -6l-15 -14l-67 -352q-13 -68 -28.5 -107.5t-44.5 -71.5q-80 -85 -228 -85q-215 0 -215 176q0 44 10 91l66 349l-12 14l-61 6v48
zM291 840h331l-12 -68h-331z" />
    <glyph glyph-name="umacron" unicode="&#x16b;" horiz-adv-x="599" 
d="M201 487h38l-57 -299q-8 -48 -8 -60q0 -25 14 -39.5t37 -14.5q45 0 122 49l67 352l119 14l-58 -310q-11 -55 -11 -72q0 -23 12.5 -37.5t35.5 -14.5q28 0 61 12v-38q-60 -19 -81 -24q-48 -11 -78 -11q-36 0 -54.5 21t-18.5 57v5q-1 -1 -15 -11.5t-24.5 -18t-30 -19
t-37 -19.5t-40 -13.5t-42.5 -5.5q-98 0 -98 100q0 18 6 57l48 260l-80 12v35zM199 675h331l-12 -68h-331z" />
    <glyph glyph-name="Ubreve" unicode="&#x16c;" horiz-adv-x="703" 
d="M77 671h277v-48l-63 -6l-15 -14l-64 -345q-9 -54 -9 -73q0 -119 132 -119q82 0 122.5 40.5t60.5 142.5l69 354l-11 14l-66 6v48h226v-48l-64 -6l-15 -14l-67 -352q-13 -68 -28.5 -107.5t-44.5 -71.5q-80 -85 -228 -85q-215 0 -215 176q0 44 10 91l66 349l-12 14l-61 6v48
zM311 887h51q-2 -8 -2 -21q0 -26 15 -39.5t32 -16.5t43 -3q103 0 115 80h51q-12 -66 -42 -102q-41 -49 -140 -49q-53 0 -90.5 22.5t-37.5 74.5q0 24 5 54z" />
    <glyph glyph-name="ubreve" unicode="&#x16d;" horiz-adv-x="599" 
d="M201 487h38l-57 -299q-8 -48 -8 -60q0 -25 14 -39.5t37 -14.5q45 0 122 49l67 352l119 14l-58 -310q-11 -55 -11 -72q0 -23 12.5 -37.5t35.5 -14.5q28 0 61 12v-38q-60 -19 -81 -24q-48 -11 -78 -11q-36 0 -54.5 21t-18.5 57v5q-1 -1 -15 -11.5t-24.5 -18t-30 -19
t-37 -19.5t-40 -13.5t-42.5 -5.5q-98 0 -98 100q0 18 6 57l48 260l-80 12v35zM221 718h51q-2 -8 -2 -21q0 -26 15 -39.5t32 -16.5t43 -3q103 0 115 80h51q-12 -66 -42 -102q-41 -49 -140 -49q-53 0 -90.5 22.5t-37.5 74.5q0 24 5 54z" />
    <glyph glyph-name="Uring" unicode="&#x16e;" horiz-adv-x="703" 
d="M77 671h277v-48l-63 -6l-15 -14l-64 -345q-9 -54 -9 -73q0 -119 132 -119q82 0 122.5 40.5t60.5 142.5l69 354l-11 14l-66 6v48h226v-48l-64 -6l-15 -14l-67 -352q-13 -68 -28.5 -107.5t-44.5 -71.5q-80 -85 -228 -85q-215 0 -215 176q0 44 10 91l66 349l-12 14l-61 6v48
zM334 846q0 47 33.5 80.5t80.5 33.5t80.5 -33.5t33.5 -80.5t-33.5 -80.5t-80.5 -33.5t-80.5 33.5t-33.5 80.5zM384 846q0 -26 19 -45t45 -19t45 19t19 45t-19 45t-45 19t-45 -19t-19 -45z" />
    <glyph glyph-name="uring" unicode="&#x16f;" horiz-adv-x="599" 
d="M201 487h38l-57 -299q-8 -48 -8 -60q0 -25 14 -39.5t37 -14.5q45 0 122 49l67 352l119 14l-58 -310q-11 -55 -11 -72q0 -23 12.5 -37.5t35.5 -14.5q28 0 61 12v-38q-60 -19 -81 -24q-48 -11 -78 -11q-36 0 -54.5 21t-18.5 57v5q-1 -1 -15 -11.5t-24.5 -18t-30 -19
t-37 -19.5t-40 -13.5t-42.5 -5.5q-98 0 -98 100q0 18 6 57l48 260l-80 12v35zM249 666q0 47 33.5 80.5t80.5 33.5t80.5 -33.5t33.5 -80.5t-33.5 -80.5t-80.5 -33.5t-80.5 33.5t-33.5 80.5zM299 666q0 -26 19.5 -45t44.5 -19t44.5 19t19.5 45t-19.5 45t-44.5 19t-44.5 -19
t-19.5 -45z" />
    <glyph glyph-name="Uhungarumlaut" unicode="&#x170;" horiz-adv-x="703" 
d="M77 671h277v-48l-63 -6l-15 -14l-64 -345q-9 -54 -9 -73q0 -119 132 -119q82 0 122.5 40.5t60.5 142.5l69 354l-11 14l-66 6v48h226v-48l-64 -6l-15 -14l-67 -352q-13 -68 -28.5 -107.5t-44.5 -71.5q-80 -85 -228 -85q-215 0 -215 176q0 44 10 91l66 349l-12 14l-61 6v48
zM422 887h116l-170 -155h-62zM592 887h130l-212 -155h-70z" />
    <glyph glyph-name="uhungarumlaut" unicode="&#x171;" horiz-adv-x="599" 
d="M201 487h38l-57 -299q-8 -48 -8 -60q0 -25 14 -39.5t37 -14.5q45 0 122 49l67 352l119 14l-58 -310q-11 -55 -11 -72q0 -23 12.5 -37.5t35.5 -14.5q28 0 61 12v-38q-60 -19 -81 -24q-48 -11 -78 -11q-36 0 -54.5 21t-18.5 57v5q-1 -1 -15 -11.5t-24.5 -18t-30 -19
t-37 -19.5t-40 -13.5t-42.5 -5.5q-98 0 -98 100q0 18 6 57l48 260l-80 12v35zM333 742h112l-187 -190h-59zM499 742h127l-228 -190h-67z" />
    <glyph glyph-name="Uogonek" unicode="&#x172;" horiz-adv-x="703" 
d="M77 671h277v-48l-63 -6l-15 -14l-64 -345q-9 -54 -9 -73q0 -119 132 -119q82 0 122.5 40.5t60.5 142.5l69 354l-11 14l-66 6v48h226v-48l-64 -6l-15 -14l-67 -352q-13 -68 -28.5 -107.5t-44.5 -71.5q-40 -43 -95 -63q-83 -58 -83 -122q0 -18 13.5 -28.5t32.5 -10.5
q15 0 32 3l-13 -67q-29 -8 -60 -8q-37 0 -61 17t-24 52q0 39 27 79t57 66q-33 -3 -53 -3q-29 0 -56.5 4t-57.5 16t-51.5 31t-36 51t-14.5 74q0 44 10 91l66 349l-12 14l-61 6v48z" />
    <glyph glyph-name="uogonek" unicode="&#x173;" horiz-adv-x="599" 
d="M201 487h38l-57 -299q-8 -48 -8 -60q0 -25 14 -39.5t37 -14.5q45 0 122 49l67 352l119 14l-58 -310q-11 -55 -11 -72q0 -23 12.5 -37.5t35.5 -14.5q28 0 61 12v-38q-71 -25 -100.5 -66t-29.5 -76q0 -18 13.5 -28.5t32.5 -10.5q15 0 32 3l-13 -67q-29 -8 -60 -8
q-37 0 -61 17t-24 52q0 85 96 154q-18 -5 -45 -5q-31 0 -52 18.5t-21 59.5v5q-1 -1 -15 -11.5t-24.5 -18t-30 -19t-37 -19.5t-40 -13.5t-42.5 -5.5q-98 0 -98 100q0 18 6 57l48 260l-80 12v35z" />
    <glyph glyph-name="Ydieresis" unicode="&#x178;" horiz-adv-x="589" 
d="M27 671h273v-48l-62 -6l-12 -14l86 -260l185 260l-10 14l-64 6v48h234v-48l-64 -6l-252 -338l-39 -210l11 -14l68 -7v-48h-288v48l67 7l16 14l38 199l-115 341l-9 8l-63 6v48zM202 812q0 26 19 45t45 19t45 -19t19 -45t-19 -45t-45 -19t-45 19t-19 45zM408 812
q0 26 19 45t45 19t45 -19t19 -45t-19 -45t-45 -19t-45 19t-19 45z" />
    <glyph glyph-name="Zacute" unicode="&#x179;" horiz-adv-x="572" 
d="M118 671h462l-3 -49l-435 -564h241l16 15l38 123h71l-37 -196h-484v50l434 563h-213l-18 -11l-34 -109h-72zM440 887h131l-191 -155h-75z" />
    <glyph glyph-name="zacute" unicode="&#x17a;" horiz-adv-x="468" 
d="M387 502l74 -46l-330 -348l87 24q60 -42 96 -42q32 0 59 25l-64 72q20 44 58 44q27 0 42.5 -21.5t15.5 -47.5q0 -68 -50.5 -116t-113.5 -48q-26 0 -68 15l-34 12q-42 14 -60 14q-12 0 -24 -3l-24 -50l-70 41l326 352l-87 -18q-49 37 -89 37q-30 0 -52 -22l58 -67
q-9 -18 -26.5 -30t-33.5 -12q-49 0 -49 63q0 66 51.5 115.5t103.5 49.5q32 0 64 -16l23 -11q53 -24 80 -24q9 0 14 1zM366 742h123l-190 -190h-67z" />
    <glyph glyph-name="Zdotaccent" unicode="&#x17b;" horiz-adv-x="572" 
d="M118 671h462l-3 -49l-435 -564h241l16 15l38 123h71l-37 -196h-484v50l434 563h-213l-18 -11l-34 -109h-72zM292 812q0 28 20 48t48 20t48 -20t20 -48t-20 -48t-48 -20t-48 20t-20 48z" />
    <glyph glyph-name="zdotaccent" unicode="&#x17c;" horiz-adv-x="468" 
d="M387 502l74 -46l-330 -348l87 24q60 -42 96 -42q32 0 59 25l-64 72q20 44 58 44q27 0 42.5 -21.5t15.5 -47.5q0 -68 -50.5 -116t-113.5 -48q-26 0 -68 15l-34 12q-42 14 -60 14q-12 0 -24 -3l-24 -50l-70 41l326 352l-87 -18q-49 37 -89 37q-30 0 -52 -22l58 -67
q-9 -18 -26.5 -30t-33.5 -12q-49 0 -49 63q0 66 51.5 115.5t103.5 49.5q32 0 64 -16l23 -11q53 -24 80 -24q9 0 14 1zM220 642q0 28 20 48t48 20t48 -20t20 -48t-20 -48t-48 -20t-48 20t-20 48z" />
    <glyph glyph-name="Zcaron" unicode="&#x17d;" horiz-adv-x="572" 
d="M118 671h462l-3 -49l-435 -564h241l16 15l38 123h71l-37 -196h-484v50l434 563h-213l-18 -11l-34 -109h-72zM540 887l-147 -155h-81l-80 155h78l54 -93l98 93h78z" />
    <glyph glyph-name="zcaron" unicode="&#x17e;" horiz-adv-x="468" 
d="M387 502l74 -46l-330 -348l87 24q60 -42 96 -42q32 0 59 25l-64 72q20 44 58 44q27 0 42.5 -21.5t15.5 -47.5q0 -68 -50.5 -116t-113.5 -48q-26 0 -68 15l-34 12q-42 14 -60 14q-12 0 -24 -3l-24 -50l-70 41l326 352l-87 -18q-49 37 -89 37q-30 0 -52 -22l58 -67
q-9 -18 -26.5 -30t-33.5 -12q-49 0 -49 63q0 66 51.5 115.5t103.5 49.5q32 0 64 -16l23 -11q53 -24 80 -24q9 0 14 1zM159 741h77l52 -125l101 125h77l-146 -190h-88z" />
    <glyph glyph-name="Schwa" unicode="&#x18f;" horiz-adv-x="702" 
d="M122 491l31 163q118 30 212 30q130 0 205 -58q96 -75 96 -220q0 -79 -27.5 -154t-77 -134t-125 -95t-164.5 -36q-107 0 -169 69q-63 70 -63 183q0 57 16 121h469q3 26 3 51q0 107 -45.5 159.5t-127.5 52.5q-56 0 -118 -15l-16 -18l-32 -99h-67zM517 300h-345
q-10 -41 -10 -89q0 -70 28 -112q34 -51 97 -51q25 0 56 12t67 38t65.5 79t41.5 123z" />
    <glyph glyph-name="florin" unicode="&#x192;" horiz-adv-x="587" 
d="M510 533l-75 95q-31 -26 -46 -59.5t-28 -105.5l-16 -94h153l-6 -60h-157q-16 -118 -35.5 -185.5t-51.5 -122.5q-39 -66 -102 -107.5t-125 -41.5q-37 0 -60 16t-23 42q0 50 68 83l86 -85q33 29 51 70.5t34 126.5l37 204h-110l6 60h112l14 72q21 104 98 173t169 69
q37 0 60 -18.5t23 -47.5q0 -25 -17.5 -44.5t-58.5 -39.5z" />
    <glyph glyph-name="Icaron" unicode="&#x1cf;" horiz-adv-x="345" 
d="M86 671h282v-48l-65 -6l-16 -14l-100 -534l12 -14l65 -7v-48h-284v48l66 7l15 14l100 534l-10 14l-65 6v48zM427 887l-147 -155h-81l-80 155h78l54 -93l98 93h78z" />
    <glyph glyph-name="icaron" unicode="&#x1d0;" horiz-adv-x="315" 
d="M199 493h44l-63 -338q-5 -40 -5 -43q0 -53 48 -53q21 0 70 14v-41q-112 -38 -167 -38q-37 0 -57.5 20t-20.5 56q0 24 9 68l53 269l-82 12v35zM83 741h77l52 -125l101 125h77l-146 -190h-88z" />
    <glyph glyph-name="eturn" unicode="&#x1dd;" horiz-adv-x="462" 
d="M27 346l2 61q113 85 206 85q50 0 86.5 -17.5t55 -47t26.5 -60.5t8 -66q0 -52 -20 -106t-56 -100t-91.5 -75.5t-120.5 -29.5q-60 0 -92 28t-32 82q0 45 26.5 78t68.5 49t81 22.5t77 6.5q28 0 37 -1q2 16 2 38q0 58 -29 89.5t-75 31.5q-70 0 -160 -68zM281 213
q-88 -5 -140 -46q-41 -33 -41 -76q0 -23 13.5 -37.5t35.5 -14.5q50 0 89 64q31 50 43 110z" />
    <glyph glyph-name="Gcaron" unicode="&#x1e6;" horiz-adv-x="692" 
d="M654 652l-30 -171h-71v111l-12 19q-37 12 -72 12q-106 0 -185 -73q-54 -50 -82 -123.5t-28 -154.5q0 -105 55 -164q53 -57 149 -57q24 0 49 3l38 207l-11 14l-68 6v49h283v-48l-65 -6l-15 -14l-43 -232q-120 -43 -222 -43q-33 0 -66 5.5t-75 24.5t-73 48.5t-52.5 83.5
t-21.5 124q0 85 34 167.5t109 144.5q120 99 283 99q101 0 192 -32zM644 887l-147 -155h-81l-80 155h78l54 -93l98 93h78z" />
    <glyph glyph-name="gcaron" unicode="&#x1e7;" horiz-adv-x="516" 
d="M389 463h137v-52h-102q10 -30 10 -61q0 -81 -67 -135t-154 -54h-5q-12 -19 -12 -34q0 -2 0.5 -4.5t0.5 -3.5l151 -72q91 -42 91 -103q0 -22 -14 -47.5t-42.5 -52.5t-83.5 -44.5t-125 -17.5q-33 0 -66.5 7t-65.5 21.5t-52 41.5t-20 63q0 33 19 62t46.5 46t47.5 26t33 13
q-1 4 -1 13q0 39 42 93q-56 15 -85 50.5t-29 82.5q0 69 59 130t165 61q61 0 122 -29zM266 448q-50 0 -76.5 -52t-26.5 -113q0 -76 52 -76q28 0 49.5 21.5t32.5 51.5t16 53.5t5 35.5q0 79 -52 79zM261 -26l-120 55q-21 -12 -31.5 -20t-21.5 -26.5t-11 -42.5q0 -46 34.5 -77.5
t94.5 -31.5q44 0 79 22t35 54q0 39 -59 67zM155 741h77l52 -125l101 125h77l-146 -190h-88z" />
    <glyph glyph-name="Scommaaccent" unicode="&#x218;" horiz-adv-x="552" 
d="M23 42l26 162h66v-119l6 -10q45 -20 91 -20q57 0 99 32.5t42 86.5q0 34 -21 57t-102 69q-91 53 -116.5 86.5t-25.5 81.5q0 89 66 151t196 62q75 0 157 -28l-26 -169h-58v110l-8 10q-31 16 -68 16q-58 0 -99 -28t-41 -82q0 -26 15 -46.5t31.5 -31.5t60.5 -36q12 -7 19 -11
q65 -37 98.5 -68.5t40 -51t6.5 -49.5q0 -107 -76.5 -166.5t-189.5 -59.5q-102 0 -189 52zM105 -298l-13 24q91 47 98 117h-58q-11 13 -11 33q0 23 19 42.5t57 19.5q67 0 67 -64q0 -110 -159 -172z" />
    <glyph glyph-name="scommaaccent" unicode="&#x219;" horiz-adv-x="403" 
d="M104 134l-18 -73q32 -23 65 -23q34 0 55.5 19t21.5 54q0 26 -15 45.5t-54 45.5l-25 17q-26 18 -41.5 31.5t-29.5 36.5t-14 47q0 63 55 110.5t144 47.5q43 0 78 -16.5t35 -57.5q0 -56 -71 -61l-47 90q-10 2 -19 2q-29 0 -51 -16t-22 -40q0 -22 16 -39t54 -45q7 -4 10 -7
l32 -24q74 -53 74 -120q0 -79 -57.5 -123.5t-139.5 -44.5q-73 0 -112.5 34.5t-39.5 72.5q0 29 18 44.5t44 15.5q34 0 54 -23zM31 -298l-13 24q91 47 98 117h-58q-11 13 -11 33q0 23 19 42.5t57 19.5q67 0 67 -64q0 -110 -159 -172z" />
    <glyph glyph-name="Tcommaaccent" unicode="&#x21a;" horiz-adv-x="583" 
d="M71 671h556l-33 -176h-65v107l-14 13h-113l-102 -546l11 -14l68 -7v-48h-288v48l69 7l14 14l102 546h-115l-18 -13l-36 -107h-70zM120 -298l-13 24q91 47 98 117h-58q-11 13 -11 33q0 23 19 42.5t57 19.5q67 0 67 -64q0 -110 -159 -172z" />
    <glyph glyph-name="tcommaaccent" unicode="&#x21b;" horiz-adv-x="365" 
d="M192 601h65l-23 -128h137v-58h-148l-44 -243q-6 -36 -6 -53q0 -62 58 -62q40 0 88 18v-40q-63 -21 -100 -30q-44 -11 -77 -11q-40 0 -66 24t-26 70q0 21 7 63l49 261h-66v36l86 43zM12 -298l-13 24q91 47 98 117h-58q-11 13 -11 33q0 23 19 42.5t57 19.5q67 0 67 -64
q0 -110 -159 -172z" />
    <glyph glyph-name="Ecedilla" unicode="&#x228;" horiz-adv-x="578" 
d="M82 671h495l-30 -156h-64v88l-12 12h-187l-45 -240h122l15 14l24 74h57l-43 -233h-52v75l-13 14h-120l-49 -261h224l14 14l38 107h66l-33 -179h-205l-10 -52q5 1 17 1q67 0 67 -61q0 -42 -37.5 -77.5t-105.5 -35.5q-40 0 -77 11l9 47q33 -8 58 -8q71 0 71 44q0 26 -40 26
q-11 0 -21 -2l20 107h-259v48l65 7l14 14l100 534l-9 14l-64 6v48z" />
    <glyph glyph-name="ecedilla" unicode="&#x229;" horiz-adv-x="461" 
d="M400 136l-2 -61q-44 -34 -94.5 -56.5t-83.5 -26.5l-8 -42q5 1 17 1q67 0 67 -61q0 -39 -34 -76t-109 -37q-40 0 -77 11l9 47q33 -8 58 -8q71 0 71 44q0 26 -40 26q-11 0 -21 -2l18 96q-81 5 -118 60.5t-37 129.5q0 52 20 106t56 100t91.5 75.5t120.5 29.5q60 0 92 -28
t32 -82q0 -45 -26.5 -78t-68.5 -49t-81 -22.5t-77 -6.5q-28 0 -37 1q-2 -16 -2 -38q0 -58 29 -89.5t75 -31.5q70 0 160 68zM146 269q88 5 140 46q41 33 41 76q0 23 -13.5 37.5t-35.5 14.5q-50 0 -89 -64q-31 -50 -43 -110z" />
    <glyph glyph-name="schwa" unicode="&#x259;" horiz-adv-x="462" 
d="M27 346l2 61q113 85 206 85q50 0 86.5 -17.5t55 -47t26.5 -60.5t8 -66q0 -52 -20 -106t-56 -100t-91.5 -75.5t-120.5 -29.5q-60 0 -92 28t-32 82q0 45 26.5 78t68.5 49t81 22.5t77 6.5q28 0 37 -1q2 16 2 38q0 58 -29 89.5t-75 31.5q-70 0 -160 -68zM281 213
q-88 -5 -140 -46q-41 -33 -41 -76q0 -23 13.5 -37.5t35.5 -14.5q50 0 89 64q31 50 43 110z" />
    <glyph glyph-name="afii57929" unicode="&#x2bc;" 
d="M385 442l-13 24q91 47 98 117h-58q-11 13 -11 33q0 23 19 42.5t57 19.5q67 0 67 -64q0 -110 -159 -172z" />
    <glyph glyph-name="circumflex" unicode="&#x2c6;" 
d="M285 742h87l74 -190h-77l-53 125l-100 -125h-78z" />
    <glyph glyph-name="caron" unicode="&#x2c7;" 
d="M175 741h77l52 -125l101 125h77l-146 -190h-88z" />
    <glyph glyph-name="breve" unicode="&#x2d8;" 
d="M172 718h51q-2 -8 -2 -21q0 -26 15 -39.5t32 -16.5t43 -3q103 0 115 80h51q-12 -66 -42 -102q-41 -49 -140 -49q-53 0 -90.5 22.5t-37.5 74.5q0 24 5 54z" />
    <glyph glyph-name="dotaccent" unicode="&#x2d9;" 
d="M236 642q0 28 20 48t48 20t48 -20t20 -48t-20 -48t-48 -20t-48 20t-20 48z" />
    <glyph glyph-name="ring" unicode="&#x2da;" 
d="M200 666q0 47 33.5 80.5t80.5 33.5t80.5 -33.5t33.5 -80.5t-33.5 -80.5t-80.5 -33.5t-80.5 33.5t-33.5 80.5zM250 666q0 -26 19 -45t45 -19t45 19t19 45t-19 45t-45 19t-45 -19t-19 -45z" />
    <glyph glyph-name="ogonek" unicode="&#x2db;" 
d="M176 0h55q-71 -56 -71 -113q0 -18 13.5 -28.5t32.5 -10.5q16 0 32 3l-13 -67q-29 -8 -60 -8q-37 0 -61 17t-24 52q0 41 30 83.5t66 71.5z" />
    <glyph glyph-name="tilde" unicode="&#x2dc;" 
d="M431 722h54q-9 -57 -36 -96t-77 -39q-34 0 -76 21q-13 7 -24 13.5t-14.5 8t-8 2.5t-13.5 1q-40 0 -50 -63h-54q6 59 36.5 97.5t78.5 38.5q28 0 48 -10q57 -37 87 -37q39 0 49 63z" />
    <glyph glyph-name="hungarumlaut" unicode="&#x2dd;" 
d="M284 742h112l-187 -190h-59zM450 742h127l-228 -190h-67z" />
    <glyph glyph-name="accent" unicode="&#x301;" horiz-adv-x="2" 
d="M-136 742h123l-190 -190h-67z" />
    <glyph glyph-name="accent" unicode="&#xf400;" horiz-adv-x="2" 
d="M-136 742h123l-190 -190h-67z" />
    <glyph glyph-name="Delta" unicode="&#x394;" horiz-adv-x="658" 
d="M4 0l313 730h23l314 -730h-650zM93 122h373l-187 439z" />
    <glyph glyph-name="Delta" unicode="&#x2206;" horiz-adv-x="658" 
d="M4 0l313 730h23l314 -730h-650zM93 122h373l-187 439z" />
    <glyph glyph-name="Omega" unicode="&#x3a9;" horiz-adv-x="770" 
d="M220 108v12q-156 122 -156 297q0 79 31.5 142.5t82.5 103.5q84 67 207 67t207 -67q51 -40 82.5 -103.5t31.5 -142.5q0 -175 -156 -297v-12h146l26 81h33l-57 -189h-251q109 214 109 420q0 29 -2 55.5t-11.5 68.5t-26.5 72t-51 52t-80 22t-80 -22t-51 -52t-26.5 -72
t-11.5 -68.5t-2 -55.5q0 -206 109 -420h-251l-57 189h33l26 -81h146z" />
    <glyph glyph-name="Omega" unicode="&#x2126;" horiz-adv-x="770" 
d="M220 108v12q-156 122 -156 297q0 79 31.5 142.5t82.5 103.5q84 67 207 67t207 -67q51 -40 82.5 -103.5t31.5 -142.5q0 -175 -156 -297v-12h146l26 81h33l-57 -189h-251q109 214 109 420q0 29 -2 55.5t-11.5 68.5t-26.5 72t-51 52t-80 22t-80 -22t-51 -52t-26.5 -72
t-11.5 -68.5t-2 -55.5q0 -206 109 -420h-251l-57 189h33l26 -81h146z" />
    <glyph glyph-name="pi" unicode="&#x3c0;" horiz-adv-x="700" 
d="M46 236h-28l9 37q19 80 56 118q40 41 110 41h497l-25 -113h-166q-12 -64 -12 -155v-54q0 -62 -14 -96t-52 -34q-27 0 -38.5 17.5t-11.5 37.5q0 35 33 116q42 103 57 168h-184q-12 -64 -12 -155v-54q0 -62 -14 -96t-52 -34q-27 0 -38.5 17.5t-11.5 37.5q0 35 33 116
q42 103 57 168h-86q-26 0 -42.5 -3t-35 -20t-26.5 -48z" />
    <glyph glyph-name="afii10023" unicode="&#x401;" horiz-adv-x="578" 
d="M82 671h495l-30 -156h-64v88l-12 12h-187l-45 -240h122l15 14l24 74h57l-43 -233h-52v75l-13 14h-120l-49 -261h224l14 14l38 107h66l-33 -179h-513v48l65 7l14 14l100 534l-9 14l-64 6v48zM193 812q0 26 19.5 45t44.5 19t44.5 -19t19.5 -45t-19.5 -45t-44.5 -19
t-44.5 19t-19.5 45zM399 812q0 26 19.5 45t44.5 19t44.5 -19t19.5 -45t-19.5 -45t-44.5 -19t-44.5 19t-19.5 45z" />
    <glyph glyph-name="afii10051" unicode="&#x402;" horiz-adv-x="751" 
d="M71 671h571l-33 -176h-67l2 107l-14 13h-133l-45 -243q85 20 167 20q101 0 146 -54q36 -44 36 -120q0 -111 -67 -174q-61 -57 -160 -57q-58 0 -111 27l26 136h60v-99l14 -12q44 0 72 38q28 39 28 123q0 76 -25 104q-25 30 -82 30q-52 0 -116 -23l-58 -311h-196v48l69 7
l14 14l102 546h-110l-18 -13l-36 -107h-70z" />
    <glyph glyph-name="afii10052" unicode="&#x403;" horiz-adv-x="530" 
d="M81 671h480l-33 -176h-65v107l-14 13h-165l-102 -546l12 -14l64 -7v-48h-282v48l66 7l14 14l100 534l-10 14l-65 6v48zM444 887h131l-191 -155h-75z" />
    <glyph glyph-name="afii10053" unicode="&#x404;" horiz-adv-x="640" 
d="M650 650l-30 -169h-68v109l-10 18q-45 15 -90 15q-109 0 -185 -86q-58 -65 -80 -157h287v-64h-297q-3 -24 -3 -48q0 -96 44 -153q51 -67 154 -67q37 0 70 6l19 18l46 124h67l-32 -173q-118 -36 -212 -36q-34 0 -68 5.5t-76.5 24t-74 48t-53.5 83t-22 123.5q0 95 37 176
t100 136q115 101 276 101q87 0 201 -34z" />
    <glyph glyph-name="afii10054" unicode="&#x405;" horiz-adv-x="552" 
d="M23 42l26 162h66v-119l6 -10q45 -20 91 -20q57 0 99 32.5t42 86.5q0 34 -21 57t-102 69q-91 53 -116.5 86.5t-25.5 81.5q0 89 66 151t196 62q75 0 157 -28l-26 -169h-58v110l-8 10q-31 16 -68 16q-58 0 -99 -28t-41 -82q0 -26 15 -46.5t31.5 -31.5t60.5 -36q12 -7 19 -11
q65 -37 98.5 -68.5t40 -51t6.5 -49.5q0 -107 -76.5 -166.5t-189.5 -59.5q-102 0 -189 52z" />
    <glyph glyph-name="afii10055" unicode="&#x406;" horiz-adv-x="345" 
d="M86 671h282v-48l-65 -6l-16 -14l-100 -534l12 -14l65 -7v-48h-284v48l66 7l15 14l100 534l-10 14l-65 6v48z" />
    <glyph glyph-name="afii10056" unicode="&#x407;" horiz-adv-x="345" 
d="M86 671h282v-48l-65 -6l-16 -14l-100 -534l12 -14l65 -7v-48h-284v48l66 7l15 14l100 534l-10 14l-65 6v48zM101 812q0 26 19.5 45t44.5 19t44.5 -19t19.5 -45t-19.5 -45t-44.5 -19t-44.5 19t-19.5 45zM267 812q0 26 19.5 45t44.5 19t44.5 -19t19.5 -45t-19.5 -45
t-44.5 -19t-44.5 19t-19.5 45z" />
    <glyph glyph-name="afii10057" unicode="&#x408;" horiz-adv-x="472" 
d="M211 671h284v-48l-67 -6l-14 -14l-56 -335q-26 -157 -97 -224q-60 -57 -165 -57q-74 0 -141 27l34 178h72v-136l13 -12h8q30 0 52 10.5t36 27t25.5 48t18 61t15.5 79.5l59 333l-10 14l-67 6v48z" />
    <glyph glyph-name="afii10058" unicode="&#x409;" horiz-adv-x="960" 
d="M195 671h517v-48l-65 -6l-16 -14l-39 -210q56 7 88 7q103 0 159 -38q71 -48 71 -146q0 -108 -83 -165q-74 -51 -213 -51h-288v48l64 7l15 14l102 546h-140q-43 -180 -89 -308q-12 -34 -29 -74.5t-57.5 -110t-79.5 -100.5q-43 -34 -88 -34q-35 0 -56 19q-22 18 -22 55
q0 28 14.5 49t42.5 27l83 -55q68 77 129 248q48 136 78 272l-14 15l-84 5v48zM581 335l-52 -278q24 -3 54 -3q100 0 146 44q43 41 43 115q0 66 -37 100q-31 29 -94 29q-27 0 -60 -7z" />
    <glyph glyph-name="afii10059" unicode="&#x40a;" horiz-adv-x="1018" 
d="M84 671h276v-48l-65 -6l-13 -14l-42 -222h281l42 222l-13 14l-60 6v48h280v-48l-65 -6l-16 -14l-39 -210q56 7 88 7q103 0 159 -38q71 -48 71 -146q0 -67 -30 -113t-79.5 -67t-93.5 -28.5t-93 -7.5h-288v48l63 7l16 14l47 252h-281l-47 -252l11 -14l64 -7v-48h-281v48
l64 7l16 14l100 534l-10 14l-62 6v48zM639 335l-52 -278q24 -3 54 -3q100 0 146 44q43 41 43 115q0 66 -37 100q-31 29 -94 29q-27 0 -60 -7z" />
    <glyph glyph-name="afii10060" unicode="&#x40b;" horiz-adv-x="774" 
d="M71 671h571l-33 -176h-67l2 107l-14 13h-133l-46 -243q91 20 162 20q101 0 141 -40q31 -33 31 -85q0 -13 -8 -59l-27 -139l10 -14l62 -7v-48h-172l-28 36l34 177q14 69 -14 97q-25 24 -81 24q-59 0 -121 -23l-45 -242l13 -14l59 -7v-48h-281v48l69 7l14 14l102 546h-110
l-18 -13l-36 -107h-70z" />
    <glyph glyph-name="afii10061" unicode="&#x40c;" horiz-adv-x="668" 
d="M82 671h279v-48l-67 -6l-13 -14l-42 -225h47q73 0 110 66l70 127q60 108 147 108q29 0 55 -19t26 -54q0 -28 -18 -47.5t-48 -22.5l-64 62q-16 -16 -32 -46l-62 -116q-39 -70 -97 -86v-2q87 -27 121 -142l39 -138l17 -15l69 -5v-48h-218v36l-53 216q-16 72 -80 72h-39
l-48 -255l11 -14l63 -7v-48h-279v48l64 7l15 14l100 534l-10 14l-63 6v48zM524 887h131l-191 -155h-75z" />
    <glyph glyph-name="afii10062" unicode="&#x40e;" horiz-adv-x="616" 
d="M42 671h277v-48l-62 -6l-10 -14l113 -329l174 329l-10 14l-64 6v48h224v-48l-64 -6l-238 -431q-62 -114 -118 -156q-57 -43 -127 -43q-62 0 -117 27l31 163h75v-121l13 -12q42 1 80.5 34t61.5 81l-167 450l-9 8l-63 6v48zM542 886h52q-18 -73 -78.5 -111.5t-142.5 -38.5
q-135 0 -135 84q0 28 20.5 47t55.5 19q24 0 46 -7v-86q15 -5 31 -5q57 0 94 25q46 29 57 73z" />
    <glyph glyph-name="afii10145" unicode="&#x40f;" horiz-adv-x="732" 
d="M84 671h276v-48l-65 -6l-13 -14l-103 -545h271l103 545l-13 14l-60 6v48h278v-48l-66 -6l-13 -14l-100 -534l9 -14l64 -7v-48h-275l-17 -15l-51 -165h-76l12 168l-12 12h-257v48l64 7l16 14l100 534l-10 14l-62 6v48z" />
    <glyph glyph-name="afii10017" unicode="&#x410;" horiz-adv-x="636" 
d="M339 677h103l103 -608l10 -14l58 -7v-48h-263v48l61 7l11 14l-28 167h-223l-92 -167l10 -14l59 -7v-48h-215v48l56 7zM342 551l-141 -260h183z" />
    <glyph glyph-name="afii10018" unicode="&#x411;" horiz-adv-x="622" 
d="M80 671h506l-30 -156h-64v88l-12 12h-196l-43 -225q42 5 89 5q103 0 159 -37q71 -47 71 -142q0 -67 -30 -113t-79.5 -67t-93.5 -28.5t-93 -7.5h-288v48l64 7l15 14l100 534l-11 14l-64 6v48zM230 332l-51 -275q24 -3 54 -3q100 0 146 44q43 41 43 114q0 64 -37 97
q-33 28 -94 28q-31 0 -61 -5z" />
    <glyph glyph-name="afii10019" unicode="&#x412;" horiz-adv-x="628" 
d="M80 671h300q33 0 61.5 -4.5t62 -16.5t53.5 -40.5t20 -69.5q0 -37 -14 -67.5t-33.5 -49t-45.5 -33t-44 -20.5t-35 -10v-2q69 -2 112 -38.5t43 -102.5q0 -59 -24 -102t-56 -64.5t-77 -33.5t-72 -14.5t-57 -2.5h-298v48l64 7l15 14l100 534l-11 14l-64 6v48zM284 617
l-45 -242q20 -2 31 -2q85 0 129 42q42 40 42 109q0 95 -123 95q-24 0 -34 -2zM228 318l-48 -261q36 -3 51 -3q191 0 191 158q0 18 -0.5 27t-8 27.5t-21 28t-42 18t-68.5 8.5q-27 0 -54 -3z" />
    <glyph glyph-name="afii10020" unicode="&#x413;" horiz-adv-x="530" 
d="M81 671h480l-33 -176h-65v107l-14 13h-165l-102 -546l12 -14l64 -7v-48h-282v48l66 7l14 14l100 534l-10 14l-65 6v48z" />
    <glyph glyph-name="afii10021" unicode="&#x414;" horiz-adv-x="684" 
d="M195 671h515v-48l-66 -6l-13 -14l-100 -533l10 -12h82l-46 -228h-72v158l-12 12h-421l-17 -15l-59 -155h-78l34 228h72q184 256 269 545l-14 20h-84v48zM104 58h298l105 557h-140q-92 -307 -263 -557z" />
    <glyph glyph-name="afii10022" unicode="&#x415;" horiz-adv-x="578" 
d="M82 671h495l-30 -156h-64v88l-12 12h-187l-45 -240h122l15 14l24 74h57l-43 -233h-52v75l-13 14h-120l-49 -261h224l14 14l38 107h66l-33 -179h-513v48l65 7l14 14l100 534l-9 14l-64 6v48z" />
    <glyph glyph-name="afii10024" unicode="&#x416;" horiz-adv-x="960" 
d="M386 671h279v-48l-67 -6l-13 -14l-44 -235h33q72 0 110 75l66 128q54 108 146 108q33 0 57.5 -18t24.5 -54q0 -28 -18 -48t-48 -23l-64 62q-18 -18 -32 -46l-58 -116q-38 -76 -97 -96v-2q92 -27 121 -132l39 -138l17 -15l69 -5v-48h-218v36l-53 206q-17 72 -80 72h-25
l-46 -245l11 -14l63 -7v-48h-279v48l64 7l15 14l46 245h-35q-67 0 -106 -80l-58 -120q-57 -120 -199 -120q-29 0 -57 6v46h6q41 0 64 19t41 52l65 115q59 105 166 112v2q-25 12 -39 34.5t-24 66.5l-19 83q-8 39 -23 60l-70 -54q-44 16 -44 63q0 40 27 60t61 20
q86 0 118 -132l21 -91q14 -58 30.5 -73t44.5 -15h40l44 235l-10 14l-63 6v48z" />
    <glyph glyph-name="afii10025" unicode="&#x417;" horiz-adv-x="580" 
d="M91 481l33 173q88 30 192 30q37 0 69.5 -5.5t67.5 -19.5t55.5 -45t20.5 -76q0 -60 -44.5 -112t-127.5 -68v-2q27 -2 51 -9t49 -22.5t39.5 -45.5t14.5 -72q0 -104 -90 -165q-82 -55 -215 -55q-108 0 -206 36l33 178h66v-119l6 -10q43 -20 88 -20q83 0 131.5 43t48.5 110
q0 61 -35 90q-27 23 -84 23q-40 0 -77 -8v64h54q25 0 50 6.5t51 22.5t42.5 48.5t16.5 78.5q0 49 -31.5 71t-69.5 22q-41 0 -81 -15l-16 -18l-36 -109h-66z" />
    <glyph glyph-name="afii10026" unicode="&#x418;" horiz-adv-x="748" 
d="M84 671h276v-48l-65 -6l-13 -14l-78 -410l365 390l4 20l-13 14l-60 6v48h278v-48l-66 -6l-13 -14l-100 -534l9 -14l64 -7v-48h-278v48l63 7l16 14l79 420l-365 -390l-5 -30l11 -14l64 -7v-48h-281v48l64 7l16 14l100 534l-10 14l-62 6v48z" />
    <glyph glyph-name="afii10027" unicode="&#x419;" horiz-adv-x="748" 
d="M84 671h276v-48l-65 -6l-13 -14l-78 -410l365 390l4 20l-13 14l-60 6v48h278v-48l-66 -6l-13 -14l-100 -534l9 -14l64 -7v-48h-278v48l63 7l16 14l79 420l-365 -390l-5 -30l11 -14l64 -7v-48h-281v48l64 7l16 14l100 534l-10 14l-62 6v48zM608 886h52
q-18 -73 -78.5 -111.5t-142.5 -38.5q-135 0 -135 84q0 28 20.5 47t55.5 19q24 0 46 -7v-86q15 -5 31 -5q57 0 94 25q46 29 57 73z" />
    <glyph glyph-name="afii10028" unicode="&#x41a;" horiz-adv-x="668" 
d="M82 671h279v-48l-67 -6l-13 -14l-42 -225h47q73 0 110 66l70 127q60 108 147 108q29 0 55 -19t26 -54q0 -28 -18 -47.5t-48 -22.5l-64 62q-16 -16 -32 -46l-62 -116q-39 -70 -97 -86v-2q87 -27 121 -142l39 -138l17 -15l69 -5v-48h-218v36l-53 216q-16 72 -80 72h-39
l-48 -255l11 -14l63 -7v-48h-279v48l64 7l15 14l100 534l-10 14l-63 6v48z" />
    <glyph glyph-name="afii10029" unicode="&#x41b;" horiz-adv-x="680" 
d="M195 671h515v-48l-66 -6l-13 -14l-100 -534l9 -14l64 -7v-48h-278v48l63 7l16 14l102 546h-140q-43 -180 -89 -308q-7 -20 -16 -42t-27 -62.5t-40 -75t-48.5 -67.5t-58.5 -52.5t-64 -19.5q-33 0 -55.5 17.5t-22.5 56.5q0 28 14.5 49t42.5 27l83 -55q68 77 129 248
q48 136 78 272l-14 20h-84v48z" />
    <glyph glyph-name="afii10030" unicode="&#x41c;" horiz-adv-x="886" 
d="M84 671h258v-30l75 -463l243 466v27h251v-48l-64 -6l-15 -14l-95 -534l10 -14l62 -7v-48h-270v48l66 7l14 14l94 534h-2l-313 -603h-72l-96 603h-2l-101 -534l12 -14l60 -7v-48h-223v48l64 7l15 14l104 534l-9 14l-66 6v48z" />
    <glyph glyph-name="afii10031" unicode="&#x41d;" horiz-adv-x="738" 
d="M84 671h276v-48l-65 -6l-13 -14l-42 -222h281l42 222l-13 14l-60 6v48h278v-48l-66 -6l-13 -14l-100 -534l9 -14l64 -7v-48h-278v48l63 7l16 14l47 252h-281l-47 -252l11 -14l64 -7v-48h-281v48l64 7l16 14l100 534l-10 14l-62 6v48z" />
    <glyph glyph-name="afii10032" unicode="&#x41e;" horiz-adv-x="728" 
d="M418 684q117 0 193 -71q81 -74 81 -208q0 -105 -45 -200t-133 -156.5t-198 -61.5q-131 0 -207 84q-69 76 -69 199q0 98 43 192.5t119 151.5q92 70 216 70zM404 623q-61 0 -114 -57t-82.5 -140.5t-29.5 -167.5q0 -88 36 -146q41 -64 113 -64q89 0 154 100q73 111 73 263
q0 32 -5 62.5t-19 67.5t-46.5 59.5t-79.5 22.5z" />
    <glyph glyph-name="afii10033" unicode="&#x41f;" horiz-adv-x="732" 
d="M84 671h678v-48l-66 -6l-13 -14l-100 -534l9 -14l64 -7v-48h-278v48l63 7l16 14l102 546h-275l-102 -546l11 -14l64 -7v-48h-281v48l64 7l16 14l100 534l-10 14l-62 6v48z" />
    <glyph glyph-name="afii10034" unicode="&#x420;" horiz-adv-x="584" 
d="M83 671h258q242 0 242 -171q0 -62 -24 -109.5t-59 -73.5t-80.5 -42.5t-81.5 -21.5t-70 -5q-27 0 -53 2l-34 -181l9 -14l66 -7v-48h-280v48l64 7l15 14l100 534l-10 14l-62 6v48zM284 614l-58 -307q10 -1 27 -1q93 0 146 55q46 51 46 136q0 22 -3 37.5t-14.5 36.5
t-41 32.5t-74.5 11.5q-18 0 -28 -1z" />
    <glyph glyph-name="afii10035" unicode="&#x421;" horiz-adv-x="624" 
d="M634 650l-30 -169h-68v109l-10 18q-38 15 -74 15q-113 0 -195.5 -103.5t-82.5 -250.5q0 -98 44 -154q52 -67 154 -67q29 0 54 6l19 18l46 124h67l-32 -173q-110 -36 -196 -36q-34 0 -68 5.5t-76.5 24t-74 48t-53.5 83t-22 123.5q0 95 37 176t100 136q115 101 276 101
q81 0 185 -34z" />
    <glyph glyph-name="afii10036" unicode="&#x422;" horiz-adv-x="583" 
d="M71 671h556l-33 -176h-65v107l-14 13h-113l-102 -546l11 -14l68 -7v-48h-288v48l69 7l14 14l102 546h-115l-18 -13l-36 -107h-70z" />
    <glyph glyph-name="afii10037" unicode="&#x423;" horiz-adv-x="616" 
d="M42 671h277v-48l-62 -6l-10 -14l113 -329l174 329l-10 14l-64 6v48h224v-48l-64 -6l-238 -431q-62 -114 -118 -156q-57 -43 -127 -43q-62 0 -117 27l31 163h75v-121l13 -12q42 1 80.5 34t61.5 81l-167 450l-9 8l-63 6v48z" />
    <glyph glyph-name="afii10038" unicode="&#x424;" horiz-adv-x="792" 
d="M309 700h286v-48l-67 -7l-14 -14l-9 -48h21q44 0 82 -8t75 -28t58 -59t21 -95q0 -63 -22.5 -112t-56.5 -77t-79 -46t-84 -24t-78 -6h-22l-11 -59l11 -14l68 -7v-48h-290v48l69 7l14 14l11 59h-20q-44 0 -82 8t-75 28t-58 59t-21 95q0 63 22.5 112t56.5 77t79 46t84 24
t78 6h21l9 48l-11 14l-66 7v48zM307 186l63 339q-11 2 -32 2q-71 0 -119.5 -49t-48.5 -156q0 -20 5 -41.5t17 -44t36.5 -37t57.5 -14.5q14 0 21 1zM490 525l-63 -339q8 -1 23 -1q91 0 134.5 55t43.5 150q0 60 -32 98.5t-82 38.5q-10 0 -24 -2z" />
    <glyph glyph-name="afii10039" unicode="&#x425;" horiz-adv-x="609" 
d="M51 671h274v-48l-61 -6l-11 -14l79 -183l162 183l-6 14l-56 6v48h225v-48l-65 -6l-229 -257l132 -299l10 -6l60 -7v-48h-277v48l65 7l11 14l-86 198l-177 -198l11 -14l62 -7v-48h-239v48l58 7l13 8l239 269l-123 277l-8 8l-63 6v48z" />
    <glyph glyph-name="afii10040" unicode="&#x426;" horiz-adv-x="732" 
d="M84 671h276v-48l-65 -6l-13 -14l-103 -545h271l103 545l-13 14l-60 6v48h278v-48l-66 -6l-13 -14l-100 -533l10 -12h82l-46 -228h-72v158l-12 12h-565v48l64 7l16 14l100 534l-10 14l-62 6v48z" />
    <glyph glyph-name="afii10041" unicode="&#x427;" horiz-adv-x="670" 
d="M58 671h270v-48l-63 -6l-13 -14l-28 -145q-5 -27 -5 -44q0 -77 100 -77q59 0 131 23l45 243l-13 14l-59 6v48h277v-48l-66 -6l-13 -14l-100 -534l9 -14l64 -7v-48h-282v48l69 7l14 14l44 230q-103 -20 -172 -20q-172 0 -172 125q0 13 8 59l27 140l-10 14l-62 6v48z" />
    <glyph glyph-name="afii10042" unicode="&#x428;" horiz-adv-x="1018" 
d="M84 671h274v-48l-63 -6l-13 -14l-103 -545h218l103 545l-13 14l-59 6v48h274v-48l-63 -6l-13 -14l-103 -545h218l103 545l-13 14l-59 6v48h276v-48l-65 -6l-13 -14l-100 -534l9 -14l64 -7v-48h-967v48l64 7l16 14l100 534l-10 14l-62 6v48z" />
    <glyph glyph-name="afii10043" unicode="&#x429;" horiz-adv-x="1022" 
d="M84 671h274v-48l-63 -6l-13 -14l-103 -545h218l103 545l-13 14l-59 6v48h274v-48l-63 -6l-13 -14l-103 -545h218l103 545l-13 14l-59 6v48h276v-48l-65 -6l-13 -14l-100 -533l10 -12h82l-46 -228h-72v158l-12 12h-856v48l64 7l16 14l100 534l-10 14l-62 6v48z" />
    <glyph glyph-name="afii10044" unicode="&#x42a;" horiz-adv-x="724" 
d="M71 671h405v-48l-65 -6l-16 -14l-39 -210q56 7 88 7q103 0 159 -38q71 -48 71 -146q0 -67 -30 -113t-79.5 -67t-93.5 -28.5t-93 -7.5h-292v48l69 7l14 14l102 546h-110l-18 -13l-36 -107h-70zM345 335l-52 -278q24 -3 54 -3q100 0 146 44q43 41 43 115q0 66 -37 100
q-31 29 -94 29q-27 0 -60 -7z" />
    <glyph glyph-name="afii10045" unicode="&#x42b;" horiz-adv-x="920" 
d="M80 671h282v-48l-65 -6l-16 -14l-39 -210q49 7 84 7q103 0 159 -38q71 -48 71 -146q0 -67 -30 -113t-79.5 -67t-93.5 -28.5t-93 -7.5h-284v48l64 7l15 14l100 534l-11 14l-64 6v48zM231 335l-52 -278q24 -3 54 -3q100 0 146 44q43 41 43 115q0 66 -37 100q-31 29 -94 29
q-27 0 -60 -7zM672 671h278v-48l-66 -6l-13 -14l-100 -534l9 -14l64 -7v-48h-278v48l63 7l16 14l100 534l-13 14l-60 6v48z" />
    <glyph glyph-name="afii10046" unicode="&#x42c;" horiz-adv-x="610" 
d="M80 671h282v-48l-65 -6l-16 -14l-39 -210q56 7 88 7q103 0 159 -38q71 -48 71 -146q0 -67 -30 -113t-79.5 -67t-93.5 -28.5t-93 -7.5h-288v48l64 7l15 14l100 534l-11 14l-64 6v48zM231 335l-52 -278q24 -3 54 -3q100 0 146 44q43 41 43 115q0 66 -37 100q-31 29 -94 29
q-27 0 -60 -7z" />
    <glyph glyph-name="afii10047" unicode="&#x42d;" horiz-adv-x="650" 
d="M88 481l33 173q104 30 194 30q129 0 203 -58q96 -75 96 -220q0 -113 -50.5 -207t-124.5 -147q-93 -65 -221 -65q-113 0 -218 36l33 178h66v-119l6 -10q45 -20 102 -20q71 0 118 26.5t84 82.5q45 68 59 155h-250v64h257q0 4 0.5 13t0.5 14q0 106 -40 160q-42 56 -133 56
q-48 0 -98 -15l-16 -18l-35 -109h-66z" />
    <glyph glyph-name="afii10048" unicode="&#x42e;" horiz-adv-x="1040" 
d="M84 671h276v-48l-65 -6l-13 -14l-42 -222h136q32 133 128.5 218t225.5 85q117 0 193 -71q81 -74 81 -208q0 -99 -41 -190.5t-116 -151.5q-95 -76 -219 -76q-126 0 -199 84q-67 77 -67 203q0 24 3 47h-136l-47 -252l11 -14l64 -7v-48h-281v48l64 7l16 14l100 534l-10 14
l-62 6v48zM716 623q-35 0 -67 -18t-54 -45.5t-35.5 -50t-21.5 -43.5q-42 -100 -42 -208q0 -91 34 -146q39 -64 109 -64q89 0 154 100q73 111 73 263q0 33 -6.5 66.5t-22 68t-47 56t-74.5 21.5z" />
    <glyph glyph-name="afii10049" unicode="&#x42f;" horiz-adv-x="664" 
d="M694 671v-48l-66 -6l-13 -14l-100 -534l9 -14l64 -7v-48h-278v48l63 7l16 14l42 225h-41q-48 0 -76.5 -25t-62.5 -84l-62 -107q-29 -48 -67.5 -66t-98.5 -18q-38 0 -73 6v46h5q76 0 123 74l60 94q17 26 31 43t47.5 38t74.5 27v2q-66 4 -115.5 40.5t-49.5 110.5
q0 95 84 152q66 44 185 44h299zM442 350l49 265h-50q-28 0 -53.5 -5t-56 -19t-49 -46.5t-18.5 -79.5q0 -61 31 -89t101 -28q15 0 46 2z" />
    <glyph glyph-name="afii10065" unicode="&#x430;" horiz-adv-x="573" 
d="M453 493h59q-18 -65 -34 -152l-29 -162q-9 -51 -9 -70q0 -54 47 -54q25 0 61 12v-38q-93 -35 -150 -35q-31 0 -53.5 17.5t-22.5 56.5v4q-86 -82 -162 -82q-67 0 -104 53.5t-37 129.5q0 130 81 224.5t204 94.5q51 0 112 -23zM370 385l-40 60h-9q-78 0 -126 -71t-48 -183
q0 -117 75 -117q43 0 102 46z" />
    <glyph glyph-name="afii10066" unicode="&#x431;" horiz-adv-x="550" 
d="M514 746h42q-33 -135 -153 -149l-86 -10q-89 -10 -134 -54.5t-57 -143.5h2q62 103 174 103q90 0 144 -56t54 -150q0 -125 -82 -210.5t-200 -85.5q-47 0 -84 16.5t-58 41t-35 57t-18.5 60.5t-4.5 55q0 68 18.5 153t60.5 160q34 62 87.5 105.5t148.5 56.5l98 13
q33 5 53 12.5t30 25.5zM286 440q-49 0 -82.5 -44t-45.5 -99t-12 -114q0 -65 20 -102q22 -39 65 -39q52 0 91 57q50 74 50 197q0 144 -86 144z" />
    <glyph glyph-name="afii10067" unicode="&#x432;" horiz-adv-x="516" 
d="M329 255v-2q57 -2 90 -31t33 -72q0 -62 -59.5 -111t-183.5 -49q-87 0 -137 41t-50 120q0 52 18 124q58 220 274 217h6q152 0 152 -99q0 -55 -52 -95q-37 -29 -91 -43zM160 258l83 13q52 9 80.5 41t28.5 72q0 56 -53 56q-40 0 -72 -27q-48 -42 -67 -155zM153 208
q-7 -47 -7 -77q0 -89 78 -89q55 0 81.5 33t26.5 76q0 34 -23.5 53t-57.5 19q-37 0 -98 -15z" />
    <glyph glyph-name="afii10068" unicode="&#x433;" horiz-adv-x="430" 
d="M59 356v59l65 39q62 38 125 38q53 0 92 -25t39 -80q0 -42 -23.5 -70t-74.5 -59l-48 -28q-37 -23 -55.5 -44.5t-18.5 -58.5q0 -61 58 -61q38 0 97 27q31 14 75 43v-59q-123 -87 -232 -87q-76 0 -108 34t-32 80q0 87 117 152l51 29q18 11 29 19.5t21 25t10 37.5
q0 23 -12 38t-35 15q-25 0 -69 -24z" />
    <glyph glyph-name="afii10069" unicode="&#x434;" horiz-adv-x="544" 
d="M165 709l148 31q34 -16 64.5 -42.5t59.5 -69t46 -107.5t17 -144q0 -69 -16.5 -135t-49.5 -123.5t-91 -93t-133 -35.5q-58 0 -98.5 21t-59 54.5t-25.5 63t-7 60.5q0 133 89 224q79 79 187 79q36 0 71 -11q-9 49 -41.5 101.5t-82.5 80.5l-81 12zM373 427q-30 18 -69 18
q-78 0 -121 -91q-35 -73 -35 -171q0 -141 79 -141q68 0 108 95q41 98 41 232q0 29 -3 58z" />
    <glyph glyph-name="afii10070" unicode="&#x435;" horiz-adv-x="461" 
d="M400 136l-2 -61q-113 -85 -206 -85q-50 0 -86.5 17.5t-55 47t-26.5 60.5t-8 66q0 52 20 106t56 100t91.5 75.5t120.5 29.5q60 0 92 -28t32 -82q0 -45 -26.5 -78t-68.5 -49t-81 -22.5t-77 -6.5q-28 0 -37 1q-2 -16 -2 -38q0 -58 29 -89.5t75 -31.5q70 0 160 68zM146 269
q88 5 140 46q41 33 41 76q0 23 -13.5 37.5t-35.5 14.5q-50 0 -89 -64q-31 -50 -43 -110z" />
    <glyph glyph-name="afii10072" unicode="&#x436;" horiz-adv-x="864" 
d="M412 475l108 14l-71 -333h2l139 215q28 53 73 87t100 34q38 0 62.5 -17t24.5 -49q0 -58 -72 -62l-53 77q-36 -27 -56 -82q-25 -69 -25 -175q0 -116 60 -116q52 0 112 56v-56q-34 -34 -79 -56t-87 -22q-35 0 -58.5 18.5t-33 48t-13 52.5t-3.5 46q0 44 8 83h-2l-99 -154
l-13 -84h-108l64 324h-2l-140 -213q-69 -121 -180 -121q-32 0 -56 18t-24 49q0 24 14.5 41.5t38.5 23.5l72 -76q42 31 61.5 101.5t19.5 151.5q0 115 -60 115q-44 0 -104 -56v56q84 78 159 78q107 0 107 -172q0 -33 -8 -78h2l104 158z" />
    <glyph glyph-name="afii10073" unicode="&#x437;" horiz-adv-x="446" 
d="M104 220v58h41q62 0 98 26q35 24 35 64q0 61 -81 61q-73 0 -143 -66v58q55 46 96.5 58.5t100.5 12.5q62 0 106.5 -27t44.5 -81q0 -39 -35.5 -72.5t-101.5 -50.5v-2q50 -5 85.5 -32t35.5 -72q0 -41 -23 -77.5t-71 -59.5q-60 -28 -147 -28q-70 0 -109 22q-48 27 -48 77
q0 29 18 44.5t44 15.5q34 0 54 -23l-18 -69q23 -19 61 -19q59 0 85 35.5t26 75.5q0 34 -21.5 57.5t-66.5 23.5z" />
    <glyph glyph-name="afii10074" unicode="&#x438;" horiz-adv-x="599" 
d="M201 487h38l-57 -299q-8 -48 -8 -60q0 -25 14 -39.5t37 -14.5q45 0 122 49l67 352l119 14l-58 -310q-11 -55 -11 -72q0 -23 12.5 -37.5t35.5 -14.5q28 0 61 12v-38q-60 -19 -81 -24q-48 -11 -78 -11q-36 0 -54.5 21t-18.5 57v5q-1 -1 -15 -11.5t-24.5 -18t-30 -19
t-37 -19.5t-40 -13.5t-42.5 -5.5q-98 0 -98 100q0 18 6 57l48 260l-80 12v35z" />
    <glyph glyph-name="afii10075" unicode="&#x439;" horiz-adv-x="599" 
d="M201 487h38l-57 -299q-8 -48 -8 -60q0 -25 14 -39.5t37 -14.5q45 0 122 49l67 352l119 14l-58 -310q-11 -55 -11 -72q0 -23 12.5 -37.5t35.5 -14.5q28 0 61 12v-38q-60 -19 -81 -24q-48 -11 -78 -11q-36 0 -54.5 21t-18.5 57v5q-1 -1 -15 -11.5t-24.5 -18t-30 -19
t-37 -19.5t-40 -13.5t-42.5 -5.5q-98 0 -98 100q0 18 6 57l48 260l-80 12v35zM304 699v-73q18 -6 38 -6q48 0 86.5 33.5t47.5 90.5h44q-4 -62 -38 -105t-79 -61t-96 -18q-57 0 -91 21t-34 61q0 29 20.5 48.5t55.5 19.5q26 0 46 -11z" />
    <glyph glyph-name="afii10076" unicode="&#x43a;" horiz-adv-x="570" 
d="M199 487h38l-59 -277h2q131 166 200 225t109 59q27 0 44.5 -19.5t17.5 -48.5q0 -61 -81 -86l-36 58q-2 -1 -15.5 -9t-17 -10t-15.5 -11t-19.5 -17t-20 -22t-25.5 -31q45 -95 99 -190q38 -55 82 -55q25 0 52 8v-38q-87 -29 -145 -29q-39 0 -65.5 28t-52.5 79l-58 116
l-66 -81l-23 -136h-118l80 407l-80 12v35z" />
    <glyph glyph-name="afii10077" unicode="&#x43b;" horiz-adv-x="550" 
d="M121 480h373l-67 -301q-11 -52 -11 -73q0 -51 50 -51q27 0 58 11v-38q-93 -34 -149 -34q-35 0 -59 17t-24 51q0 16 8 56l68 304h-94q-36 -152 -77 -252q-72 -176 -178 -176q-29 0 -50 19t-21 47q0 18 18.5 43t44.5 32l44 -58q51 41 91 140q37 91 56 195l-81 33v35z" />
    <glyph glyph-name="afii10078" unicode="&#x43c;" horiz-adv-x="732" 
d="M271 493h46q32 -190 35 -359h2l191 341l129 14l-65 -310q-11 -50 -11 -73q0 -51 51 -51q26 0 57 11v-38q-87 -34 -141 -34q-38 0 -60.5 17.5t-22.5 50.5q0 16 8 56l56 255h-2l-207 -373h-76q0 212 -24 373h-2q-26 -120 -55 -204q-57 -175 -157 -175q-26 0 -48.5 18.5
t-22.5 47.5q0 18 18.5 43t44.5 32l44 -58q76 67 125 330l-83 15v35z" />
    <glyph glyph-name="afii10079" unicode="&#x43d;" horiz-adv-x="584" 
d="M199 487h38l-44 -205h174l40 193l119 14l-65 -310q-11 -52 -11 -73q0 -51 50 -51q27 0 58 11v-38q-93 -34 -149 -34q-35 0 -59 17t-24 51q0 16 8 56l21 106h-172l-37 -224h-120l80 407l-80 12v35z" />
    <glyph glyph-name="afii10080" unicode="&#x43e;" horiz-adv-x="551" 
d="M301 492q91 0 145 -56t54 -150q0 -70 -27 -128.5t-69.5 -94t-90.5 -54.5t-95 -19q-94 0 -148 59q-52 56 -52 147q0 51 18 101.5t51 95t89 72t125 27.5zM286 440q-44 0 -75 -33t-43.5 -82t-17 -83t-4.5 -59q0 -74 20.5 -107.5t64.5 -33.5q52 0 91 57q50 74 50 197
q0 144 -86 144z" />
    <glyph glyph-name="afii10081" unicode="&#x43f;" horiz-adv-x="598" 
d="M203 493h38l-20 -99q41 32 64 48t61.5 33t71.5 17q45 0 69.5 -29t24.5 -70q0 -27 -10 -77l-30 -137q-11 -51 -11 -73q0 -51 50 -51q27 0 58 11v-38q-93 -34 -149 -34q-35 0 -59 17t-24 51q0 13 8 56l35 166q9 40 9 64q0 60 -48 60q-41 0 -126 -66l-63 -342h-122l79 407
l-83 12v35z" />
    <glyph glyph-name="afii10082" unicode="&#x440;" horiz-adv-x="571" 
d="M195 493h44l-14 -68q80 67 157 67q58 0 99 -43t41 -134q0 -127 -82 -222q-83 -96 -203 -96q-42 0 -82 16l-30 -175l93 -16v-40h-279v40l61 16l9 13l96 556l-77 12v35zM218 376l-54 -306q34 -17 68 -17q70 0 116 73q46 72 46 169q0 29 -5.5 54.5t-23.5 47.5t-48 22
q-10 0 -22 -3t-21 -7t-19.5 -9.5t-16.5 -9.5t-13 -9z" />
    <glyph glyph-name="afii10083" unicode="&#x441;" horiz-adv-x="442" 
d="M331 339l-65 102q-58 -22 -88.5 -89.5t-30.5 -143.5q0 -18 3 -37t11.5 -45t30 -42t52.5 -16q67 0 155 76v-59q-110 -95 -209 -95q-74 0 -120 48q-51 55 -51 146q0 118 83.5 213t202.5 95q38 0 73 -19t35 -60q0 -37 -23.5 -54.5t-58.5 -19.5z" />
    <glyph glyph-name="afii10084" unicode="&#x442;" horiz-adv-x="877" 
d="M199 493h38l-19 -98q60 49 87 64q58 33 110 33q85 0 90 -94q110 94 190 94q44 0 69.5 -28.5t25.5 -72.5q0 -29 -7 -62l-32 -150q-11 -52 -11 -73q0 -23 12.5 -37t35.5 -14t60 12v-38q-89 -35 -153 -35q-32 0 -55.5 16.5t-23.5 52.5q0 13 8 55l37 177q8 36 8 59
q0 22 -12 38t-36 16q-33 0 -67.5 -22t-52.5 -40l-60 -346h-120l56 301q7 35 7 51q0 26 -13.5 41t-34.5 15q-23 0 -49.5 -12t-37.5 -20.5t-36 -28.5l-62 -347h-120l78 407l-81 12v35z" />
    <glyph glyph-name="afii10085" unicode="&#x443;" horiz-adv-x="495" 
d="M-14 459l154 35q24 -7 39 -28q22 -30 37 -126l35 -218q64 168 152 371h31l79 -26v-27l-59 -33q-14 -18 -27 -38t-25.5 -45.5t-19.5 -40.5t-21.5 -48t-18.5 -42q-52 -117 -75.5 -162t-73.5 -116q-45 -63 -90 -95q-50 -36 -96 -36q-29 0 -57 21t-28 56q0 52 59 67l67 -63
q36 6 76 50t73 111h-38l-61 317q-9 44 -25 75l-87 8v33z" />
    <glyph glyph-name="afii10086" unicode="&#x444;" horiz-adv-x="772" 
d="M617 598l-85 88q-47 -68 -66 -206l-5 -39q58 51 124 51q39 0 67 -17.5t42 -46t20.5 -55.5t6.5 -54q0 -69 -25.5 -140t-74.5 -119q-66 -66 -154 -66q-42 0 -78 19q-27 -106 -99 -179q-61 -61 -125 -61q-28 0 -51.5 13t-23.5 44q0 42 40 60l107 -49q21 39 32 113l10 71
q-50 -31 -115 -31q-66 0 -105 42q-41 43 -41 126q0 77 32.5 152t95.5 126.5t139 51.5q37 0 65 -15q21 115 87 185q69 71 147 71q36 0 66 -17.5t30 -51.5q0 -22 -16.5 -41.5t-46.5 -24.5zM287 85l55 334q-19 19 -47 19q-60 0 -104 -75q-47 -80 -47 -191q0 -44 16.5 -76
t54.5 -32q36 0 72 21zM454 391l-52 -321q22 -20 50 -20q54 0 92 61q23 37 36 93t13 101q0 114 -68 114q-30 0 -71 -28z" />
    <glyph glyph-name="afii10087" unicode="&#x445;" horiz-adv-x="510" 
d="M24 450l137 44h7q17 0 26.5 -3.5t23.5 -19t27.5 -54t27.5 -102.5q0 1 8 15.5t13.5 24t16.5 27.5t21 30.5t24 27.5t27.5 24.5t30.5 16t33 6.5q24 0 43.5 -15.5t19.5 -48.5q0 -56 -64 -76l-39 53q-61 -32 -111 -135q3 -11 27 -92q18 -69 42 -95q24 -24 56 -24q24 0 54 7
v-39q-86 -28 -134 -28q-25 0 -41.5 5.5t-34 24t-31 56t-26.5 98.5q-96 -179 -175 -179q-31 0 -51 19t-20 47q0 54 63 70l44 -53q63 46 116 148q-32 101 -51 144q-10 23 -19 35l-91 7v34z" />
    <glyph glyph-name="afii10088" unicode="&#x446;" horiz-adv-x="599" 
d="M201 487h38l-57 -299q-8 -48 -8 -60q0 -25 14 -39.5t37 -14.5q45 0 122 49l67 352l119 14l-58 -310q-11 -55 -11 -72q0 -23 12.5 -37.5t35.5 -14.5q28 0 61 12v-38q-16 -12 -24.5 -33t-10.5 -37t-2.5 -37.5t-0.5 -25.5q-15 -82 -153 -106v44q52 0 63 55q13 56 30 82.5
t42 39.5v2q-57 -19 -102 -19q-34 0 -54 19.5t-20 58.5v5q-1 -1 -15 -11.5t-24.5 -18t-30 -19t-37 -19.5t-40 -13.5t-42.5 -5.5q-98 0 -98 100q0 18 6 57l48 260l-80 12v35z" />
    <glyph glyph-name="afii10089" unicode="&#x447;" horiz-adv-x="552" 
d="M183 487h30l-25 -134q-8 -48 -8 -59q0 -54 52 -54q42 0 104 45l39 190l119 14l-65 -310q-11 -52 -11 -73q0 -51 50 -51q27 0 58 11v-38q-93 -34 -149 -34q-35 0 -59 17t-24 51q0 16 8 56l26 115q-103 -77 -170 -77q-41 0 -67.5 27t-26.5 74q0 31 7 62l19 88l-80 12v35z
" />
    <glyph glyph-name="afii10090" unicode="&#x448;" horiz-adv-x="878" 
d="M201 487h38l-57 -300q-8 -43 -8 -59q0 -25 14 -39.5t37 -14.5q20 0 42.5 9t33.5 16t37 24l67 352l119 14l-58 -308q-7 -35 -7 -51q0 -27 14.5 -41.5t36.5 -14.5q12 0 46.5 12.5t69.5 36.5l67 352l119 14l-58 -310q-11 -55 -11 -72q0 -23 12.5 -37.5t35.5 -14.5
q28 0 61 12v-38q-64 -20 -81 -24q-48 -11 -78 -11q-35 0 -54 21t-19 57v5q-109 -87 -190 -87q-35 0 -62.5 20t-29.5 67q-115 -87 -188 -87q-51 0 -74 30.5t-23 70.5q0 23 7 62l48 254l-80 12v35z" />
    <glyph glyph-name="afii10091" unicode="&#x449;" horiz-adv-x="878" 
d="M201 487h38l-57 -300q-8 -43 -8 -59q0 -25 14 -39.5t37 -14.5q20 0 42.5 9t33.5 16t37 24l67 352l119 14l-58 -308q-7 -35 -7 -51q0 -27 14.5 -41.5t36.5 -14.5q12 0 46.5 12.5t69.5 36.5l67 352l119 14l-58 -310q-11 -55 -11 -72q0 -23 12.5 -37.5t35.5 -14.5
q28 0 61 12v-38q-16 -12 -24.5 -33t-10.5 -37t-2.5 -37.5t-0.5 -25.5q-15 -82 -153 -106v44q52 0 63 55q13 56 30 82.5t42 39.5v2q-57 -19 -102 -19q-36 0 -55 21t-19 57v5q-109 -87 -190 -87q-36 0 -64 22t-28 65q-115 -87 -188 -87q-51 0 -74 31t-23 70q0 23 7 62l48 254
l-80 12v35z" />
    <glyph glyph-name="afii10092" unicode="&#x44a;" horiz-adv-x="560" 
d="M351 502l74 -46q-99 -72 -156 -173q45 12 90 12q18 0 35 -2t39.5 -10t38 -21t27 -38t11.5 -59q0 -69 -61.5 -122t-178.5 -53q-72 0 -116 25q-57 34 -57 101q0 79 61.5 155t143.5 130v2q-46 -16 -74 -16q-18 0 -53 10.5t-51 10.5q-40 0 -69 -32l58 -67q-9 -18 -26.5 -30
t-33.5 -12q-49 0 -49 63q0 66 51 115.5t104 49.5q28 0 60 -10l26 -8q33 -11 50 -11q42 0 56 36zM248 231q-31 -60 -31 -117q0 -15 4 -29.5t21 -28.5t45 -14q47 0 75 35t28 83q0 19 -4 36t-21.5 33.5t-46.5 16.5q-32 0 -70 -15z" />
    <glyph glyph-name="afii10093" unicode="&#x44b;" horiz-adv-x="736" 
d="M201 487h38l-47 -204q46 12 98 12q63 0 108.5 -32t45.5 -105q0 -76 -63.5 -122t-166.5 -46q-64 0 -106 19q-64 30 -64 103q0 19 7 52l57 243l-80 12v35zM181 231l-21 -89q-4 -14 -4 -33q0 -27 14.5 -43t28.5 -20t28 -4q41 0 71 29t30 86q0 38 -22 63.5t-58 25.5
q-33 0 -67 -15zM559 475l119 14l-65 -310q-11 -52 -11 -73q0 -51 50 -51q27 0 58 11v-38q-93 -34 -149 -34q-35 0 -59 17t-24 51q0 11 8 56z" />
    <glyph glyph-name="afii10094" unicode="&#x44c;" horiz-adv-x="504" 
d="M201 487h38l-47 -204q48 12 104 12q29 0 53.5 -5.5t50 -19.5t40 -42.5t14.5 -69.5q0 -78 -63.5 -123t-166.5 -45q-180 0 -180 122q0 19 7 52l57 243l-80 12v35zM181 231l-21 -89q-4 -14 -4 -33q0 -34 20.5 -50.5t50.5 -16.5q46 0 76.5 26.5t30.5 86.5q0 52 -26 71.5
t-60 19.5q-31 0 -67 -15z" />
    <glyph glyph-name="afii10095" unicode="&#x44d;" horiz-adv-x="470" 
d="M53 213v45l26 21q32 26 59 26q20 0 58 -21q23 -14 42 -14q18 0 57 18v5q0 64 -28.5 100t-80.5 36q-73 0 -143 -66v58q87 71 189 71q23 0 45 -4t48.5 -16.5t46.5 -33t33.5 -57t13.5 -85.5q0 -55 -17.5 -108t-51.5 -98t-91.5 -72.5t-130.5 -27.5q-72 0 -106 31.5t-34 67.5
q0 29 18 44.5t44 15.5q34 0 54 -23l-18 -69q19 -19 51 -19q68 0 110 59q39 55 45 143l-86 -42q-19 15 -48 29t-48 14q-27 0 -57 -28z" />
    <glyph glyph-name="afii10096" unicode="&#x44e;" horiz-adv-x="808" 
d="M199 487h38l-43 -211h99q23 88 90 152t175 64q91 0 145 -56t54 -150q0 -70 -27 -128.5t-69.5 -94t-90.5 -54.5t-95 -19q-67 0 -113 31t-63.5 73.5t-17.5 92.5q0 11 2 33h-99l-38 -220h-120l80 407l-80 12v35zM543 440q-44 0 -75 -33t-43.5 -82t-17 -83t-4.5 -59
q0 -74 20.5 -107.5t64.5 -33.5q52 0 91 57q50 74 50 197q0 144 -86 144z" />
    <glyph glyph-name="afii10097" unicode="&#x44f;" horiz-adv-x="560" 
d="M500 480l-63 -301q-11 -52 -11 -73q0 -51 50 -51q27 0 58 11v-38q-93 -34 -149 -34q-35 0 -59 17t-24 51q0 16 8 56l20 90h-45q-50 0 -79 -54l-28 -51q-60 -109 -145 -109q-29 0 -50 19t-21 47q0 18 18.5 43t44.5 32l44 -58q33 22 56 58l20 32q2 3 7.5 12.5t8.5 13
t9.5 10.5t15.5 13q-107 18 -107 111q0 79 67 127q53 38 151 38q54 0 203 -12zM340 260l35 171q-38 9 -66 9q-42 0 -76 -27t-34 -84q0 -34 25 -53.5t65 -19.5q27 0 51 4z" />
    <glyph glyph-name="afii10071" unicode="&#x451;" horiz-adv-x="461" 
d="M400 136l-2 -61q-113 -85 -206 -85q-50 0 -86.5 17.5t-55 47t-26.5 60.5t-8 66q0 52 20 106t56 100t91.5 75.5t120.5 29.5q60 0 92 -28t32 -82q0 -45 -26.5 -78t-68.5 -49t-81 -22.5t-77 -6.5q-28 0 -37 1q-2 -16 -2 -38q0 -58 29 -89.5t75 -31.5q70 0 160 68zM146 269
q88 5 140 46q41 33 41 76q0 23 -13.5 37.5t-35.5 14.5q-50 0 -89 -64q-31 -50 -43 -110zM120 644q0 26 19 45t45 19t45 -19t19 -45t-19 -45t-45 -19t-45 19t-19 45zM326 644q0 26 19 45t45 19t45 -19t19 -45t-19 -45t-45 -19t-45 19t-19 45z" />
    <glyph glyph-name="afii10099" unicode="&#x452;" horiz-adv-x="544" 
d="M11 0l106 528h-106l12 54h104l13 71l-87 10v35l177 38h46q-31 -143 -33 -154h201l-12 -54h-200l-34 -173q61 50 109 74q44 23 87 23q39 0 63 -25q33 -34 33 -115q0 -106 -43 -244q-29 -90 -73 -156q-36 -54 -85 -88q-56 -38 -101 -38q-29 0 -48 18q-18 18 -18 44
q0 39 34 59l117 -47q15 23 29 62q24 68 40 160q19 114 19 188q0 54 -12 78q-11 20 -33 20q-27 0 -65 -22q-30 -17 -62 -44l-54 -302h-124z" />
    <glyph glyph-name="afii10100" unicode="&#x453;" horiz-adv-x="430" 
d="M59 356v59l65 39q62 38 125 38q53 0 92 -25t39 -80q0 -42 -23.5 -70t-74.5 -59l-48 -28q-37 -23 -55.5 -44.5t-18.5 -58.5q0 -61 58 -61q38 0 97 27q31 14 75 43v-59q-123 -87 -232 -87q-76 0 -108 34t-32 80q0 87 117 152l51 29q18 11 29 19.5t21 25t10 37.5
q0 23 -12 38t-35 15q-25 0 -69 -24zM347 742h123l-190 -190h-67z" />
    <glyph glyph-name="afii10101" unicode="&#x454;" horiz-adv-x="442" 
d="M331 359l-65 82q-43 -17 -75 -64.5t-41 -115.5l89 45q45 -45 87 -45q30 0 58 26v-45l-26 -21q-30 -24 -62 -24q-21 0 -50 17.5t-48 17.5q-25 0 -51 -19v-12q0 -54 23.5 -93.5t73.5 -39.5q67 0 155 76v-59q-110 -95 -209 -95q-74 0 -120 48q-51 55 -51 146q0 67 28 131.5
t82 110.5q77 66 176 66q47 0 77.5 -18.5t30.5 -49.5q0 -61 -82 -65z" />
    <glyph glyph-name="afii10102" unicode="&#x455;" horiz-adv-x="403" 
d="M104 134l-18 -73q36 -23 66 -23q32 0 54 19t22 54q0 26 -15 45.5t-54 45.5l-25 17q-26 18 -41.5 31.5t-29.5 36.5t-14 47q0 63 55 110.5t144 47.5q43 0 78 -16.5t35 -57.5q0 -56 -71 -61l-47 90q-10 2 -19 2q-29 0 -51 -16t-22 -40q0 -22 16 -39t54 -45q7 -4 10 -7
l32 -24q74 -53 74 -120q0 -79 -57.5 -123.5t-139.5 -44.5q-73 0 -112.5 34.5t-39.5 72.5q0 29 18 44.5t44 15.5q34 0 54 -23z" />
    <glyph glyph-name="afii10103" unicode="&#x456;" horiz-adv-x="315" 
d="M199 493h44l-63 -338q-5 -40 -5 -43q0 -53 48 -53q21 0 70 14v-41q-112 -38 -167 -38q-37 0 -57.5 20t-20.5 56q0 24 9 68l53 269l-82 12v35zM219 727q30 0 47 -17.5t17 -47.5q0 -33 -20 -54.5t-56 -21.5q-31 0 -48 17.5t-17 47.5q0 33 21 54.5t56 21.5z" />
    <glyph glyph-name="afii10104" unicode="&#x457;" horiz-adv-x="315" 
d="M199 493h44l-63 -338q-5 -40 -5 -43q0 -53 48 -53q21 0 70 14v-41q-112 -38 -167 -38q-37 0 -57.5 20t-20.5 56q0 24 9 68l53 269l-82 12v35zM66 644q0 26 19 45t45 19t45 -19t19 -45t-19 -45t-45 -19t-45 19t-19 45zM234 644q0 26 19 45t45 19t45 -19t19 -45t-19 -45
t-45 -19t-45 19t-19 45z" />
    <glyph glyph-name="afii10105" unicode="&#x458;" horiz-adv-x="296" 
d="M114 407l-90 12v35l179 39h44l-54 -338q-23 -145 -60.5 -213t-112.5 -118q-57 -38 -101 -38q-28 0 -47 17.5t-19 44.5q0 39 34 59l117 -47q40 51 64 230zM215 727q30 0 47 -17.5t17 -47.5q0 -33 -20 -54.5t-56 -21.5q-31 0 -48 17.5t-17 47.5q0 33 21 54.5t56 21.5z" />
    <glyph glyph-name="afii10106" unicode="&#x459;" horiz-adv-x="760" 
d="M121 480h373l-46 -197q48 12 104 12q85 0 125 -44q33 -37 33 -93q0 -87 -75 -132q-63 -36 -155 -36q-69 0 -113 19q-67 31 -67 103q0 19 7 52l61 258h-94q-36 -152 -77 -252q-49 -118 -110 -157q-31 -19 -68 -19q-33 0 -52 21q-19 19 -19 45t21 49q18 20 42 26l44 -58
q51 41 91 140q37 91 56 195l-81 33v35zM437 231l-21 -89q-4 -14 -4 -33q0 -36 23 -54q17 -13 48 -13q52 0 78 27q29 31 29 86q0 40 -18 63q-22 28 -68 28q-31 0 -67 -15z" />
    <glyph glyph-name="afii10107" unicode="&#x45a;" horiz-adv-x="796" 
d="M199 487h38l-44 -205h174l40 193l119 14l-43 -206q50 12 105 12q29 0 53.5 -5.5t50 -19.5t40 -42.5t14.5 -69.5q0 -78 -63.5 -123t-166.5 -45q-29 0 -56.5 4.5t-57 16.5t-47.5 38t-18 63q0 21 7 55l11 57h-172l-37 -224h-120l80 407l-80 12v35zM472 231l-19 -87
q-4 -28 -4 -35q0 -35 20.5 -51t49.5 -16q46 0 76.5 26.5t30.5 86.5q0 52 -26 71.5t-60 19.5q-27 0 -68 -15z" />
    <glyph glyph-name="afii10108" unicode="&#x45b;" horiz-adv-x="580" 
d="M230 736h46q-31 -143 -33 -154h201l-12 -54h-200l-34 -173q61 50 109 74q45 23 88 23q39 0 65 -25q27 -26 27 -69q0 -24 -12 -81l-21 -98q-11 -55 -11 -73q0 -25 13 -38t33 -13q26 0 62 12v-38q-41 -16 -75 -24q-44 -11 -79 -11q-40 0 -61 22q-17 18 -17 48q0 22 8 54
l28 126q9 43 9 67q0 21 -9 37q-13 20 -37 20q-29 0 -67 -22q-30 -17 -62 -44l-54 -302h-124l106 528h-106l12 54h104l13 71l-87 10v35z" />
    <glyph glyph-name="afii10109" unicode="&#x45c;" horiz-adv-x="570" 
d="M199 487h38l-59 -277h2q131 166 200 225t109 59q27 0 44.5 -19.5t17.5 -48.5q0 -61 -81 -86l-36 58q-2 -1 -15.5 -9t-17 -10t-15.5 -11t-19.5 -17t-20 -22t-25.5 -31q45 -95 99 -190q38 -55 82 -55q25 0 52 8v-38q-87 -29 -145 -29q-39 0 -65.5 28t-52.5 79l-58 116
l-66 -81l-23 -136h-118l80 407l-80 12v35zM417 742h123l-190 -190h-67z" />
    <glyph glyph-name="afii10110" unicode="&#x45e;" horiz-adv-x="495" 
d="M-14 459l154 35q24 -7 39 -28q22 -30 37 -126l35 -218q64 168 152 371h31l79 -26v-27l-59 -33q-14 -18 -27 -38t-25.5 -45.5t-19.5 -40.5t-21.5 -48t-18.5 -42q-52 -117 -75.5 -162t-73.5 -116q-45 -63 -90 -95q-50 -36 -96 -36q-29 0 -57 21t-28 56q0 52 59 67l67 -63
q36 6 76 50t73 111h-38l-61 317q-9 44 -25 75l-87 8v33zM252 699v-73q18 -6 38 -6q48 0 86.5 33.5t47.5 90.5h44q-4 -62 -38 -105t-79 -61t-96 -18q-57 0 -91 21t-34 61q0 29 20.5 48.5t55.5 19.5q26 0 46 -11z" />
    <glyph glyph-name="afii10193" unicode="&#x45f;" horiz-adv-x="599" 
d="M201 487h38l-57 -299q-8 -48 -8 -60q0 -25 14 -39.5t37 -14.5q45 0 122 49l67 352l119 14l-58 -310q-11 -55 -11 -72q0 -23 12.5 -37.5t35.5 -14.5q28 0 61 12v-38q-60 -19 -81 -24q-48 -11 -78 -11q-36 0 -54.5 21t-18.5 57v5q-1 -1 -15 -11.5t-24.5 -18t-30 -19
t-37 -19.5t-40 -13.5t-42.5 -5.5q-98 0 -98 100q0 18 6 57l48 260l-80 12v35zM290 11h34q-21 -23 -21 -56q0 -17 15 -52q14 -31 14 -48q0 -29 -24.5 -59t-83.5 -69l-26 27q19 13 32.5 33.5t13.5 39.5q0 8 -8.5 34.5t-8.5 42.5q0 15 3 28t12.5 26.5t12.5 18t19 19.5z" />
    <glyph glyph-name="afii10146" unicode="&#x462;" horiz-adv-x="723" 
d="M58 583h210l9 48l-10 14l-67 7v48h284v-48l-65 -7l-16 -14l-9 -48h235l-30 -156h-68v87l-15 13h-133l-30 -154q56 7 89 7q101 0 159 -34q74 -44 74 -130q0 -216 -297 -216h-292v48l70 7l13 14l88 458h-110l-17 -13l-37 -107h-70zM342 315l-49 -258q25 -3 54 -3
q100 0 147 44q42 39 42 107q0 117 -133 117q-22 0 -61 -7z" />
    <glyph glyph-name="afii10194" unicode="&#x463;" horiz-adv-x="794" 
d="M205 493h38l-20 -99q107 98 182 98q49 0 71.5 -30t22.5 -69q0 -25 -10 -77l-7 -33q48 12 104 12q29 0 53.5 -5.5t50 -19.5t40 -42.5t14.5 -69.5q0 -78 -63.5 -123t-166.5 -45q-29 0 -56 4.5t-57.5 16.5t-48.5 38t-18 64q0 27 7 51l30 120q9 38 9 64q0 60 -47 60
q-40 0 -116 -66l-58 -342h-127l79 407l-83 12v35zM471 231l-21 -89q-4 -14 -4 -33q0 -34 20.5 -50.5t50.5 -16.5q52 0 78 27q29 29 29 84q0 42 -18 65q-22 28 -68 28q-31 0 -67 -15z" />
    <glyph glyph-name="afii10147" unicode="&#x472;" horiz-adv-x="728" 
d="M417 684q118 0 194 -71q81 -74 81 -208q0 -99 -41 -190.5t-116 -151.5q-95 -76 -218 -76q-132 0 -208 84q-69 76 -69 199q0 98 43 192.5t119 151.5q94 70 215 70zM375 385l42 -20q55 -26 77 -26q36 0 68 30q2 26 2 42q0 212 -160 212q-82 0 -147 -85q-54 -70 -75 -168
q46 41 103 41q36 0 90 -26zM380 285l-42 19q-73 33 -101 33q-37 0 -66 -29q-3 -33 -3 -50q0 -91 38 -146q44 -64 121 -64q92 0 161 100q49 72 66 161q-51 -44 -102 -44q-28 0 -72 20z" />
    <glyph glyph-name="afii10195" unicode="&#x473;" horiz-adv-x="551" 
d="M301 492q91 0 145 -56t54 -150q0 -70 -27 -128.5t-69.5 -94t-90.5 -54.5t-95 -19q-94 0 -148 59q-52 56 -52 147q0 51 18 101.5t51 95t89 72t125 27.5zM258 277l30 -16q27 -16 42 -16q24 0 38 12.5t14 36.5q0 146 -95 146q-55 0 -96 -55q-36 -50 -48 -120q33 29 62 29
q21 0 53 -17zM258 204l-24 13q-39 21 -52 21q-21 0 -33.5 -12.5t-12.5 -35.5q0 -74 22 -109q24 -39 71 -39q14 0 31.5 7t41 23.5t44 55t30.5 91.5q-34 -30 -70 -30q-18 0 -48 15z" />
    <glyph glyph-name="afii10148" unicode="&#x474;" horiz-adv-x="716" 
d="M30 671h258v-48l-61 -6l-9 -14l75 -466l141 272q30 58 56 100.5t59.5 85.5t70.5 66t75 23q36 0 57 -19t21 -55q0 -26 -14.5 -47.5t-42.5 -29.5l-87 55q-59 -63 -127 -192l-210 -396h-97l-100 603l-9 14l-56 6v48z" />
    <glyph glyph-name="afii10196" unicode="&#x475;" horiz-adv-x="580" 
d="M-8 458l158 35q27 -8 37 -27t14 -74l22 -271q36 102 92 193q22 36 39 60t44 54t57.5 46t62.5 16q34 0 53 -20t19 -46q0 -18 -18.5 -43t-44.5 -32l-54 58q-130 -127 -237 -407h-120q3 39 3 40q0 38 -2 54l-20 187q-13 109 -24 131l-81 11v35z" />
    <glyph glyph-name="afii10050" unicode="&#x490;" horiz-adv-x="510" 
d="M81 671h359l17 13l55 120h68l-41 -219h-44l-55 30h-156l-102 -546l12 -14l64 -7v-48h-282v48l66 7l14 14l100 534l-10 14l-65 6v48z" />
    <glyph glyph-name="afii10098" unicode="&#x491;" horiz-adv-x="430" 
d="M59 356v59l50 206h112l-115 -178l3 -3l33 20q53 32 107 32q55 0 90 -25q41 -29 41 -80q0 -39 -21 -69q-17 -24 -77 -60l-48 -28q-39 -24 -55 -45q-19 -25 -19 -58q0 -29 17 -46q15 -15 41 -15q38 0 97 27q31 14 75 43v-59q-45 -32 -92 -54q-72 -33 -140 -33q-56 0 -90 19
q-50 28 -50 95q0 49 29 86q25 31 88 66l51 29q37 21 49 41q11 18 11 41q0 22 -11 37q-12 16 -36 16q-25 0 -69 -24z" />
    <glyph glyph-name="cyrGebar" unicode="&#x492;" horiz-adv-x="530" 
d="M81 671h480l-33 -176h-65v107l-14 13h-165l-43 -231h130l-11 -60h-130l-48 -255l12 -14l64 -7v-48h-282v48l66 7l14 14l48 255h-82l11 60h82l41 219l-10 14l-65 6v48z" />
    <glyph glyph-name="cyrgebar" unicode="&#x493;" horiz-adv-x="440" 
d="M146 0h-120l32 164h-104l10 54h104l39 194l-81 33v35h423l-30 -158h-52l-11 84l-13 16h-118l-38 -204h140l-10 -54h-140z" />
    <glyph glyph-name="cyrGehook" unicode="&#x494;" horiz-adv-x="638" 
d="M81 671h480l-33 -176h-65v107l-14 13h-165l-45 -243q85 20 167 20q101 0 146 -54q36 -44 36 -120q0 -112 -61 -171.5t-166 -59.5q-58 0 -111 27l26 136h60v-99l14 -12q100 0 100 161q0 68 -18 95q-25 39 -89 39q-52 0 -116 -23l-58 -311h-193v48l66 7l14 14l100 534
l-10 14l-65 6v48z" />
    <glyph glyph-name="cyrgehook" unicode="&#x495;" horiz-adv-x="519" 
d="M146 0h-120l81 412l-81 33v35h423l-30 -158h-52l-11 84l-13 16h-118l-38 -208q80 29 130 29h3q23 0 44 -5t46.5 -18.5t41 -45.5t15.5 -79q0 -62 -37.5 -134.5t-100 -123.5t-124.5 -51q-28 0 -47 17.5t-19 44.5q0 39 34 59l117 -47q9 14 19.5 39t23 82t12.5 118
q0 86 -70 86q-47 0 -98 -24z" />
    <glyph glyph-name="cyrZhedesc" unicode="&#x496;" horiz-adv-x="960" 
d="M386 671h279v-48l-67 -6l-13 -14l-44 -235h33q72 0 110 75l66 128q54 108 146 108q33 0 57.5 -18t24.5 -54q0 -28 -18 -48t-48 -23l-64 62q-18 -18 -32 -46l-58 -116q-38 -76 -97 -96v-2q38 -11 63 -33q40 -36 58 -99l38 -136l15 -12h84l-46 -228h-72v158l-12 12h-100v36
l-53 206q-17 72 -80 72h-25l-46 -245l11 -14l63 -7v-48h-279v48l64 7l15 14l46 245h-35q-67 0 -106 -80l-58 -120q-57 -120 -199 -120q-29 0 -57 6v46h6q41 0 64 19t41 52l65 115q59 105 166 112v2q-25 12 -39 34.5t-24 66.5l-19 83q-8 39 -23 60l-70 -54q-44 16 -44 63
q0 40 27 60t61 20q86 0 118 -132l21 -91q14 -58 30.5 -73t44.5 -15h40l44 235l-10 14l-63 6v48z" />
    <glyph glyph-name="cyrzhedesc" unicode="&#x497;" horiz-adv-x="864" 
d="M412 475l108 14l-71 -333h2l139 215q28 53 73 87t100 34q38 0 62.5 -17t24.5 -49q0 -58 -72 -62l-53 77q-36 -27 -56 -82q-25 -69 -25 -175q0 -116 60 -116q52 0 112 56v-55q-28 -29 -33 -89q0 -7 -1.5 -39t-3.5 -45q-15 -82 -153 -106v44q31 0 46 18.5t19.5 44t21 66
t45.5 72.5v2q-57 -47 -113 -47q-33 0 -56 19t-31.5 49.5t-11.5 52.5t-3 44q0 44 8 83h-2l-99 -154l-13 -84h-108l64 324h-2l-140 -213q-69 -121 -180 -121q-32 0 -56 18t-24 49q0 24 14.5 41.5t38.5 23.5l72 -76q42 31 61.5 101.5t19.5 151.5q0 115 -60 115q-44 0 -104 -56
v56q84 78 159 78q107 0 107 -172q0 -33 -8 -78h2l104 158z" />
    <glyph glyph-name="cyrZetail" unicode="&#x498;" horiz-adv-x="580" 
d="M91 481l33 173q88 30 192 30q37 0 69.5 -5.5t67.5 -19.5t55.5 -45t20.5 -76q0 -60 -44.5 -112t-127.5 -68v-2q27 -2 51 -9t49 -22.5t39.5 -45.5t14.5 -72q0 -86 -71.5 -148t-183.5 -70l-7 -169h-120l48 168q-92 5 -177 35l33 178h66v-119l6 -10q43 -20 88 -20
q83 0 131.5 43t48.5 110q0 61 -35 90q-27 23 -84 23q-40 0 -77 -8v64h54q25 0 50 6.5t51 22.5t42.5 48.5t16.5 78.5q0 49 -31.5 71t-69.5 22q-41 0 -81 -15l-16 -18l-36 -109h-66z" />
    <glyph glyph-name="cyrzetail" unicode="&#x499;" horiz-adv-x="446" 
d="M104 220v58h41q62 0 98 26q35 24 35 64q0 61 -81 61q-73 0 -143 -66v58q55 46 96.5 58.5t100.5 12.5q62 0 106.5 -27t44.5 -81q0 -39 -35.5 -72.5t-101.5 -50.5v-2q50 -5 85.5 -32t35.5 -72q0 -41 -23 -77.5t-71 -59.5q-51 -24 -126 -27q-7 -16 -7 -36q0 -18 14.5 -52.5
t14.5 -47.5q0 -29 -24.5 -59t-83.5 -69l-26 27q19 13 32.5 33.5t13.5 39.5q0 8 -8.5 34.5t-8.5 42.5q0 40 29 71l14 15q-69 0 -103.5 33t-34.5 66q0 29 18 44.5t44 15.5q34 0 54 -23l-18 -69q23 -19 61 -19q59 0 85 35.5t26 75.5q0 34 -21.5 57.5t-66.5 23.5z" />
    <glyph glyph-name="cyrKadesc" unicode="&#x49a;" horiz-adv-x="668" 
d="M82 671h279v-48l-67 -6l-13 -14l-42 -225h47q73 0 110 66l70 127q60 108 147 108q29 0 55 -19t26 -54q0 -28 -18 -47.5t-48 -22.5l-64 62q-16 -16 -32 -46l-62 -116q-39 -70 -97 -86v-2q45 -13 76 -52t45 -90l38 -136l15 -12h84l-46 -228h-72v158l-12 12h-100v36l-53 216
q-16 72 -80 72h-39l-48 -255l11 -14l63 -7v-48h-279v48l64 7l15 14l100 534l-10 14l-63 6v48z" />
    <glyph glyph-name="cyrkadesc" unicode="&#x49b;" horiz-adv-x="570" 
d="M199 487h38l-59 -277h2q131 166 200 225t109 59q27 0 44.5 -19.5t17.5 -48.5q0 -61 -81 -86l-36 58q-2 -1 -15.5 -9t-17 -10t-15.5 -11t-19.5 -17t-20 -22t-25.5 -31q45 -95 99 -190q38 -55 82 -55q25 0 52 8v-39q-14 -12 -20.5 -36.5t-8.5 -56t-2 -33.5
q-15 -82 -153 -106v44q52 0 63 55q13 56 30 82.5t42 39.5v2q-53 -19 -94 -19t-68 28t-52 79l-58 116l-66 -81l-23 -136h-118l80 407l-80 12v35z" />
    <glyph glyph-name="cyrKavertbar" unicode="&#x49c;" horiz-adv-x="748" 
d="M82 671h279v-48l-67 -6l-13 -14l-42 -225h80l24 120h58l-24 -120h5q55 0 94 66l70 127q60 108 147 108q29 0 55 -19t26 -54q0 -28 -18 -47.5t-48 -22.5l-64 62q-16 -16 -32 -46l-62 -116q-39 -70 -97 -86v-2q87 -27 121 -142l39 -138l17 -15l69 -5v-48h-218v36l-53 216
q-16 69 -61 72l-29 -156h-58l29 156h-80l-48 -255l11 -14l63 -7v-48h-279v48l64 7l15 14l100 534l-10 14l-63 6v48z" />
    <glyph glyph-name="cyrkavertbar" unicode="&#x49d;" horiz-adv-x="632" 
d="M199 487h38l-59 -277l60 31l25 129h59l-21 -104q42 54 65 82t60.5 68.5t68 59t56.5 18.5t44 -19.5t18 -48.5q0 -61 -81 -86l-36 58q-61 -39 -105 -100q27 -60 50 -111q1 -3 13.5 -30.5t19.5 -38.5t21 -30t31 -27t38 -8q25 0 52 8v-38q-87 -29 -145 -29q-23 0 -42 10
t-33 29.5t-21 32.5t-17 35l-48 115l-16 -10l-22 -130h-60l20 105l-64 -35l-24 -146h-118l80 407l-80 12v35z" />
    <glyph glyph-name="cyrKaback" unicode="&#x4a0;" horiz-adv-x="782" 
d="M71 671h405v-48l-65 -6l-16 -14l-42 -225h47q73 0 110 66l70 127q60 108 147 108q29 0 55 -19t26 -54q0 -28 -18 -47.5t-48 -22.5l-64 62q-16 -16 -32 -46l-62 -116q-39 -70 -97 -86v-2q87 -27 121 -142l39 -138l17 -15l69 -5v-48h-218v36l-53 216q-16 72 -80 72h-39
l-48 -255l11 -14l63 -7v-48h-279v48l64 7l15 14l102 546h-110l-18 -13l-36 -107h-70z" />
    <glyph glyph-name="cyrkaback" unicode="&#x4a1;" horiz-adv-x="679" 
d="M41 480h304l-58 -270h2q131 166 200 225t109 59q27 0 44.5 -19.5t17.5 -48.5q0 -61 -81 -86l-36 58q-2 -1 -15.5 -9t-17 -10t-15.5 -11t-19.5 -17t-20 -22t-25.5 -31q45 -95 99 -190q38 -55 82 -55q25 0 52 8v-38q-87 -29 -145 -29q-39 0 -65.5 28t-52.5 79l-58 116
l-66 -81l-23 -136h-118l83 422h-93l-19 -16l-43 -84h-52z" />
    <glyph glyph-name="cyrEndesc" unicode="&#x4a2;" horiz-adv-x="742" 
d="M84 671h276v-48l-65 -6l-13 -14l-42 -222h281l42 222l-13 14l-60 6v48h278v-48l-66 -6l-13 -14l-100 -533l10 -12h82l-46 -228h-72v158l-12 12h-167v48l63 7l16 14l47 252h-281l-47 -252l11 -14l64 -7v-48h-281v48l64 7l16 14l100 534l-10 14l-62 6v48z" />
    <glyph glyph-name="cyrendesc" unicode="&#x4a3;" horiz-adv-x="584" 
d="M199 487h38l-44 -205h174l40 193l119 14l-65 -310q-11 -50 -11 -73q0 -51 50 -51q28 0 58 12v-38q-16 -12 -24.5 -33t-10.5 -37t-2.5 -37.5t-0.5 -25.5q-15 -82 -153 -106v44q52 0 63 55q13 56 30 82.5t42 39.5v2q-57 -19 -99 -19q-33 0 -55 18t-22 50q0 16 8 56l21 106
h-172l-37 -224h-120l80 407l-80 12v35z" />
    <glyph glyph-name="cyrEnGe" unicode="&#x4a4;" horiz-adv-x="872" 
d="M84 671h276v-48l-65 -6l-13 -14l-42 -222h281l42 222l-13 14l-60 6v48h426l-33 -176h-65v107l-14 13h-113l-102 -546l11 -14l68 -7v-48h-284v48l63 7l16 14l47 252h-281l-47 -252l11 -14l64 -7v-48h-281v48l64 7l16 14l100 534l-10 14l-62 6v48z" />
    <glyph glyph-name="cyrenge" unicode="&#x4a5;" horiz-adv-x="700" 
d="M199 487h38l-44 -205h174l26 130l-53 33v35h369l-30 -158h-52l-11 84l-13 16h-94l-79 -422h-120l45 224h-172l-37 -224h-120l80 407l-80 12v35z" />
    <glyph glyph-name="cyrEstail" unicode="&#x4aa;" horiz-adv-x="624" 
d="M634 650l-30 -169h-68v109l-10 18q-38 15 -74 15q-113 0 -195.5 -103.5t-82.5 -250.5q0 -98 44 -154q52 -67 154 -67q29 0 54 6l19 18l46 124h67l-32 -173q-74 -28 -156 -34l-7 -169h-120l48 169q-107 6 -179 78q-76 76 -76 204q0 94 37 175t100 137q115 101 276 101
q81 0 185 -34z" />
    <glyph glyph-name="cyrestail" unicode="&#x4ab;" horiz-adv-x="442" 
d="M331 339l-65 102q-58 -22 -88.5 -89.5t-30.5 -143.5q0 -18 3 -37t11.5 -45t30 -42t52.5 -16q67 0 155 76v-59q-32 -28 -85 -57.5t-103 -36.5q-8 -14 -8 -36q0 -21 14.5 -56.5t14.5 -43.5q0 -29 -24.5 -59t-83.5 -69l-26 27q19 13 32.5 33.5t13.5 39.5q0 8 -8.5 34.5
t-8.5 42.5q0 38 29 71l14 16q-75 6 -113 59t-38 134q0 118 83.5 213t202.5 95q38 0 73 -19t35 -60q0 -37 -23.5 -54.5t-58.5 -19.5z" />
    <glyph glyph-name="cyrstraightU" unicode="&#x4ae;" horiz-adv-x="589" 
d="M27 671h273v-48l-62 -6l-12 -14l86 -260l185 260l-10 14l-64 6v48h234v-48l-64 -6l-252 -338l-39 -210l11 -14l68 -7v-48h-288v48l67 7l16 14l38 199l-115 341l-9 8l-63 6v48z" />
    <glyph glyph-name="cyrstraightu" unicode="&#x4af;" horiz-adv-x="493" 
d="M-8 458l158 35q20 -5 33 -25t18 -76l26 -284q41 50 67 87t34 50t21 41t17 35l-23 148q31 25 63 25q28 0 47 -17t19 -49q0 -39 -38 -115q-47 -88 -118 -173l-49 -59q-28 -34 -35 -68l-30 -175l93 -16v-40h-299v40l81 16l9 13l30 175q3 11 3 41v6l-22 208q-14 111 -24 131
l-81 11v35z" />
    <glyph glyph-name="cyrstraightUbar" unicode="&#x4b0;" horiz-adv-x="589" 
d="M27 671h273v-48l-62 -6l-12 -14l86 -260l185 260l-10 14l-64 6v48h234v-48l-64 -6l-252 -338l-2 -11h160l-11 -60h-160l-26 -139l11 -14l68 -7v-48h-288v48l67 7l16 14l27 139h-160l11 60h160l-115 341l-9 8l-63 6v48z" />
    <glyph glyph-name="cyrstraightubar" unicode="&#x4b1;" horiz-adv-x="493" 
d="M-8 458l158 35q20 -5 33 -25t18 -76l26 -284q41 50 67 87t34 50t21 41t17 35l-23 148q31 25 63 25q28 0 47 -17t19 -49q0 -39 -38 -115q-47 -88 -118 -173l-49 -59q-19 -23 -23 -31h126l-9 -50h-130l-29 -162l93 -16v-40h-299v40l81 16l9 13l26 149h-130l9 50h128
q1 6 1 18q0 7 -2 29l-21 184q-11 107 -24 131l-81 11v35z" />
    <glyph glyph-name="cyrHadesc" unicode="&#x4b2;" horiz-adv-x="609" 
d="M51 671h274v-48l-61 -6l-11 -14l79 -183l162 183l-6 14l-56 6v48h225v-48l-65 -6l-229 -257l128 -290l15 -12h71l-46 -228h-72v158l-12 12h-159v48l65 7l11 14l-86 198l-177 -198l11 -14l62 -7v-48h-239v48l58 7l13 8l239 269l-123 277l-8 8l-63 6v48z" />
    <glyph glyph-name="cyrhadesc" unicode="&#x4b3;" horiz-adv-x="510" 
d="M24 450l137 44h7q17 0 26.5 -3.5t23.5 -19t27.5 -54t27.5 -102.5q0 1 8 15.5t13.5 24t16.5 27.5t21 30.5t24 27.5t27.5 24.5t30.5 16t33 6.5q24 0 43.5 -15.5t19.5 -48.5q0 -56 -64 -76l-39 53q-61 -32 -111 -135q3 -11 27 -92q18 -69 42 -95q24 -24 56 -24q24 0 54 7
v-39q-14 -12 -20.5 -36.5t-8.5 -56t-2 -33.5q-15 -82 -153 -106v44q52 0 63 55q13 56 30 82.5t42 39.5v2q-51 -19 -91 -19q-56 0 -86 56q-22 39 -41 128q-96 -179 -175 -179q-31 0 -51 19t-20 47q0 54 63 70l44 -53q63 46 116 148q-32 101 -51 144q-10 23 -19 35l-91 7v34z
" />
    <glyph glyph-name="cyrChedesc" unicode="&#x4b6;" horiz-adv-x="670" 
d="M58 671h270v-48l-63 -6l-13 -14l-28 -145q-5 -27 -5 -44q0 -77 100 -77q59 0 131 23l45 243l-13 14l-59 6v48h277v-48l-66 -6l-13 -14l-100 -533l10 -12h82l-46 -228h-72v158l-12 12h-171v48l69 7l14 14l44 230q-103 -20 -172 -20q-172 0 -172 125q0 13 8 59l27 140
l-10 14l-62 6v48z" />
    <glyph glyph-name="cyrchedesc" unicode="&#x4b7;" horiz-adv-x="552" 
d="M183 487h30l-25 -134q-8 -48 -8 -59q0 -54 52 -54q42 0 104 45l39 190l119 14l-65 -310q-11 -50 -11 -73q0 -51 50 -51q28 0 58 12v-38q-16 -12 -24.5 -33t-10.5 -37t-2.5 -37.5t-0.5 -25.5q-15 -82 -153 -106v44q52 0 63 55q13 56 30 82.5t42 39.5v2q-57 -19 -98 -19
q-32 0 -55 16.5t-23 51.5q0 16 8 56l26 115q-103 -77 -170 -77q-41 0 -67.5 27t-26.5 74q0 31 7 62l19 88l-80 12v35z" />
    <glyph glyph-name="cyrChevertbar" unicode="&#x4b8;" horiz-adv-x="690" 
d="M58 671h270v-48l-63 -6l-13 -14l-28 -145q-5 -27 -5 -44q0 -35 22 -56t62 -21h4l31 161h58l-31 -159q54 3 105 21l45 243l-13 14l-59 6v48h277v-48l-66 -6l-13 -14l-100 -534l9 -14l64 -7v-48h-282v48l69 7l14 14l44 230q-50 -11 -104 -16l-22 -115h-58l22 112
q-12 -1 -34 -1q-97 0 -137 40q-31 33 -31 85q0 13 8 59l27 140l-10 14l-62 6v48z" />
    <glyph glyph-name="cyrchevertbar" unicode="&#x4b9;" horiz-adv-x="582" 
d="M183 487h30l-25 -134q-8 -43 -8 -59q0 -55 47 -55q7 0 11 1l25 130h59l-24 -119q27 8 68 34l39 190l119 14l-65 -310q-11 -50 -11 -73q0 -51 50 -51q27 0 58 11v-38q-93 -34 -149 -34q-35 0 -59 17t-24 51q0 16 8 56l26 115q-40 -27 -71 -40l-25 -127h-60l22 105
q-34 -15 -66 -15q-41 0 -67.5 27t-26.5 74q0 31 7 62l19 88l-80 12v35z" />
    <glyph glyph-name="cyrH" unicode="&#x4ba;" horiz-adv-x="670" 
d="M618 0h-270v48l63 7l13 14l28 144q5 27 5 44q0 77 -100 77q-59 0 -131 -23l-45 -242l13 -14l59 -7v-48h-277v48l66 7l13 14l100 534l-9 14l-64 6v48h282v-48l-69 -6l-14 -14l-44 -231q103 20 172 20q172 0 172 -125q0 -13 -8 -59l-27 -139l10 -14l62 -7v-48z" />
    <glyph glyph-name="cyrh" unicode="&#x4bb;" horiz-adv-x="588" 
d="M238 736h46q-13 -52 -37 -172l-34 -169q123 97 197 97q37 0 64.5 -26.5t27.5 -67.5q0 -26 -11 -81l-29 -138q-11 -53 -11 -73q0 -21 13 -36t33 -15q26 0 62 12v-38q-90 -35 -154 -35q-29 0 -53.5 17t-24.5 53q0 11 8 54l35 166q9 40 9 65q0 21 -10.5 40t-35.5 19
q-16 0 -51 -15t-78 -51l-61 -342h-124l129 653l-87 10v35z" />
    <glyph glyph-name="cyrI" unicode="&#x4c0;" horiz-adv-x="337" 
d="M86 671h274v-48l-65 -6l-16 -14l-100 -534l12 -14l65 -7v-48h-276v48l66 7l15 14l100 534l-10 14l-65 6v48z" />
    <glyph glyph-name="cyrKahook" unicode="&#x4c3;" horiz-adv-x="668" 
d="M82 671h279v-48l-67 -6l-13 -14l-42 -225h47q73 0 110 66l70 127q60 108 147 108q29 0 55 -19t26 -54q0 -28 -18 -47.5t-48 -22.5l-64 62q-16 -16 -32 -46l-62 -116q-39 -70 -97 -86v-2q41 -2 75 -13t65 -34t49 -64t18 -98q0 -119 -97 -234q-41 -49 -92 -84t-102 -35
q-28 0 -47 17.5t-19 44.5q0 39 34 59l117 -47q35 47 53 116.5t18 133.5q0 24 -3 48t-14 55.5t-28 54.5t-49 39.5t-74 16.5h-48l-48 -255l11 -14l63 -7v-48h-279v48l64 7l15 14l100 534l-10 14l-63 6v48z" />
    <glyph glyph-name="cyrkahook" unicode="&#x4c4;" horiz-adv-x="567" 
d="M199 487h38l-59 -277h2q131 166 200 225t109 59q27 0 44.5 -19.5t17.5 -48.5q0 -61 -81 -86l-36 58q-41 -24 -88 -71q-57 -57 -81 -85q16 2 34 2q22 0 44.5 -4t50.5 -16.5t48.5 -32.5t35 -55.5t14.5 -81.5q0 -83 -49 -154q-32 -45 -81 -79.5t-98 -34.5q-28 0 -47 17.5
t-19 44.5q0 39 34 59l117 -47q23 55 23 135q0 56 -15.5 95t-41 58t-51 27t-53.5 8l-44 -47l-23 -136h-118l80 407l-80 12v35z" />
    <glyph glyph-name="cyrEnhook" unicode="&#x4c7;" horiz-adv-x="738" 
d="M84 671h276v-48l-65 -6l-13 -14l-42 -222h281l42 222l-13 14l-60 6v48h278v-48l-66 -6l-13 -14l-84 -448q-21 -111 -71.5 -197t-122.5 -134q-57 -38 -101 -38q-28 0 -47 17.5t-19 44.5q0 39 34 59l117 -47q37 50 72 230l43 231h-281l-47 -252l11 -14l64 -7v-48h-281v48
l64 7l16 14l100 534l-10 14l-62 6v48z" />
    <glyph glyph-name="cyrenhook" unicode="&#x4c8;" horiz-adv-x="574" 
d="M199 487h38l-44 -205h183l31 193l119 14l-54 -334q-16 -99 -39 -162t-53.5 -99t-80.5 -70q-57 -38 -101 -38q-28 0 -47 17.5t-19 44.5q0 39 34 59l117 -47q40 54 66 230l20 134h-186l-37 -224h-120l80 407l-80 12v35z" />
    <glyph glyph-name="cyrAcyrbreve" unicode="&#x4d0;" horiz-adv-x="636" 
d="M339 677h103l103 -608l10 -14l58 -7v-48h-263v48l61 7l11 14l-28 167h-223l-92 -167l10 -14l59 -7v-48h-215v48l56 7zM342 551l-141 -260h183zM269 887h51q-2 -8 -2 -21q0 -26 15 -39.5t32 -16.5t43 -3q103 0 115 80h51q-12 -66 -42 -102q-41 -49 -140 -49
q-53 0 -90.5 22.5t-37.5 74.5q0 24 5 54z" />
    <glyph glyph-name="cyracyrbreve" unicode="&#x4d1;" horiz-adv-x="573" 
d="M453 493h59q-18 -65 -34 -152l-29 -162q-9 -51 -9 -70q0 -54 47 -54q25 0 61 12v-38q-93 -35 -150 -35q-31 0 -53.5 17.5t-22.5 56.5v4q-86 -82 -162 -82q-67 0 -104 53.5t-37 129.5q0 130 81 224.5t204 94.5q51 0 112 -23zM370 385l-40 60h-9q-78 0 -126 -71t-48 -183
q0 -117 75 -117q43 0 102 46zM208 718h51q-2 -8 -2 -21q0 -26 15 -39.5t32 -16.5t43 -3q103 0 115 80h51q-12 -66 -42 -102q-41 -49 -140 -49q-53 0 -90.5 22.5t-37.5 74.5q0 24 5 54z" />
    <glyph glyph-name="cyrAdieresis" unicode="&#x4d2;" horiz-adv-x="636" 
d="M339 677h103l103 -608l10 -14l58 -7v-48h-263v48l61 7l11 14l-28 167h-223l-92 -167l10 -14l59 -7v-48h-215v48l56 7zM342 551l-141 -260h183zM226 812q0 26 19 45t45 19t45 -19t19 -45t-19 -45t-45 -19t-45 19t-19 45zM432 812q0 26 19 45t45 19t45 -19t19 -45t-19 -45
t-45 -19t-45 19t-19 45z" />
    <glyph glyph-name="cyradieresis" unicode="&#x4d3;" horiz-adv-x="573" 
d="M453 493h59q-18 -65 -34 -152l-29 -162q-9 -51 -9 -70q0 -54 47 -54q25 0 61 12v-38q-93 -35 -150 -35q-31 0 -53.5 17.5t-22.5 56.5v4q-86 -82 -162 -82q-67 0 -104 53.5t-37 129.5q0 130 81 224.5t204 94.5q51 0 112 -23zM370 385l-40 60h-9q-78 0 -126 -71t-48 -183
q0 -117 75 -117q43 0 102 46zM174 644q0 26 19 45t45 19t45 -19t19 -45t-19 -45t-45 -19t-45 19t-19 45zM380 644q0 26 19 45t45 19t45 -19t19 -45t-19 -45t-45 -19t-45 19t-19 45z" />
    <glyph glyph-name="cyrAE" unicode="&#x4d4;" horiz-adv-x="893" 
d="M314 671h580l-31 -157h-66v85l-11 15h-183l-46 -239h119l16 15l23 72h57l-44 -231h-53v73l-11 14h-117l-48 -260h219l16 11l36 110h67l-36 -179h-500v48l62 7l16 14l35 183h-218l-138 -183l4 -14l62 -7v-48h-225v48l66 13l418 541l-8 14l-61 7v48zM484 631l-245 -322h187
z" />
    <glyph glyph-name="cyrae" unicode="&#x4d5;" horiz-adv-x="721" 
d="M658 139v-62q-62 -47 -110.5 -67t-99.5 -20q-92 0 -141 78q-104 -78 -186 -78q-54 0 -85.5 30t-31.5 81q0 77 70.5 121t225.5 64l10 52q3 16 3 31q0 71 -72 71q-15 0 -43 -6l-18 -97h-96q-27 0 -27 19q0 56 64.5 96t153.5 40q46 0 75 -13.5t51 -44.5q95 58 162 58
q55 0 87 -29t32 -78q0 -78 -72.5 -119t-210.5 -42q-1 -10 -1 -22q0 -64 27 -99.5t77 -35.5q67 0 156 72zM292 106q-8 41 -8 72q0 28 5 60q-85 -12 -123 -38t-38 -71q0 -28 16.5 -44t45.5 -16q39 0 102 37zM403 267q80 10 127 43.5t47 82.5q0 22 -13 36t-33 14
q-41 0 -74.5 -46.5t-53.5 -129.5z" />
    <glyph glyph-name="cyrIecyrbreve" unicode="&#x4d6;" horiz-adv-x="578" 
d="M82 671h495l-30 -156h-64v88l-12 12h-187l-45 -240h122l15 14l24 74h57l-43 -233h-52v75l-13 14h-120l-49 -261h224l14 14l38 107h66l-33 -179h-513v48l65 7l14 14l100 534l-9 14l-64 6v48zM240 887h51q-2 -8 -2 -21q0 -26 15 -39.5t32 -16.5t43 -3q103 0 115 80h51
q-12 -66 -42 -102q-41 -49 -140 -49q-53 0 -90.5 22.5t-37.5 74.5q0 24 5 54z" />
    <glyph glyph-name="cyriecyrbreve" unicode="&#x4d7;" horiz-adv-x="461" 
d="M400 136l-2 -61q-113 -85 -206 -85q-50 0 -86.5 17.5t-55 47t-26.5 60.5t-8 66q0 52 20 106t56 100t91.5 75.5t120.5 29.5q60 0 92 -28t32 -82q0 -45 -26.5 -78t-68.5 -49t-81 -22.5t-77 -6.5q-28 0 -37 1q-2 -16 -2 -38q0 -58 29 -89.5t75 -31.5q70 0 160 68zM146 269
q88 5 140 46q41 33 41 76q0 23 -13.5 37.5t-35.5 14.5q-50 0 -89 -64q-31 -50 -43 -110zM153 718h51q-2 -8 -2 -21q0 -26 15 -39.5t32 -16.5t43 -3q103 0 115 80h51q-12 -66 -42 -102q-41 -49 -140 -49q-53 0 -90.5 22.5t-37.5 74.5q0 24 5 54z" />
    <glyph glyph-name="cyrinvE" unicode="&#x4d8;" horiz-adv-x="702" 
d="M122 491l31 163q118 30 212 30q130 0 205 -58q96 -75 96 -220q0 -79 -27.5 -154t-77 -134t-125 -95t-164.5 -36q-107 0 -169 69q-63 70 -63 183q0 57 16 121h469q3 26 3 51q0 107 -45.5 159.5t-127.5 52.5q-56 0 -118 -15l-16 -18l-32 -99h-67zM517 300h-345
q-10 -41 -10 -89q0 -70 28 -112q34 -51 97 -51q25 0 56 12t67 38t65.5 79t41.5 123z" />
    <glyph glyph-name="cyrinve" unicode="&#x4d9;" horiz-adv-x="462" 
d="M27 346l2 61q113 85 206 85q50 0 86.5 -17.5t55 -47t26.5 -60.5t8 -66q0 -52 -20 -106t-56 -100t-91.5 -75.5t-120.5 -29.5q-60 0 -92 28t-32 82q0 45 26.5 78t68.5 49t81 22.5t77 6.5q28 0 37 -1q2 16 2 38q0 58 -29 89.5t-75 31.5q-70 0 -160 -68zM281 213
q-88 -5 -140 -46q-41 -33 -41 -76q0 -23 13.5 -37.5t35.5 -14.5q50 0 89 64q31 50 43 110z" />
    <glyph glyph-name="cyrinvEdieresis" unicode="&#x4da;" horiz-adv-x="702" 
d="M122 491l31 163q118 30 212 30q130 0 205 -58q96 -75 96 -220q0 -79 -27.5 -154t-77 -134t-125 -95t-164.5 -36q-107 0 -169 69q-63 70 -63 183q0 57 16 121h469q3 26 3 51q0 107 -45.5 159.5t-127.5 52.5q-56 0 -118 -15l-16 -18l-32 -99h-67zM517 300h-345
q-10 -41 -10 -89q0 -70 28 -112q34 -51 97 -51q25 0 56 12t67 38t65.5 79t41.5 123zM259 812q0 26 19.5 45t44.5 19t44.5 -19t19.5 -45t-19.5 -45t-44.5 -19t-44.5 19t-19.5 45zM465 812q0 26 19.5 45t44.5 19t44.5 -19t19.5 -45t-19.5 -45t-44.5 -19t-44.5 19t-19.5 45z
" />
    <glyph glyph-name="cyrinvedieresis" unicode="&#x4db;" horiz-adv-x="462" 
d="M27 346l2 61q113 85 206 85q50 0 86.5 -17.5t55 -47t26.5 -60.5t8 -66q0 -52 -20 -106t-56 -100t-91.5 -75.5t-120.5 -29.5q-60 0 -92 28t-32 82q0 45 26.5 78t68.5 49t81 22.5t77 6.5q28 0 37 -1q2 16 2 38q0 58 -29 89.5t-75 31.5q-70 0 -160 -68zM281 213
q-88 -5 -140 -46q-41 -33 -41 -76q0 -23 13.5 -37.5t35.5 -14.5q50 0 89 64q31 50 43 110zM119 644q0 26 19.5 45t44.5 19t44.5 -19t19.5 -45t-19.5 -45t-44.5 -19t-44.5 19t-19.5 45zM325 644q0 26 19.5 45t44.5 19t44.5 -19t19.5 -45t-19.5 -45t-44.5 -19t-44.5 19
t-19.5 45z" />
    <glyph glyph-name="cyrZhedieresis" unicode="&#x4dc;" horiz-adv-x="960" 
d="M386 671h279v-48l-67 -6l-13 -14l-44 -235h33q72 0 110 75l66 128q54 108 146 108q33 0 57.5 -18t24.5 -54q0 -28 -18 -48t-48 -23l-64 62q-18 -18 -32 -46l-58 -116q-38 -76 -97 -96v-2q92 -27 121 -132l39 -138l17 -15l69 -5v-48h-218v36l-53 206q-17 72 -80 72h-25
l-46 -245l11 -14l63 -7v-48h-279v48l64 7l15 14l46 245h-35q-67 0 -106 -80l-58 -120q-57 -120 -199 -120q-29 0 -57 6v46h6q41 0 64 19t41 52l65 115q59 105 166 112v2q-25 12 -39 34.5t-24 66.5l-19 83q-8 39 -23 60l-70 -54q-44 16 -44 63q0 40 27 60t61 20
q86 0 118 -132l21 -91q14 -58 30.5 -73t44.5 -15h40l44 235l-10 14l-63 6v48zM388 812q0 26 19 45t45 19t45 -19t19 -45t-19 -45t-45 -19t-45 19t-19 45zM594 812q0 26 19 45t45 19t45 -19t19 -45t-19 -45t-45 -19t-45 19t-19 45z" />
    <glyph glyph-name="cyrzhedieresis" unicode="&#x4dd;" horiz-adv-x="864" 
d="M412 475l108 14l-71 -333h2l139 215q28 53 73 87t100 34q38 0 62.5 -17t24.5 -49q0 -58 -72 -62l-53 77q-36 -27 -56 -82q-25 -69 -25 -175q0 -116 60 -116q52 0 112 56v-56q-34 -34 -79 -56t-87 -22q-35 0 -58.5 18.5t-33 48t-13 52.5t-3.5 46q0 44 8 83h-2l-99 -154
l-13 -84h-108l64 324h-2l-140 -213q-69 -121 -180 -121q-32 0 -56 18t-24 49q0 24 14.5 41.5t38.5 23.5l72 -76q42 31 61.5 101.5t19.5 151.5q0 115 -60 115q-44 0 -104 -56v56q84 78 159 78q107 0 107 -172q0 -33 -8 -78h2l104 158zM320 644q0 26 19 45t45 19t45 -19
t19 -45t-19 -45t-45 -19t-45 19t-19 45zM526 644q0 26 19 45t45 19t45 -19t19 -45t-19 -45t-45 -19t-45 19t-19 45z" />
    <glyph glyph-name="cyrZedieresis" unicode="&#x4de;" horiz-adv-x="580" 
d="M91 481l33 173q88 30 192 30q37 0 69.5 -5.5t67.5 -19.5t55.5 -45t20.5 -76q0 -60 -44.5 -112t-127.5 -68v-2q27 -2 51 -9t49 -22.5t39.5 -45.5t14.5 -72q0 -104 -90 -165q-82 -55 -215 -55q-108 0 -206 36l33 178h66v-119l6 -10q43 -20 88 -20q83 0 131.5 43t48.5 110
q0 61 -35 90q-27 23 -84 23q-40 0 -77 -8v64h54q25 0 50 6.5t51 22.5t42.5 48.5t16.5 78.5q0 49 -31.5 71t-69.5 22q-41 0 -81 -15l-16 -18l-36 -109h-66zM198 812q0 26 19 45t45 19t45 -19t19 -45t-19 -45t-45 -19t-45 19t-19 45zM404 812q0 26 19 45t45 19t45 -19t19 -45
t-19 -45t-45 -19t-45 19t-19 45z" />
    <glyph glyph-name="cyrzedieresis" unicode="&#x4df;" horiz-adv-x="446" 
d="M104 220v58h41q62 0 98 26q35 24 35 64q0 61 -81 61q-73 0 -143 -66v58q55 46 96.5 58.5t100.5 12.5q62 0 106.5 -27t44.5 -81q0 -39 -35.5 -72.5t-101.5 -50.5v-2q50 -5 85.5 -32t35.5 -72q0 -41 -23 -77.5t-71 -59.5q-60 -28 -147 -28q-70 0 -109 22q-48 27 -48 77
q0 29 18 44.5t44 15.5q34 0 54 -23l-18 -69q23 -19 61 -19q59 0 85 35.5t26 75.5q0 34 -21.5 57.5t-66.5 23.5zM111 644q0 26 19.5 45t44.5 19t44.5 -19t19.5 -45t-19.5 -45t-44.5 -19t-44.5 19t-19.5 45zM317 644q0 26 19.5 45t44.5 19t44.5 -19t19.5 -45t-19.5 -45
t-44.5 -19t-44.5 19t-19.5 45z" />
    <glyph glyph-name="cyrImacron" unicode="&#x4e2;" horiz-adv-x="748" 
d="M84 671h276v-48l-65 -6l-13 -14l-78 -410l365 390l4 20l-13 14l-60 6v48h278v-48l-66 -6l-13 -14l-100 -534l9 -14l64 -7v-48h-278v48l63 7l16 14l79 420l-365 -390l-5 -30l11 -14l64 -7v-48h-281v48l64 7l16 14l100 534l-10 14l-62 6v48zM305 840h331l-12 -68h-331z" />
    <glyph glyph-name="cyrimacron" unicode="&#x4e3;" horiz-adv-x="599" 
d="M201 487h38l-57 -299q-8 -48 -8 -60q0 -25 14 -39.5t37 -14.5q45 0 122 49l67 352l119 14l-58 -310q-11 -55 -11 -72q0 -23 12.5 -37.5t35.5 -14.5q28 0 61 12v-38q-60 -19 -81 -24q-48 -11 -78 -11q-36 0 -54.5 21t-18.5 57v5q-1 -1 -15 -11.5t-24.5 -18t-30 -19
t-37 -19.5t-40 -13.5t-42.5 -5.5q-98 0 -98 100q0 18 6 57l48 260l-80 12v35zM199 675h331l-12 -68h-331z" />
    <glyph glyph-name="cyrIdieresis" unicode="&#x4e4;" horiz-adv-x="748" 
d="M84 671h276v-48l-65 -6l-13 -14l-78 -410l365 390l4 20l-13 14l-60 6v48h278v-48l-66 -6l-13 -14l-100 -534l9 -14l64 -7v-48h-278v48l63 7l16 14l79 420l-365 -390l-5 -30l11 -14l64 -7v-48h-281v48l64 7l16 14l100 534l-10 14l-62 6v48zM282 812q0 26 19 45t45 19
t45 -19t19 -45t-19 -45t-45 -19t-45 19t-19 45zM488 812q0 26 19 45t45 19t45 -19t19 -45t-19 -45t-45 -19t-45 19t-19 45z" />
    <glyph glyph-name="cyridieresis" unicode="&#x4e5;" horiz-adv-x="599" 
d="M201 487h38l-57 -299q-8 -48 -8 -60q0 -25 14 -39.5t37 -14.5q45 0 122 49l67 352l119 14l-58 -310q-11 -55 -11 -72q0 -23 12.5 -37.5t35.5 -14.5q28 0 61 12v-38q-60 -19 -81 -24q-48 -11 -78 -11q-36 0 -54.5 21t-18.5 57v5q-1 -1 -15 -11.5t-24.5 -18t-30 -19
t-37 -19.5t-40 -13.5t-42.5 -5.5q-98 0 -98 100q0 18 6 57l48 260l-80 12v35zM187 644q0 26 19.5 45t44.5 19t44.5 -19t19.5 -45t-19.5 -45t-44.5 -19t-44.5 19t-19.5 45zM393 644q0 26 19.5 45t44.5 19t44.5 -19t19.5 -45t-19.5 -45t-44.5 -19t-44.5 19t-19.5 45z" />
    <glyph glyph-name="cyrOdieresis" unicode="&#x4e6;" horiz-adv-x="728" 
d="M418 684q117 0 193 -71q81 -74 81 -208q0 -105 -45 -200t-133 -156.5t-198 -61.5q-131 0 -207 84q-69 76 -69 199q0 98 43 192.5t119 151.5q92 70 216 70zM404 623q-61 0 -114 -57t-82.5 -140.5t-29.5 -167.5q0 -88 36 -146q41 -64 113 -64q89 0 154 100q73 111 73 263
q0 32 -5 62.5t-19 67.5t-46.5 59.5t-79.5 22.5zM272 812q0 26 19 45t45 19t45 -19t19 -45t-19 -45t-45 -19t-45 19t-19 45zM478 812q0 26 19 45t45 19t45 -19t19 -45t-19 -45t-45 -19t-45 19t-19 45z" />
    <glyph glyph-name="cyrodieresis" unicode="&#x4e7;" horiz-adv-x="551" 
d="M301 492q91 0 145 -56t54 -150q0 -70 -27 -128.5t-69.5 -94t-90.5 -54.5t-95 -19q-94 0 -148 59q-52 56 -52 147q0 51 18 101.5t51 95t89 72t125 27.5zM286 440q-44 0 -75 -33t-43.5 -82t-17 -83t-4.5 -59q0 -74 20.5 -107.5t64.5 -33.5q52 0 91 57q50 74 50 197
q0 144 -86 144zM163 644q0 26 19.5 45t44.5 19t44.5 -19t19.5 -45t-19.5 -45t-44.5 -19t-44.5 19t-19.5 45zM369 644q0 26 19.5 45t44.5 19t44.5 -19t19.5 -45t-19.5 -45t-44.5 -19t-44.5 19t-19.5 45z" />
    <glyph glyph-name="cyrObar" unicode="&#x4e8;" horiz-adv-x="728" 
d="M418 684q117 0 193 -71q81 -74 81 -208q0 -105 -45 -200t-133 -156.5t-198 -61.5q-131 0 -207 84q-69 76 -69 199q0 98 43 192.5t119 151.5q92 70 216 70zM194 381h359q0 3 0.5 13t0.5 17q0 33 -5 63.5t-19 67.5t-46.5 59t-79.5 22q-22 0 -49 -12t-58.5 -37.5
t-59.5 -75.5t-43 -117zM546 321h-363q-5 -33 -5 -62q0 -102 45.5 -156.5t103.5 -54.5q89 0 154 100q51 78 65 173z" />
    <glyph glyph-name="cyrobar" unicode="&#x4e9;" horiz-adv-x="551" 
d="M301 492q91 0 145 -56t54 -150q0 -70 -27 -128.5t-69.5 -94t-90.5 -54.5t-95 -19q-94 0 -148 59q-52 56 -52 147q0 51 18 101.5t51 95t89 72t125 27.5zM154 272h217q1 8 1 29q0 139 -86 139q-39 0 -69 -30t-43.5 -65t-19.5 -73zM365 214h-218q-1 -7 -1 -31
q0 -141 85 -141q37 0 79.5 43.5t54.5 128.5z" />
    <glyph glyph-name="cyrObardieresis" unicode="&#x4ea;" horiz-adv-x="728" 
d="M418 684q117 0 193 -71q81 -74 81 -208q0 -105 -45 -200t-133 -156.5t-198 -61.5q-131 0 -207 84q-69 76 -69 199q0 98 43 192.5t119 151.5q92 70 216 70zM194 381h359q0 3 0.5 13t0.5 17q0 33 -5 63.5t-19 67.5t-46.5 59t-79.5 22q-22 0 -49 -12t-58.5 -37.5
t-59.5 -75.5t-43 -117zM546 321h-363q-5 -33 -5 -62q0 -102 45.5 -156.5t103.5 -54.5q89 0 154 100q51 78 65 173zM272 812q0 26 19 45t45 19t45 -19t19 -45t-19 -45t-45 -19t-45 19t-19 45zM478 812q0 26 19 45t45 19t45 -19t19 -45t-19 -45t-45 -19t-45 19t-19 45z" />
    <glyph glyph-name="cyrobardieresis" unicode="&#x4eb;" horiz-adv-x="551" 
d="M301 492q91 0 145 -56t54 -150q0 -70 -27 -128.5t-69.5 -94t-90.5 -54.5t-95 -19q-94 0 -148 59q-52 56 -52 147q0 51 18 101.5t51 95t89 72t125 27.5zM154 272h217q1 8 1 29q0 139 -86 139q-39 0 -69 -30t-43.5 -65t-19.5 -73zM365 214h-218q-1 -7 -1 -31
q0 -141 85 -141q37 0 79.5 43.5t54.5 128.5zM163 644q0 26 19.5 45t44.5 19t44.5 -19t19.5 -45t-19.5 -45t-44.5 -19t-44.5 19t-19.5 45zM369 644q0 26 19.5 45t44.5 19t44.5 -19t19.5 -45t-19.5 -45t-44.5 -19t-44.5 19t-19.5 45z" />
    <glyph glyph-name="cyrUmacron" unicode="&#x4ee;" horiz-adv-x="616" 
d="M42 671h277v-48l-62 -6l-10 -14l113 -329l174 329l-10 14l-64 6v48h224v-48l-64 -6l-238 -431q-62 -114 -118 -156q-57 -43 -127 -43q-62 0 -117 27l31 163h75v-121l13 -12q42 1 80.5 34t61.5 81l-167 450l-9 8l-63 6v48zM239 840h331l-12 -68h-331z" />
    <glyph glyph-name="cyrumacron" unicode="&#x4ef;" horiz-adv-x="495" 
d="M-14 459l154 35q24 -7 39 -28q22 -30 37 -126l35 -218q64 168 152 371h31l79 -26v-27l-59 -33q-14 -18 -27 -38t-25.5 -45.5t-19.5 -40.5t-21.5 -48t-18.5 -42q-52 -117 -75.5 -162t-73.5 -116q-45 -63 -90 -95q-50 -36 -96 -36q-29 0 -57 21t-28 56q0 52 59 67l67 -63
q36 6 76 50t73 111h-38l-61 317q-9 44 -25 75l-87 8v33zM148 675h331l-12 -68h-331z" />
    <glyph glyph-name="cyrUdieresis" unicode="&#x4f0;" horiz-adv-x="616" 
d="M42 671h277v-48l-62 -6l-10 -14l113 -329l174 329l-10 14l-64 6v48h224v-48l-64 -6l-238 -431q-62 -114 -118 -156q-57 -43 -127 -43q-62 0 -117 27l31 163h75v-121l13 -12q42 1 80.5 34t61.5 81l-167 450l-9 8l-63 6v48zM216 812q0 26 19 45t45 19t45 -19t19 -45
t-19 -45t-45 -19t-45 19t-19 45zM422 812q0 26 19 45t45 19t45 -19t19 -45t-19 -45t-45 -19t-45 19t-19 45z" />
    <glyph glyph-name="cyrudieresis" unicode="&#x4f1;" horiz-adv-x="495" 
d="M-14 459l154 35q24 -7 39 -28q22 -30 37 -126l35 -218q64 168 152 371h31l79 -26v-27l-59 -33q-14 -18 -27 -38t-25.5 -45.5t-19.5 -40.5t-21.5 -48t-18.5 -42q-52 -117 -75.5 -162t-73.5 -116q-45 -63 -90 -95q-50 -36 -96 -36q-29 0 -57 21t-28 56q0 52 59 67l67 -63
q36 6 76 50t73 111h-38l-61 317q-9 44 -25 75l-87 8v33zM136 644q0 26 19 45t45 19t45 -19t19 -45t-19 -45t-45 -19t-45 19t-19 45zM342 644q0 26 19 45t45 19t45 -19t19 -45t-19 -45t-45 -19t-45 19t-19 45z" />
    <glyph glyph-name="cyrUdblacute" unicode="&#x4f2;" horiz-adv-x="616" 
d="M42 671h277v-48l-62 -6l-10 -14l113 -329l174 329l-10 14l-64 6v48h224v-48l-64 -6l-238 -431q-62 -114 -118 -156q-57 -43 -127 -43q-62 0 -117 27l31 163h75v-121l13 -12q42 1 80.5 34t61.5 81l-167 450l-9 8l-63 6v48zM370 887h116l-170 -155h-62zM540 887h130
l-212 -155h-70z" />
    <glyph glyph-name="cyrudblacute" unicode="&#x4f3;" horiz-adv-x="495" 
d="M-14 459l154 35q24 -7 39 -28q22 -30 37 -126l35 -218q64 168 152 371h31l79 -26v-27l-59 -33q-14 -18 -27 -38t-25.5 -45.5t-19.5 -40.5t-21.5 -48t-18.5 -42q-52 -117 -75.5 -162t-73.5 -116q-45 -63 -90 -95q-50 -36 -96 -36q-29 0 -57 21t-28 56q0 52 59 67l67 -63
q36 6 76 50t73 111h-38l-61 317q-9 44 -25 75l-87 8v33zM282 742h112l-187 -190h-59zM448 742h127l-228 -190h-67z" />
    <glyph glyph-name="cyrChedieresis" unicode="&#x4f4;" horiz-adv-x="670" 
d="M58 671h270v-48l-63 -6l-13 -14l-28 -145q-5 -27 -5 -44q0 -77 100 -77q59 0 131 23l45 243l-13 14l-59 6v48h277v-48l-66 -6l-13 -14l-100 -534l9 -14l64 -7v-48h-282v48l69 7l14 14l44 230q-103 -20 -172 -20q-172 0 -172 125q0 13 8 59l27 140l-10 14l-62 6v48z
M243 812q0 26 19.5 45t44.5 19t44.5 -19t19.5 -45t-19.5 -45t-44.5 -19t-44.5 19t-19.5 45zM449 812q0 26 19.5 45t44.5 19t44.5 -19t19.5 -45t-19.5 -45t-44.5 -19t-44.5 19t-19.5 45z" />
    <glyph glyph-name="cyrchedieresis" unicode="&#x4f5;" horiz-adv-x="552" 
d="M183 487h30l-25 -134q-8 -48 -8 -59q0 -54 52 -54q42 0 104 45l39 190l119 14l-65 -310q-11 -52 -11 -73q0 -51 50 -51q27 0 58 11v-38q-93 -34 -149 -34q-35 0 -59 17t-24 51q0 16 8 56l26 115q-103 -77 -170 -77q-41 0 -67.5 27t-26.5 74q0 31 7 62l19 88l-80 12v35z
M164 644q0 26 19 45t45 19t45 -19t19 -45t-19 -45t-45 -19t-45 19t-19 45zM370 644q0 26 19 45t45 19t45 -19t19 -45t-19 -45t-45 -19t-45 19t-19 45z" />
    <glyph glyph-name="cyrYerudieresis" unicode="&#x4f8;" horiz-adv-x="920" 
d="M80 671h282v-48l-65 -6l-16 -14l-39 -210q49 7 84 7q103 0 159 -38q71 -48 71 -146q0 -67 -30 -113t-79.5 -67t-93.5 -28.5t-93 -7.5h-284v48l64 7l15 14l100 534l-11 14l-64 6v48zM231 335l-52 -278q24 -3 54 -3q100 0 146 44q43 41 43 115q0 66 -37 100q-31 29 -94 29
q-27 0 -60 -7zM672 671h278v-48l-66 -6l-13 -14l-100 -534l9 -14l64 -7v-48h-278v48l63 7l16 14l100 534l-13 14l-60 6v48zM368 812q0 26 19 45t45 19t45 -19t19 -45t-19 -45t-45 -19t-45 19t-19 45zM574 812q0 26 19 45t45 19t45 -19t19 -45t-19 -45t-45 -19t-45 19t-19 45
z" />
    <glyph glyph-name="cyryerudieresis" unicode="&#x4f9;" horiz-adv-x="736" 
d="M201 487h38l-47 -204q46 12 98 12q63 0 108.5 -32t45.5 -105q0 -76 -63.5 -122t-166.5 -46q-64 0 -106 19q-64 30 -64 103q0 19 7 52l57 243l-80 12v35zM181 231l-21 -89q-4 -14 -4 -33q0 -27 14.5 -43t28.5 -20t28 -4q41 0 71 29t30 86q0 38 -22 63.5t-58 25.5
q-33 0 -67 -15zM559 475l119 14l-65 -310q-11 -52 -11 -73q0 -51 50 -51q27 0 58 11v-38q-93 -34 -149 -34q-35 0 -59 17t-24 51q0 11 8 56zM256 644q0 26 19 45t45 19t45 -19t19 -45t-19 -45t-45 -19t-45 19t-19 45zM462 644q0 26 19 45t45 19t45 -19t19 -45t-19 -45
t-45 -19t-45 19t-19 45z" />
    <glyph glyph-name="endash" unicode="&#x2013;" 
d="M-9 286h507l-17 -90h-506z" />
    <glyph glyph-name="emdash" unicode="&#x2014;" horiz-adv-x="1000" 
d="M1000 286l-14 -90h-1008l17 90h1005z" />
    <glyph glyph-name="quoteleft" unicode="&#x2018;" horiz-adv-x="261" 
d="M265 698l16 -29q-59 -33 -87.5 -69.5t-32.5 -84.5h60q11 -19 11 -38q0 -35 -24 -58.5t-59 -23.5q-34 0 -53.5 21t-19.5 57q0 68 50 127.5t139 97.5z" />
    <glyph glyph-name="quoteright" unicode="&#x2019;" horiz-adv-x="261" 
d="M80 395l-16 29q112 64 120 154h-60q-11 18 -11 38q0 35 24 58.5t59 23.5q34 0 53.5 -21t19.5 -57q0 -67 -51.5 -128.5t-137.5 -96.5z" />
    <glyph glyph-name="quotesinglbase" unicode="&#x201a;" horiz-adv-x="261" 
d="M-37 -174l-16 29q58 33 86.5 70t33.5 84h-60q-11 19 -11 38q0 35 24 58.5t59 23.5q33 0 53 -21t20 -57q0 -68 -50 -127.5t-139 -97.5z" />
    <glyph glyph-name="quotedblleft" unicode="&#x201c;" horiz-adv-x="481" 
d="M267 698l16 -29q-59 -33 -87.5 -69.5t-32.5 -84.5h60q11 -19 11 -38q0 -35 -24 -58.5t-59 -23.5q-34 0 -53.5 21t-19.5 57q0 68 50 127.5t139 97.5zM487 698l16 -29q-111 -62 -120 -154h60q11 -18 11 -39q0 -34 -24 -57.5t-59 -23.5q-34 0 -53.5 21t-19.5 57
q0 68 50 127.5t139 97.5z" />
    <glyph glyph-name="quotedblright" unicode="&#x201d;" horiz-adv-x="481" 
d="M80 395l-16 29q112 64 120 154h-60q-11 18 -11 38q0 35 24 58.5t59 23.5q34 0 53.5 -21t19.5 -57q0 -67 -51.5 -128.5t-137.5 -96.5zM301 395l-16 29q59 34 87 70t33 84h-60q-11 18 -11 37q0 35 24 59t59 24q34 0 53.5 -21t19.5 -57q0 -67 -51.5 -128.5t-137.5 -96.5z
" />
    <glyph glyph-name="quotedblbase" unicode="&#x201e;" horiz-adv-x="481" 
d="M-35 -174l-16 29q58 33 86.5 70t33.5 84h-60q-11 19 -11 38q0 35 24 58.5t59 23.5q33 0 53 -21t20 -57q0 -68 -50 -127.5t-139 -97.5zM186 -174l-16 29q112 64 120 154h-60q-11 18 -11 37q0 35 24 59t59 24q33 0 53 -21t20 -57q0 -68 -50 -127.5t-139 -97.5z" />
    <glyph glyph-name="dagger" unicode="&#x2020;" 
d="M322 718l42 -76l-74 -140h-17l-21 140zM125 538l136 -48l-4 -19l-151 -43l-61 55zM447 538l63 -55l-82 -55l-134 43l3 19zM265 459h17l21 -165l-133 -423h11v423z" />
    <glyph glyph-name="daggerdbl" unicode="&#x2021;" 
d="M323 718l40 -76l-72 -140h-16l-19 140zM125 537l136 -47l-4 -19l-151 -41l-61 53zM447 537l63 -54l-82 -53l-134 41l3 19zM267 460h15l23 -166l-86 -167h-15l-26 167zM55 159l136 -47l-3 -18l-152 -42l-61 54zM377 159l64 -53l-83 -54l-134 42l4 18zM196 84h16l18 -140
l-68 -76l-38 76z" />
    <glyph glyph-name="bullet" unicode="&#x2022;" horiz-adv-x="590" 
d="M296 516q59 0 101 -42.5t42 -101.5q0 -60 -42.5 -102.5t-102.5 -42.5t-102 42t-42 102q0 61 42.5 103t103.5 42z" />
    <glyph glyph-name="ellipsis" unicode="&#x2026;" horiz-adv-x="1000" 
d="M114 151q32 0 55.5 -24t23.5 -56q0 -33 -23.5 -56t-56.5 -23t-56 23t-23 56q0 34 23 57t57 23zM780 150q32 0 55.5 -24t23.5 -56t-23.5 -55t-56.5 -23q-32 0 -55 23t-23 55q0 34 23 57t56 23zM448 151q32 0 55.5 -24t23.5 -56q0 -33 -23.5 -56t-56.5 -23t-56 23t-23 56
q0 34 23 57t57 23z" />
    <glyph glyph-name="perthousand" unicode="&#x2030;" horiz-adv-x="1291" 
d="M267 683q63 0 98 -40.5t35 -113.5q0 -112 -60.5 -189t-149.5 -77q-64 0 -99.5 39.5t-35.5 111.5q0 115 60.5 192t151.5 77zM256 638q-45 0 -75.5 -79.5t-30.5 -165.5q0 -84 47 -84q45 0 76.5 77t31.5 169q0 83 -49 83zM681 671h75l-538 -671h-76zM712 407q63 0 98.5 -40
t35.5 -111q0 -113 -61 -190.5t-150 -77.5q-65 0 -100 39.5t-35 112.5q0 114 60.5 190.5t151.5 76.5zM700 363q-45 0 -75.5 -79t-30.5 -169q0 -82 47 -82q45 0 76.5 78t31.5 167q0 85 -49 85zM1109 407q63 0 98.5 -40t35.5 -111q0 -113 -61 -190.5t-150 -77.5
q-64 0 -99.5 39.5t-35.5 111.5q0 115 60.5 191.5t151.5 76.5zM1097 363q-45 0 -75.5 -79.5t-30.5 -169.5q0 -81 47 -81q46 0 77 77.5t31 168.5q0 84 -49 84z" />
    <glyph glyph-name="guilsinglleft" unicode="&#x2039;" horiz-adv-x="247" 
d="M226 425l-15 -83l-129 -102l91 -102l-15 -83l-149 143l16 84z" />
    <glyph glyph-name="guilsinglright" unicode="&#x203a;" horiz-adv-x="247" 
d="M56 425l149 -143l-16 -84l-201 -143l15 83l129 102l-91 102z" />
    <glyph glyph-name="fraction" unicode="&#x2044;" horiz-adv-x="185" 
d="M295 671h70l-472 -671h-70z" />
    <glyph glyph-name="Euro" unicode="&#x20ac;" horiz-adv-x="587" 
d="M-28 360l33 50h53q37 125 128.5 199.5t224.5 74.5q80 0 185 -34l-30 -169h-68v114l-10 18q-35 15 -74 15q-98 0 -169 -85q-47 -54 -66 -133h299l-33 -50h-277q-5 -30 -6 -64h247l-33 -50h-214q2 -101 52.5 -152t119.5 -51q28 0 54 6l17 18l48 129h67l-32 -173
q-110 -36 -196 -36q-120 0 -188 80q-61 71 -65 179h-87l33 50h53q1 31 8 64h-74z" />
    <glyph glyph-name="afii61352" unicode="&#x2116;" horiz-adv-x="1056" 
d="M81 671h221v-24l206 -485l84 441l-12 14l-65 6v48h229v-48l-64 -6l-16 -14l-112 -603h-103l-232 543l-90 -474l10 -14l67 -7v-48h-228v48l65 7l14 14l101 534l-11 14l-64 6v48zM928 671q23 0 43.5 -5.5t40.5 -19t32 -40.5t12 -65q0 -67 -44.5 -120.5t-129.5 -53.5
q-23 0 -43.5 5.5t-40.5 19t-32 40.5t-12 65q0 67 44.5 120.5t129.5 53.5zM885 399q33 0 62 39.5t29 110.5q0 90 -51 90q-46 0 -71 -50q-20 -40 -20 -102q0 -88 51 -88zM728 314h284l-14 -70h-284z" />
    <glyph glyph-name="published" unicode="&#x2117;" horiz-adv-x="876" 
d="M438 728q160 0 271 -114t111 -275t-111 -275t-271 -114t-271 114t-111 275t111 275t271 114zM438 684q-139 0 -236.5 -101.5t-97.5 -243.5t97.5 -243.5t236.5 -101.5t236.5 101.5t97.5 243.5t-97.5 243.5t-236.5 101.5zM269 559h185q96 0 142 -29q49 -33 49 -99
q0 -43 -18 -73.5t-48 -46t-59.5 -22.5t-60.5 -7q-23 0 -43 2v-115l57 -11v-37h-201v36l50 11v344l-53 12v35zM416 518v-193q7 -1 22 -1q104 0 104 100q0 48 -25 71t-67 23h-34z" />
    <glyph glyph-name="trademark" unicode="&#x2122;" horiz-adv-x="817" 
d="M114 662h234v-74h-29l-8 44l-7 5h-45v-207l36 -7v-24h-129v24l36 6v208h-44l-8 -5l-6 -44h-30v74zM375 662h114v-13l61 -171l61 171v13h113v-25l-33 -6v-202l33 -6v-24h-117v24l29 6v203l-85 -233h-30l-83 233v-203l31 -6v-24h-94v24l32 6v202l-32 6v25z" />
    <glyph glyph-name="partialdiff" unicode="&#x2202;" horiz-adv-x="524" 
d="M369 311q19 82 19 169q0 63 -16 84.5t-46 21.5q-32 0 -69 -29t-61 -29q-18 0 -31 13t-13 30q0 23 35 51t92 28q105 0 160 -94q43 -74 43 -192q0 -160 -74.5 -269t-182.5 -109q-77 0 -128 54.5t-51 142.5q0 57 19.5 101.5t50 68.5t61.5 36t59 12q105 0 133 -90zM267 363
q-49 0 -84 -66t-35 -158q0 -123 75 -123q62 0 94 81q26 63 26 144q0 18 -2.5 35.5t-10 39t-23.5 34.5t-40 13z" />
    <glyph glyph-name="product" unicode="&#x220f;" horiz-adv-x="822" 
d="M30 -190v36h92v836h-92v36h762v-36h-92v-836h92v-36h-312v36h90v836h-318v-836h90v-36h-312z" />
    <glyph glyph-name="summation" unicode="&#x2211;" horiz-adv-x="732" 
d="M10 -190v26l425 384l-425 470v28h583l57 -190h-39l-42 122q-12 32 -74 32h-318l363 -396v-19l-382 -347h440q34 0 45 37l31 106h40l-74 -253h-630z" />
    <glyph glyph-name="minus" unicode="&#x2212;" horiz-adv-x="833" 
d="M709 340v-83h-585v83h585z" />
    <glyph glyph-name="division" unicode="&#x2215;" horiz-adv-x="481" 
d="M521 671l-485 -764h-80l485 764h80z" />
    <glyph glyph-name="radical" unicode="&#x221a;" horiz-adv-x="642" 
d="M260 -20l-152 425l-64 -24l-14 48l148 52l120 -335l247 674h97v-54h-54l-287 -786h-41z" />
    </font>
</defs>
</svg>
