<?xml version="1.0" standalone="no"?>
<!DOCTYPE svg PUBLIC "-//W3C//DTD SVG 1.1//EN" "http://www.w3.org/Graphics/SVG/1.1/DTD/svg11.dtd" >
<svg xmlns="http://www.w3.org/2000/svg">
<metadata></metadata>
<defs>
<font id="CharterITCItalic" horiz-adv-x="1024" >
<font-face units-per-em="2048" ascent="1638" descent="-410" />
<missing-glyph horiz-adv-x="477" />
<glyph horiz-adv-x="0" />
<glyph horiz-adv-x="2048" />
<glyph unicode=" "  horiz-adv-x="477" />
<glyph unicode="&#x09;" horiz-adv-x="477" />
<glyph unicode="&#xa0;" horiz-adv-x="477" />
<glyph unicode="!" horiz-adv-x="692" d="M125 98q0 50 33.5 83.5t83.5 33.5q47 0 81.5 -35t34.5 -82q0 -48 -34.5 -82t-83.5 -34q-46 0 -80.5 34.5t-34.5 81.5zM225 350l92 783q19 152 52.5 209t105.5 57q43 0 67.5 -23.5t24.5 -66.5q0 -50 -35 -176l-206 -783h-101z" />
<glyph unicode="&#x22;" horiz-adv-x="673" d="M160 889l84 457q10 58 30.5 83t55.5 25q29 0 47 -16.5t18 -44.5q0 -33 -18 -76l-187 -428h-30zM463 889l84 457q10 58 30.5 83t55.5 25q29 0 47 -16.5t18 -44.5q0 -33 -18 -76l-186 -428h-31z" />
<glyph unicode="#" horiz-adv-x="1527" d="M133 471v96h326l98 299h-324v97h357l170 491l96 -37l-162 -454h316l164 489l96 -35l-160 -454h285v-97h-318l-100 -299h334v-96h-367l-172 -518l-96 33l164 485h-314l-170 -518l-96 33l168 485h-295zM563 567h305l105 299h-309z" />
<glyph unicode="$" horiz-adv-x="1138" d="M43 90l66 313h106l-20 -229l18 -24q115 -53 205 -56l102 533q-161 75 -230 154t-69 188q0 160 125 275t318 132l28 146h84l-26 -146q139 -5 303 -61l-64 -299h-92l10 196l-24 35q-81 32 -152 37l-98 -516q177 -69 251 -148.5t74 -199.5q0 -170 -124.5 -280.5 t-348.5 -139.5l-41 -209h-86l41 209q-218 12 -356 90zM391 1018q0 -74 36.5 -121t125.5 -88l92 475q-121 -26 -187.5 -96t-66.5 -170zM508 94q133 29 201.5 99.5t68.5 177.5q0 79 -39 127.5t-137 89.5z" />
<glyph unicode="%" horiz-adv-x="1744" d="M102 829q0 131 45 258.5t117 204.5q104 107 244 107q113 0 176.5 -77.5t63.5 -213.5q0 -129 -45 -256t-119 -205q-103 -106 -242 -106q-114 0 -177 75.5t-63 212.5zM238 0l1140 1374h125l-1141 -1374h-124zM244 797q0 -94 26.5 -138.5t83.5 -44.5q99 0 168 144 q38 78 61 183t23 202q0 182 -117 182q-93 0 -159 -135q-39 -80 -62.5 -187.5t-23.5 -205.5zM997 264q0 131 45 258.5t117 204.5q107 107 244 107q112 0 175.5 -77t63.5 -214q0 -129 -45 -256t-118 -205q-104 -107 -242 -107q-114 0 -177 76t-63 213zM1139 231 q0 -94 26.5 -138t83.5 -44q99 0 168 144q38 78 61 183t23 202q0 182 -117 182q-93 0 -159 -135q-38 -78 -62 -187t-24 -207z" />
<glyph unicode="&#x26;" horiz-adv-x="1441" d="M41 311q0 133 83.5 237.5t268.5 201.5q-112 158 -112 278q0 155 127 264t307 109q138 0 221.5 -72.5t83.5 -193.5q0 -134 -101.5 -231t-316.5 -167l305 -405q45 42 85.5 103t92.5 163l-24 33l-100 20v86h401v-86l-145 -18q-126 -235 -259 -371q66 -98 145 -140t189 -38 v-82l-145 -8q-35 -2 -45 -2q-76 0 -123 29t-137 131q-212 -175 -447 -175q-157 0 -255.5 93t-98.5 241zM225 373q0 -120 76.5 -197.5t196.5 -77.5q73 0 143 27.5t152 89.5l-353 471q-117 -75 -166 -146.5t-49 -166.5zM434 1075q0 -66 27 -128.5t94 -153.5q152 55 224.5 135 t72.5 190q0 88 -47 139.5t-129 51.5q-101 0 -171.5 -68t-70.5 -166z" />
<glyph unicode="'" horiz-adv-x="673" d="M313 889l84 457q11 57 31 82.5t55 25.5q29 0 46.5 -17t17.5 -46q0 -27 -19 -74l-184 -428h-31z" />
<glyph unicode="(" horiz-adv-x="858" d="M162 274q0 156 39.5 342t103.5 332q127 291 371 436q69 41 126.5 59.5t137.5 26.5l-16 -86q-252 -41 -398 -311q-80 -150 -138 -398.5t-58 -441.5q0 -187 74 -300t214 -138l-16 -86q-201 20 -320.5 173.5t-119.5 391.5z" />
<glyph unicode=")" horiz-adv-x="874" d="M-113 -291l17 86q122 19 223.5 98.5t173.5 212.5q80 150 138.5 398.5t58.5 441.5q0 187 -74.5 300t-214.5 138l16 86q201 -20 321 -173.5t120 -391.5q0 -155 -39.5 -340.5t-104.5 -335.5q-126 -287 -370 -434q-68 -41 -126.5 -59.5t-138.5 -26.5z" />
<glyph unicode="*" d="M203 1169l149 37l195 -143l-12 -25l-263 17zM268 692l35 148l238 166l18 -15l-143 -248zM557 1346l105 124l57 -124l-115 -256h-29zM580 991l24 15l172 -166l-20 -148l-127 53zM623 1065l249 141l136 -37l-115 -114l-266 -17z" />
<glyph unicode="+" horiz-adv-x="1705" d="M244 551v119h538v551h119v-551h541v-119h-541v-551h-119v551h-538z" />
<glyph unicode="," horiz-adv-x="581" d="M-117 -346l13 67q120 22 191.5 96.5t88.5 196.5h-131q-18 30 -18 60q0 63 41 103t106 40q60 0 94.5 -37t34.5 -102q0 -155 -121 -277t-299 -147z" />
<glyph unicode="." horiz-adv-x="569" d="M55 111q0 52 35 87t88 35q51 0 86 -35.5t35 -86.5t-36 -86t-87 -35t-86 35t-35 86z" />
<glyph unicode="/" horiz-adv-x="985" d="M-82 -190l993 1564h115l-993 -1564h-115z" />
<glyph unicode="0" horiz-adv-x="1138" d="M59 449q0 205 68 410.5t180 338.5q171 201 406 201q175 0 273.5 -125t98.5 -346q0 -204 -65.5 -406t-177.5 -336q-169 -211 -404 -211q-180 0 -279.5 125t-99.5 349zM248 393q0 -158 53 -239.5t154 -81.5q98 0 174 69t141 217q56 129 91.5 304.5t35.5 320.5 q0 320 -213 320q-84 0 -157.5 -63.5t-123 -163.5t-86 -222.5t-53 -241t-16.5 -219.5z" />
<glyph unicode="1" horiz-adv-x="1138" d="M137 0v88l223 10l35 37l215 1063l-24 21l-310 -39v82l500 137h51l-256 -1274l21 -31l184 -10v-84h-639z" />
<glyph unicode="2" horiz-adv-x="1138" d="M-45 0l25 129q265 187 366.5 263t194.5 159q173 154 245 273.5t72 254.5q0 100 -59 157.5t-162 57.5q-86 0 -195 -49l-41 -219q-53 -31 -98 -31q-43 0 -69.5 23.5t-26.5 60.5q0 81 70.5 155.5t187 119.5t242.5 45q165 0 258.5 -81t93.5 -224q0 -126 -77.5 -251.5 t-244.5 -271.5q-85 -75 -177 -143.5t-372 -265.5h617l69 174h93l-64 -336h-948z" />
<glyph unicode="3" horiz-adv-x="1138" d="M2 199q0 53 30.5 83.5t82.5 30.5q25 0 71 -14l31 -176q51 -29 88 -40t88 -11q160 0 269.5 105.5t109.5 260.5q0 108 -65.5 167t-186.5 59q-50 0 -121 -9l17 115q33 -2 61 -2q161 0 267 89.5t106 225.5q0 100 -62 160t-165 60q-51 0 -95 -15t-102 -51l-29 -197 q-71 -24 -98 -24q-38 0 -63 27t-25 67q0 75 67.5 142t180 107t237.5 40q163 0 258 -75t95 -204q0 -137 -104.5 -240t-291.5 -149q152 -10 233 -77t81 -183q0 -134 -80.5 -248t-219.5 -181t-302 -67q-157 0 -260 63.5t-103 160.5z" />
<glyph unicode="4" horiz-adv-x="1138" d="M0 397l25 133l862 856h121l-164 -856h229l-26 -133h-230l-90 -473h-158l90 473h-659zM178 530h508l121 633z" />
<glyph unicode="5" horiz-adv-x="1138" d="M23 162q0 52 32.5 85.5t83.5 33.5q7 0 51 -7l54 -174q69 -28 145 -28q163 0 280 113.5t117 271.5q0 129 -89.5 196.5t-258.5 67.5q-44 0 -213 -12l135 665h717l-28 -155h-596l-84 -418q125 35 233 35q170 0 269.5 -87.5t99.5 -236.5q0 -146 -84 -269.5t-228.5 -195.5 t-314.5 -72q-149 0 -235 50.5t-86 136.5z" />
<glyph unicode="6" horiz-adv-x="1138" d="M66 451q0 252 124 483t334 369q187 124 475 163l5 -104q-261 -26 -444.5 -177t-244.5 -392q181 129 353 129q164 0 261 -101.5t97 -273.5q0 -116 -44 -222t-118.5 -182.5t-177.5 -122t-215 -45.5q-189 0 -297 127.5t-108 348.5zM250 430q0 -174 63 -266t183 -92 q148 0 247 125t99 311q0 143 -66.5 217t-193.5 74q-151 0 -293 -111q-39 -132 -39 -258z" />
<glyph unicode="7" horiz-adv-x="1138" d="M92 -76l916 1295h-633l-68 -187h-96l65 342h945l-17 -82l-934 -1323l-8 -45h-170z" />
<glyph unicode="8" horiz-adv-x="1138" d="M25 293q0 264 348 428q-92 51 -131 110t-39 150q0 180 142 302t351 122q161 0 257 -80t96 -215q0 -126 -79.5 -223t-234.5 -160q151 -75 205.5 -139.5t54.5 -165.5q0 -126 -73.5 -230t-202.5 -163.5t-285 -59.5q-186 0 -297.5 88.5t-111.5 235.5zM197 332 q0 -120 76.5 -192t203.5 -72q141 0 237.5 87.5t96.5 215.5q0 114 -115 182q-75 44 -254 123q-133 -78 -189 -157t-56 -187zM375 1030q0 -86 56 -140.5t222 -129.5q114 57 173 143.5t59 194.5q0 100 -57.5 158.5t-157.5 58.5q-124 0 -209.5 -82.5t-85.5 -202.5z" />
<glyph unicode="9" horiz-adv-x="1138" d="M84 -29q267 98 445 242.5t298 359.5q-118 -63 -197 -87.5t-161 -24.5q-152 0 -250 103.5t-98 264.5q0 116 45.5 221.5t122 182t182.5 121.5t223 45q193 0 297.5 -111t104.5 -315q0 -205 -91 -396.5t-262 -345.5q-122 -112 -269.5 -193.5t-352.5 -152.5zM309 872 q0 -138 70.5 -217.5t193.5 -79.5q146 0 299 130q39 171 39 278q0 152 -66 239t-183 87q-95 0 -176.5 -59t-129 -160t-47.5 -218z" />
<glyph unicode=":" horiz-adv-x="569" d="M55 111q0 52 35 87t88 35q51 0 86 -35.5t35 -86.5t-36 -86t-87 -35t-86 35t-35 86zM197 854q0 53 35 88t87 35q51 0 86 -35.5t35 -87.5q0 -51 -35.5 -86t-87.5 -35q-51 0 -85.5 35t-34.5 86z" />
<glyph unicode=";" horiz-adv-x="653" d="M-66 -346l13 67q120 22 191.5 96.5t88.5 196.5h-131q-18 30 -18 60q0 63 41 103t106 40q60 0 94.5 -37t34.5 -102q0 -155 -121 -277t-299 -147zM238 854q0 53 35 88t87 35q51 0 86 -36t35 -87t-35.5 -86t-87.5 -35q-51 0 -85.5 35t-34.5 86z" />
<glyph unicode="&#x3c;" horiz-adv-x="1705" d="M264 559v103l1178 483v-127l-1000 -408l1000 -407v-127z" />
<glyph unicode="=" horiz-adv-x="1705" d="M244 360v119h1198v-119h-1198zM244 741v119h1198v-119h-1198z" />
<glyph unicode="&#x3e;" horiz-adv-x="1705" d="M264 76v127l1000 407l-1000 408v127l1178 -483v-103z" />
<glyph unicode="?" horiz-adv-x="995" d="M193 98q0 49 34 83t84 34q46 0 80.5 -35t34.5 -82t-35 -81.5t-82 -34.5t-81.5 34.5t-34.5 81.5zM211 1182q0 92 99 154.5t245 62.5q167 0 261.5 -78.5t94.5 -218.5q0 -327 -465 -512l-47 -240h-106l57 299q182 65 277.5 176.5t95.5 259.5q0 112 -58.5 163.5t-189.5 56.5 l-123 -203q-23 -2 -41 -2q-47 0 -73.5 22t-26.5 60z" />
<glyph unicode="@" horiz-adv-x="1929" d="M156 500q0 259 120.5 469t333.5 329t475 119q318 0 508.5 -178t190.5 -477q0 -149 -51 -279.5t-146 -224.5q-69 -69 -151 -107t-160 -38q-77 0 -112.5 42t-35.5 134q-90 -91 -160.5 -131.5t-140.5 -40.5q-113 0 -183.5 91.5t-70.5 237.5q0 110 41.5 213.5t110 180 t162.5 122.5t194 46q88 0 203 -56l37 47h111q-15 -37 -48 -176q-16 -78 -48.5 -220.5t-39.5 -174.5q-16 -68 -16 -113q0 -40 22.5 -64t59.5 -24q81 0 157.5 76.5t123.5 201t47 257.5q0 256 -163.5 411.5t-432.5 155.5q-223 0 -405 -104.5t-285 -288.5t-103 -410 q0 -333 202 -536t533 -203q137 0 264.5 36t270.5 114l28 -70q-329 -180 -622 -180q-172 0 -325 59.5t-267 171.5q-229 226 -229 582zM748 469q0 -109 43 -168t122 -59q58 0 109 31.5t111 103.5l84 430l-84 115q-24 4 -56 4q-88 0 -164 -61.5t-120.5 -167t-44.5 -228.5z" />
<glyph unicode="A" horiz-adv-x="1241" d="M-162 0v78l113 10l756 1298h135l221 -1261l33 -37l100 -10v-78h-448v78l120 10l15 31l-64 389h-497l-220 -389l17 -31l125 -10v-78h-406zM373 596h428l-94 590z" />
<glyph unicode="B" horiz-adv-x="1208" d="M-53 0v78l131 10l33 31l217 1136l-21 31l-131 10v78h526q228 0 322 -69q90 -66 90 -191q0 -185 -156 -295q-88 -64 -204 -86v-4q52 -2 111 -16t98 -39q114 -72 114 -232q0 -124 -50.5 -208t-119.5 -130q-153 -104 -448 -104h-512zM287 94q62 -4 114 -4q262 0 379 103 q101 93 101 239q0 114 -72 176q-74 62 -242 62q-27 0 -61.5 -2t-69 -5.5t-41.5 -3.5zM412 756q51 -5 97 -5q206 0 316 109q93 97 93 223q0 137 -105 183q-64 26 -207 26q-44 0 -94 -6z" />
<glyph unicode="C" horiz-adv-x="1236" d="M82 547q0 185 71 349.5t189 277.5q116 112 263.5 168.5t299.5 56.5q179 0 369 -70l-57 -315h-87v196l-16 39q-100 51 -215 51q-114 0 -225.5 -48t-200.5 -150q-95 -109 -144.5 -260t-49.5 -310q0 -215 104 -333q109 -125 326 -125q89 0 172 26l39 35l92 236h86l-56 -324 q-204 -72 -401 -72q-263 0 -414 160q-145 157 -145 412z" />
<glyph unicode="D" horiz-adv-x="1359" d="M-53 0v78l131 10l33 31l217 1136l-21 31l-135 10v78h469q315 0 479 -139q158 -135 158 -387q0 -223 -108.5 -427t-295.5 -310q-195 -111 -495 -111h-432zM287 94h116q139 0 258 42.5t195 115.5q101 96 163 271t62 349q0 205 -108 306q-110 102 -348 102h-113z" />
<glyph unicode="E" horiz-adv-x="1114" d="M-53 0v78l131 10l33 31l217 1136l-21 31l-135 10v78h958l-57 -299h-98v174l-23 31h-440l-98 -520h307l37 28l43 150h90l-86 -449h-86l10 148l-24 29h-310l-108 -572h518l37 33l69 207h95l-66 -334h-993z" />
<glyph unicode="F" horiz-adv-x="1044" d="M-53 0v78l131 10l33 31l217 1136l-21 31l-131 10v78h930l-64 -321h-98v194l-20 33h-412l-104 -541h288l37 31l47 148h90l-88 -451h-86l6 147l-24 31h-289l-98 -526l24 -31l148 -10v-78h-516z" />
<glyph unicode="G" horiz-adv-x="1359" d="M82 545q0 197 87.5 374.5t242.5 299.5q229 180 549 180q176 0 348 -60l-60 -325h-106l4 192l-19 43q-102 51 -204 51q-109 0 -217.5 -44t-198.5 -134q-106 -106 -167.5 -261t-61.5 -326q0 -93 24 -174t71.5 -146.5t127.5 -103t184 -37.5q97 0 217 30l82 435l-20 30 l-138 11v79h504v-79l-131 -13l-35 -28l-94 -492q-238 -72 -428 -72q-279 0 -436 189q-125 150 -125 381z" />
<glyph unicode="H" horiz-adv-x="1458" d="M-53 0v78l131 10l33 31l217 1136l-21 31l-131 10v78h500v-78l-135 -10l-33 -31l-94 -489h663l94 489l-20 31l-131 10v78h500v-78l-136 -10l-32 -31l-217 -1136l24 -31l131 -10v-78h-499v78l131 10l32 31l105 553h-664l-104 -553l24 -31l131 -10v-78h-499z" />
<glyph unicode="I" horiz-adv-x="638" d="M-41 0v78l131 10l33 31l217 1136l-21 31l-131 10v78h500v-78l-135 -10l-33 -31l-217 -1136l25 -31l131 -10v-78h-500z" />
<glyph unicode="J" horiz-adv-x="905" d="M-86 25l68 344h102v-258l27 -29q33 -8 67 -8q105 0 162 55q45 42 75.5 129t63.5 258l142 739l-23 31l-131 10v78h500v-78l-133 -10l-33 -31l-142 -739q-19 -101 -37 -170.5t-57 -148.5t-92 -125q-108 -97 -303 -97q-147 0 -256 50z" />
<glyph unicode="K" horiz-adv-x="1290" d="M-53 0v78l131 10l33 31l217 1136l-21 31l-131 10v78h500v-78l-135 -10l-33 -31l-107 -559h56l563 555l-12 35l-144 10v78h496v-78l-170 -16l-539 -526l291 -566q31 -65 72 -88q10 -6 22 -10.5t21 -7t23.5 -3.5t21.5 -1h22h19h41v-78q-94 -8 -162 -8q-34 0 -60.5 1 t-48.5 6t-36.5 8.5t-29 14t-22.5 17.5t-19.5 24.5t-17.5 28.5t-19 36q-5 8 -7 13l-238 469h-139l-94 -491l24 -31l131 -10v-78h-499z" />
<glyph unicode="L" d="M-53 0v78l131 10l33 31l217 1136l-21 31l-131 10v78h500v-78l-135 -10l-33 -31l-221 -1161h432l37 33l80 246h98l-72 -373h-915z" />
<glyph unicode="M" horiz-adv-x="1720" d="M-53 0v78l131 10l33 31l217 1136l-21 31l-131 10v78h416v-55l186 -1043l574 1035v63h430v-78l-135 -10l-33 -31l-217 -1136l24 -31l131 -10v-78h-483v78l129 10l35 31l219 1149l-707 -1268h-90l-221 1262l-209 -1143l27 -31l121 -10v-78h-426z" />
<glyph unicode="N" horiz-adv-x="1404" d="M-66 0v78l132 10l32 31l217 1136l-20 31l-131 10v78h352v-51l490 -1038l186 970l-21 31l-131 10v78h435v-78l-136 -10l-32 -31l-238 -1255h-119l-542 1139l-195 -1020l25 -31l131 -10v-78h-435z" />
<glyph unicode="O" horiz-adv-x="1449" d="M82 543q0 122 33 244t98.5 232t155 195t210 135t255.5 50q203 0 344 -117q190 -159 190 -446q0 -214 -92.5 -411.5t-257.5 -318.5q-179 -131 -393 -131q-231 0 -385 150q-158 158 -158 418zM279 528q0 -190 77 -309q51 -78 124.5 -111.5t150.5 -33.5q228 0 385 243 q71 111 113 250t42 281q0 202 -91.5 327t-262.5 125q-94 0 -193 -54.5t-180 -168.5q-82 -115 -123.5 -264t-41.5 -285z" />
<glyph unicode="P" horiz-adv-x="1118" d="M-53 0v78l131 10l33 31l217 1136l-21 31l-131 10v78h436q242 0 342 -51q164 -86 164 -287q0 -110 -44.5 -204t-123.5 -164q-177 -152 -473 -152q-56 0 -110 4l-76 -401l24 -31l131 -10v-78h-499zM385 618q36 -4 78 -4q123 0 219.5 36.5t151.5 99.5q92 102 92 268 q0 139 -88 207q-78 59 -232 59q-48 0 -94 -4z" />
<glyph unicode="Q" horiz-adv-x="1449" d="M82 543q0 122 33 244t98.5 232t155 195t210 135t255.5 50q203 0 344 -117q190 -159 190 -446q0 -147 -44 -288t-126 -257q-114 -163 -285 -248q25 -54 70 -120.5t86 -98.5q55 -41 141 -41q97 0 224 53v-69q-186 -95 -336 -95q-174 0 -281 158q-48 70 -82 156 q-68 -11 -117 -11q-228 0 -378 150q-158 158 -158 418zM279 528q0 -190 77 -309q51 -78 124.5 -111.5t150.5 -33.5q228 0 385 243q71 111 113 250t42 281q0 202 -91.5 327t-262.5 125q-94 0 -193 -54.5t-180 -168.5q-82 -115 -123.5 -264t-41.5 -285z" />
<glyph unicode="R" horiz-adv-x="1241" d="M-53 0v78l131 10l33 31l217 1136l-21 31l-131 10v78h504q205 0 307 -59q127 -73 127 -238q0 -189 -143 -307q-16 -14 -42 -31.5t-90.5 -45.5t-133.5 -40v-4q42 -8 76.5 -27.5t55 -41t37 -49t23.5 -46.5t12 -39l37 -133q14 -50 25.5 -81.5t32.5 -67.5t47 -53 q27 -20 75 -29q31 -6 60 -6q16 0 31 2v-78q-125 -10 -148 -10q-166 0 -233 92q-34 46 -64 174l-37 164q-21 96 -69 139q-26 24 -61.5 37t-56.5 14.5t-54 1.5h-109l-94 -493l24 -31l131 -10v-78h-499zM403 707q50 -5 64 -5q208 0 321 82q130 94 130 260q0 113 -70 175 q-72 62 -256 62q-37 0 -80 -3z" />
<glyph unicode="S" horiz-adv-x="1101" d="M20 70l68 325h107l-21 -235l21 -27q111 -59 233 -59q162 0 258 92q86 86 86 196q0 33 -6 60t-20.5 49t-27.5 36.5t-40 31t-44.5 26t-54 26.5t-55.5 27q-125 63 -188.5 110t-93.5 93q-41 65 -41 152t42 176.5t138 155.5q136 94 356 94q138 0 312 -62l-66 -311h-90l8 203 l-24 37q-74 34 -177 34q-146 0 -231 -71q-45 -37 -68.5 -90.5t-23.5 -110.5q0 -27 4.5 -50.5t15.5 -43.5t20.5 -35.5t30 -31.5t33.5 -25.5t40.5 -23.5t41.5 -20.5t46.5 -21t45.5 -20.5q53 -24 87 -41.5t78.5 -49t69.5 -63.5t43.5 -80.5t18.5 -105.5q0 -183 -143 -307 q-157 -134 -412 -134q-203 0 -377 95z" />
<glyph unicode="T" horiz-adv-x="1155" d="M102 1067l58 307h1102l-62 -307h-110l8 182l-23 31h-291l-221 -1161l25 -31l131 -10v-78h-500v78l131 10l33 31l221 1161h-291l-34 -31l-66 -182h-111z" />
<glyph unicode="U" horiz-adv-x="1351" d="M131 315q0 65 25 195l145 745l-20 31l-131 10v78h499v-78l-135 -10l-33 -31l-145 -745q-21 -113 -21 -152q0 -109 56 -174q73 -86 235 -86q211 0 318 142q68 95 102 270l141 745l-20 31l-131 10v78h426v-78l-131 -10l-33 -31l-145 -763q-50 -264 -177 -381 q-152 -136 -401 -136q-221 0 -328 95q-96 84 -96 245z" />
<glyph unicode="V" horiz-adv-x="1208" d="M61 1296v78h428v-78l-112 -10l-15 -31l160 -1067l555 1067l-16 31l-119 10v78h385v-78l-108 -12l-703 -1294h-127l-199 1259l-32 37z" />
<glyph unicode="W" horiz-adv-x="1839" d="M102 1296v78h439v-78l-117 -10l-16 -31l77 -964l508 1083h133l115 -1098l449 979l-17 31l-121 10v78h394v-78l-119 -12l-600 -1284h-117l-121 1124l-522 -1124h-129l-102 1249l-35 37z" />
<glyph unicode="X" horiz-adv-x="1167" d="M-172 0v78l125 10l43 31l510 577l-246 559l-24 31l-127 10v78h497v-78l-135 -10l-31 -31l183 -424l374 424l-12 31l-117 10v78h426v-78l-143 -10l-481 -549l270 -618l29 -31l123 -10v-78h-496v78l133 10l33 31l-201 471l-422 -471l21 -31l133 -10v-78h-465z" />
<glyph unicode="Y" horiz-adv-x="1146" d="M61 1296v78h498v-78l-133 -10l-31 -31l180 -579l429 579l-21 31l-131 10v78h459v-78l-135 -10l-33 -31l-520 -680l-86 -456l24 -31l131 -10v-78h-499v78l131 10l32 31l86 438l-227 698l-20 31z" />
<glyph unicode="Z" horiz-adv-x="1138" d="M-53 0l16 86l967 1190h-510l-45 -27l-70 -192h-106l61 317h911l-16 -86l-969 -1190h582l29 29l80 244h102l-70 -371h-962z" />
<glyph unicode="[" horiz-adv-x="862" d="M100 -270l330 1720h485l-16 -88h-324l-296 -1546h323l-16 -86h-486z" />
<glyph unicode="\" horiz-adv-x="985" d="M72 1374h114l813 -1564h-114z" />
<glyph unicode="]" horiz-adv-x="862" d="M-84 -270l16 88h324l297 1546h-324l17 86h485l-330 -1720h-485z" />
<glyph unicode="^" horiz-adv-x="2048" d="M412 897l522 565h178l520 -565h-92l-518 436l-520 -436h-90z" />
<glyph unicode="_" d="M0 -164h1024v-119h-1024v119z" />
<glyph unicode="`" d="M344 1507h203l123 -389h-103z" />
<glyph unicode="a" horiz-adv-x="1093" d="M41 340q0 139 50.5 270.5t150.5 227.5q157 151 381 151q94 0 184 -47l41 45h106q-12 -29 -21 -56.5t-17.5 -62t-12.5 -51.5t-13.5 -63t-12.5 -60l-74 -362q-21 -115 -21 -137q0 -51 27 -78q25 -25 72 -25q45 0 127 27v-62q-153 -75 -252 -75q-39 0 -65 14t-42 49 q-19 43 -19 91q0 9 1 18q-57 -63 -113 -101q-95 -71 -199 -71q-148 0 -223 124q-55 90 -55 234zM213 356q0 -106 29 -157q24 -48 64.5 -69t82.5 -21q111 0 244 133l106 540l-82 123q-18 2 -36 2q-70 0 -137 -31q-84 -39 -140 -106q-60 -71 -95.5 -185t-35.5 -229z" />
<glyph unicode="b" horiz-adv-x="1036" d="M49 72l240 1290l-178 31v53l311 61h67q-29 -82 -47 -188l-88 -481q59 51 142 100q87 51 163 51q118 0 191 -96q76 -100 76 -260q0 -267 -164 -459q-166 -192 -410 -192q-165 0 -303 90zM223 147q37 -39 85 -61.5t93 -22.5q26 0 54 6.5t78 39.5t92 90q62 83 95.5 195 t33.5 224q0 122 -49 185q-47 59 -119 59q-50 0 -115 -28q-1 -1 -15 -8t-43.5 -24.5t-72.5 -43.5z" />
<glyph unicode="c" horiz-adv-x="819" d="M41 356q0 259 162 447q80 92 179 139t193 47q92 0 143.5 -41t51.5 -98q0 -49 -38 -80t-91 -33l-119 158q-134 -9 -217 -131q-48 -71 -70 -176.5t-22 -198.5q0 -118 43 -196q50 -84 150 -84q96 0 186 57q66 38 137 106v-94q-74 -78 -178 -137t-209 -59q-146 0 -227 112 q-74 103 -74 262z" />
<glyph unicode="d" horiz-adv-x="1101" d="M41 344q0 158 59 288.5t162 221.5q156 135 342 135q77 0 162 -28l72 411l-181 17v57l314 61h53l-211 -1177q-18 -99 -18 -133q0 -46 22.5 -75.5t71.5 -29.5q43 0 127 27v-62q-73 -36 -160 -59q-67 -16 -100 -16q-79 0 -111 63q-19 35 -19 86q0 19 3 41q-46 -61 -109 -111 q-102 -79 -211 -79q-132 0 -205 112q-63 97 -63 250zM213 360q0 -106 33 -165q46 -86 141 -86q117 0 258 163l90 514l-98 115q-28 7 -55 7q-52 0 -103 -26q-77 -38 -131 -106q-65 -78 -100 -188t-35 -228z" />
<glyph unicode="e" horiz-adv-x="872" d="M41 350q0 85 24 175t70.5 172.5t109 148t147.5 104.5t177 39q94 0 151.5 -54.5t57.5 -143.5q0 -67 -32.5 -122t-86 -91.5t-128 -62.5t-150.5 -40t-162 -20q-6 -41 -6 -84q0 -74 18.5 -133t67 -100.5t121.5 -41.5q55 0 102.5 13t93 43t69 49.5t69.5 60.5v-94 q-186 -186 -396 -186q-74 0 -131.5 25t-91.5 63.5t-56 89.5t-30 97t-8 93zM229 524q96 4 186 35t153 91.5t63 137.5q0 52 -30.5 85.5t-76.5 33.5q-12 0 -24.5 -1.5t-36.5 -10t-45.5 -23t-49 -43t-51 -67.5t-47 -100.5t-41.5 -137.5z" />
<glyph unicode="f" horiz-adv-x="598" d="M-309 -342q0 57 45 86l213 -55q22 26 40.5 58.5t32 60t26.5 72t19.5 69t16.5 77.5t13 72t11.5 78t10.5 72l86 592l-135 -15v68l155 63q24 121 63.5 217.5t84.5 156t97 99t98 55t91 15.5q68 0 117 -32.5t49 -90.5q0 -42 -29.5 -68.5t-70.5 -35.5l-168 137 q-74 -54 -123 -209q-37 -118 -61 -270h289v-90h-306l-82 -586q-21 -154 -64 -279t-93 -201.5t-109 -127.5t-110 -71.5t-97 -20.5q-54 0 -82 31t-28 73z" />
<glyph unicode="g" horiz-adv-x="983" d="M-70 -174q0 51 19 94.5t46.5 72.5t67.5 54t72 38t70 26q-2 12 -2 34q0 105 82 199q-33 15 -53.5 26t-49.5 33t-45 46t-28.5 63t-12.5 86q0 48 13.5 99t44.5 104t75.5 94.5t113.5 67.5t151 26q106 0 192 -51h293v-90h-211q27 -59 27 -133q0 -51 -13 -102.5t-44.5 -103 t-78 -91t-119 -64t-161.5 -24.5h-25q-26 -49 -26 -107v-14l325 -148q160 -73 160 -198q0 -27 -14 -63t-51 -80t-90.5 -80.5t-142.5 -61t-198 -24.5q-97 0 -174.5 25.5t-122 66.5t-67.5 87t-23 93zM94 -131q0 -106 74.5 -170t206.5 -64q131 0 206.5 59t75.5 124 q0 46 -31.5 76t-84.5 55l-260 121q-83 -19 -135 -70t-52 -131zM260 573q0 -73 32 -123.5t101 -50.5q106 0 174 107q64 98 64 219q0 58 -14.5 98t-38 57.5t-43.5 24t-41 6.5q-94 0 -164 -102.5t-70 -235.5z" />
<glyph unicode="h" horiz-adv-x="1130" d="M49 0l283 1372l-191 21v53l320 61h63q-33 -121 -82 -362l-71 -354q56 47 92.5 74.5t89.5 60t105.5 48t107.5 15.5q95 0 134.5 -45.5t39.5 -132.5q0 -37 -29 -178l-69 -301q-23 -103 -23 -137q0 -44 27.5 -73.5t71.5 -29.5t126 27v-62q-153 -75 -256 -75q-145 0 -145 129 q0 38 16 110l89 379q18 81 18 135t-26.5 90.5t-77.5 36.5q-36 0 -75 -12.5t-64.5 -25t-66 -44t-52.5 -42t-52 -46.5l-131 -692h-172z" />
<glyph unicode="i" horiz-adv-x="585" d="M66 868v54l303 65h53l-148 -764q-6 -30 -6 -47q0 -84 88 -84q68 0 162 27v-62q-176 -75 -282 -75q-138 0 -138 141q0 42 13 104l122 611zM299 1331q0 46 32.5 78.5t78.5 32.5t78 -32.5t32 -78.5t-32 -78t-78 -32t-78.5 32t-32.5 78z" />
<glyph unicode="j" horiz-adv-x="552" d="M-262 -340q0 52 45 84l213 -55q50 50 96 205q38 131 70 350l92 612l-201 25v53l332 53h53l-114 -729q-28 -169 -53.5 -261t-84.5 -187q-40 -64 -87 -117.5t-116 -96t-137 -42.5q-59 0 -83.5 33.5t-24.5 72.5zM291 1331q0 46 32 78.5t78 32.5t78.5 -32.5t32.5 -78.5 t-32.5 -78t-78.5 -32t-78 32t-32 78z" />
<glyph unicode="k" horiz-adv-x="1048" d="M49 0l277 1393h-189v53l326 61h53l-217 -1020l377 392q105 110 182 110q47 0 81 -31.5t34 -74.5t-34 -78.5t-79 -48.5l-74 80q-72 -51 -264 -222q114 -264 187 -383q17 -26 31.5 -44.5t39.5 -43t56.5 -38t66.5 -13.5q50 0 105 14v-61q-174 -55 -244 -55q-58 0 -103 37 t-86 120l-174 353l-114 -107l-66 -393h-172z" />
<glyph unicode="l" horiz-adv-x="577" d="M70 135q0 24 3.5 55t7.5 53t11 59t10 52l201 1018l-182 21v53l313 61h53l-231 -1163q-23 -109 -23 -160q0 -17 3 -30.5t12.5 -31.5t34 -28t61.5 -10q54 0 148 35v-62q-4 -2 -26.5 -11.5t-31.5 -13t-31 -12t-34.5 -12.5t-34 -10t-37.5 -8.5t-36 -5t-38 -2.5 q-46 0 -78.5 14.5t-47.5 39.5t-21 48.5t-6 50.5z" />
<glyph unicode="m" horiz-adv-x="1671" d="M61 0l168 838l-168 30v54l304 65h53l-39 -194q121 104 228 150t165 46q70 0 115 -50t45 -138q64 55 131.5 95.5t118.5 58.5t83 26t46 8q24 0 49 -7.5t53 -25.5t46 -57t18 -94q0 -49 -25 -164l-70 -309q-22 -99 -22 -137q0 -44 27.5 -73.5t70.5 -29.5q45 0 127 27v-62 q-153 -75 -256 -75q-145 0 -145 129q0 49 16 110l86 379q19 87 19 135q0 51 -25 89t-78 38q-73 0 -139 -43t-135 -123l-133 -696h-172l122 600q19 90 19 141q0 56 -30.5 88.5t-74.5 32.5q-39 0 -120.5 -40.5t-178.5 -127.5l-127 -694h-172z" />
<glyph unicode="n" horiz-adv-x="1138" d="M61 0l168 838l-168 30v54l304 65h53l-39 -196q56 47 92.5 74.5t89.5 60t105.5 48t107.5 15.5q95 0 134.5 -45.5t39.5 -132.5q0 -41 -28 -178l-70 -301q-23 -103 -23 -137q0 -44 27.5 -73.5t71.5 -29.5q45 0 127 27v-62q-153 -75 -256 -75q-146 0 -146 129q0 33 17 110 l88 379q18 81 18 135t-26.5 90.5t-77.5 36.5q-36 0 -75 -12.5t-64.5 -25t-66 -44t-52.5 -42t-52 -46.5l-127 -692h-172z" />
<glyph unicode="o" d="M41 375q0 115 40.5 232t115.5 206q78 91 174 133.5t192 42.5q157 0 248 -100q102 -110 102 -297q0 -119 -44.5 -240.5t-127.5 -210.5q-148 -159 -354 -159q-155 0 -252 106q-94 106 -94 287zM213 377q0 -88 20 -153.5t52 -98t64 -47.5t63 -15q55 0 114.5 33.5 t108.5 104.5q56 80 81 185.5t25 209.5q0 84 -14.5 144.5t-34.5 92t-50 49t-52 21.5t-49 4q-62 0 -127.5 -40.5t-116.5 -131.5q-84 -150 -84 -358z" />
<glyph unicode="p" horiz-adv-x="1064" d="M-131 -385l121 25l20 22l211 1176l-168 30v54l303 65h54l-25 -125q115 73 167 95q76 32 142 32q67 0 118 -28t81.5 -77t45.5 -112t15 -137q0 -278 -174 -461q-71 -75 -170.5 -128.5t-216.5 -53.5q-82 0 -160 39l-67 -381l194 -35v-61h-491v61zM254 137q92 -55 170 -55 q141 0 231 123q55 73 91 189t36 222q0 32 -4.5 64t-17.5 68t-33 63t-54 45t-77 18q-39 0 -82 -17t-70 -34.5t-73 -50.5z" />
<glyph unicode="q" horiz-adv-x="1044" d="M41 344q0 140 48.5 263.5t129.5 211.5q161 170 371 170q102 0 196 -43l54 51h98q-16 -57 -25 -110l-211 -1233l197 -35v-65h-504v65l125 25l23 24l82 473q-41 -39 -68.5 -62t-67 -48.5t-81.5 -37t-91 -11.5q-126 0 -202 100q-74 94 -74 262zM213 360q0 -110 46 -180.5 t138 -70.5q122 0 242 120l98 555l-102 121q-12 2 -33 2q-75 0 -140.5 -35.5t-110 -92.5t-76.5 -129.5t-47 -146.5t-15 -143z" />
<glyph unicode="r" horiz-adv-x="819" d="M61 0l168 838l-168 30v54l304 65h41l-66 -280q64 96 162 184q33 29 57 46.5t64.5 34.5t81.5 17q54 0 84 -29.5t30 -82.5q0 -62 -40.5 -95.5t-100.5 -33.5h-10l-54 110q-127 -55 -188 -121q-81 -86 -111 -256l-82 -481h-172z" />
<glyph unicode="s" horiz-adv-x="757" d="M-33 160q0 52 31 80t74 28q45 0 90 -39l-37 -102q54 -72 147 -72q72 0 128.5 46.5t56.5 123.5q0 32 -10 59t-33 52t-38.5 38t-48.5 37q-4 3 -6.5 5t-5.5 4q-117 89 -155.5 136t-38.5 118q0 29 10 66.5t36.5 82t64.5 81t100.5 61t138.5 24.5q97 0 145 -40.5t48 -88.5 q0 -39 -32 -71.5t-87 -32.5l-86 118q-33 23 -66 23q-59 0 -100 -40t-41 -97q0 -18 4 -34t14 -31.5t17.5 -26.5t25.5 -27t27.5 -23.5t33 -25.5t32.5 -25q132 -103 169 -153t37 -113q0 -145 -108 -233q-52 -42 -124.5 -64t-146.5 -22q-126 0 -196 50.5t-70 127.5z" />
<glyph unicode="t" horiz-adv-x="684" d="M90 170q0 62 16 139l107 555l-123 -10v61l150 66l102 205h94l-43 -234h295v-90h-311l-107 -545q-12 -64 -12 -94q0 -123 125 -123q84 0 195 39v-61q-65 -30 -100 -45t-101 -33t-121 -18q-74 0 -120 50.5t-46 137.5z" />
<glyph unicode="u" horiz-adv-x="1155" d="M70 868v54l323 69l33 -28l-129 -598q-23 -102 -23 -150q0 -60 34.5 -88.5t80.5 -28.5q73 0 141.5 33.5t153.5 97.5l156 742h164l-138 -631q-22 -102 -22 -145q0 -44 27.5 -73.5t70.5 -29.5q45 0 127 27v-62q-153 -75 -258 -75q-137 0 -137 139q0 23 2 33 q-78 -69 -179 -120.5t-194 -51.5q-86 0 -141.5 45.5t-55.5 146.5q0 37 17 125l119 541z" />
<glyph unicode="v" horiz-adv-x="929" d="M-16 872v54l206 67h9q49 0 76.5 -16t46.5 -66.5t28 -148.5l53 -563q222 274 314 506l-39 249q45 39 104 39q48 0 77.5 -29t29.5 -81q0 -72 -68 -204.5t-145.5 -244t-143.5 -190.5l-204 -244h-99q29 69 29 141q0 18 -4 68l-51 481q-4 40 -8 63t-17.5 55t-36.5 56z" />
<glyph unicode="w" horiz-adv-x="1458" d="M0 868v54l236 71l71 -4l45 -807q10 18 45 83t44 81.5t38.5 71.5t39 74.5t34.5 67.5t36.5 73t33 69t36 77.5t33.5 76t37 86.5l123 14q17 -347 55 -802l101 137q160 220 231 414l-41 239q40 45 105 45q34 0 57.5 -12.5t33 -32.5t12.5 -35t3 -30q0 -91 -92.5 -261t-203 -322 t-230.5 -296h-119l-49 715q-55 -108 -177.5 -334t-213.5 -381h-134l-38 45v807z" />
<glyph unicode="x" horiz-adv-x="978" d="M-96 92q0 44 29.5 73t72.5 32l94 -88q80 50 158 158t127 225q-28 110 -69.5 212.5t-86.5 143.5l-170 20v54l207 69q10 2 27 2q46 0 73 -25.5t46 -66.5q34 -69 94 -321q47 96 96 171t90 118.5t81 71.5t69 38t55 10q51 0 84 -30.5t33 -77.5q0 -42 -28 -75t-73 -44l-88 80 q-146 -54 -274 -350q50 -183 90 -285q11 -26 21.5 -43.5t27.5 -36.5t40.5 -29t53.5 -10t107 18v-61q-144 -59 -225 -59q-38 0 -70 15t-55 45.5t-39.5 60.5t-30 77t-20 75.5t-15.5 76.5t-12 61q-32 -73 -71.5 -141t-90 -132.5t-110.5 -103t-119 -38.5t-94 28.5t-35 81.5z" />
<glyph unicode="y" horiz-adv-x="970" d="M-231 -311q0 45 32 75.5t76 36.5l121 -120q59 11 108 39.5t92 79t76 102.5t76 131l-131 622q-31 148 -78 213l-174 13v53l201 59q8 2 27 2q80 0 120 -86q26 -60 84 -354l68 -346q157 401 321 778h39l162 -53v-43l-104 -62q-68 -87 -114.5 -170.5t-119.5 -242.5 q-128 -270 -186 -376q-226 -407 -448 -473q-44 -13 -89 -13q-72 0 -115.5 38.5t-43.5 96.5z" />
<glyph unicode="z" horiz-adv-x="901" d="M-29 39l705 790l-203 -45q-117 60 -180 60q-83 0 -129 -66l108 -131q-10 -24 -34 -44.5t-62 -20.5q-32 0 -53.5 14t-29.5 36.5t-10.5 37.5t-2.5 30q0 118 96 211q80 78 184 78q45 0 154.5 -51t147.5 -51q30 0 63 16l39 101l125 -66l-707 -788l199 51q162 -68 213 -68 q68 0 123 74l-113 125q38 74 98 74q41 0 71 -32t30 -89q0 -106 -82 -195q-87 -94 -209 -94q-18 0 -36 3t-37 9t-31 10t-32 12.5t-26 10.5q-108 43 -155 43q-29 0 -62 -18l-49 -89z" />
<glyph unicode="{" horiz-adv-x="995" d="M106 549l17 90q27 -2 57 -2q132 0 198 59t95 205l41 209q34 175 142 252.5t319 77.5h26l-14 -76q-150 -3 -216.5 -56t-92.5 -190l-33 -166q-34 -169 -106.5 -246.5t-229.5 -111.5q114 -28 163.5 -82t49.5 -150q0 -46 -12 -114l-33 -170q-20 -108 -20 -148 q0 -63 54.5 -93.5t172.5 -31.5l-16 -79q-215 0 -293 44t-78 169q0 58 20 161l35 174q13 73 13 109q0 95 -48.5 130.5t-177.5 35.5h-33z" />
<glyph unicode="|" d="M449 -483v2048h126v-2048h-126z" />
<glyph unicode="}" horiz-adv-x="995" d="M-39 -274l14 79q85 2 135.5 13t87 43t56 81.5t35.5 135.5l33 170q29 154 106.5 234t228.5 112q-109 23 -161 77.5t-52 143.5q0 48 17 137l33 166q12 70 12 101q0 72 -54.5 107t-172.5 38l14 76h24q183 0 266 -55.5t83 -178.5q0 -45 -11 -96l-41 -209q-14 -74 -14 -110 q0 -154 199 -154q18 0 61 2l-16 -90h-41q-146 0 -214 -60.5t-97 -214.5l-33 -174q-29 -148 -79 -227t-137.5 -113t-238.5 -34h-43z" />
<glyph unicode="~" horiz-adv-x="1705" d="M176 461v133q121 78 210 111.5t179 33.5q69 0 133 -16t226 -74q130 -49 217 -49q88 0 173.5 34.5t213.5 123.5v-131q-113 -77 -203 -110.5t-184 -33.5q-61 0 -116 13.5t-187 60.5q-176 64 -275 64q-86 0 -171 -35.5t-216 -124.5z" />
<glyph unicode="&#xa2;" horiz-adv-x="1138" d="M86 393q0 240 147.5 412.5t391.5 218.5l39 207h92l-39 -203h28q86 0 141.5 -9.5t119.5 -35.5l-43 -231h-109l10 145q-75 41 -164 41l-161 -844q98 0 180 39l45 152h108l-47 -240q-128 -45 -247 -45q-31 0 -58 2l-39 -203h-92l39 207q-166 28 -254 127t-88 260zM260 399 q0 -120 47.5 -196.5t138.5 -104.5l160 832q-157 -49 -251.5 -194.5t-94.5 -336.5z" />
<glyph unicode="&#xa3;" horiz-adv-x="1138" d="M-43 0v117q152 32 222.5 139.5t111.5 368.5h-144v94h160q37 334 179 507t378 173q113 0 184.5 -42t71.5 -108q0 -52 -38 -82t-126 -47l-92 178h-4q-161 0 -246 -129.5t-135 -449.5h377v-94h-395q-53 -338 -295 -475l2 -5q104 11 141 11h609v-156h-961z" />
<glyph unicode="&#xa5;" horiz-adv-x="1138" d="M4 483v84h449l-70 211h-320v84h285l-127 395l-106 21v82h440v-82l-125 -12l-22 -23l178 -553l411 537l-12 28l-98 23v82h375v-82l-123 -25l-297 -391h280v-84h-354l-158 -211h455v-84h-465l-68 -362l29 -29l137 -10v-82h-522v92h150l43 29l67 362h-432z" />
<glyph unicode="&#xa8;" d="M342 1315q0 41 30.5 71.5t71.5 30.5t72 -30.5t31 -71.5t-31 -72t-72 -31t-71.5 31t-30.5 72zM727 1315q0 41 30.5 71.5t71.5 30.5t72 -30.5t31 -71.5t-31 -72t-72 -31t-71.5 31t-30.5 72z" />
<glyph unicode="&#xa9;" horiz-adv-x="1843" d="M133 696q0 159 62 304.5t167.5 252.5t252 170.5t307.5 63.5t307.5 -63.5t251.5 -170.5t167 -252.5t62 -304.5t-62 -304.5t-167 -252t-251.5 -170t-307.5 -63.5t-307.5 63.5t-252 170t-167.5 252t-62 304.5zM223 696q0 -188 92 -350.5t253.5 -260t353.5 -97.5 q144 0 274.5 57.5t222.5 154t146.5 226.5t54.5 270q0 188 -91.5 350.5t-253 260.5t-353.5 98q-144 0 -274.5 -58t-223 -154t-147 -226.5t-54.5 -270.5zM449 692q0 216 140 350t369 134q139 0 285 -48v-245h-88l-31 153q-71 45 -151 45q-82 0 -148.5 -31.5t-109 -85.5 t-65.5 -124t-23 -148q0 -178 98.5 -282.5t226.5 -104.5q78 0 176 39l27 172h88v-256q-144 -51 -297 -51q-221 0 -359 133.5t-138 349.5z" />
<glyph unicode="&#xab;" horiz-adv-x="905" d="M27 410l30 163l389 273l-26 -135l-283 -219l199 -222l-27 -133zM430 410l31 163l389 273l-27 -135l-282 -219l198 -222l-26 -133z" />
<glyph unicode="&#xae;" horiz-adv-x="1843" d="M133 696q0 159 62 304.5t167.5 252.5t252 170.5t307.5 63.5t307.5 -63.5t251.5 -170.5t167 -252.5t62 -304.5t-62 -304.5t-167 -252t-251.5 -170t-307.5 -63.5t-307.5 63.5t-252 170t-167.5 252t-62 304.5zM223 696q0 -188 92 -350.5t253.5 -260t353.5 -97.5 q144 0 274.5 57.5t222.5 154t146.5 226.5t54.5 270q0 188 -91.5 350.5t-253 260.5t-353.5 98q-144 0 -274.5 -58t-223 -154t-147 -226.5t-54.5 -270.5zM504 1077v70h432q332 0 332 -221q0 -183 -248 -234q52 -8 89.5 -28.5t56.5 -47.5t34.5 -59t23.5 -64t23 -62t33 -52.5 t53.5 -36.5t85.5 -14h21v-74q-78 -16 -121 -16q-50 0 -90.5 14.5t-65 33.5t-45.5 52.5t-30 56t-21 58.5q-18 53 -32 83t-39 59t-61.5 41.5t-90.5 12.5q-22 0 -68 -4v-307l129 -14v-76h-391v74l109 14v721zM776 727h49q37 0 63.5 1.5t67 11t66.5 26t45.5 50t19.5 79.5 q0 89 -64.5 132.5t-178.5 43.5q-43 0 -68 -2v-342z" />
<glyph unicode="&#xb4;" d="M545 1118l272 389h203l-375 -389h-100z" />
<glyph unicode="&#xb8;" d="M127 -426l14 72q59 -15 117 -15q24 0 49 5t50 16t41 31.5t16 48.5q0 61 -86 61q-21 0 -45 -4l43 221h73l-24 -127q24 4 43 4q52 0 90.5 -28t38.5 -86q0 -24 -8 -51t-28.5 -58t-51 -55.5t-81 -41t-112.5 -16.5q-61 0 -139 23z" />
<glyph unicode="&#xbb;" horiz-adv-x="905" d="M-12 137l24 133l283 222l-197 219l25 135l285 -273l-31 -163zM391 137l25 133l282 222l-196 219l24 135l285 -273l-31 -163z" />
<glyph unicode="&#x2c6;" d="M317 1118l299 389h134l151 -389h-113l-124 289l-234 -289h-113z" />
<glyph unicode="&#x2da;" d="M426 1362q0 94 63.5 157.5t157.5 63.5t157.5 -63.5t63.5 -157.5t-63.5 -157.5t-157.5 -63.5t-157.5 63.5t-63.5 157.5zM512 1362q0 -56 40 -95.5t95 -39.5t95 39.5t40 95.5t-40 95.5t-95 39.5t-95 -39.5t-40 -95.5z" />
<glyph unicode="&#x2dc;" d="M297 1174q8 64 33.5 117.5t73.5 90.5t110 37q39 0 66 -10t63 -31l49 -28l12 -7l19.5 -10.5t18.5 -9t23 -8t21 -2.5q83 0 103 137h86q-11 -104 -74 -175t-147 -71q-66 0 -146 45l-37 21q-66 37 -94 37q-80 0 -92 -133h-88z" />
<glyph unicode="&#x401;" horiz-adv-x="1114" d="M-53 0v78l131 10l33 31l217 1136l-21 31l-131 10v78h954l-57 -299h-98v174l-23 31h-440l-98 -520h307l37 28l43 150h90l-86 -449h-76v148l-24 29h-310l-108 -572h518l37 33l69 207h95l-66 -334h-993zM438 1675q0 41 31 72t72 31t71.5 -31t30.5 -72t-30.5 -71.5 t-71.5 -30.5t-72 30.5t-31 71.5zM823 1675q0 41 31 72t72 31t71.5 -31t30.5 -72t-30.5 -71.5t-71.5 -30.5t-72 30.5t-31 71.5z" />
<glyph unicode="&#x402;" horiz-adv-x="1441" d="M102 1067l58 307h1102l-62 -307h-110l8 182l-23 31h-311l-102 -535q178 48 319 48q193 0 285 -109q73 -89 73 -240q0 -232 -149 -366q-115 -103 -289 -103q-103 0 -196 50l57 297h94v-211l27 -29q32 -8 57 -8q44 0 87 29t71 85q45 86 45 240q0 138 -60 203 q-58 63 -174 63q-133 0 -266 -47l-123 -647h-321v78l131 10l32 31l222 1161h-271l-34 -31l-66 -182h-111z" />
<glyph unicode="&#x403;" d="M-53 0v78l131 10l33 31l217 1136l-21 31l-131 10v78h930l-64 -321h-98v194l-20 33h-412l-221 -1161l24 -41h148v-78h-516zM561 1524l285 311h221l-385 -311h-121z" />
<glyph unicode="&#x404;" horiz-adv-x="1236" d="M82 547q0 156 47.5 294t129 238.5t187 173.5t223 109.5t236.5 36.5q179 0 369 -70l-57 -315h-87v196l-16 39q-100 51 -215 51q-91 0 -181.5 -33.5t-172.5 -98t-146 -170t-94 -238.5h615v-94h-633q-8 -62 -8 -127t9 -123t37 -123t73.5 -111.5t125.5 -77t185 -30.5 q89 0 172 26l39 35l92 236h86l-56 -324q-204 -72 -401 -72q-263 0 -414 160q-145 157 -145 412z" />
<glyph unicode="&#x405;" horiz-adv-x="1101" d="M20 70l68 325h107l-21 -235l21 -27q111 -59 233 -59q155 0 249.5 78t94.5 210q0 46 -8.5 75t-39.5 59t-73.5 54.5t-126.5 67.5q-68 34 -120 66t-85.5 56.5t-57 52.5t-35 46.5t-17.5 45.5t-7 41.5t-1 42.5v4q0 52 15.5 106.5t55 113t98 103.5t154 74t213.5 29 q138 0 312 -62l-66 -311h-82v203l-24 37q-74 34 -177 34q-137 0 -230 -74.5t-93 -197.5q0 -55 24.5 -100t65 -74t92.5 -57.5t105.5 -50.5t105.5 -53.5t92.5 -66.5t65 -89t24.5 -121q0 -183 -143 -307q-157 -134 -412 -134q-203 0 -377 95z" />
<glyph unicode="&#x406;" horiz-adv-x="638" d="M-41 0v78l131 10l33 31l217 1136l-21 31l-131 10v78h500v-78l-135 -10l-33 -31l-217 -1136l25 -31l131 -10v-78h-500z" />
<glyph unicode="&#x407;" horiz-adv-x="638" d="M-41 0v78l131 10l33 31l217 1136l-21 31l-131 10v78h500v-78l-135 -10l-33 -31l-217 -1136l25 -31l131 -10v-78h-500zM221 1675q0 41 31 72t72 31t71.5 -31t30.5 -72t-30.5 -71.5t-71.5 -30.5t-72 30.5t-31 71.5zM549 1675q0 41 30.5 72t71.5 31t72 -31t31 -72t-31 -71.5 t-72 -30.5t-71.5 30.5t-30.5 71.5z" />
<glyph unicode="&#x408;" horiz-adv-x="905" d="M-86 25l68 344h102v-258l27 -29q33 -8 67 -8q61 0 99 13.5t76.5 58t68 134t57.5 236.5l142 739l-23 31l-131 10v78h500v-78l-133 -10l-33 -31l-142 -739q-19 -101 -37 -170.5t-57 -148.5t-92 -125q-108 -97 -303 -97q-147 0 -256 50z" />
<glyph unicode="&#x409;" horiz-adv-x="1847" d="M-123 88q0 51 31.5 86.5t85.5 42.5l123 -94q94 122 155 251.5t123 309.5q102 299 162 571l-29 31l-172 10v78h987v-78l-135 -10l-32 -31l-91 -467q90 11 175 11q215 0 335 -74q150 -93 150 -287q0 -120 -50 -203t-122 -131q-152 -104 -447 -104h-512v78l131 10l33 31 l221 1161h-315q-83 -366 -182 -637q-25 -69 -52.5 -137t-72 -163t-98.5 -174.5t-107 -123.5q-84 -70 -172 -70q-53 0 -88 30t-35 83zM954 94q46 -4 115 -4q262 0 379 103q100 90 100 243q0 131 -75 201q-34 33 -81 49.5t-79.5 19.5t-83.5 3q-65 0 -162 -11z" />
<glyph unicode="&#x40a;" horiz-adv-x="1966" d="M-53 0v78l131 10l33 31l217 1136l-21 31l-131 10v78h500v-78l-135 -10l-33 -31l-90 -469h606l90 469l-20 31l-131 10v78h499v-78l-135 -10l-33 -31l-90 -467q90 11 174 11q229 0 357.5 -92.5t128.5 -268.5q0 -91 -27 -163t-75.5 -118.5t-107 -78.5t-132.5 -48.5t-139 -23 t-138 -6.5h-512v78l131 10l33 31l109 573h-607l-108 -573l24 -31l131 -10v-78h-499zM1073 94q46 -4 115 -4q262 0 379 103q100 90 100 243q0 130 -76 201q-34 33 -80.5 49.5t-79 19.5t-83.5 3q-65 0 -162 -11z" />
<glyph unicode="&#x40b;" horiz-adv-x="1515" d="M102 1067l58 307h1102l-62 -307h-110l8 182l-23 31h-311l-102 -535q209 48 329 48q202 0 279 -82q59 -59 59 -164q0 -33 -16 -121l-60 -307l21 -31l131 -10v-78h-295l-45 78l70 358q26 145 -29 205q-49 53 -170 53q-132 0 -293 -47l-100 -528l24 -31l131 -10v-78h-499v78 l131 10l32 31l222 1161h-271l-34 -31l-66 -182h-111z" />
<glyph unicode="&#x40c;" horiz-adv-x="1310" d="M-53 0v78l131 10l33 31l217 1136l-21 31l-131 10v78h500v-78l-135 -10l-33 -31l-96 -497h110q157 0 242 151l156 269q125 213 278 213q59 0 98 -25.5t39 -81.5q0 -43 -26.5 -71.5t-67.5 -36.5l-123 94q-8 -7 -15 -14t-13.5 -14.5t-10.5 -12.5t-10 -13.5t-9 -12.5 t-9 -14.5t-8 -13.5t-9.5 -16.5t-9.5 -17.5l-139 -244q-83 -144 -213 -180v-4q47 -16 83 -43.5t58.5 -63.5t36 -67t24.5 -70l107 -350l49 -31l141 -10v-78h-368v70l-125 446q-46 160 -164 160h-119l-104 -557l24 -31l131 -10v-78h-499zM705 1524l284 311h221l-385 -311h-120z " />
<glyph unicode="&#x40e;" horiz-adv-x="1228" d="M41 25l59 303h95v-217l26 -29q28 -8 49 -8q87 0 166.5 77t136.5 187l-333 917l-21 31l-133 10v78h498v-78l-133 -10l-31 -31l266 -751l399 751l-20 31l-131 10v78h459v-78l-136 -10l-32 -31l-490 -874q-129 -229 -239 -318q-109 -88 -244 -88q-105 0 -211 50zM512 1667 q0 56 37 91.5t98 35.5q39 0 74 -14v-168q29 -10 63 -10q222 0 289 213h74q-13 -60 -43 -113t-77.5 -97.5t-120 -71t-161.5 -26.5q-62 0 -108 12t-69 28.5t-36.5 41t-16.5 41.5t-3 37z" />
<glyph unicode="&#x40f;" horiz-adv-x="1425" d="M-53 0v78l135 10l33 31l217 1136l-25 31l-131 10v78h500v-78l-131 -10l-33 -31l-221 -1161h631l221 1161l-25 31l-131 10v78h500v-78l-131 -10l-33 -31l-217 -1136l20 -31l131 -10v-78h-538l-35 -31l-98 -379h-115l33 379l-23 31h-534z" />
<glyph unicode="&#x410;" horiz-adv-x="1241" d="M-162 0v78l113 10l756 1298h135l221 -1261l33 -37l100 -10v-78h-448v78l120 10l15 31l-64 389h-497l-220 -389l17 -31l125 -10v-78h-406zM373 596h469l-135 590z" />
<glyph unicode="&#x411;" horiz-adv-x="1200" d="M-53 0v78l131 10l33 31l217 1136l-21 31l-131 10v78h950l-57 -299h-98v174l-23 31h-436l-94 -502q115 10 184 10q209 0 324 -71q151 -95 151 -279q0 -122 -50.5 -204t-121.5 -130q-152 -104 -446 -104h-512zM287 94q62 -4 114 -4q265 0 379 103q101 89 101 239 q0 132 -72 197q-73 69 -242 69q-23 0 -168 -10z" />
<glyph unicode="&#x412;" horiz-adv-x="1208" d="M-53 0v78l131 10l33 31l217 1136l-21 31l-131 10v78h526q49 0 92.5 -4t92.5 -13.5t87.5 -29t71 -47t50.5 -70t18 -96.5q0 -134 -93.5 -240.5t-266.5 -140.5v-4q152 -4 237.5 -81t85.5 -206q0 -72 -17.5 -132t-44.5 -103t-70 -77t-82 -55.5t-92.5 -36.5t-90.5 -22.5 t-87.5 -11t-71.5 -4t-53 -0.5h-9h-512zM287 94q62 -4 114 -4q480 0 480 342q0 58 -20.5 102t-51.5 69t-74.5 41t-83.5 21t-84 5q-27 0 -61.5 -2t-69 -5.5t-41.5 -3.5zM412 756q53 -6 100 -6q60 0 116.5 10.5t109.5 36t92.5 63t63.5 95t24 128.5q0 45 -10.5 79.5t-32 57 t-47.5 37t-63.5 22t-74 10.5t-84.5 3q-44 0 -94 -6z" />
<glyph unicode="&#x413;" d="M-53 0v78l131 10l33 31l217 1136l-21 31l-131 10v78h930l-64 -321h-98v194l-20 33h-412l-221 -1161l24 -41h148v-78h-516z" />
<glyph unicode="&#x414;" horiz-adv-x="1351" d="M-164 -348l66 442h139q172 236 333 558.5t247 602.5l-29 41h-172v78h985v-78l-135 -10l-33 -31l-217 -1136l24 -25h156l-90 -442h-98v315l-25 33h-905l-37 -29l-94 -319h-115zM172 94h664l227 1186h-315q-100 -327 -242 -621q-135 -281 -334 -565z" />
<glyph unicode="&#x415;" horiz-adv-x="1114" d="M-53 0v78l131 10l33 31l217 1136l-21 31l-131 10v78h954l-57 -299h-98v174l-23 31h-440l-98 -520h307l37 28l43 150h90l-86 -449h-76v148l-24 29h-310l-108 -572h518l37 33l69 207h95l-66 -334h-993z" />
<glyph unicode="&#x416;" horiz-adv-x="1855" d="M-102 0v78h12q154 0 248 162l149 260q56 95 131 145q73 51 178 64v4q-55 24 -90.5 71t-56.5 131l-51 205q-1 3 -4 16t-3.5 15.5t-3.5 13.5t-4 14l-4 12t-5 13t-5 12t-6 13.5t-7 13t-9 14.5l-140 -81q-30 9 -47.5 35.5t-17.5 60.5q0 63 42 91t95 28q39 0 66.5 -9 t57.5 -35.5t55 -80.5t46 -138l49 -194q48 -197 183 -197h71l99 518l-21 31l-131 10v78h500v-78l-135 -10l-33 -31l-98 -518h71q77 0 140.5 48.5t105.5 123.5l152 269q123 213 278 213q59 0 98 -25.5t39 -81.5q0 -43 -26.5 -71.5t-67.5 -36.5l-127 94q-43 -43 -94 -129 l-139 -246q-38 -68 -85.5 -116.5t-123.5 -69.5v-4q145 -49 203 -236l106 -350l49 -31l142 -10v-78h-369v70l-125 446q-41 139 -164 139h-80l-102 -536l24 -31l131 -10v-78h-499v78l131 10l33 31l102 536h-84q-134 0 -207 -129l-190 -344q-11 -20 -23.5 -38t-25 -32 t-25.5 -26.5t-24 -21.5t-21.5 -16.5t-17.5 -11.5t-13 -8l-6 -3q-70 -37 -172 -37q-42 0 -104 12z" />
<glyph unicode="&#x417;" horiz-adv-x="1105" d="M-29 47l60 324h92v-211l18 -27q88 -59 205 -59q84 0 159.5 20.5t137.5 61t98.5 109t36.5 157.5q0 117 -80.5 180.5t-218.5 63.5q-71 0 -135 -17v111h78q48 0 95.5 7.5t103 29.5t97 57t69.5 96t28 140q0 36 -10 69.5t-33.5 67t-71 53.5t-114.5 20q-113 0 -217 -55l-31 -31 l-70 -200h-98l61 315q199 70 394 70q27 0 56 -2.5t68 -10t74 -20t70.5 -35t61 -51.5t41.5 -72.5t16 -95.5q0 -103 -52 -184.5t-131.5 -128.5t-177.5 -66v-4q143 0 233.5 -89t90.5 -218q0 -214 -178 -334q-83 -57 -204.5 -85t-248.5 -28q-192 0 -373 72z" />
<glyph unicode="&#x418;" horiz-adv-x="1474" d="M-53 0v78l131 10l33 31l217 1136l-21 31l-131 10v78h500v-78l-135 -10l-33 -31l-176 -923l848 882l8 41l-21 31l-131 10v78h500v-78l-135 -10l-33 -31l-217 -1136l25 -31l131 -10v-78h-500v78l131 10l33 31l180 944l-848 -883l-12 -61l24 -31l131 -10v-78h-499z" />
<glyph unicode="&#x419;" horiz-adv-x="1474" d="M-53 0v78l131 10l33 31l217 1136l-21 31l-131 10v78h500v-78l-135 -10l-33 -31l-176 -923l848 882l8 41l-21 31l-131 10v78h500v-78l-135 -10l-33 -31l-217 -1136l25 -31l131 -10v-78h-500v78l131 10l33 31l180 944l-848 -883l-12 -61l24 -31l131 -10v-78h-499zM635 1667 q0 56 37 91.5t98 35.5q39 0 74 -14v-168q29 -10 63 -10q222 0 289 213h74q-13 -60 -43 -113t-77.5 -97.5t-120 -71t-161.5 -26.5q-62 0 -108 12t-69 28.5t-36.5 41t-16.5 41.5t-3 37z" />
<glyph unicode="&#x41a;" horiz-adv-x="1310" d="M-53 0v78l131 10l33 31l217 1136l-21 31l-131 10v78h500v-78l-135 -10l-33 -31l-96 -497h110q157 0 242 151l156 269q125 213 278 213q59 0 98 -25.5t39 -81.5q0 -43 -26.5 -71.5t-67.5 -36.5l-123 94q-8 -7 -15 -14t-13.5 -14.5t-10.5 -12.5t-10 -13.5t-9 -12.5 t-9 -14.5t-8 -13.5t-9.5 -16.5t-9.5 -17.5l-139 -244q-83 -144 -213 -180v-4q47 -16 83 -43.5t58.5 -63.5t36 -67t24.5 -70l107 -350l49 -31l141 -10v-78h-368v70l-125 446q-46 160 -164 160h-119l-104 -557l24 -31l131 -10v-78h-499z" />
<glyph unicode="&#x41b;" horiz-adv-x="1282" d="M-123 88q0 51 31.5 86.5t85.5 42.5l123 -94q94 122 155 251.5t123 309.5q102 299 162 571l-29 41h-172v78h987v-78l-135 -10l-32 -31l-218 -1136l25 -31l131 -10v-78h-500v78l131 10l33 31l221 1161h-315q-83 -366 -182 -637q-25 -69 -52.5 -137t-72 -163t-98.5 -174.5 t-107 -123.5q-84 -70 -172 -70q-51 0 -87 29t-36 84z" />
<glyph unicode="&#x41c;" horiz-adv-x="1720" d="M-53 0v78l131 10l33 31l217 1136l-21 31l-131 10v78h416v-55l186 -1043l574 1035v63h430v-78l-135 -10l-33 -31l-217 -1136l24 -31l131 -10v-78h-483v78l129 10l35 31l219 1149l-707 -1268h-90l-221 1262l-209 -1143l27 -31l121 -10v-78h-426z" />
<glyph unicode="&#x41d;" horiz-adv-x="1458" d="M-53 0v78l131 10l33 31l217 1136l-21 31l-131 10v78h500v-78l-135 -10l-33 -31l-94 -489h663l94 489l-20 31l-131 10v78h500v-78l-136 -10l-32 -31l-217 -1136l24 -31l131 -10v-78h-499v78l131 10l32 31l105 553h-664l-104 -553l24 -31l131 -10v-78h-499z" />
<glyph unicode="&#x41e;" horiz-adv-x="1449" d="M82 543q0 121 33 243.5t98.5 232t154.5 195t210 135.5t256 50q160 0 283.5 -78t187 -205t63.5 -280q0 -214 -92.5 -411.5t-257.5 -318.5q-179 -131 -393 -131q-111 0 -203 32.5t-154 87t-104.5 128t-62 154t-19.5 166.5zM279 528q0 -190 77 -309q51 -78 124.5 -111.5 t150.5 -33.5q228 0 385 243q71 111 113 250t42 281q0 220 -98.5 336t-255.5 116q-94 0 -193 -54.5t-180 -168.5q-82 -115 -123.5 -264t-41.5 -285z" />
<glyph unicode="&#x41f;" horiz-adv-x="1433" d="M-53 0v78l131 10l33 31l217 1136l-21 31l-131 10v78h1319v-78l-135 -10l-33 -31l-217 -1136l25 -31l131 -10v-78h-500v78l131 10l33 31l221 1161h-639l-221 -1161l24 -31l131 -10v-78h-499z" />
<glyph unicode="&#x420;" horiz-adv-x="1118" d="M-53 0v78l131 10l33 31l217 1136l-21 31l-131 10v78h436q242 0 342 -51q164 -86 164 -287q0 -110 -44.5 -204t-123.5 -164q-177 -152 -473 -152q-56 0 -110 4l-76 -401l24 -31l131 -10v-78h-499zM385 618q36 -4 78 -4q224 0 343.5 106.5t119.5 297.5q0 139 -88 207 q-78 59 -232 59q-48 0 -94 -4z" />
<glyph unicode="&#x421;" horiz-adv-x="1236" d="M82 547q0 156 47.5 294t129 238.5t187 173.5t223 109.5t236.5 36.5q179 0 369 -70l-57 -315h-87v196l-16 39q-100 51 -215 51q-114 0 -225.5 -48t-200.5 -150q-95 -109 -144.5 -260t-49.5 -310q0 -37 3 -73t14 -83t29.5 -87.5t51.5 -81t76.5 -69t109.5 -46.5t146 -18 q89 0 172 26l39 35l92 236h86l-56 -324q-204 -72 -401 -72q-263 0 -414 160q-145 157 -145 412z" />
<glyph unicode="&#x422;" horiz-adv-x="1155" d="M102 1067l58 307h1102l-62 -307h-102v182l-23 31h-291l-221 -1161l25 -31l131 -10v-78h-500v78l131 10l33 31l221 1161h-291l-34 -31l-66 -182h-111z" />
<glyph unicode="&#x423;" horiz-adv-x="1228" d="M41 25l59 303h95v-217l26 -29q28 -8 49 -8q87 0 166.5 77t136.5 187l-333 917l-21 31l-133 10v78h498v-78l-133 -10l-31 -31l266 -751l399 751l-20 31l-131 10v78h459v-78l-136 -10l-32 -31l-490 -874q-129 -229 -239 -318q-109 -88 -244 -88q-105 0 -211 50z" />
<glyph unicode="&#x424;" horiz-adv-x="1556" d="M74 651q0 93 24 171.5t63.5 133.5t94.5 98t113 68.5t124 42.5t122 23t112 6h57l23 121l-21 31l-131 10v78h500v-78l-135 -10l-33 -31l-22 -121h45q58 0 110.5 -6.5t109.5 -22t103 -45t83.5 -70.5t58 -104t20.5 -141q0 -94 -24.5 -173t-64.5 -134t-95.5 -97.5t-114.5 -68 t-125 -42t-122 -22.5t-111 -6h-52l-28 -143l24 -31l131 -10v-78h-499v78l131 10l33 31l28 143h-51q-71 0 -134.5 9.5t-129 36.5t-112 69t-76 112.5t-29.5 161.5zM270 659q0 -37 9 -76t31.5 -80.5t55.5 -73.5t87 -52.5t120 -20.5q20 0 52 4l139 736q-27 4 -80 4 q-80 0 -153 -27.5t-132 -79.5t-94 -138.5t-35 -195.5zM805 360q27 -4 80 -4q80 0 153 27t131.5 79.5t93.5 139t35 195.5q0 34 -7 69.5t-27.5 79t-52 76.5t-87.5 55.5t-127 22.5q-17 0 -53 -4z" />
<glyph unicode="&#x425;" horiz-adv-x="1167" d="M-172 0v78l125 10l43 31l510 577l-246 559l-24 31l-127 10v78h497v-78l-135 -10l-31 -31l183 -424l374 424l-12 31l-117 10v78h426v-78l-143 -10l-481 -549l270 -618l29 -31l123 -10v-78h-496v78l133 10l33 31l-201 471l-422 -471l21 -31l133 -10v-78h-465z" />
<glyph unicode="&#x426;" horiz-adv-x="1433" d="M-53 0v78l131 10l33 31l217 1136l-21 31l-131 10v78h500v-78l-135 -10l-33 -31l-221 -1161h631l221 1161l-21 31l-131 10v78h500v-78l-135 -10l-33 -31l-217 -1136l24 -25h156l-90 -442h-90v317l-23 31h-1132z" />
<glyph unicode="&#x427;" horiz-adv-x="1310" d="M119 1296v78h499v-78l-135 -10l-32 -31l-62 -317q-10 -62 -10 -88q0 -43 14.5 -75t35.5 -49.5t51 -28.5t55 -14t53 -3q165 0 334 47l102 528l-20 31l-132 10v78h500v-78l-135 -10l-33 -31l-217 -1136l25 -31l131 -10v-78h-500v78l131 10l33 31l98 510q-221 -47 -373 -47 q-200 0 -278 82q-59 59 -59 163q0 33 16 121l59 307l-20 31z" />
<glyph unicode="&#x428;" horiz-adv-x="1957" d="M-53 0v78l131 10l33 31l217 1136l-21 31l-131 10v78h500v-78l-135 -10l-33 -31l-221 -1161h491l221 1161l-20 31l-131 10v78h500v-78l-136 -10l-32 -31l-222 -1161h492l221 1161l-20 31l-131 10v78h499v-78l-135 -10l-33 -31l-217 -1136l25 -31l131 -10v-78h-1843z" />
<glyph unicode="&#x429;" horiz-adv-x="1966" d="M-53 0v78l131 10l33 31l217 1136l-21 31l-131 10v78h500v-78l-135 -10l-33 -31l-221 -1161h491l221 1161l-20 31l-131 10v78h500v-78l-136 -10l-32 -31l-222 -1161h492l221 1161l-20 31l-131 10v78h499v-78l-135 -10l-33 -31l-217 -1136l25 -25h156l-91 -442h-90v315 l-24 33h-1663z" />
<glyph unicode="&#x42a;" horiz-adv-x="1433" d="M102 1067l58 307h770v-78l-135 -10l-33 -31l-90 -467q90 11 174 11q229 0 357 -92.5t128 -268.5q0 -78 -21 -142.5t-55 -109.5t-84.5 -78.5t-103 -53.5t-116.5 -32.5t-120 -17t-118 -4.5h-512v78l131 10l33 31l221 1161h-273l-34 -31l-66 -182h-111zM541 94q46 -4 114 -4 q262 0 379 103q101 91 101 243q0 130 -76 201q-34 33 -81 49.5t-79.5 19.5t-83.5 3q-65 0 -162 -11z" />
<glyph unicode="&#x42b;" horiz-adv-x="1740" d="M-53 0v78l131 10l33 31l217 1136l-21 31l-131 10v78h500v-78l-135 -10l-33 -31l-90 -467q90 11 174 11q229 0 357 -92.5t128 -268.5q0 -78 -21 -142.5t-55 -109.5t-84.5 -78.5t-103 -53.5t-116.5 -32.5t-120 -17t-118 -4.5h-512zM287 94q46 -4 114 -4q262 0 379 103 q101 91 101 243q0 130 -76 201q-34 33 -81 49.5t-79.5 19.5t-83.5 3q-65 0 -162 -11zM1073 0v78l131 10l33 31l217 1136l-20 31l-131 10v78h499v-78l-135 -10l-33 -31l-217 -1136l25 -31l131 -10v-78h-500z" />
<glyph unicode="&#x42c;" horiz-adv-x="1179" d="M-53 0v78l131 10l33 31l217 1136l-21 31l-131 10v78h500v-78l-135 -10l-33 -31l-90 -467q90 11 174 11q229 0 357 -92.5t128 -268.5q0 -78 -21 -142.5t-55 -109.5t-84.5 -78.5t-103 -53.5t-116.5 -32.5t-120 -17t-118 -4.5h-512zM287 94q46 -4 114 -4q262 0 379 103 q101 91 101 243q0 130 -76 201q-34 33 -81 49.5t-79.5 19.5t-83.5 3q-65 0 -162 -11z" />
<glyph unicode="&#x42d;" horiz-adv-x="1290" d="M-29 47l64 324h106l-18 -211l18 -27q109 -59 252 -59q151 0 264 55.5t203 187.5q101 147 131 330h-573v94h588q6 44 6 95q0 464 -385 464q-137 0 -271 -55l-30 -31l-70 -200h-98l61 315q193 70 397 70q256 0 402 -117q190 -157 190 -446q0 -212 -92.5 -411t-257.5 -319 q-98 -71 -203.5 -101t-240.5 -30q-246 0 -443 72z" />
<glyph unicode="&#x42e;" horiz-adv-x="2048" d="M-53 0v78l131 10l33 31l217 1136l-21 31l-131 10v78h500v-78l-135 -10l-33 -31l-94 -489h293q30 126 94.5 239.5t156.5 201.5t215 140t259 52q160 0 283.5 -78t187 -205t63.5 -280q0 -214 -92.5 -411.5t-257.5 -318.5q-179 -131 -393 -131q-90 0 -166.5 21t-131.5 56 t-98.5 83t-71 99.5t-45.5 108t-25 106t-7 96.5q0 39 10 127h-293l-104 -553l24 -31l131 -10v-78h-499zM877 528q0 -190 77 -309q51 -78 124.5 -111.5t150.5 -33.5q228 0 385 243q71 111 113 250t42 281q0 220 -98.5 336t-255.5 116q-94 0 -193 -54.5t-180 -168.5 q-82 -115 -123.5 -264t-41.5 -285z" />
<glyph unicode="&#x42f;" horiz-adv-x="1290" d="M-123 0v78h17q56 0 100.5 12t76.5 35.5t53 48t42 59.5l123 199q112 182 280 215v4q-60 9 -113.5 31.5t-99.5 60t-73 97t-27 133.5q0 90 44.5 172.5t127.5 138.5q137 90 379 90h545v-78l-135 -10l-33 -31l-217 -1136l24 -31l131 -10v-78h-499v78l131 10l32 31l95 491h-101 q-95 0 -165 -45t-152 -182l-135 -225q-45 -78 -126.5 -124t-193.5 -46q-75 0 -131 12zM453 946q0 -120 77 -186q32 -27 76 -41t69 -15.5t70 -1.5q71 0 154 3l109 575h-107q-202 0 -305 -63q-14 -8 -28 -19t-36 -35.5t-38.5 -52.5t-28.5 -71.5t-12 -92.5z" />
<glyph unicode="&#x430;" horiz-adv-x="1093" d="M41 340q0 91 23 181.5t71 175t115.5 149.5t164 104t208.5 39q94 0 184 -47l41 45h106q-12 -29 -21 -56.5t-17.5 -62t-12.5 -51.5t-13.5 -63t-12.5 -60l-74 -362q-21 -115 -21 -137q0 -44 27.5 -73.5t71.5 -29.5q45 0 127 27v-62q-74 -35 -149 -55t-103 -20 q-58 0 -91.5 40.5t-33.5 118.5v13q-84 -92 -156 -132t-156 -40q-78 0 -135 34.5t-86.5 90.5t-43 114t-13.5 119zM213 356q0 -65 12.5 -113t30 -73t43.5 -39.5t46 -18t44 -3.5q111 0 244 133l106 540l-82 123q-12 2 -34 2q-94 0 -172.5 -45.5t-129.5 -122.5t-79.5 -176 t-28.5 -207z" />
<glyph unicode="&#x431;" horiz-adv-x="1044" d="M61 446q0 175 47.5 337.5t112.5 289.5q46 90 98 154t112 102t118.5 58t134.5 32l172 27q104 12 148 82h61q-34 -82 -68.5 -133.5t-74 -77.5t-72 -35.5t-84.5 -15.5l-129 -17q-74 -9 -133.5 -33t-99.5 -60.5t-68.5 -76.5t-47 -94.5t-28.5 -100.5t-18 -106h4 q123 211 334 211q166 0 260 -102.5t94 -294.5q0 -153 -70 -293.5t-192.5 -228.5t-263.5 -88q-87 0 -155.5 39t-109.5 105t-61.5 147.5t-20.5 172.5zM233 377q0 -88 19.5 -153t51.5 -98t64.5 -48t65.5 -15q63 0 118 34.5t92.5 90.5t64.5 126.5t40 142.5t13 139 q0 74 -13 130.5t-33 90t-48 54.5t-54 28.5t-55 7.5q-60 0 -125.5 -40.5t-116.5 -131.5q-84 -150 -84 -358z" />
<glyph unicode="&#x432;" horiz-adv-x="983" d="M57 289q0 55 5.5 111.5t22 127t42 133.5t70 124.5t102 105.5t141.5 71t185 27q129 0 194 -47q70 -53 70 -139q0 -102 -73.5 -175.5t-178.5 -105.5v-4q29 -4 61.5 -17t68 -36t58.5 -62.5t23 -89.5q0 -63 -26.5 -120t-79 -105t-144 -77t-209.5 -29q-89 0 -153 20t-98 48.5 t-53 73t-23.5 80.5t-4.5 85zM221 274q0 -29 4.5 -56t17 -56t32 -50.5t51.5 -35t73 -13.5q132 0 204.5 74.5t72.5 171.5q0 76 -59.5 116t-135.5 40q-100 0 -245 -31q-15 -96 -15 -160zM250 516l211 29q122 17 193 92.5t71 153.5q0 49 -36 82.5t-103 33.5q-267 0 -336 -391z " />
<glyph unicode="&#x433;" horiz-adv-x="860" d="M49 201q0 156 195 268l164 94q27 17 42 27.5t44 37.5t44 62.5t15 77.5q0 52 -29.5 85.5t-85.5 33.5q-69 0 -164 -56l-149 -86v86l133 82q124 76 248 76q37 0 73 -11t70 -33.5t55 -65t21 -97.5q0 -51 -16 -93t-48.5 -75.5t-65.5 -57t-83 -52.5l-137 -82 q-70 -43 -106 -89.5t-36 -107.5q0 -125 162 -125q90 0 187.5 45t183.5 117v-94q-83 -76 -203 -131t-229 -55q-108 0 -178 38q-60 33 -83.5 83t-23.5 98z" />
<glyph unicode="&#x434;" horiz-adv-x="1011" d="M41 375q0 120 36.5 234.5t110.5 203.5q147 176 377 176q104 0 172 -51q-47 388 -346 467h-131v53l229 49q95 -31 170 -85.5t123.5 -123.5t80.5 -155t45.5 -176.5t13.5 -192.5q0 -56 -7 -120.5t-24.5 -142.5t-43.5 -151t-69 -142.5t-96.5 -121t-129.5 -83t-165 -31.5 q-155 0 -252 106q-94 105 -94 287zM213 377q0 -85 19 -149.5t50.5 -98.5t65 -50t68.5 -16q63 0 130.5 45.5t117.5 155.5q43 95 64.5 224.5t21.5 252.5q0 17 -5 90q-60 76 -167 76q-183 0 -281 -172q-43 -74 -63.5 -171.5t-20.5 -186.5z" />
<glyph unicode="&#x435;" horiz-adv-x="872" d="M41 350q0 85 24 175t70.5 172.5t109 148t147.5 104.5t177 39q94 0 151.5 -54.5t57.5 -143.5q0 -67 -32.5 -122t-86 -91.5t-128 -62.5t-150.5 -40t-162 -20q-6 -41 -6 -84q0 -74 18.5 -133t67 -100.5t121.5 -41.5q55 0 102.5 13t93 43t69 49.5t69.5 60.5v-94 q-186 -186 -396 -186q-74 0 -131.5 25t-91.5 63.5t-56 89.5t-30 97t-8 93zM229 524q96 4 186 35t153 91.5t63 137.5q0 52 -30.5 85.5t-76.5 33.5q-12 0 -24.5 -1.5t-36.5 -10t-45.5 -23t-49 -43t-51 -67.5t-47 -100.5t-41.5 -137.5z" />
<glyph unicode="&#x436;" horiz-adv-x="1765" d="M-20 123q0 42 32 76t88 34l80 -170q140 28 213 230q66 177 66 389q0 22 -1 37.5t-4 41t-10.5 43t-19.5 35t-32.5 26.5t-47.5 9q-111 0 -258 -147v94q3 3 25.5 23t30 25.5t30 24t34.5 25.5t35 21t41 20.5t42 14.5t48 11t50 3q92 0 138 -71.5t46 -186.5q0 -135 -45 -293h4 l277 361l41 172h147l-151 -660h4l317 410q52 95 119 162q106 106 233 106q75 0 119.5 -42.5t44.5 -98.5q0 -43 -29.5 -76.5t-80.5 -34.5l-80 170q-143 -29 -221 -229q-30 -75 -47 -175.5t-17 -185.5q0 -208 133 -208q34 0 111.5 37t136.5 92v-95q-62 -62 -162 -111.5 t-176 -49.5q-51 0 -89.5 26t-59.5 68.5t-31 88.5t-10 93q0 134 39 274h-5l-274 -360l-35 -172h-147l151 659h-4l-325 -417q-50 -89 -115 -154q-106 -106 -242 -106q-78 0 -117.5 45t-39.5 96z" />
<glyph unicode="&#x437;" horiz-adv-x="860" d="M-29 162q0 49 30 77.5t75 28.5t90 -39l-37 -102q60 -64 152 -64q76 0 132.5 24.5t85 62.5t41.5 75t13 72q0 31 -8.5 59t-28 55t-57.5 43.5t-90 16.5l-176 -20v102h124q123 0 200 61.5t77 143.5q0 67 -48.5 98t-107.5 31q-86 0 -176.5 -39t-159.5 -86v94q179 133 392 133 q272 0 272 -209q0 -94 -63.5 -157.5t-159.5 -96.5v-4q85 -15 133.5 -69.5t48.5 -135.5q0 -31 -6.5 -62t-23 -71.5t-50 -74.5t-81.5 -63.5t-125 -46.5t-173 -17q-83 0 -143.5 16.5t-92 44.5t-45.5 57.5t-14 61.5z" />
<glyph unicode="&#x438;" horiz-adv-x="1155" d="M70 868v54l323 69l33 -28l-129 -598q-23 -102 -23 -150q0 -60 34.5 -88.5t80.5 -28.5q73 0 141.5 33.5t153.5 97.5l156 742h164l-138 -631q-22 -102 -22 -145q0 -44 27.5 -73.5t70.5 -29.5q45 0 127 27v-62q-153 -75 -258 -75q-137 0 -137 139q0 23 2 33 q-78 -69 -179 -120.5t-194 -51.5q-86 0 -141.5 45.5t-55.5 146.5q0 37 17 125l119 541z" />
<glyph unicode="&#x439;" horiz-adv-x="1155" d="M70 868v54l323 69l33 -28l-129 -598q-23 -102 -23 -150q0 -60 34.5 -88.5t80.5 -28.5q73 0 141.5 33.5t153.5 97.5l156 742h164l-138 -631q-22 -102 -22 -145q0 -44 27.5 -73.5t70.5 -29.5q45 0 127 27v-62q-153 -75 -258 -75q-137 0 -137 139q0 23 2 33 q-78 -69 -179 -120.5t-194 -51.5q-86 0 -141.5 45.5t-55.5 146.5q0 37 17 125l119 541zM397 1307q0 56 37 91.5t98 35.5q36 0 70 -15v-155q37 -15 80 -15q52 0 96.5 19t74 47t52 64t33.5 67.5t16 60.5h74q-11 -115 -70 -198t-143 -122.5t-182 -39.5q-66 0 -113.5 14 t-70.5 32t-35.5 44t-14.5 40t-2 30z" />
<glyph unicode="&#x43a;" horiz-adv-x="1085" d="M61 868v54l324 69l33 -28l-111 -541h4q246 305 416 450q133 117 225 117q45 0 79 -26t34 -74q0 -44 -31 -81t-82 -52l-98 88q-79 -40 -170.5 -128.5t-134.5 -146.5q101 -219 176 -338q90 -139 195 -139q49 0 104 14v-61q-174 -55 -244 -55q-52 0 -98 34t-90 123l-154 318 l-153 -178l-47 -287h-172l167 840z" />
<glyph unicode="&#x43b;" horiz-adv-x="1105" d="M-106 90q0 43 25.5 74.5t66.5 40.5l120 -103q59 46 109 121.5t107 222.5q80 220 122 406l-172 66v53h682l-137 -629q-22 -100 -22 -147q0 -44 27.5 -73.5t70.5 -29.5q45 0 127 27v-62q-153 -75 -256 -75q-146 0 -146 129q0 28 17 116l145 654h-217q-52 -208 -109 -367.5 t-125 -281.5t-149.5 -186t-173.5 -64q-53 0 -82.5 30t-29.5 78z" />
<glyph unicode="&#x43c;" horiz-adv-x="1449" d="M-98 86q0 43 25.5 73t66.5 38l115 -95q45 53 86 144.5t74 210t51.5 196.5t41.5 187l-167 28v54l311 69l51 -20q94 -350 117 -725h4l432 725h188l-137 -629q-22 -100 -22 -147q0 -103 98 -103q53 0 127 27v-62q-143 -75 -248 -75q-145 0 -145 129q0 44 16 116l137 613h-4 l-504 -840h-69q-3 227 -20.5 381.5t-77.5 437.5h-5q-84 -438 -186 -637.5t-246 -199.5q-51 0 -80.5 29t-29.5 75z" />
<glyph unicode="&#x43d;" horiz-adv-x="1130" d="M61 0l168 838l-168 30v54l304 65h53l-84 -426h397l84 410h164l-137 -629q-23 -105 -23 -147q0 -44 27.5 -73.5t71.5 -29.5t126 27v-62q-153 -75 -256 -75q-145 0 -145 129q0 33 16 116l54 244h-396l-84 -471h-172z" />
<glyph unicode="&#x43e;" d="M41 375q0 115 40.5 232t115.5 206q78 91 174 133.5t192 42.5q157 0 248 -100q102 -110 102 -297q0 -119 -44.5 -240.5t-127.5 -210.5q-148 -159 -354 -159q-155 0 -252 106q-94 106 -94 287zM213 377q0 -88 20 -153.5t52 -98t64 -47.5t63 -15q55 0 114.5 33.5 t108.5 104.5q56 80 81 185.5t25 209.5q0 84 -14.5 144.5t-34.5 92t-50 49t-52 21.5t-49 4q-62 0 -127.5 -40.5t-116.5 -131.5q-84 -150 -84 -358z" />
<glyph unicode="&#x43f;" horiz-adv-x="1138" d="M61 0l168 838l-168 30v54l304 65h53l-39 -196q56 47 92.5 74.5t89.5 60t105.5 48t107.5 15.5q95 0 134.5 -45.5t39.5 -132.5q0 -41 -28 -178l-70 -301q-23 -103 -23 -137q0 -44 27.5 -73.5t71.5 -29.5q45 0 127 27v-62q-153 -75 -256 -75q-146 0 -146 129q0 33 17 110 l88 379q18 81 18 135t-26.5 90.5t-77.5 36.5q-36 0 -75 -12.5t-64.5 -25t-66 -44t-52.5 -42t-52 -46.5l-127 -692h-172z" />
<glyph unicode="&#x440;" horiz-adv-x="1064" d="M-131 -385l121 25l20 22l211 1176l-168 30v54l303 65h54l-25 -125q115 73 167 95q76 32 142 32q67 0 118 -28t81.5 -77t45.5 -112t15 -137q0 -278 -174 -461q-71 -75 -170.5 -128.5t-216.5 -53.5q-82 0 -160 39l-67 -381l194 -35v-61h-491v61zM254 137q92 -55 170 -55 q141 0 231 123q55 73 91 189t36 222q0 32 -4.5 64t-17.5 68t-33 63t-54 45t-77 18q-39 0 -82 -17t-70 -34.5t-73 -50.5z" />
<glyph unicode="&#x441;" horiz-adv-x="819" d="M41 356q0 129 47.5 248t123 202t171.5 133t192 50q92 0 143.5 -41t51.5 -98q0 -49 -38 -80t-91 -33l-119 158q-134 -9 -217 -131q-48 -71 -70 -176.5t-22 -198.5q0 -85 16 -143t45 -86.5t60.5 -39.5t71.5 -11q90 0 166.5 43.5t156.5 119.5v-94q-78 -82 -181.5 -139 t-205.5 -57q-68 0 -121.5 25t-86.5 64t-54.5 90t-30 99t-8.5 96z" />
<glyph unicode="&#x442;" horiz-adv-x="1671" d="M61 0l168 838l-168 30v54l304 65h53l-39 -194q121 104 228 150t165 46q70 0 115 -50t45 -138q64 55 131.5 95.5t118.5 58.5t83 26t46 8q24 0 49 -7.5t53 -25.5t46 -57t18 -94q0 -49 -25 -164l-70 -309q-22 -99 -22 -137q0 -44 27.5 -73.5t70.5 -29.5q45 0 127 27v-62 q-153 -75 -256 -75q-145 0 -145 129q0 49 16 110l86 379q19 87 19 135q0 51 -25 89t-78 38q-73 0 -139 -43t-135 -123l-133 -696h-172l122 600q19 90 19 141q0 56 -30.5 88.5t-74.5 32.5q-39 0 -120.5 -40.5t-178.5 -127.5l-127 -694h-172z" />
<glyph unicode="&#x443;" horiz-adv-x="970" d="M-231 -311q0 45 32 75.5t76 36.5l121 -120q59 11 108 39.5t92 79t76 102.5t76 131l-131 622q-31 148 -78 213l-174 13v53l201 59q8 2 27 2q80 0 120 -86q26 -60 84 -354l68 -346q157 401 321 778h39l162 -53v-43l-104 -62q-68 -87 -114.5 -170.5t-119.5 -242.5 q-128 -270 -186 -376q-226 -407 -448 -473q-44 -13 -89 -13q-72 0 -115.5 38.5t-43.5 96.5z" />
<glyph unicode="&#x444;" horiz-adv-x="1400" d="M41 328q0 137 42.5 265t127.5 226q73 85 159 127.5t169 42.5q61 0 133 -28q21 118 59 211t80 148.5t91 91.5t90 49.5t79 13.5q57 0 97 -28t40 -79q0 -35 -24.5 -63.5t-67.5 -34.5l-141 114q-42 -36 -72 -92q-45 -92 -72 -264l-20 -129q108 90 209 90q63 0 112.5 -27.5 t78 -67.5t47.5 -91t25.5 -92.5t6.5 -77.5q0 -132 -49 -276.5t-137 -239.5q-126 -135 -285 -135q-90 0 -164 51q-20 -130 -71 -242.5t-128.5 -184t-162.5 -71.5q-56 0 -84.5 31.5t-28.5 73.5q0 57 45 86l195 -56q47 78 69 213l27 178q-128 -79 -233 -79q-56 0 -100.5 25.5 t-70 63t-42.5 86.5t-23 90.5t-6 80.5zM213 371q0 -39 4 -74t15.5 -72.5t30 -64t50 -43.5t72.5 -17q54 0 143 43l129 736q-36 28 -90 28q-75 0 -137 -37.5t-101 -96t-66.5 -132t-38.5 -141.5t-11 -129zM674 115q54 -43 123 -43q114 0 204 131q56 82 86.5 193.5t30.5 217.5 q0 33 -3 64.5t-13.5 70.5t-27.5 67t-47.5 47.5t-70.5 19.5q-82 0 -157 -66z" />
<glyph unicode="&#x445;" horiz-adv-x="978" d="M-96 92q0 44 29.5 73t72.5 32l94 -88q80 50 158 158t127 225q-28 110 -69.5 212.5t-86.5 143.5l-170 20v54l207 69q10 2 27 2q46 0 73 -25.5t46 -66.5q34 -69 94 -321q47 96 96 171t90 118.5t81 71.5t69 38t55 10q51 0 84 -30.5t33 -77.5q0 -42 -28 -75t-73 -44l-88 80 q-146 -54 -274 -350q50 -183 90 -285q11 -26 21.5 -43.5t27.5 -36.5t40.5 -29t53.5 -10t107 18v-61q-144 -59 -225 -59q-38 0 -70 15t-55 45.5t-39.5 60.5t-30 77t-20 75.5t-15.5 76.5t-12 61q-32 -73 -71.5 -141t-90 -132.5t-110.5 -103t-119 -38.5t-94 28.5t-35 81.5z" />
<glyph unicode="&#x446;" horiz-adv-x="1155" d="M70 868v54l323 69l33 -28l-129 -598q-23 -102 -23 -150q0 -60 34.5 -88.5t80.5 -28.5q73 0 141.5 33.5t153.5 97.5l156 742h164l-138 -631q-22 -102 -22 -145q0 -44 27.5 -73.5t70.5 -29.5q45 0 127 27v-62q-42 -30 -59 -78t-19.5 -116.5t-5.5 -81.5q-7 -39 -29.5 -70.5 t-47.5 -51t-66.5 -36.5t-70 -25.5t-73.5 -19.5v82q132 8 148 115q7 60 16 94.5t36.5 74.5t76.5 72v4q-88 -38 -168 -38q-44 0 -73 12.5t-41 36t-15.5 43t-3.5 47.5q0 23 2 33q-78 -69 -179 -120.5t-194 -51.5q-86 0 -141.5 45.5t-55.5 146.5q0 37 17 125l119 541z" />
<glyph unicode="&#x447;" horiz-adv-x="1097" d="M41 868v54l324 69l32 -28l-57 -271q-23 -106 -23 -155q0 -61 33 -92t82 -31q114 0 256 102l94 455h164l-137 -629q-23 -106 -23 -149q0 -49 29 -75t70 -26q45 0 127 27v-62q-153 -75 -256 -75q-146 0 -146 129q0 41 17 116l47 213l-24 -21q-25 -21 -50.5 -38t-64.5 -38 t-89 -33.5t-102 -12.5q-95 0 -144.5 51.5t-49.5 147.5q0 45 18 137l45 207z" />
<glyph unicode="&#x448;" horiz-adv-x="1658" d="M70 868v54l323 69l33 -28l-129 -598q-23 -118 -23 -150q0 -56 27 -86.5t72 -30.5q71 0 125 24t149 107l160 742h164l-133 -600q-23 -106 -23 -156q0 -55 26.5 -86t73.5 -31q65 0 129.5 34t143.5 97l155 742h164l-137 -631q-22 -102 -22 -145q0 -44 27.5 -73.5t70.5 -29.5 q45 0 127 27v-62q-153 -75 -258 -75q-137 0 -137 135q0 20 2 30q-63 -56 -166.5 -110.5t-186.5 -54.5q-47 0 -81.5 15t-54 41t-30 52.5t-14.5 56.5q-200 -165 -360 -165q-84 0 -132.5 53.5t-48.5 138.5q0 43 17 125l119 541z" />
<glyph unicode="&#x449;" horiz-adv-x="1658" d="M70 868v54l323 69l33 -28l-129 -598q-23 -118 -23 -150q0 -56 27 -86.5t72 -30.5q71 0 125 24t149 107l160 742h164l-133 -600q-23 -106 -23 -156q0 -55 26.5 -86t73.5 -31q65 0 129.5 34t143.5 97l155 742h164l-137 -631q-22 -102 -22 -145q0 -44 27.5 -73.5t70.5 -29.5 q45 0 127 27v-62q-42 -30 -59 -78t-19.5 -116.5t-5.5 -81.5q-7 -39 -29.5 -70.5t-47.5 -51t-66.5 -36.5t-70 -25.5t-73.5 -19.5v82q132 8 148 115q7 60 16 94.5t36.5 74.5t76.5 72v4q-88 -38 -168 -38q-44 0 -72.5 12t-40.5 34.5t-16 42t-4 46.5q0 20 2 30 q-63 -56 -166.5 -110.5t-186.5 -54.5q-47 0 -81.5 15t-54 41t-30 52.5t-14.5 56.5q-200 -165 -360 -165q-84 0 -132.5 53.5t-48.5 138.5q0 43 17 125l119 541z" />
<glyph unicode="&#x44a;" horiz-adv-x="1105" d="M8 698q0 104 84.5 197.5t206.5 93.5q56 0 121 -20l55 -17q73 -22 103 -22q84 0 114 74l125 -66q-216 -190 -325 -375q134 23 215 23q297 0 297 -252q0 -173 -150 -271q-125 -81 -326 -81q-130 0 -222.5 63.5t-92.5 185.5q0 162 118 329t306 294v4q-103 -39 -205 -39 q-40 0 -101.5 21.5t-94.5 21.5q-41 0 -81.5 -22t-62.5 -62l109 -131q-10 -24 -34.5 -44.5t-62.5 -20.5q-46 0 -71 31t-25 85zM377 233q0 -89 52.5 -129.5t127.5 -40.5q50 0 97.5 15.5t87.5 46.5t64.5 83.5t24.5 119.5q0 82 -56.5 129t-127.5 47q-93 0 -198 -31 q-31 -55 -51.5 -121.5t-20.5 -118.5z" />
<glyph unicode="&#x44b;" horiz-adv-x="1458" d="M70 868v54l323 69l33 -28l-98 -400q171 23 231 23q125 0 207 -67t82 -187q0 -64 -16.5 -116.5t-43.5 -88t-65.5 -62.5t-77 -42.5t-83 -25t-79.5 -12.5t-71 -3q-97 0 -161 15t-96.5 46.5t-44.5 69t-12 92.5q0 49 17 123l127 512zM254 211q0 -75 49.5 -111.5t116.5 -36.5 q256 0 256 256q0 49 -13.5 85t-32 54.5t-45 29.5t-45.5 13.5t-40 2.5q-25 0 -54 -3t-52 -8t-42.5 -9.5t-31.5 -7.5t-13 -3l-45 -182q-8 -27 -8 -80zM971 111q0 36 16 116l156 744h164l-138 -629q-22 -100 -22 -147q0 -44 27.5 -73.5t70.5 -29.5q45 0 127 27v-62 q-153 -75 -256 -75q-145 0 -145 129z" />
<glyph unicode="&#x44c;" horiz-adv-x="970" d="M70 868v54l323 69l33 -28l-98 -400q133 23 225 23q30 0 57.5 -3t67 -11t70.5 -26.5t59.5 -46.5t44.5 -74.5t16 -105.5q0 -155 -109.5 -246t-346.5 -91q-96 0 -160 15t-96.5 46.5t-45 69t-12.5 92.5q0 49 17 123l127 512zM254 211q0 -75 49.5 -111.5t116.5 -36.5 q128 0 201 64q75 70 75 190q0 65 -32 109.5t-74 61t-88 16.5q-91 0 -193 -31l-47 -182q-8 -27 -8 -80z" />
<glyph unicode="&#x44d;" horiz-adv-x="901" d="M-29 162q0 49 30 77.5t75 28.5t90 -39l-37 -102q51 -64 141 -64q58 0 121 29t115 96q87 112 106 299l-61 -47q-37 -26 -80 -26q-9 0 -20 3t-24.5 9.5t-23 12t-24.5 14t-19 10.5q-53 31 -102 31q-67 0 -135 -60v82l72 35q8 4 26.5 13.5t31 15.5t31 11t35.5 5 q43 0 99.5 -32t93.5 -32q106 0 106 84q0 132 -60 199.5t-159 67.5q-147 0 -317 -123v94q82 61 184 98t197 37q64 0 115.5 -14t85 -36t58 -56t37.5 -66t20.5 -74.5t9.5 -73t2 -69.5q0 -180 -68 -320.5t-192.5 -219t-286.5 -78.5q-124 0 -198.5 55.5t-74.5 124.5z" />
<glyph unicode="&#x44e;" horiz-adv-x="1495" d="M61 0l168 838l-168 30v54l304 65h53l-88 -446h217q37 161 131 272q149 176 360 176q151 0 246 -100q100 -115 100 -297q0 -84 -22.5 -170.5t-67.5 -165t-106 -140t-145 -98t-179 -36.5q-155 0 -246 106q-43 51 -66.5 128t-23.5 165q0 24 4 70h-219l-80 -451h-172z M692 377q0 -78 14.5 -137t35 -91.5t49 -53t51.5 -26.5t47 -6q77 0 141 52t102.5 133.5t59 172t20.5 175.5q0 311 -198 311q-70 0 -132 -48.5t-102.5 -125t-64 -170.5t-23.5 -186z" />
<glyph unicode="&#x44f;" horiz-adv-x="1105" d="M-78 92q0 44 29.5 73.5t73.5 31.5l94 -88q66 66 104 133l56 96q24 39 44.5 62t55.5 42q-89 14 -151 70t-62 154q0 72 36 138.5t101 110.5q107 74 313 74q160 0 336 -18l-135 -629q-22 -103 -22 -147t27.5 -73.5t70.5 -29.5q45 0 127 27v-62q-153 -75 -256 -75 q-146 0 -146 129q0 23 17 116l43 203h-131q-109 0 -164 -111l-41 -83q-127 -254 -291 -254q-63 0 -96 32.5t-33 77.5zM330 674q0 -48 21.5 -82t57 -50t69 -23t69.5 -7q81 0 149 8l78 369q-71 18 -153 18q-49 0 -95 -10t-92.5 -33.5t-75 -72.5t-28.5 -117z" />
<glyph unicode="&#x451;" horiz-adv-x="872" d="M41 350q0 85 24 175t70.5 172.5t109 148t147.5 104.5t177 39q94 0 151.5 -54.5t57.5 -143.5q0 -67 -32.5 -122t-86 -91.5t-128 -62.5t-150.5 -40t-162 -20q-6 -41 -6 -84q0 -74 18.5 -133t67 -100.5t121.5 -41.5q55 0 102.5 13t93 43t69 49.5t69.5 60.5v-94 q-186 -186 -396 -186q-74 0 -131.5 25t-91.5 63.5t-56 89.5t-30 97t-8 93zM229 524q96 4 186 35t153 91.5t63 137.5q0 52 -30.5 85.5t-76.5 33.5q-12 0 -24.5 -1.5t-36.5 -10t-45.5 -23t-49 -43t-51 -67.5t-47 -100.5t-41.5 -137.5zM287 1315q0 41 30.5 71.5t71.5 30.5 t72 -30.5t31 -71.5t-31 -72t-72 -31t-71.5 31t-30.5 72zM672 1315q0 41 30.5 71.5t71.5 30.5t72 -30.5t31 -71.5t-31 -72t-72 -31t-71.5 31t-30.5 72z" />
<glyph unicode="&#x452;" horiz-adv-x="1064" d="M47 0l225 1096h-204l20 90h205l37 186l-191 21v53l320 61h63q-30 -115 -76 -321h414l-22 -90h-410l-66 -326q64 56 148 107q26 15 55.5 29t75.5 28t84 14q87 0 143 -69q68 -85 68 -252q0 -124 -28 -273t-77 -280q-59 -158 -155 -289q-32 -44 -58.5 -76.5t-58 -63 t-61 -49.5t-63 -30.5t-68.5 -11.5q-32 0 -55.5 10t-36 26.5t-18 34t-5.5 35.5q0 10 2 21t13 30.5t30 32.5l213 -55q60 60 117 208.5t88 286.5q45 209 45 389q0 57 -5.5 98.5t-19 77.5t-41 54t-67.5 18q-54 0 -148 -55q-66 -41 -133 -94l-127 -672h-172z" />
<glyph unicode="&#x453;" horiz-adv-x="860" d="M49 201q0 156 195 268l164 94q27 17 42 27.5t44 37.5t44 62.5t15 77.5q0 52 -29.5 85.5t-85.5 33.5q-69 0 -164 -56l-149 -86v86l133 82q124 76 248 76q37 0 73 -11t70 -33.5t55 -65t21 -97.5q0 -51 -16 -93t-48.5 -75.5t-65.5 -57t-83 -52.5l-137 -82 q-70 -43 -106 -89.5t-36 -107.5q0 -125 162 -125q90 0 187.5 45t183.5 117v-94q-83 -76 -203 -131t-229 -55q-108 0 -178 38q-60 33 -83.5 83t-23.5 98zM463 1118l272 389h203l-375 -389h-100z" />
<glyph unicode="&#x454;" horiz-adv-x="860" d="M41 356q0 259 162 447q85 98 186.5 142t233.5 44q120 0 174.5 -41t54.5 -96q0 -44 -30 -74t-74 -33l-109 150q-37 12 -78 12q-133 0 -228 -108t-110 -262l160 67q26 -11 68 -32.5t70.5 -31.5t56.5 -10q34 0 77 19t72 41v-82q-122 -76 -199 -76q-43 0 -82.5 18t-70.5 36 t-53 18q-21 0 -53.5 -15.5t-53.5 -33.5q-2 -18 -2 -60q0 -54 9 -100.5t29.5 -90.5t61 -69.5t97.5 -25.5q59 0 110 12.5t96.5 38t77.5 49.5t76 63v-94q-81 -75 -199 -135.5t-229 -60.5q-74 0 -133.5 33.5t-95 88.5t-54 119.5t-18.5 132.5z" />
<glyph unicode="&#x455;" horiz-adv-x="757" d="M-33 160q0 52 31 80t74 28q45 0 90 -39l-37 -102q54 -72 147 -72q72 0 128.5 46.5t56.5 123.5q0 32 -10 59t-33 52t-38.5 38t-48.5 37q-4 3 -6.5 5t-5.5 4q-117 89 -155.5 136t-38.5 118q0 29 10 66.5t36.5 82t64.5 81t100.5 61t138.5 24.5q97 0 145 -40.5t48 -88.5 q0 -39 -32 -71.5t-87 -32.5l-86 118q-33 23 -66 23q-59 0 -100 -40t-41 -97q0 -18 4 -34t14 -31.5t17.5 -26.5t25.5 -27t27.5 -23.5t33 -25.5t32.5 -25q132 -103 169 -153t37 -113q0 -145 -108 -233q-52 -42 -124.5 -64t-146.5 -22q-126 0 -196 50.5t-70 127.5z" />
<glyph unicode="&#x456;" horiz-adv-x="585" d="M66 868v54l303 65h53l-148 -764q-6 -30 -6 -47q0 -84 88 -84q68 0 162 27v-62q-176 -75 -282 -75q-138 0 -138 141q0 42 13 104l122 611zM299 1331q0 46 32.5 78.5t78.5 32.5t78 -32.5t32 -78.5t-32 -78t-78 -32t-78.5 32t-32.5 78z" />
<glyph unicode="&#x457;" horiz-adv-x="585" d="M66 868v54l303 65h53l-148 -764q-6 -30 -6 -47q0 -84 88 -84q68 0 162 27v-62q-176 -75 -282 -75q-138 0 -138 141q0 42 13 104l122 611zM143 1315q0 41 31 71.5t72 30.5t71.5 -30.5t30.5 -71.5t-30.5 -72t-71.5 -31t-72 31t-31 72zM451 1315q0 41 30.5 71.5t71.5 30.5 t71.5 -30.5t30.5 -71.5t-30.5 -72t-71.5 -31t-71.5 31t-30.5 72z" />
<glyph unicode="&#x458;" horiz-adv-x="552" d="M-262 -340q0 52 45 84l213 -55q50 50 96 205q38 131 70 350l92 612l-201 25v53l332 53h53l-114 -729q-28 -169 -53.5 -261t-84.5 -187q-40 -64 -87 -117.5t-116 -96t-137 -42.5q-59 0 -83.5 33.5t-24.5 72.5zM291 1331q0 46 32 78.5t78 32.5t78.5 -32.5t32.5 -78.5 t-32.5 -78t-78.5 -32t-78 32t-32 78z" />
<glyph unicode="&#x459;" horiz-adv-x="1495" d="M-106 86q0 43 25.5 74.5t66.5 40.5l120 -103q59 46 109 121.5t107 222.5q80 220 122 406l-172 65v54h682l-102 -404q133 23 225 23q170 0 250 -84q66 -70 66 -183q0 -174 -150 -266q-118 -71 -307 -71q-116 0 -197 30q-60 26 -88 72.5t-28 120.5q0 53 16 123l141 549 h-217q-72 -285 -149 -476q-101 -252 -224 -352q-88 -72 -184 -72q-53 0 -82.5 30t-29.5 79zM778 211q0 -82 56 -119q43 -29 110 -29q128 0 201 64q76 71 76 190q0 84 -41 129q-51 58 -154 58q-90 0 -195 -31l-45 -182q-8 -27 -8 -80z" />
<glyph unicode="&#x45a;" horiz-adv-x="1474" d="M61 0l168 838l-168 30v54l304 65h53l-84 -426h377l84 410h163l-90 -410h207q297 0 297 -235q0 -151 -105 -247.5t-309 -96.5q-174 0 -244.5 52t-70.5 152q0 40 19 142l28 143h-373l-84 -471h-172zM799 199q0 -50 27.5 -82t64.5 -43t84 -11q125 0 185.5 67.5t60.5 170.5 q0 29 -2 47t-14 44t-33.5 41t-64 26.5t-103.5 11.5h-156l-41 -197q-8 -40 -8 -75z" />
<glyph unicode="&#x45b;" horiz-adv-x="1128" d="M47 0l225 1096h-204l20 90h205l37 186l-191 21v53l320 61h63q-30 -115 -76 -321h414l-22 -90h-410l-68 -346q66 56 175 122q123 76 223 76q88 0 133 -53q39 -47 39 -125q0 -46 -31 -178l-59 -260q0 -2 -7.5 -32.5t-11.5 -55t-4 -49.5q0 -51 27.5 -77t70.5 -26 q45 0 127 27v-62q-83 -41 -155 -59q-53 -16 -101 -16q-72 0 -108.5 34t-36.5 95q0 18 16 110l78 338q2 9 6.5 29t7 32.5t5 33t2.5 40.5q0 59 -23 88q-25 39 -82 39q-73 0 -168 -59q-74 -48 -141 -111l-123 -651h-172z" />
<glyph unicode="&#x45c;" horiz-adv-x="1085" d="M61 868v54l324 69l33 -28l-111 -541h4q246 305 416 450q133 117 225 117q45 0 79 -26t34 -74q0 -44 -31 -81t-82 -52l-98 88q-79 -40 -170.5 -128.5t-134.5 -146.5q101 -219 176 -338q90 -139 195 -139q49 0 104 14v-61q-174 -55 -244 -55q-52 0 -98 34t-90 123l-154 318 l-153 -178l-47 -287h-172l167 840zM575 1118l273 389h203l-375 -389h-101z" />
<glyph unicode="&#x45e;" horiz-adv-x="970" d="M-231 -311q0 45 32 75.5t76 36.5l121 -120q59 11 108 39.5t92 79t76 102.5t76 131l-131 622q-31 148 -78 213l-174 13v53l201 59q8 2 27 2q80 0 120 -86q26 -60 84 -354l68 -346q157 401 321 778h39l162 -53v-43l-104 -62q-68 -87 -114.5 -170.5t-119.5 -242.5 q-128 -270 -186 -376q-226 -407 -448 -473q-44 -13 -89 -13q-72 0 -115.5 38.5t-43.5 96.5zM289 1307q0 56 37 91.5t98 35.5q36 0 70 -15v-155q37 -15 79 -15q64 0 116.5 27.5t83.5 70t49 83t24 77.5h74q-11 -114 -70.5 -197.5t-143.5 -123t-182 -39.5q-66 0 -113.5 14 t-70 32t-35.5 44t-14.5 40t-1.5 30z" />
<glyph unicode="&#x45f;" horiz-adv-x="1155" d="M70 868v54l323 69l33 -28l-129 -598q-23 -102 -23 -150q0 -60 34.5 -88.5t80.5 -28.5q73 0 141.5 33.5t153.5 97.5l156 742h164l-138 -631q-22 -102 -22 -145q0 -44 27.5 -73.5t70.5 -29.5q45 0 127 27v-62q-153 -75 -258 -75q-137 0 -137 139q0 23 2 33 q-78 -69 -179 -120.5t-194 -51.5q-86 0 -141.5 45.5t-55.5 146.5q0 37 17 125l119 541zM381 -504q48 26 81.5 68t33.5 76q0 17 -20.5 89t-20.5 91q0 30 35 90t88 113h57q-43 -46 -43 -115q0 -32 21.5 -101t21.5 -118q0 -20 -5.5 -40t-12.5 -35t-22 -33t-25.5 -29.5t-32 -29 t-32 -25.5t-35.5 -26t-34 -24z" />
<glyph unicode="&#x462;" horiz-adv-x="1433" d="M76 924l57 307h445l16 84l-21 31l-131 10v78h500v-78l-135 -10l-33 -31l-16 -84h459l-56 -279h-108v154l-23 31h-291l-67 -349q90 11 174 11q229 0 357 -92.5t128 -268.5q0 -78 -21 -142.5t-55 -109.5t-84.5 -78.5t-103 -53.5t-116.5 -32.5t-120 -17t-118 -4.5h-512v78 l131 10l33 31l194 1018h-272l-35 -31l-66 -182h-110zM541 94q46 -4 114 -4q262 0 379 103q101 91 101 243q0 130 -76 201q-34 33 -81 49.5t-79.5 19.5t-83.5 3q-65 0 -162 -11z" />
<glyph unicode="&#x463;" horiz-adv-x="1515" d="M61 0l168 838l-168 30v54l304 65h53l-39 -196q53 46 80 68t80 59t101.5 54t96.5 17q178 0 178 -178q0 -49 -28 -178l-17 -70q157 23 228 23q30 0 57.5 -3t67 -11t70.5 -26.5t59.5 -46.5t44.5 -74.5t16 -105.5q0 -155 -110 -246t-347 -91q-92 0 -154 14.5t-96.5 44.5 t-48.5 68t-14 92q0 53 16 127l64 272q18 81 18 127q0 135 -106 135q-66 0 -148 -59q-66 -50 -127 -111l-127 -692h-172zM799 213q0 -77 48.5 -113.5t117.5 -36.5q127 0 200 64q76 71 76 190q0 65 -32 109.5t-74 61t-88 16.5q-90 0 -197 -31l-43 -182q-8 -36 -8 -78z" />
<glyph unicode="&#x472;" horiz-adv-x="1449" d="M82 543q0 121 33 243.5t98.5 232t154.5 195t210 135.5t256 50q160 0 283.5 -78t187 -205t63.5 -280q0 -214 -92.5 -411.5t-257.5 -318.5q-179 -131 -393 -131q-111 0 -203 32.5t-154 87t-104.5 128t-62 154t-19.5 166.5zM279 530q0 -192 77 -311q51 -78 124.5 -111.5 t150.5 -33.5q42 0 85 10t94.5 34.5t105 75.5t100.5 123q100 156 133 336q-112 -88 -219 -88q-66 0 -166 39l-90 35q-162 63 -234 63q-89 0 -155 -71q-6 -46 -6 -101zM301 729q16 14 39.5 30t79 38t108.5 22q74 0 193 -45l113 -43q129 -49 174 -49q38 0 81 17.5t76 52.5 q6 50 6 100q0 200 -96 324t-258 124q-73 0 -151 -38t-150.5 -107.5t-130.5 -180.5t-84 -245z" />
<glyph unicode="&#x473;" d="M41 375q0 115 40.5 232t115.5 206q78 91 174 133.5t192 42.5q157 0 248 -100q102 -110 102 -297q0 -119 -44.5 -240.5t-127.5 -210.5q-148 -159 -354 -159q-155 0 -252 106q-94 106 -94 287zM213 379q0 -75 14 -133t35 -91.5t49 -55t52.5 -29t48.5 -7.5q55 0 114.5 33.5 t108.5 104.5q78 113 98 272q-32 -30 -75.5 -54t-84.5 -24q-42 0 -98 31l-49 27q-78 43 -107 43q-47 0 -76.5 -32.5t-29.5 -84.5zM225 520q28 28 68 51t74 23q41 0 108 -35l62 -33q62 -32 86 -32q46 0 82 29t36 83q0 143 -56.5 222t-143.5 79q-41 0 -87 -22t-92.5 -66 t-84 -122t-52.5 -177z" />
<glyph unicode="&#x474;" horiz-adv-x="1366" d="M61 1296v78h428v-78l-112 -10l-15 -31l160 -1067l359 680q185 352 313 461q84 70 168 70q51 0 87 -29t36 -84q0 -51 -31.5 -86.5t-85.5 -42.5l-127 94q-112 -133 -270 -422l-455 -839h-127l-199 1259l-32 37z" />
<glyph unicode="&#x475;" horiz-adv-x="1110" d="M-16 872v54l206 67h9q49 0 76.5 -16t46.5 -66.5t28 -148.5l51 -543q83 183 185 359q145 248 252 340q87 71 178 71q55 0 83.5 -30t28.5 -78q0 -43 -25.5 -74.5t-66.5 -40.5l-121 96q-57 -48 -116 -122t-142 -218q-124 -210 -215 -405l-55 -117h-127v49q0 107 -6 160 l-51 481q-4 40 -8 63t-17.5 55t-36.5 56z" />
<glyph unicode="&#x490;" horiz-adv-x="983" d="M-53 0v78l131 10l33 31l217 1136l-21 31l-131 10v78h715l35 31l82 197h98l-72 -383h-49l-113 61h-360l-221 -1161l24 -41h148v-78h-516z" />
<glyph unicode="&#x491;" horiz-adv-x="860" d="M49 201q0 80 55 155q42 56 140 113l164 94q88 53 120 107q25 42 25 98q0 54 -30 86.5t-85 32.5q-69 0 -164 -56l-149 -86v86l102 420h189l-217 -379l6 -2l76 48q39 24 64 36.5t68 23.5t93 11q97 0 153 -49q66 -57 66 -158q0 -54 -17 -97t-53.5 -78t-64 -54t-78.5 -49 l-137 -82q-72 -43 -99 -78q-43 -49 -43 -119q0 -67 47 -96t115 -29q86 0 176 41q102 45 195 121v-94q-80 -73 -199 -129.5t-233 -56.5q-108 0 -178 38q-60 33 -83.5 83t-23.5 98z" />
<glyph unicode="&#x492;" d="M-53 0v78l131 10l33 31l106 559h-180l18 94h181l92 483l-21 31l-131 10v78h930l-64 -321h-98v194l-20 33h-412l-96 -508h309l-18 -94h-310l-106 -559l24 -41h148v-78h-516z" />
<glyph unicode="&#x493;" horiz-adv-x="860" d="M-41 442l18 90h205l66 330l-176 56v53h809l-64 -334h-90v211l-25 33h-286l-68 -349h246l-16 -90h-246l-86 -442h-170l88 442h-205z" />
<glyph unicode="&#x494;" horiz-adv-x="1187" d="M-53 0v78l131 10l33 31l217 1136l-21 31l-131 10v78h930l-62 -307h-110v180l-21 33h-401l-102 -535q178 48 319 48q193 0 285 -109q73 -89 73 -240q0 -227 -123 -348t-315 -121q-103 0 -196 50l57 297h94v-211l27 -29q32 -8 57 -8q92 0 147.5 103t55.5 251q0 138 -60 203 q-58 63 -174 63q-133 0 -266 -47l-123 -647h-321z" />
<glyph unicode="&#x495;" horiz-adv-x="976" d="M51 918v53h809l-55 -293h-98v170l-25 33h-287l-86 -443q161 72 277 72q74 0 131.5 -24.5t90.5 -66t49.5 -90t16.5 -102.5q0 -111 -45 -233q-43 -115 -139 -238q-33 -41 -61 -71t-67.5 -62.5t-83.5 -50.5t-89 -18q-61 0 -88 32t-27 74q0 52 45 84l213 -55q67 65 127 266 q41 156 41 260q0 205 -182 205q-108 0 -225 -68l-68 -352h-170l172 862z" />
<glyph unicode="&#x496;" horiz-adv-x="1855" d="M-102 0v78h12q154 0 248 162l149 260q56 95 131 145q73 51 178 64v4q-55 24 -90.5 71t-56.5 131l-51 205q-1 3 -4 16t-3.5 15.5t-3.5 13.5t-4 14l-4 12t-5 13t-5 12t-6 13.5t-7 13t-9 14.5l-140 -81q-30 9 -47.5 35.5t-17.5 60.5q0 63 42 91t95 28q39 0 66.5 -9 t57.5 -35.5t55 -80.5t46 -138l49 -194q48 -197 183 -197h71l99 518l-21 31l-131 10v78h500v-78l-135 -10l-33 -31l-98 -518h71q77 0 140.5 48.5t105.5 123.5l152 269q123 213 278 213q59 0 98 -25.5t39 -81.5q0 -43 -26.5 -71.5t-67.5 -36.5l-127 94q-43 -43 -94 -129 l-139 -246q-38 -68 -85.5 -116.5t-123.5 -69.5v-4q145 -49 203 -236l106 -350l25 -25h184l-90 -442h-90v317l-23 31h-184v70l-125 446q-41 139 -164 139h-80l-102 -536l24 -31l131 -10v-78h-499v78l131 10l33 31l102 536h-84q-134 0 -207 -129l-190 -344q-11 -20 -23.5 -38 t-25 -32t-25.5 -26.5t-24 -21.5t-21.5 -16.5t-17.5 -11.5t-13 -8l-6 -3q-70 -37 -172 -37q-42 0 -104 12z" />
<glyph unicode="&#x497;" horiz-adv-x="1765" d="M-20 123q0 42 32 76t88 34l80 -170q140 28 213 230q66 177 66 389q0 22 -1 37.5t-4 41t-10.5 43t-19.5 35t-32.5 26.5t-47.5 9q-111 0 -258 -147v94q3 3 25.5 23t30 25.5t30 24t34.5 25.5t35 21t41 20.5t42 14.5t48 11t50 3q92 0 138 -71.5t46 -186.5q0 -135 -45 -293h4 l277 361l41 172h147l-151 -660h4l317 410q52 95 119 162q106 106 233 106q75 0 119.5 -42.5t44.5 -98.5q0 -43 -29.5 -76.5t-80.5 -34.5l-80 170q-143 -29 -221 -229q-30 -75 -47 -175.5t-17 -185.5q0 -208 133 -208q34 0 111.5 37t136.5 92v-95l-39 -34q-35 -32 -50 -48.5 t-32 -52.5t-24 -84q-6 -42 -8.5 -81.5t-6.5 -61.5q-7 -39 -29 -70.5t-47.5 -51t-66.5 -36.5t-69.5 -25.5t-73.5 -19.5v82q131 8 147 115q7 60 16 94.5t36.5 74.5t76.5 72v4q-86 -38 -168 -38q-51 0 -89.5 26t-59.5 68.5t-31 88.5t-10 93q0 134 39 274h-5l-274 -360l-35 -172 h-147l151 659h-4l-325 -417q-50 -89 -115 -154q-106 -106 -242 -106q-78 0 -117.5 45t-39.5 96z" />
<glyph unicode="&#x498;" horiz-adv-x="1105" d="M-29 47l60 324h92v-211l18 -27q88 -59 205 -59q84 0 159.5 20.5t137.5 61t98.5 109t36.5 157.5q0 117 -80.5 180.5t-218.5 63.5q-71 0 -135 -17v111h78q48 0 95.5 7.5t103 29.5t97 57t69.5 96t28 140q0 36 -10 69.5t-33.5 67t-71 53.5t-114.5 20q-113 0 -217 -55l-31 -31 l-70 -200h-98l61 315q199 70 394 70q27 0 56 -2.5t68 -10t74 -20t70.5 -35t61 -51.5t41.5 -72.5t16 -95.5q0 -103 -52 -184.5t-131.5 -128.5t-177.5 -66v-4q143 0 233.5 -89t90.5 -218q0 -95 -34 -172t-86.5 -124.5t-123 -81.5t-135 -49t-131.5 -20l-33 -385h-186l98 385 q-197 2 -373 72z" />
<glyph unicode="&#x499;" horiz-adv-x="860" d="M-29 162q0 49 30 77.5t75 28.5t90 -39l-37 -102q60 -64 152 -64q76 0 132.5 24.5t85 62.5t41.5 75t13 72q0 31 -8.5 59t-28 55t-57.5 43.5t-90 16.5l-176 -20v102h124q123 0 200 61.5t77 143.5q0 67 -48.5 98t-107.5 31q-86 0 -176.5 -39t-159.5 -86v94q179 133 392 133 q272 0 272 -209q0 -94 -63.5 -157.5t-159.5 -96.5v-4q85 -15 133.5 -69.5t48.5 -135.5q0 -37 -11.5 -77.5t-41.5 -85.5t-73.5 -81t-114.5 -61.5t-158 -29.5q-19 -42 -19 -80q0 -32 21.5 -101t21.5 -118q0 -23 -5.5 -43.5t-19 -41t-24 -34.5t-34.5 -34t-35.5 -29.5t-41 -31 t-38.5 -28.5l-56 49q48 26 81.5 68t33.5 75q0 17 -20.5 89.5t-20.5 91.5q0 51 59 127l33 41h-35q-106 0 -181 51t-75 129z" />
<glyph unicode="&#x49a;" horiz-adv-x="1310" d="M-53 0v78l131 10l33 31l217 1136l-21 31l-131 10v78h500v-78l-135 -10l-33 -31l-96 -497h110q157 0 242 151l156 269q125 213 278 213q59 0 98 -25.5t39 -81.5q0 -43 -26.5 -71.5t-67.5 -36.5l-123 94q-8 -7 -15 -14t-13.5 -14.5t-10.5 -12.5t-10 -13.5t-9 -12.5 t-9 -14.5t-8 -13.5t-9.5 -16.5t-9.5 -17.5l-139 -244q-83 -144 -213 -180v-4q47 -16 83 -43.5t58.5 -63.5t36 -67t24.5 -70l107 -350l25 -25h184l-90 -442h-90v317l-23 31h-184v70l-125 446q-46 160 -164 160h-119l-104 -557l24 -31l131 -10v-78h-499z" />
<glyph unicode="&#x49b;" horiz-adv-x="1085" d="M61 868v54l324 69l33 -28l-111 -541h4q246 305 416 450q133 117 225 117q45 0 79 -26t34 -74q0 -44 -31 -81t-82 -52l-98 88q-79 -40 -170.5 -128.5t-134.5 -146.5q101 -219 176 -338q90 -139 195 -139q49 0 104 14v-61q-46 -30 -63.5 -80t-18.5 -114t-2 -70 q-7 -39 -29.5 -70.5t-47.5 -51t-66.5 -36.5t-70 -25.5t-73.5 -19.5v82q132 8 148 115q7 60 16 94.5t36.5 74.5t76.5 72v4q-78 -30 -150 -30q-111 0 -188 157l-154 318l-153 -178l-47 -287h-172l167 840z" />
<glyph unicode="&#x49c;" horiz-adv-x="1433" d="M-53 0v78l131 10l33 31l217 1136l-21 31l-131 10v78h500v-78l-135 -10l-33 -31l-96 -497h190l51 266h90l-51 -266q54 3 106 45t89 106l155 269q125 213 279 213q59 0 98 -25.5t39 -81.5q0 -43 -26.5 -71.5t-67.5 -36.5l-123 94q-8 -7 -15 -14t-13.5 -14.5t-10.5 -12.5 t-10 -13.5t-9 -12.5t-9 -14.5t-8 -13.5t-9.5 -16.5t-9.5 -17.5l-139 -244q-83 -144 -213 -180v-4q47 -16 83 -43.5t58.5 -63.5t36 -67t24.5 -70l107 -350l49 -31l141 -10v-78h-368v70l-125 446q-8 29 -21 58.5t-41.5 62t-62.5 39.5l-62 -328h-90l62 328h-191l-104 -557 l24 -31l131 -10v-78h-499z" />
<glyph unicode="&#x49d;" horiz-adv-x="1208" d="M61 868v54l324 69l33 -28l-105 -514l131 61l45 248h91l-41 -211q168 202 311 325q133 117 225 117q45 0 79 -26t34 -74q0 -44 -31 -81t-82 -52l-98 88q-79 -40 -170.5 -128.5t-134.5 -146.5q101 -219 176 -338q17 -26 31.5 -44.5t39.5 -43t56.5 -38t66.5 -13.5 q50 0 105 14v-61q-174 -55 -244 -55q-52 0 -98 34t-90 123l-154 318l-35 -16l-49 -293h-92l49 268l-131 -64l-65 -360h-172l167 840z" />
<glyph unicode="&#x4a0;" horiz-adv-x="1564" d="M102 1067l58 307h770v-78l-135 -10l-33 -31l-96 -497h110q157 0 242 151l156 269q125 213 278 213q59 0 98 -25.5t39 -81.5q0 -43 -26.5 -71.5t-67.5 -36.5l-123 94q-8 -7 -15 -14t-13.5 -14.5t-10.5 -12.5t-10 -13.5t-9 -12.5t-9 -14.5t-8 -13.5t-9.5 -16.5t-9.5 -17.5 l-139 -244q-83 -144 -213 -180v-4q47 -16 83 -43.5t58.5 -63.5t36 -67t24.5 -70l107 -350l49 -31l141 -10v-78h-368v70l-125 446q-46 160 -164 160h-119l-104 -557l24 -31l131 -10v-78h-499v78l131 10l33 31l221 1161h-273l-34 -31l-66 -182h-111z" />
<glyph unicode="&#x4a1;" horiz-adv-x="1310" d="M37 637l63 334h545l-113 -549h5q248 308 415 450q133 117 226 117q45 0 78.5 -26t33.5 -74q0 -44 -30.5 -81t-81.5 -52l-99 88q-79 -40 -170.5 -128.5t-134.5 -146.5q101 -219 176 -338q90 -139 195 -139q49 0 104 14v-61q-174 -55 -243 -55q-52 0 -98.5 34t-90.5 123 l-153 318l-154 -178l-47 -287h-172l176 881h-221l-37 -33l-82 -211h-90z" />
<glyph unicode="&#x4a2;" horiz-adv-x="1466" d="M-53 0v78l131 10l33 31l217 1136l-21 31l-131 10v78h500v-78l-135 -10l-33 -31l-94 -489h663l94 489l-20 31l-131 10v78h500v-78l-136 -10l-32 -31l-217 -1136l24 -25h156l-90 -442h-90v317l-23 31h-321v78l131 10l32 31l105 553h-664l-104 -553l24 -31l131 -10v-78h-499 z" />
<glyph unicode="&#x4a3;" horiz-adv-x="1130" d="M61 0l168 838l-168 30v54l304 65h53l-84 -426h397l84 410h164l-137 -629q-23 -105 -23 -147q0 -44 27.5 -73.5t71.5 -29.5t126 27v-62q-42 -30 -58.5 -78t-19 -116t-5.5 -82q-7 -39 -29.5 -70.5t-47.5 -51t-66.5 -36.5t-70 -25.5t-73.5 -19.5v82q131 8 147 115 q7 60 16 94.5t36.5 74.5t76.5 72v4q-101 -38 -168 -38q-41 0 -70.5 12.5t-43.5 33.5t-19.5 41t-5.5 42q0 33 16 116l54 244h-396l-84 -471h-172z" />
<glyph unicode="&#x4a4;" horiz-adv-x="1720" d="M-53 0v78l131 10l33 31l217 1136l-21 31l-131 10v78h500v-78l-135 -10l-33 -31l-94 -489h663l94 489l-20 31l-131 10v78h807l-62 -307h-102v182l-23 31h-284l-221 -1161l24 -31l131 -10v-78h-499v78l131 10l32 31l105 553h-664l-104 -553l24 -31l131 -10v-78h-499z" />
<glyph unicode="&#x4a5;" horiz-adv-x="1310" d="M61 0l168 838l-168 30v54l304 65h53l-84 -426h397l62 301l-113 56v53h651l-63 -334h-90v211l-25 33h-192l-170 -881h-170l94 471h-398l-84 -471h-172z" />
<glyph unicode="&#x4aa;" horiz-adv-x="1236" d="M82 547q0 156 47.5 294t129 238.5t187 173.5t223 109.5t236.5 36.5q179 0 369 -70l-57 -315h-87v196l-16 39q-100 51 -215 51q-114 0 -225.5 -48t-200.5 -150q-95 -109 -144.5 -260t-49.5 -310q0 -37 3 -73t14 -83t29.5 -87.5t51.5 -81t76.5 -69t109.5 -46.5t146 -18 q89 0 172 26l39 35l92 236h86l-56 -324q-177 -63 -325 -70l-33 -387h-186l100 387q-122 1 -216.5 47.5t-154.5 110.5q-145 157 -145 412z" />
<glyph unicode="&#x4ab;" horiz-adv-x="819" d="M41 356q0 129 47.5 248t123 202t171.5 133t192 50q92 0 143.5 -41t51.5 -98q0 -49 -38 -80t-91 -33l-119 158q-134 -9 -217 -131q-48 -71 -70 -176.5t-22 -198.5q0 -85 16 -143t45 -86.5t60.5 -39.5t71.5 -11q90 0 166.5 43.5t156.5 119.5v-94q-71 -76 -167.5 -131.5 t-166.5 -64.5q-22 -38 -22 -84q0 -32 21.5 -101.5t21.5 -118.5q0 -23 -5.5 -44t-19.5 -41.5t-24 -34.5t-35 -34t-35.5 -29t-41 -30.5t-38.5 -27.5l-55 49q47 26 80.5 67.5t33.5 75.5q0 17 -20 89.5t-20 91.5q0 53 59 127l37 45q-33 1 -67 10.5t-75.5 35t-73.5 65t-53.5 108 t-21.5 155.5z" />
<glyph unicode="&#x4ae;" horiz-adv-x="1146" d="M61 1296v78h498v-78l-133 -10l-31 -31l180 -579l429 579l-21 31l-131 10v78h459v-78l-135 -10l-33 -31l-520 -680l-86 -456l24 -31l131 -10v-78h-499v78l131 10l32 31l86 438l-227 698l-20 31z" />
<glyph unicode="&#x4af;" horiz-adv-x="929" d="M-16 872v54l206 67h9q49 0 76.5 -16t46.5 -66.5t28 -148.5l53 -563q222 274 314 506l-39 249q45 39 104 39q48 0 77.5 -29t29.5 -81q0 -72 -68 -204.5t-145.5 -244t-143.5 -190.5l-75 -90q-40 -49 -51 -103l-72 -401l166 -35v-61h-492v61l150 25l20 22l78 440q2 8 2 37 q0 34 -4 70l-51 481q-4 40 -8 63t-17.5 55t-36.5 56z" />
<glyph unicode="&#x4b0;" horiz-adv-x="1146" d="M61 1296v78h498v-78l-133 -10l-31 -31l180 -579l429 579l-21 31l-131 10v78h459v-78l-135 -10l-33 -31l-520 -680l-5 -18h287l-18 -98h-287l-63 -340l24 -31l131 -10v-78h-499v78l131 10l32 31l68 340h-287l19 98h286l-227 698l-20 31z" />
<glyph unicode="&#x4b1;" horiz-adv-x="929" d="M-29 0l17 90h266q4 24 4 43q0 36 -4 76l-51 481q-4 40 -8 63t-17.5 55t-36.5 56l-157 8v54l206 67h9q49 0 76.5 -16t46.5 -66.5t28 -148.5l53 -563q222 274 314 506l-39 249q45 39 104 39q48 0 77.5 -29t29.5 -81q0 -72 -68 -204.5t-145.5 -244t-143.5 -190.5l-75 -90 q-4 -6 -12 -15t-12 -14t-8.5 -14t-8.5 -21h293l-17 -90h-295l-63 -350l166 -35v-61h-492v61l150 25l20 22l60 338h-267z" />
<glyph unicode="&#x4b2;" horiz-adv-x="1167" d="M-172 0v78l125 10l43 31l510 577l-246 559l-24 31l-127 10v78h497v-78l-135 -10l-31 -31l183 -424l374 424l-12 31l-117 10v78h426v-78l-143 -10l-481 -549l270 -618l25 -25h155l-90 -442h-90v317l-22 31h-322v78l133 10l33 31l-201 471l-422 -471l21 -31l133 -10v-78 h-465z" />
<glyph unicode="&#x4b3;" horiz-adv-x="978" d="M-96 92q0 44 29.5 73t72.5 32l94 -88q80 50 158 158t127 225q-28 110 -69.5 212.5t-86.5 143.5l-170 20v54l207 69q10 2 27 2q46 0 73 -25.5t46 -66.5q34 -69 94 -321q47 96 96 171t90 118.5t81 71.5t69 38t55 10q51 0 84 -30.5t33 -77.5q0 -42 -28 -75t-73 -44l-88 80 q-146 -54 -274 -350q50 -183 90 -285q11 -26 21.5 -43.5t27.5 -36.5t40.5 -29t53.5 -10t107 18v-61q-46 -30 -63.5 -80t-18.5 -114t-2 -70q-7 -39 -29.5 -70.5t-47.5 -51t-66.5 -36.5t-70 -25.5t-73.5 -19.5v82q132 8 148 115q7 60 16 94.5t36.5 74.5t76.5 72v4 q-85 -34 -140 -34q-108 0 -157 131q-37 96 -76 280q-32 -73 -71.5 -141t-90 -132.5t-110.5 -103t-119 -38.5t-94 28.5t-35 81.5z" />
<glyph unicode="&#x4b6;" horiz-adv-x="1310" d="M119 1296v78h499v-78l-135 -10l-32 -31l-62 -317q-10 -62 -10 -88q0 -43 14.5 -75t35.5 -49.5t51 -28.5t55 -14t53 -3q165 0 334 47l102 528l-20 31l-132 10v78h500v-78l-135 -10l-33 -31l-217 -1136l25 -25h155l-90 -442h-90v317l-22 31h-322v78l131 10l33 31l98 510 q-221 -47 -373 -47q-200 0 -278 82q-59 59 -59 163q0 33 16 121l59 307l-20 31z" />
<glyph unicode="&#x4b7;" horiz-adv-x="1097" d="M41 868v54l324 69l32 -28l-57 -271q-23 -106 -23 -155q0 -61 33 -92t82 -31q114 0 256 102l94 455h164l-137 -629q-23 -106 -23 -149q0 -49 29 -75t70 -26q45 0 127 27v-62q-42 -30 -59 -78t-19.5 -116.5t-5.5 -81.5q-7 -39 -29.5 -70.5t-47.5 -51t-66.5 -36.5t-70 -25.5 t-73.5 -19.5v82q131 8 147 115q10 89 35 141.5t95 99.5v4q-101 -38 -168 -38q-140 0 -140 129q0 41 17 116l47 213l-24 -21q-25 -21 -50.5 -38t-64.5 -38t-89 -33.5t-102 -12.5q-95 0 -144.5 51.5t-49.5 147.5q0 45 18 137l45 207z" />
<glyph unicode="&#x4b8;" horiz-adv-x="1310" d="M119 1296v78h499v-78l-135 -10l-32 -31l-62 -317q-10 -62 -10 -88q0 -82 53 -126t139 -44h17l65 344h90l-65 -340q120 11 244 43l102 528l-20 31l-132 10v78h500v-78l-135 -10l-33 -31l-217 -1136l25 -31l131 -10v-78h-500v78l131 10l33 31l98 510q-142 -30 -246 -39 l-45 -242h-90l45 234h-24q-41 0 -71 1.5t-68.5 7t-66.5 15.5t-57 28.5t-46.5 44t-29 63t-11.5 85.5q0 33 16 121l59 307l-20 31z" />
<glyph unicode="&#x4b9;" horiz-adv-x="1138" d="M41 868v54l324 69l32 -28l-57 -271q-23 -106 -23 -155q0 -63 33.5 -93t81.5 -30q19 0 27 2l59 301h90l-59 -289q89 28 180 88l94 455h164l-137 -629q-23 -106 -23 -149q0 -49 29 -75t70 -26q45 0 127 27v-62q-153 -75 -256 -75q-146 0 -146 129q0 41 17 116l47 213 q-56 -49 -172 -100l-39 -205h-90l35 180q-61 -18 -107 -18q-86 0 -139 50t-53 149q0 45 18 137l45 207z" />
<glyph unicode="&#x4ba;" horiz-adv-x="1310" d="M-53 0v78l135 10l33 31l217 1136l-25 31l-131 10v78h500v-78l-131 -10l-33 -31l-98 -510q226 48 372 48q201 0 279 -82q59 -59 59 -164q0 -33 -16 -121l-59 -307l20 -31l131 -10v-78h-500v78l136 10l32 31l62 317q10 62 10 88q0 43 -14.5 75t-35.5 49.5t-51 28.5t-55 14 t-53 3q-165 0 -334 -47l-102 -528l20 -31l131 -10v-78h-499z" />
<glyph unicode="&#x4bb;" horiz-adv-x="1130" d="M49 0l283 1372l-191 21v53l320 61h63q-33 -121 -82 -362l-71 -354q56 47 92.5 74.5t89.5 60t105.5 48t107.5 15.5q95 0 134.5 -45.5t39.5 -132.5q0 -37 -29 -178l-69 -301q-23 -103 -23 -137q0 -44 27.5 -73.5t71.5 -29.5t126 27v-62q-153 -75 -256 -75q-145 0 -145 129 q0 38 16 110l89 379q18 81 18 135t-26.5 90.5t-77.5 36.5q-36 0 -75 -12.5t-64.5 -25t-66 -44t-52.5 -42t-52 -46.5l-131 -692h-172z" />
<glyph unicode="&#x4c0;" horiz-adv-x="622" d="M-41 0v61l131 27l33 31l217 1136l-21 31l-131 27v61h484v-61l-135 -27l-33 -31l-217 -1136l24 -31l131 -27v-61h-483z" />
<glyph unicode="&#x4c3;" horiz-adv-x="1269" d="M-53 0v78l131 10l33 31l217 1136l-21 31l-131 10v78h500v-78l-135 -10l-33 -31l-96 -497h110q157 0 242 151l156 269q125 213 278 213q59 0 98 -25.5t39 -81.5q0 -43 -26.5 -71.5t-67.5 -36.5l-123 94q-8 -7 -15 -14t-13.5 -14.5t-10.5 -12.5t-10 -13.5t-9 -12.5 t-9 -14.5t-8 -13.5t-9.5 -16.5t-9.5 -17.5l-139 -244q-83 -144 -213 -180v-4q110 -10 192 -50.5t128.5 -102.5t68.5 -133.5t22 -152.5q0 -91 -26 -191t-77 -193.5t-119 -169t-160 -121t-191 -45.5q-81 0 -113 31t-32 71t24.5 76.5t75.5 46.5l166 -127q127 69 192.5 235.5 t65.5 376.5q0 31 -3 62.5t-13.5 73.5t-26.5 79t-45.5 74t-67.5 63.5t-95 43t-126 16.5h-117l-104 -557l24 -31l131 -10v-78h-499z" />
<glyph unicode="&#x4c4;" horiz-adv-x="1085" d="M61 868v54l324 69l33 -28l-111 -541h4q246 305 416 450q133 117 225 117q45 0 79 -26t34 -74q0 -44 -31 -81t-82 -52l-98 88q-165 -89 -385 -361q79 9 96 9q70 0 127.5 -15t95 -39t66 -58.5t44 -68t24.5 -72.5t11.5 -67.5t2.5 -58.5q0 -186 -107 -334 q-169 -225 -337 -225q-61 0 -88 31.5t-27 74.5q0 52 45 84l213 -55q127 107 127 344q0 135 -39 225q-65 150 -234 150q-51 0 -106 -19l-98 -102l-47 -287h-172l167 840z" />
<glyph unicode="&#x4c7;" horiz-adv-x="1458" d="M-53 0v78l131 10l33 31l217 1136l-21 31l-131 10v78h500v-78l-135 -10l-33 -31l-94 -489h663l94 489l-20 31l-131 10v78h500v-78l-136 -10l-32 -31l-207 -1083q-52 -271 -154 -408q-69 -94 -170 -155q-53 -32 -97.5 -43.5t-102.5 -11.5q-81 0 -113.5 31t-32.5 71 t24.5 76.5t75.5 46.5l166 -127q40 19 71.5 55t53 85t36 98t26.5 110l131 672h-664l-104 -553l24 -31l131 -10v-78h-499z" />
<glyph unicode="&#x4c8;" horiz-adv-x="1093" d="M61 0l168 838l-168 30v54l304 65h53l-84 -426h416l65 410h164l-113 -713q-19 -117 -31 -174.5t-38.5 -132.5t-67.5 -141q-40 -64 -87 -117.5t-116 -96t-137 -42.5q-59 0 -83.5 33.5t-24.5 72.5q0 52 45 84l213 -55q52 59 92 205q36 139 69 350l35 227h-418l-84 -471h-172 z" />
<glyph unicode="&#x4d0;" horiz-adv-x="1241" d="M-162 0v78l113 10l756 1298h135l221 -1261l33 -37l100 -10v-78h-448v78l120 10l15 31l-64 389h-497l-220 -389l17 -31l125 -10v-78h-406zM373 596h469l-135 590zM528 1729q0 35 7 86h81q-2 -12 -2 -35q0 -31 8.5 -54t26.5 -36.5t33.5 -21.5t41 -11t37.5 -3.5t34 -0.5 q42 0 69.5 2.5t57 12t49 27t36.5 47.5t27 73h80q-30 -155 -110 -222q-79 -69 -226 -69q-139 0 -198 59q-52 52 -52 146z" />
<glyph unicode="&#x4d1;" horiz-adv-x="1093" d="M41 340q0 91 23 181.5t71 175t115.5 149.5t164 104t208.5 39q94 0 184 -47l41 45h106q-12 -29 -21 -56.5t-17.5 -62t-12.5 -51.5t-13.5 -63t-12.5 -60l-74 -362q-21 -115 -21 -137q0 -44 27.5 -73.5t71.5 -29.5q45 0 127 27v-62q-74 -35 -149 -55t-103 -20 q-58 0 -91.5 40.5t-33.5 118.5v13q-84 -92 -156 -132t-156 -40q-78 0 -135 34.5t-86.5 90.5t-43 114t-13.5 119zM213 356q0 -65 12.5 -113t30 -73t43.5 -39.5t46 -18t44 -3.5q111 0 244 133l106 540l-82 123q-12 2 -34 2q-94 0 -172.5 -45.5t-129.5 -122.5t-79.5 -176 t-28.5 -207zM403 1366q0 35 7 86h82q-3 -18 -3 -35q0 -31 8.5 -54t26.5 -36.5t33.5 -21.5t41 -11t37.5 -3.5t34 -0.5q42 0 69.5 2.5t57 12t49 27t36.5 47.5t27 73h80q-30 -154 -110 -221q-80 -70 -226 -70q-138 0 -198 60q-52 52 -52 145z" />
<glyph unicode="&#x4d2;" horiz-adv-x="1241" d="M-162 0v78l113 10l756 1298h135l221 -1261l33 -37l100 -10v-78h-448v78l120 10l15 31l-64 389h-497l-220 -389l17 -31l125 -10v-78h-406zM373 596h469l-135 590zM502 1675q0 41 30.5 72t71.5 31t72 -31t31 -72t-31 -71.5t-72 -30.5t-71.5 30.5t-30.5 71.5zM887 1675 q0 41 30.5 72t71.5 31t72 -31t31 -72t-31 -71.5t-72 -30.5t-71.5 30.5t-30.5 71.5z" />
<glyph unicode="&#x4d3;" horiz-adv-x="1093" d="M41 340q0 91 23 181.5t71 175t115.5 149.5t164 104t208.5 39q94 0 184 -47l41 45h106q-12 -29 -21 -56.5t-17.5 -62t-12.5 -51.5t-13.5 -63t-12.5 -60l-74 -362q-21 -115 -21 -137q0 -44 27.5 -73.5t71.5 -29.5q45 0 127 27v-62q-74 -35 -149 -55t-103 -20 q-58 0 -91.5 40.5t-33.5 118.5v13q-84 -92 -156 -132t-156 -40q-78 0 -135 34.5t-86.5 90.5t-43 114t-13.5 119zM213 356q0 -65 12.5 -113t30 -73t43.5 -39.5t46 -18t44 -3.5q111 0 244 133l106 540l-82 123q-12 2 -34 2q-94 0 -172.5 -45.5t-129.5 -122.5t-79.5 -176 t-28.5 -207zM377 1315q0 41 30.5 71.5t71.5 30.5t72 -30.5t31 -71.5t-31 -72t-72 -31t-71.5 31t-30.5 72zM762 1315q0 41 30.5 71.5t71.5 30.5t72 -30.5t31 -71.5t-31 -72t-72 -31t-71.5 31t-30.5 72z" />
<glyph unicode="&#x4d4;" horiz-adv-x="1785" d="M-236 0v78l125 26l934 1145l-12 31l-119 12v82h1108l-59 -299h-96v174l-23 31h-440l-101 -520h312l34 28l48 150h88l-88 -449h-76v148l-23 29h-313l-111 -572h523l34 33l72 207h94l-65 -334h-989v78l129 10l32 31l80 405h-493l-326 -399l4 -29l131 -18v-78h-414zM446 621 h435l131 692z" />
<glyph unicode="&#x4d5;" horiz-adv-x="1382" d="M6 190q0 301 586 359l24 125q13 76 13 98q0 62 -35.5 96.5t-99.5 34.5q-56 0 -140 -37l-32 -168h-201q5 128 124 209.5t302 81.5q97 0 148.5 -32t76.5 -107q169 139 305 139q95 0 153 -55.5t58 -147.5q0 -140 -149 -228t-410 -103q-6 -44 -6 -86q0 -125 55.5 -196 t151.5 -71q79 0 158 36.5t176 123.5v-96q-193 -184 -398 -184q-91 0 -155 37t-113 120q-214 -157 -387 -157q-94 0 -149.5 56.5t-55.5 151.5zM190 236q0 -63 35 -98.5t97 -35.5q63 0 122 23.5t136 79.5q-15 79 -15 137q0 73 10 131q-207 -29 -296 -84t-89 -153zM739 524 q181 12 291.5 85.5t110.5 181.5q0 47 -31.5 79.5t-75.5 32.5q-96 0 -172 -97.5t-123 -281.5z" />
<glyph unicode="&#x4d6;" horiz-adv-x="1114" d="M-53 0v78l131 10l33 31l217 1136l-21 31l-131 10v78h954l-57 -299h-98v174l-23 31h-440l-98 -520h307l37 28l43 150h90l-86 -449h-76v148l-24 29h-310l-108 -572h518l37 33l69 207h95l-66 -334h-993zM492 1729q0 43 6 86h82q-2 -12 -2 -35q0 -31 8.5 -54t26 -36.5 t33 -21.5t41 -11t37.5 -3.5t34 -0.5q42 0 69.5 2.5t57 12t49 27t36.5 47.5t27 73h80q-30 -155 -110 -222q-79 -69 -226 -69q-139 0 -198 59q-51 51 -51 146z" />
<glyph unicode="&#x4d7;" horiz-adv-x="872" d="M41 350q0 85 24 175t70.5 172.5t109 148t147.5 104.5t177 39q94 0 151.5 -54.5t57.5 -143.5q0 -67 -32.5 -122t-86 -91.5t-128 -62.5t-150.5 -40t-162 -20q-6 -41 -6 -84q0 -74 18.5 -133t67 -100.5t121.5 -41.5q55 0 102.5 13t93 43t69 49.5t69.5 60.5v-94 q-186 -186 -396 -186q-74 0 -131.5 25t-91.5 63.5t-56 89.5t-30 97t-8 93zM229 524q96 4 186 35t153 91.5t63 137.5q0 52 -30.5 85.5t-76.5 33.5q-12 0 -24.5 -1.5t-36.5 -10t-45.5 -23t-49 -43t-51 -67.5t-47 -100.5t-41.5 -137.5zM293 1366q0 42 6 86h82q-2 -12 -2 -35 q0 -31 8.5 -54t26 -36.5t33 -21.5t41 -11t37.5 -3.5t34 -0.5q42 0 69.5 2.5t57.5 12t49.5 27t36.5 47.5t27 73h80q-30 -153 -111 -221q-80 -70 -225 -70q-139 0 -199 60q-51 51 -51 145z" />
<glyph unicode="&#x4d8;" horiz-adv-x="1261" d="M-29 543q0 87 17 170h987q8 70 8 127q0 223 -94 340q-97 120 -291 120q-136 0 -270 -55l-31 -31l-70 -200h-98l61 315q193 70 398 70q50 0 96 -4t108 -18.5t113.5 -38t104 -66.5t88.5 -100.5t59 -143.5t23 -192q0 -145 -43.5 -287.5t-122.5 -257.5q-109 -158 -257 -237 t-300 -79q-210 0 -344 150q-142 156 -142 418zM168 510q0 -59 6 -112t25 -115t50.5 -106t88 -73.5t131.5 -29.5q38 0 86.5 14t110.5 53t117 97t103.5 157.5t71.5 222.5h-782q-8 -62 -8 -108z" />
<glyph unicode="&#x4d9;" horiz-adv-x="872" d="M25 193q0 52 14.5 96t36.5 75t58.5 56t69 40.5t80 27t81 17t81.5 8t71 3t60 0.5h7q6 40 6 84q0 54 -11 101t-34.5 87t-65 63t-96.5 23t-102.5 -13t-92.5 -42t-69.5 -49t-69.5 -61v94q186 186 395 186q74 0 132 -25t92 -63.5t56 -89.5t30 -97t8 -93q0 -85 -24 -175 t-71 -172.5t-109.5 -148t-147.5 -104.5t-177 -39q-58 0 -101 20t-65 53t-32 67.5t-10 70.5zM172 195q0 -132 107 -132q33 0 71.5 20.5t80 62.5t80 120t62.5 180q-96 -4 -169 -22t-116 -42.5t-70 -57.5t-36.5 -64t-9.5 -65z" />
<glyph unicode="&#x4da;" horiz-adv-x="1261" d="M-29 543q0 87 17 170h987q8 70 8 127q0 223 -94 340q-97 120 -291 120q-136 0 -270 -55l-31 -31l-70 -200h-98l61 315q193 70 398 70q50 0 96 -4t108 -18.5t113.5 -38t104 -66.5t88.5 -100.5t59 -143.5t23 -192q0 -145 -43.5 -287.5t-122.5 -257.5q-109 -158 -257 -237 t-300 -79q-210 0 -344 150q-142 156 -142 418zM168 510q0 -59 6 -112t25 -115t50.5 -106t88 -73.5t131.5 -29.5q38 0 86.5 14t110.5 53t117 97t103.5 157.5t71.5 222.5h-782q-8 -62 -8 -108zM512 1675q0 41 30.5 72t71.5 31t72 -31t31 -72t-31 -71.5t-72 -30.5t-71.5 30.5 t-30.5 71.5zM897 1675q0 41 30.5 72t71.5 31t72 -31t31 -72t-31 -71.5t-72 -30.5t-71.5 30.5t-30.5 71.5z" />
<glyph unicode="&#x4db;" horiz-adv-x="872" d="M25 193q0 52 14.5 96t36.5 75t58.5 56t69 40.5t80 27t81 17t81.5 8t71 3t60 0.5h7q6 40 6 84q0 54 -11 101t-34.5 87t-65 63t-96.5 23t-102.5 -13t-92.5 -42t-69.5 -49t-69.5 -61v94q186 186 395 186q74 0 132 -25t92 -63.5t56 -89.5t30 -97t8 -93q0 -85 -24 -175 t-71 -172.5t-109.5 -148t-147.5 -104.5t-177 -39q-58 0 -101 20t-65 53t-32 67.5t-10 70.5zM172 195q0 -132 107 -132q33 0 71.5 20.5t80 62.5t80 120t62.5 180q-96 -4 -169 -22t-116 -42.5t-70 -57.5t-36.5 -64t-9.5 -65zM266 1315q0 41 31 71.5t72 30.5t71.5 -30.5 t30.5 -71.5t-30.5 -72t-71.5 -31t-72 31t-31 72zM651 1315q0 41 31 71.5t72 30.5t71.5 -30.5t30.5 -71.5t-30.5 -72t-71.5 -31t-72 31t-31 72z" />
<glyph unicode="&#x4dc;" horiz-adv-x="1855" d="M-102 0v78h12q154 0 248 162l149 260q56 95 131 145q73 51 178 64v4q-55 24 -90.5 71t-56.5 131l-51 205q-1 3 -4 16t-3.5 15.5t-3.5 13.5t-4 14l-4 12t-5 13t-5 12t-6 13.5t-7 13t-9 14.5l-140 -81q-30 9 -47.5 35.5t-17.5 60.5q0 63 42 91t95 28q39 0 66.5 -9 t57.5 -35.5t55 -80.5t46 -138l49 -194q48 -197 183 -197h71l99 518l-21 31l-131 10v78h500v-78l-135 -10l-33 -31l-98 -518h71q77 0 140.5 48.5t105.5 123.5l152 269q123 213 278 213q59 0 98 -25.5t39 -81.5q0 -43 -26.5 -71.5t-67.5 -36.5l-127 94q-43 -43 -94 -129 l-139 -246q-38 -68 -85.5 -116.5t-123.5 -69.5v-4q145 -49 203 -236l106 -350l49 -31l142 -10v-78h-369v70l-125 446q-41 139 -164 139h-80l-102 -536l24 -31l131 -10v-78h-499v78l131 10l33 31l102 536h-84q-134 0 -207 -129l-190 -344q-11 -20 -23.5 -38t-25 -32 t-25.5 -26.5t-24 -21.5t-21.5 -16.5t-17.5 -11.5t-13 -8l-6 -3q-70 -37 -172 -37q-42 0 -104 12zM809 1675q0 41 30.5 72t71.5 31t72 -31t31 -72t-31 -71.5t-72 -30.5t-71.5 30.5t-30.5 71.5zM1194 1675q0 41 30.5 72t71.5 31t72 -31t31 -72t-31 -71.5t-72 -30.5t-71.5 30.5 t-30.5 71.5z" />
<glyph unicode="&#x4dd;" horiz-adv-x="1765" d="M-20 123q0 42 32 76t88 34l80 -170q140 28 213 230q66 177 66 389q0 22 -1 37.5t-4 41t-10.5 43t-19.5 35t-32.5 26.5t-47.5 9q-111 0 -258 -147v94q3 3 25.5 23t30 25.5t30 24t34.5 25.5t35 21t41 20.5t42 14.5t48 11t50 3q92 0 138 -71.5t46 -186.5q0 -135 -45 -293h4 l277 361l41 172h147l-151 -660h4l317 410q52 95 119 162q106 106 233 106q75 0 119.5 -42.5t44.5 -98.5q0 -43 -29.5 -76.5t-80.5 -34.5l-80 170q-143 -29 -221 -229q-30 -75 -47 -175.5t-17 -185.5q0 -208 133 -208q34 0 111.5 37t136.5 92v-95q-62 -62 -162 -111.5 t-176 -49.5q-51 0 -89.5 26t-59.5 68.5t-31 88.5t-10 93q0 134 39 274h-5l-274 -360l-35 -172h-147l151 659h-4l-325 -417q-50 -89 -115 -154q-106 -106 -242 -106q-78 0 -117.5 45t-39.5 96zM713 1315q0 41 30.5 71.5t71.5 30.5t72 -30.5t31 -71.5t-31 -72t-72 -31 t-71.5 31t-30.5 72zM1098 1315q0 41 30.5 71.5t71.5 30.5t72 -30.5t31 -71.5t-31 -72t-72 -31t-71.5 31t-30.5 72z" />
<glyph unicode="&#x4de;" horiz-adv-x="1105" d="M-29 47l60 324h92v-211l18 -27q88 -59 205 -59q84 0 159.5 20.5t137.5 61t98.5 109t36.5 157.5q0 117 -80.5 180.5t-218.5 63.5q-71 0 -135 -17v111h78q48 0 95.5 7.5t103 29.5t97 57t69.5 96t28 140q0 36 -10 69.5t-33.5 67t-71 53.5t-114.5 20q-113 0 -217 -55l-31 -31 l-70 -200h-98l61 315q199 70 394 70q27 0 56 -2.5t68 -10t74 -20t70.5 -35t61 -51.5t41.5 -72.5t16 -95.5q0 -103 -52 -184.5t-131.5 -128.5t-177.5 -66v-4q143 0 233.5 -89t90.5 -218q0 -214 -178 -334q-83 -57 -204.5 -85t-248.5 -28q-192 0 -373 72zM434 1675q0 41 31 72 t72 31t71.5 -31t30.5 -72t-30.5 -71.5t-71.5 -30.5t-72 30.5t-31 71.5zM819 1675q0 41 31 72t72 31t71.5 -31t30.5 -72t-30.5 -71.5t-71.5 -30.5t-72 30.5t-31 71.5z" />
<glyph unicode="&#x4df;" horiz-adv-x="860" d="M-29 162q0 49 30 77.5t75 28.5t90 -39l-37 -102q60 -64 152 -64q76 0 132.5 24.5t85 62.5t41.5 75t13 72q0 31 -8.5 59t-28 55t-57.5 43.5t-90 16.5l-176 -20v102h124q123 0 200 61.5t77 143.5q0 67 -48.5 98t-107.5 31q-86 0 -176.5 -39t-159.5 -86v94q179 133 392 133 q272 0 272 -209q0 -94 -63.5 -157.5t-159.5 -96.5v-4q85 -15 133.5 -69.5t48.5 -135.5q0 -31 -6.5 -62t-23 -71.5t-50 -74.5t-81.5 -63.5t-125 -46.5t-173 -17q-83 0 -143.5 16.5t-92 44.5t-45.5 57.5t-14 61.5zM260 1315q0 41 30.5 71.5t71.5 30.5t72 -30.5t31 -71.5 t-31 -72t-72 -31t-71.5 31t-30.5 72zM645 1315q0 41 31 71.5t72 30.5t71.5 -30.5t30.5 -71.5t-30.5 -72t-71.5 -31t-72 31t-31 72z" />
<glyph unicode="&#x4e2;" horiz-adv-x="1474" d="M-53 0v78l131 10l33 31l217 1136l-21 31l-131 10v78h500v-78l-135 -10l-33 -31l-176 -923l848 882l8 41l-21 31l-131 10v78h500v-78l-135 -10l-33 -31l-217 -1136l25 -31l131 -10v-78h-500v78l131 10l33 31l180 944l-848 -883l-12 -61l24 -31l131 -10v-78h-499zM618 1612 l21 104h614l-20 -104h-615z" />
<glyph unicode="&#x4e3;" horiz-adv-x="1155" d="M70 868v54l323 69l33 -28l-129 -598q-23 -102 -23 -150q0 -60 34.5 -88.5t80.5 -28.5q73 0 141.5 33.5t153.5 97.5l156 742h164l-138 -631q-22 -102 -22 -145q0 -44 27.5 -73.5t70.5 -29.5q45 0 127 27v-62q-153 -75 -258 -75q-137 0 -137 139q0 23 2 33 q-78 -69 -179 -120.5t-194 -51.5q-86 0 -141.5 45.5t-55.5 146.5q0 37 17 125l119 541zM385 1260l18 104h617l-19 -104h-616z" />
<glyph unicode="&#x4e4;" horiz-adv-x="1474" d="M-53 0v78l131 10l33 31l217 1136l-21 31l-131 10v78h500v-78l-135 -10l-33 -31l-176 -923l848 882l8 41l-21 31l-131 10v78h500v-78l-135 -10l-33 -31l-217 -1136l25 -31l131 -10v-78h-500v78l131 10l33 31l180 944l-848 -883l-12 -61l24 -31l131 -10v-78h-499zM618 1675 q0 41 31 72t72 31t71.5 -31t30.5 -72t-30.5 -71.5t-71.5 -30.5t-72 30.5t-31 71.5zM1004 1675q0 41 30.5 72t71.5 31t71.5 -31t30.5 -72t-30.5 -71.5t-71.5 -30.5t-71.5 30.5t-30.5 71.5z" />
<glyph unicode="&#x4e5;" horiz-adv-x="1155" d="M70 868v54l323 69l33 -28l-129 -598q-23 -102 -23 -150q0 -60 34.5 -88.5t80.5 -28.5q73 0 141.5 33.5t153.5 97.5l156 742h164l-138 -631q-22 -102 -22 -145q0 -44 27.5 -73.5t70.5 -29.5q45 0 127 27v-62q-153 -75 -258 -75q-137 0 -137 139q0 23 2 33 q-78 -69 -179 -120.5t-194 -51.5q-86 0 -141.5 45.5t-55.5 146.5q0 37 17 125l119 541zM408 1315q0 41 30.5 71.5t71.5 30.5t71.5 -30.5t30.5 -71.5t-30.5 -72t-71.5 -31t-71.5 31t-30.5 72zM793 1315q0 41 30.5 71.5t71.5 30.5t71.5 -30.5t30.5 -71.5t-30.5 -72t-71.5 -31 t-71.5 31t-30.5 72z" />
<glyph unicode="&#x4e6;" horiz-adv-x="1449" d="M82 543q0 121 33 243.5t98.5 232t154.5 195t210 135.5t256 50q160 0 283.5 -78t187 -205t63.5 -280q0 -214 -92.5 -411.5t-257.5 -318.5q-179 -131 -393 -131q-111 0 -203 32.5t-154 87t-104.5 128t-62 154t-19.5 166.5zM279 528q0 -190 77 -309q51 -78 124.5 -111.5 t150.5 -33.5q228 0 385 243q71 111 113 250t42 281q0 220 -98.5 336t-255.5 116q-94 0 -193 -54.5t-180 -168.5q-82 -115 -123.5 -264t-41.5 -285zM606 1675q0 41 31 72t72 31t71.5 -31t30.5 -72t-30.5 -71.5t-71.5 -30.5t-72 30.5t-31 71.5zM991 1675q0 41 31 72t72 31 t71.5 -31t30.5 -72t-30.5 -71.5t-71.5 -30.5t-72 30.5t-31 71.5z" />
<glyph unicode="&#x4e7;" d="M41 375q0 115 40.5 232t115.5 206q78 91 174 133.5t192 42.5q157 0 248 -100q102 -110 102 -297q0 -119 -44.5 -240.5t-127.5 -210.5q-148 -159 -354 -159q-155 0 -252 106q-94 106 -94 287zM213 377q0 -88 20 -153.5t52 -98t64 -47.5t63 -15q55 0 114.5 33.5 t108.5 104.5q56 80 81 185.5t25 209.5q0 84 -14.5 144.5t-34.5 92t-50 49t-52 21.5t-49 4q-62 0 -127.5 -40.5t-116.5 -131.5q-84 -150 -84 -358zM342 1315q0 41 30.5 71.5t71.5 30.5t72 -30.5t31 -71.5t-31 -72t-72 -31t-71.5 31t-30.5 72zM727 1315q0 41 30.5 71.5 t71.5 30.5t72 -30.5t31 -71.5t-31 -72t-72 -31t-71.5 31t-30.5 72z" />
<glyph unicode="&#x4e8;" horiz-adv-x="1449" d="M82 543q0 121 33 243.5t98.5 232t154.5 195t210 135.5t256 50q160 0 283.5 -78t187 -205t63.5 -280q0 -214 -92.5 -411.5t-257.5 -318.5q-179 -131 -393 -131q-111 0 -203 32.5t-154 87t-104.5 128t-62 154t-19.5 166.5zM279 537q0 -199 77 -318q51 -78 124.5 -111.5 t150.5 -33.5q228 0 385 243q104 160 139 355h-866q-10 -68 -10 -135zM309 766h858q4 54 4 82q0 126 -38.5 226.5t-120 163t-195.5 62.5q-21 0 -44.5 -3t-66 -16t-82.5 -35t-89 -66t-91 -103q-100 -141 -135 -311z" />
<glyph unicode="&#x4e9;" d="M41 375q0 115 40.5 232t115.5 206q78 91 174 133.5t192 42.5q157 0 248 -100q102 -110 102 -297q0 -119 -44.5 -240.5t-127.5 -210.5q-148 -159 -354 -159q-155 0 -252 106q-94 106 -94 287zM213 377q0 -76 14.5 -134.5t35.5 -91.5t49.5 -54t52.5 -27.5t47 -6.5 q61 0 114 33t87.5 80.5t61.5 107t39.5 105t18.5 82.5h-514q-6 -46 -6 -94zM233 561h508v21q0 95 -17.5 162t-48 101t-63 48t-71.5 14q-38 0 -81 -18.5t-88 -57t-82.5 -108.5t-56.5 -162z" />
<glyph unicode="&#x4ea;" horiz-adv-x="1449" d="M82 543q0 121 33 243.5t98.5 232t154.5 195t210 135.5t256 50q160 0 283.5 -78t187 -205t63.5 -280q0 -214 -92.5 -411.5t-257.5 -318.5q-179 -131 -393 -131q-111 0 -203 32.5t-154 87t-104.5 128t-62 154t-19.5 166.5zM279 537q0 -199 77 -318q51 -78 124.5 -111.5 t150.5 -33.5q228 0 385 243q104 160 139 355h-866q-10 -68 -10 -135zM309 766h858q4 54 4 82q0 126 -38.5 226.5t-120 163t-195.5 62.5q-21 0 -44.5 -3t-66 -16t-82.5 -35t-89 -66t-91 -103q-100 -141 -135 -311zM606 1675q0 41 31 72t72 31t71.5 -31t30.5 -72t-30.5 -71.5 t-71.5 -30.5t-72 30.5t-31 71.5zM991 1675q0 41 31 72t72 31t71.5 -31t30.5 -72t-30.5 -71.5t-71.5 -30.5t-72 30.5t-31 71.5z" />
<glyph unicode="&#x4eb;" d="M41 375q0 115 40.5 232t115.5 206q78 91 174 133.5t192 42.5q157 0 248 -100q102 -110 102 -297q0 -119 -44.5 -240.5t-127.5 -210.5q-148 -159 -354 -159q-155 0 -252 106q-94 106 -94 287zM213 377q0 -76 14.5 -134.5t35.5 -91.5t49.5 -54t52.5 -27.5t47 -6.5 q61 0 114 33t87.5 80.5t61.5 107t39.5 105t18.5 82.5h-514q-6 -46 -6 -94zM233 561h508v21q0 95 -17.5 162t-48 101t-63 48t-71.5 14q-38 0 -81 -18.5t-88 -57t-82.5 -108.5t-56.5 -162zM342 1315q0 41 30.5 71.5t71.5 30.5t72 -30.5t31 -71.5t-31 -72t-72 -31t-71.5 31 t-30.5 72zM727 1315q0 41 30.5 71.5t71.5 30.5t72 -30.5t31 -71.5t-31 -72t-72 -31t-71.5 31t-30.5 72z" />
<glyph unicode="&#x4ee;" horiz-adv-x="1228" d="M41 25l59 303h95v-217l26 -29q28 -8 49 -8q87 0 166.5 77t136.5 187l-333 917l-21 31l-133 10v78h498v-78l-133 -10l-31 -31l266 -751l399 751l-20 31l-131 10v78h459v-78l-136 -10l-32 -31l-490 -874q-129 -229 -239 -318q-109 -88 -244 -88q-105 0 -211 50zM496 1612 l20 104h614l-20 -104h-614z" />
<glyph unicode="&#x4ef;" horiz-adv-x="970" d="M-231 -311q0 45 32 75.5t76 36.5l121 -120q59 11 108 39.5t92 79t76 102.5t76 131l-131 622q-31 148 -78 213l-174 13v53l201 59q8 2 27 2q80 0 120 -86q26 -60 84 -354l68 -346q157 401 321 778h39l162 -53v-43l-104 -62q-68 -87 -114.5 -170.5t-119.5 -242.5 q-128 -270 -186 -376q-226 -407 -448 -473q-44 -13 -89 -13q-72 0 -115.5 38.5t-43.5 96.5zM293 1260l18 104h617l-19 -104h-616z" />
<glyph unicode="&#x4f0;" horiz-adv-x="1228" d="M41 25l59 303h95v-217l26 -29q28 -8 49 -8q87 0 166.5 77t136.5 187l-333 917l-21 31l-133 10v78h498v-78l-133 -10l-31 -31l266 -751l399 751l-20 31l-131 10v78h459v-78l-136 -10l-32 -31l-490 -874q-129 -229 -239 -318q-109 -88 -244 -88q-105 0 -211 50zM496 1675 q0 41 30.5 72t71.5 31t71.5 -31t30.5 -72t-30.5 -71.5t-71.5 -30.5t-71.5 30.5t-30.5 71.5zM881 1675q0 41 30.5 72t71.5 31t71.5 -31t30.5 -72t-30.5 -71.5t-71.5 -30.5t-71.5 30.5t-30.5 71.5z" />
<glyph unicode="&#x4f1;" horiz-adv-x="970" d="M-231 -311q0 45 32 75.5t76 36.5l121 -120q59 11 108 39.5t92 79t76 102.5t76 131l-131 622q-31 148 -78 213l-174 13v53l201 59q8 2 27 2q80 0 120 -86q26 -60 84 -354l68 -346q157 401 321 778h39l162 -53v-43l-104 -62q-68 -87 -114.5 -170.5t-119.5 -242.5 q-128 -270 -186 -376q-226 -407 -448 -473q-44 -13 -89 -13q-72 0 -115.5 38.5t-43.5 96.5zM315 1315q0 41 31 71.5t72 30.5t71.5 -30.5t30.5 -71.5t-30.5 -72t-71.5 -31t-72 31t-31 72zM700 1315q0 41 31 71.5t72 30.5t71.5 -30.5t30.5 -71.5t-30.5 -72t-71.5 -31t-72 31 t-31 72z" />
<glyph unicode="&#x4f2;" horiz-adv-x="1228" d="M41 25l59 303h95v-217l26 -29q28 -8 49 -8q87 0 166.5 77t136.5 187l-333 917l-21 31l-133 10v78h498v-78l-133 -10l-31 -31l266 -751l399 751l-20 31l-131 10v78h459v-78l-136 -10l-32 -31l-490 -874q-129 -229 -239 -318q-109 -88 -244 -88q-105 0 -211 50zM594 1524 l278 311h189l-379 -311h-88zM811 1524l371 311h219l-494 -311h-96z" />
<glyph unicode="&#x4f3;" horiz-adv-x="970" d="M-231 -311q0 45 32 75.5t76 36.5l121 -120q59 11 108 39.5t92 79t76 102.5t76 131l-131 622q-31 148 -78 213l-174 13v53l201 59q8 2 27 2q80 0 120 -86q26 -60 84 -354l68 -346q157 401 321 778h39l162 -53v-43l-104 -62q-68 -87 -114.5 -170.5t-119.5 -242.5 q-128 -270 -186 -376q-226 -407 -448 -473q-44 -13 -89 -13q-72 0 -115.5 38.5t-43.5 96.5zM332 1118l278 389h189l-379 -389h-88zM549 1118l371 389h219l-494 -389h-96z" />
<glyph unicode="&#x4f4;" horiz-adv-x="1310" d="M119 1296v78h499v-78l-135 -10l-32 -31l-62 -317q-10 -62 -10 -88q0 -43 14.5 -75t35.5 -49.5t51 -28.5t55 -14t53 -3q165 0 334 47l102 528l-20 31l-132 10v78h500v-78l-135 -10l-33 -31l-217 -1136l25 -31l131 -10v-78h-500v78l131 10l33 31l98 510q-221 -47 -373 -47 q-200 0 -278 82q-59 59 -59 163q0 33 16 121l59 307l-20 31zM537 1675q0 41 30.5 72t71.5 31t71.5 -31t30.5 -72t-30.5 -71.5t-71.5 -30.5t-71.5 30.5t-30.5 71.5zM922 1675q0 41 30.5 72t71.5 31t71.5 -31t30.5 -72t-30.5 -71.5t-71.5 -30.5t-71.5 30.5t-30.5 71.5z" />
<glyph unicode="&#x4f5;" horiz-adv-x="1097" d="M41 868v54l324 69l32 -28l-57 -271q-23 -106 -23 -155q0 -61 33 -92t82 -31q114 0 256 102l94 455h164l-137 -629q-23 -106 -23 -149q0 -49 29 -75t70 -26q45 0 127 27v-62q-153 -75 -256 -75q-146 0 -146 129q0 41 17 116l47 213l-24 -21q-25 -21 -50.5 -38t-64.5 -38 t-89 -33.5t-102 -12.5q-95 0 -144.5 51.5t-49.5 147.5q0 45 18 137l45 207zM379 1315q0 41 30.5 71.5t71.5 30.5t72 -30.5t31 -71.5t-31 -72t-72 -31t-71.5 31t-30.5 72zM764 1315q0 41 30.5 71.5t71.5 30.5t72 -30.5t31 -71.5t-31 -72t-72 -31t-71.5 31t-30.5 72z" />
<glyph unicode="&#x4f8;" horiz-adv-x="1740" d="M-53 0v78l131 10l33 31l217 1136l-21 31l-131 10v78h500v-78l-135 -10l-33 -31l-90 -467q90 11 174 11q229 0 357 -92.5t128 -268.5q0 -78 -21 -142.5t-55 -109.5t-84.5 -78.5t-103 -53.5t-116.5 -32.5t-120 -17t-118 -4.5h-512zM287 94q46 -4 114 -4q262 0 379 103 q101 91 101 243q0 130 -76 201q-34 33 -81 49.5t-79.5 19.5t-83.5 3q-65 0 -162 -11zM752 1675q0 41 30.5 72t71.5 31t71.5 -31t30.5 -72t-30.5 -71.5t-71.5 -30.5t-71.5 30.5t-30.5 71.5zM1073 0v78l131 10l33 31l217 1136l-20 31l-131 10v78h499v-78l-135 -10l-33 -31 l-217 -1136l25 -31l131 -10v-78h-500zM1137 1675q0 41 30.5 72t71.5 31t71.5 -31t30.5 -72t-30.5 -71.5t-71.5 -30.5t-71.5 30.5t-30.5 71.5z" />
<glyph unicode="&#x4f9;" horiz-adv-x="1458" d="M70 868v54l323 69l33 -28l-98 -400q171 23 231 23q125 0 207 -67t82 -187q0 -64 -16.5 -116.5t-43.5 -88t-65.5 -62.5t-77 -42.5t-83 -25t-79.5 -12.5t-71 -3q-97 0 -161 15t-96.5 46.5t-44.5 69t-12 92.5q0 49 17 123l127 512zM254 211q0 -75 49.5 -111.5t116.5 -36.5 q256 0 256 256q0 49 -13.5 85t-32 54.5t-45 29.5t-45.5 13.5t-40 2.5q-25 0 -54 -3t-52 -8t-42.5 -9.5t-31.5 -7.5t-13 -3l-45 -182q-8 -27 -8 -80zM559 1315q0 41 31 71.5t72 30.5t71.5 -30.5t30.5 -71.5t-30.5 -72t-71.5 -31t-72 31t-31 72zM944 1315q0 41 31 71.5 t72 30.5t71.5 -30.5t30.5 -71.5t-30.5 -72t-71.5 -31t-72 31t-31 72zM971 111q0 36 16 116l156 744h164l-138 -629q-22 -100 -22 -147q0 -44 27.5 -73.5t70.5 -29.5q45 0 127 27v-62q-153 -75 -256 -75q-145 0 -145 129z" />
<glyph unicode="&#x2000;" horiz-adv-x="917" />
<glyph unicode="&#x2001;" horiz-adv-x="1835" />
<glyph unicode="&#x2002;" horiz-adv-x="917" />
<glyph unicode="&#x2003;" horiz-adv-x="1835" />
<glyph unicode="&#x2004;" horiz-adv-x="611" />
<glyph unicode="&#x2005;" horiz-adv-x="458" />
<glyph unicode="&#x2006;" horiz-adv-x="305" />
<glyph unicode="&#x2007;" horiz-adv-x="305" />
<glyph unicode="&#x2008;" horiz-adv-x="229" />
<glyph unicode="&#x2009;" horiz-adv-x="367" />
<glyph unicode="&#x200a;" horiz-adv-x="101" />
<glyph unicode="&#x2013;" d="M-49 430l24 125h1022l-22 -125h-1024z" />
<glyph unicode="&#x2014;" horiz-adv-x="2048" d="M-39 430l25 125h2044l-25 -125h-2044z" />
<glyph unicode="&#x2018;" horiz-adv-x="415" d="M141 1038q0 196 273 422h88q-230 -211 -230 -358v-4h131q15 -35 15 -56q0 -57 -43 -97t-105 -40q-58 0 -93.5 36.5t-35.5 96.5z" />
<glyph unicode="&#x2019;" horiz-adv-x="411" d="M104 905q120 110 175 196t55 163v4h-131q-15 29 -15 53q0 58 43 98.5t105 40.5q58 0 93.5 -36.5t35.5 -96.5q0 -98 -70 -207t-202 -215h-89z" />
<glyph unicode="&#x201a;" horiz-adv-x="411" d="M-133 -336q229 210 229 359v4h-131q-14 28 -14 53q0 58 42.5 98.5t104.5 40.5q58 0 93.5 -36.5t35.5 -96.5q0 -200 -272 -422h-88z" />
<glyph unicode="&#x201c;" horiz-adv-x="829" d="M141 1038q0 196 273 422h88q-230 -211 -230 -358v-4h131q15 -35 15 -56q0 -57 -43 -97t-105 -40q-58 0 -93.5 36.5t-35.5 96.5zM555 1038q0 197 272 422h88q-229 -210 -229 -354v-8h131q14 -28 14 -54q0 -57 -43 -98t-104 -41q-58 0 -93.5 36.5t-35.5 96.5z" />
<glyph unicode="&#x201d;" horiz-adv-x="827" d="M115 905q119 110 174 196t55 163v4h-131q-14 27 -14 53q0 58 42.5 98.5t104.5 40.5q58 0 93.5 -36.5t35.5 -96.5q0 -98 -70 -207t-202 -215h-88zM526 905q120 110 175 196t55 163v4h-131q-15 35 -15 55q0 56 44 96.5t104 40.5q58 0 93.5 -36.5t35.5 -96.5 q0 -99 -70.5 -207.5t-202.5 -214.5h-88z" />
<glyph unicode="&#x201e;" horiz-adv-x="827" d="M-127 -336q229 210 229 359v4h-131q-14 28 -14 53q0 58 42.5 98.5t104.5 40.5q58 0 93.5 -36.5t35.5 -96.5q0 -200 -272 -422h-88zM285 -336q229 210 229 359v4h-131q-14 28 -14 55q0 57 43 97t104 40q58 0 93.5 -36.5t35.5 -96.5q0 -203 -272 -422h-88z" />
<glyph unicode="&#x2026;" horiz-adv-x="2048" d="M102 113q0 56 37 92.5t94 36.5q54 0 91.5 -37.5t37.5 -91.5t-38.5 -92.5t-92.5 -38.5t-91.5 38.5t-37.5 92.5zM784 111q0 55 39 93t95 38q52 0 89 -38.5t37 -92.5t-37.5 -91.5t-91.5 -37.5t-92.5 37.5t-38.5 91.5zM1468 111q0 55 38 93t93 38q53 0 91.5 -38.5t38.5 -92.5 t-39 -91.5t-93 -37.5t-91.5 37.5t-37.5 91.5z" />
<glyph unicode="&#x202f;" horiz-adv-x="367" />
<glyph unicode="&#x2039;" horiz-adv-x="501" d="M27 410l30 163l389 273l-26 -135l-283 -219l199 -222l-27 -133z" />
<glyph unicode="&#x203a;" horiz-adv-x="501" d="M-12 137l24 133l283 222l-197 219l25 135l285 -273l-31 -163z" />
<glyph unicode="&#x205f;" horiz-adv-x="458" />
<glyph unicode="&#x20ac;" horiz-adv-x="1138" d="M-55 512l49 94h94q3 75 16 131h-159l49 94h133q36 125 101 226t138 163t157 104t156.5 58.5t137.5 16.5q179 0 369 -70l-58 -315h-86v196l-16 39q-102 51 -215 51q-45 0 -96 -13t-112.5 -46.5t-116 -84.5t-104 -135t-79.5 -190h641l-49 -94h-614q-15 -87 -17 -131h578 l-49 -94h-531v-18q0 -191 97.5 -305.5t261.5 -114.5q72 0 172 26l38 35l93 236h86l-56 -324q-225 -72 -401 -72q-222 0 -346 160q-58 74 -88.5 172t-30.5 195v10h-143z" />
<glyph unicode="&#x2122;" horiz-adv-x="1683" d="M242 1214v142h469v-142h-54l-12 82l-14 13h-107v-439l78 -8v-45h-250v43l80 8v441h-106l-17 -13l-12 -82h-55zM772 1309v47h209v-25l139 -368l142 366v27h204v-47l-65 -11v-428l65 -10v-43h-219v43l62 10v435l-189 -488h-45l-180 488v-435l63 -8v-45h-184v45l64 8v428z " />
<glyph unicode="&#xe000;" horiz-adv-x="993" d="M0 0v993h993v-993h-993z" />
</font>
</defs>
</svg>
